<svg xmlns="http://www.w3.org/2000/svg" xmlns:xlink="http://www.w3.org/1999/xlink" width="124.979" height="137.827" viewBox="0 0 124.979 137.827">
  <defs>
    <clipPath id="clip-path">
      <rect id="Rectángulo_403236" data-name="Rectángulo 403236" width="120.97" height="120.97" transform="translate(642.663 6975)" fill="#fff" stroke="#707070" stroke-width="1"/>
    </clipPath>
  </defs>
  <g id="Grupo_1102138" data-name="Grupo 1102138" transform="translate(-737.511 -3112.489)">
    <g id="Grupo_1101933" data-name="Grupo 1101933" transform="translate(97.525 -3862.511)">
      <path id="Trazado_877346" data-name="Trazado 877346" d="M61.489,136.37l-.433-.149A89.017,89.017,0,0,1,28,115.293,85.92,85.92,0,0,1,14.513,97.9,81.178,81.178,0,0,1,5.682,76.066,256.024,256.024,0,0,1,.714,50.084,186.828,186.828,0,0,1-.927,31.11,89.756,89.756,0,0,1-.372,15.42l.135-.825.8-.236c.074-.022,7.589-2.224,28.269-7.555C50.743,1.16,61.124-.947,61.226-.967l.263-.053.263.053c.1.021,10.483,2.127,32.388,7.771,20.684,5.332,28.2,7.534,28.273,7.555l.8.236.135.825a89.757,89.757,0,0,1,.555,15.69,186.829,186.829,0,0,1-1.641,18.973A256.03,256.03,0,0,1,117.3,76.066,81.178,81.178,0,0,1,108.464,97.9a85.921,85.921,0,0,1-13.489,17.39A89.017,89.017,0,0,1,61.922,136.22ZM2.144,16.672a100.193,100.193,0,0,0-.41,14.469c.3,9.183,1.676,24.323,6.531,44.3,7.733,31.81,33.4,51.133,53.223,58.117,19.826-6.984,45.49-26.308,53.223-58.118,4.856-19.975,6.232-35.115,6.531-44.3a100.189,100.189,0,0,0-.41-14.469c-2.444-.7-10.525-2.954-27.357-7.293C73.562,4.247,63.223,2.054,61.489,1.693c-1.735.36-12.074,2.554-31.991,7.685C12.669,13.717,4.587,15.976,2.144,16.672Z" transform="translate(640.986 6976.458)" fill="#072c6c"/>
      <path id="Trazado_877313" data-name="Trazado 877313" d="M57.152,0s9.527,1.92,30.2,7.247c19.532,5.035,26.38,7.049,26.38,7.049s3.221,19.733-5.638,56.179C100.943,99.9,77.489,118.8,57.152,125.807,36.816,118.8,13.361,99.9,6.209,70.475-2.651,34.029.571,14.3.571,14.3s6.848-2.014,26.377-7.049C47.625,1.92,57.152,0,57.152,0" transform="translate(645.322 6981.204)" fill="#74abf9"/>
      <g id="Enmascarar_grupo_1098797" data-name="Enmascarar grupo 1098797" clip-path="url(#clip-path)">
        <g id="informe" transform="translate(642.427 6974.763)">
          <g id="Grupo_1101952" data-name="Grupo 1101952">
            <g id="Grupo_1101948" data-name="Grupo 1101948">
              <path id="Trazado_877486" data-name="Trazado 877486" d="M103.777,119.309H17.668a4.19,4.19,0,0,1-4.181-4.181V25.546a4.039,4.039,0,0,1,1.225-2.957L33.94,3.359A4.039,4.039,0,0,1,36.9,2.135h66.879a4.19,4.19,0,0,1,4.181,4.181V115.128a4.19,4.19,0,0,1-4.181,4.181Z" fill="#eff4f7" fill-rule="evenodd"/>
              <path id="Trazado_877487" data-name="Trazado 877487" d="M33.941,3.359,14.711,22.589a4.192,4.192,0,0,0-.862,1.225H31.39a3.783,3.783,0,0,0,3.775-3.775V2.5A4.187,4.187,0,0,0,33.941,3.359Z" fill="#e2e3e3" fill-rule="evenodd"/>
            </g>
            <g id="Grupo_1101950" data-name="Grupo 1101950">
              <path id="Trazado_877488" data-name="Trazado 877488" d="M30.114,82.754H57.7a1.7,1.7,0,0,1,1.69,1.69v23.4a1.7,1.7,0,0,1-1.69,1.69H30.114a1.7,1.7,0,0,1-1.69-1.69v-23.4A1.7,1.7,0,0,1,30.114,82.754Z" fill="#da8c36" fill-rule="evenodd"/>
              <g id="Grupo_1101949" data-name="Grupo 1101949">
                <path id="Trazado_877489" data-name="Trazado 877489" d="M34.3,100.252h5.825a.808.808,0,0,1,.805.805v2.6a.808.808,0,0,1-.805.805H34.3a.808.808,0,0,1-.805-.805v-2.6A.808.808,0,0,1,34.3,100.252Z" fill="#b06328" fill-rule="evenodd"/>
                <path id="Trazado_877490" data-name="Trazado 877490" d="M38.9,82.754H48.912v6.631a.746.746,0,0,1-1.22.577l-3.313-2.716a.741.741,0,0,0-.947,0L40.12,89.962a.746.746,0,0,1-1.22-.577Z" fill="#b06328" fill-rule="evenodd"/>
              </g>
            </g>
            <g id="Grupo_1101951" data-name="Grupo 1101951">
              <path id="Trazado_877491" data-name="Trazado 877491" d="M29.273,51.447H37.93a.85.85,0,0,1,.848.848V68.633a.85.85,0,0,1-.848.848H29.273a.85.85,0,0,1-.848-.848V52.295a.85.85,0,0,1,.848-.848Z" fill="#fc685b" fill-rule="evenodd"/>
              <path id="Trazado_877492" data-name="Trazado 877492" d="M47.353,31.46H56.01a.85.85,0,0,1,.848.848V68.633a.85.85,0,0,1-.848.848H47.353a.85.85,0,0,1-.848-.848V32.308A.85.85,0,0,1,47.353,31.46Z" fill="#72d561" fill-rule="evenodd"/>
              <path id="Trazado_877493" data-name="Trazado 877493" d="M65.434,40.055h8.657a.85.85,0,0,1,.848.848v27.73a.85.85,0,0,1-.848.848H65.434a.85.85,0,0,1-.848-.848V40.9a.85.85,0,0,1,.848-.848Z" fill="#ffda2d" fill-rule="evenodd"/>
              <path id="Trazado_877494" data-name="Trazado 877494" d="M83.515,23.362h8.657a.85.85,0,0,1,.848.848V68.633a.85.85,0,0,1-.848.848H83.515a.85.85,0,0,1-.848-.848V24.21a.85.85,0,0,1,.848-.848Z" fill="#64b5f6" fill-rule="evenodd"/>
            </g>
          </g>
          <path id="Trazado_877495" data-name="Trazado 877495" d="M94.921,105.336a1.9,1.9,0,0,1-1.9,1.9H68.542a1.9,1.9,0,1,1,0-3.8H93.019A1.9,1.9,0,0,1,94.921,105.336Zm0-18.392a1.9,1.9,0,0,1-1.9,1.9H68.542a1.9,1.9,0,1,1,0-3.8H93.019A1.9,1.9,0,0,1,94.921,86.944Zm0,9.2a1.9,1.9,0,0,1-1.9,1.9H68.542a1.9,1.9,0,1,1,0-3.795H93.019A1.9,1.9,0,0,1,94.921,96.14ZM39.03,102.56H35.394v-.908H39.03v.908Zm1.9-4.7H33.492a1.889,1.889,0,0,0-1.891,1.9v4.7a1.889,1.889,0,0,0,1.891,1.9h7.439a1.889,1.889,0,0,0,1.891-1.9v-4.7A1.889,1.889,0,0,0,40.932,97.857Zm16.557,9.773V84.651H50.81v4.733a2.627,2.627,0,0,1-1.51,2.391,2.689,2.689,0,0,1-1.141.257,2.615,2.615,0,0,1-1.667-.6l-2.584-2.118-2.584,2.118a2.642,2.642,0,0,1-4.318-2.045V84.651H30.327V107.63ZM40.8,84.651h6.22v2.3l-1.432-1.175a2.657,2.657,0,0,0-3.356,0L40.8,86.952Zm16.9-3.795H30.114a3.593,3.593,0,0,0-3.591,3.587v23.4a3.593,3.593,0,0,0,3.591,3.587H57.7a3.583,3.583,0,0,0,3.58-3.587v-23.4a3.583,3.583,0,0,0-3.58-3.587ZM32.094,37.864l18.09-23.508a1.9,1.9,0,0,1,2.562-.42L69.582,25.22,83.745,12.14l-2.83-.134a1.9,1.9,0,1,1,.168-3.79l7.63.359a1.91,1.91,0,0,1,1.4.714,1.947,1.947,0,0,1,.38,1.52l-1.365,7.508a1.9,1.9,0,0,1-3.737-.678l.4-2.227L71.048,29.024a1.889,1.889,0,0,1-2.338.182L52.108,18.08l-17,22.1a1.873,1.873,0,0,1-1.5.742,1.9,1.9,0,0,1-1.51-3.055Zm59.035,29.72V25.258H84.562V67.584h6.567Zm1.89-46.12H82.671a1.9,1.9,0,0,0-1.9,1.9V69.482a1.9,1.9,0,0,0,1.9,1.9H93.019a1.9,1.9,0,0,0,1.9-1.9V23.361a1.9,1.9,0,0,0-1.9-1.9ZM30.327,53.344h6.556v14.24H30.327Zm-1.9,18.036H38.784a1.9,1.9,0,0,0,1.891-1.9V51.446a1.9,1.9,0,0,0-1.891-1.9H28.425a1.9,1.9,0,0,0-1.9,1.9V69.482a1.9,1.9,0,0,0,1.9,1.9Zm26.536-3.8V33.357H48.4V67.584ZM46.5,29.562a1.9,1.9,0,0,0-1.891,1.9V69.482a1.9,1.9,0,0,0,1.891,1.9H56.862a1.9,1.9,0,0,0,1.891-1.9V31.459a1.9,1.9,0,0,0-1.891-1.9ZM73.039,67.584H66.484V41.952h6.556Zm3.8,1.9V40.054a1.9,1.9,0,0,0-1.9-1.9H64.582a1.9,1.9,0,0,0-1.891,1.9V69.482a1.9,1.9,0,0,0,1.891,1.9H74.941A1.9,1.9,0,0,0,76.843,69.482Zm29.221,45.646V6.315a2.289,2.289,0,0,0-2.282-2.283H37.061V20.038a5.676,5.676,0,0,1-5.672,5.673H15.38v89.417a2.291,2.291,0,0,0,2.293,2.283h86.107a2.289,2.289,0,0,0,2.282-2.283ZM33.269,6.715l-15.2,15.2H31.39a1.878,1.878,0,0,0,1.879-1.877ZM103.781.237H36.893a5.956,5.956,0,0,0-4.3,1.78L13.367,21.247a5.964,5.964,0,0,0-1.779,4.3v89.582a6.089,6.089,0,0,0,6.086,6.079h86.107a6.087,6.087,0,0,0,6.075-6.079V6.315A6.085,6.085,0,0,0,103.781.237Z" fill-rule="evenodd"/>
        </g>
      </g>
    </g>
  </g>
</svg>
