<svg xmlns="http://www.w3.org/2000/svg" xmlns:xlink="http://www.w3.org/1999/xlink" width="107" height="107" viewBox="0 0 107 107">
  <defs>
    <clipPath id="clip-path">
      <rect id="Rectángulo_47325" data-name="Rectángulo 47325" width="58.558" height="62.745" fill="#fff"/>
    </clipPath>
  </defs>
  <g id="Grupo_1102142" data-name="Grupo 1102142" transform="translate(-285.711 -3953.101)">
    <g id="Grupo_156312" data-name="Grupo 156312" transform="translate(-2.957 -495.336)">
      <path id="Elipse_5845" data-name="Elipse 5845" d="M53.5,0A53.5,53.5,0,1,1,0,53.5,53.5,53.5,0,0,1,53.5,0Z" transform="translate(288.668 4448.437)" fill="#0d4ab5"/>
    </g>
    <g id="Grupo_1098917" data-name="Grupo 1098917" transform="translate(-100.816 -2066.113)">
      <path id="Trazado_873216" data-name="Trazado 873216" d="M0,0H63.184V63.186H0Z" transform="translate(408.527 6040.213)" fill="none"/>
      <g id="Grupo_156261" data-name="Grupo 156261" transform="translate(411.017 6040.56)">
        <rect id="Rectángulo_47312" data-name="Rectángulo 47312" width="8.362" height="4.181" transform="translate(5.248 19.885)" fill="#fff"/>
        <path id="Trazado_198297" data-name="Trazado 198297" d="M10.008,59.838h8.357l-4.181,5.226Z" transform="translate(-4.758 -28.448)" fill="#fff"/>
        <g id="Grupo_156260" data-name="Grupo 156260" transform="translate(0 0)">
          <g id="Grupo_156259" data-name="Grupo 156259" clip-path="url(#clip-path)">
            <path id="Trazado_198298" data-name="Trazado 198298" d="M25.947,72.183A8.357,8.357,0,1,0,34.3,63.826a8.357,8.357,0,0,0-8.357,8.357m8.36,6.272a6.234,6.234,0,0,1-3.044-.792l3.548-4.434h5.675a6.275,6.275,0,0,1-6.179,5.224Zm6.182-7.318H35.354V66.006a6.281,6.281,0,0,1,5.133,5.132Zm-7.223-5.132v5.81l-3.628,4.535A6.257,6.257,0,0,1,33.266,66" transform="translate(-12.336 -30.344)" fill="#fff"/>
            <rect id="Rectángulo_47313" data-name="Rectángulo 47313" width="2.091" height="2.091" transform="translate(13.611 52.289)" fill="#fff"/>
            <rect id="Rectángulo_47314" data-name="Rectángulo 47314" width="12.544" height="2.091" transform="translate(17.793 52.289)" fill="#fff"/>
            <rect id="Rectángulo_47315" data-name="Rectángulo 47315" width="16.725" height="2.091" transform="translate(13.611 56.471)" fill="#fff"/>
            <rect id="Rectángulo_47316" data-name="Rectángulo 47316" width="2.091" height="2.091" transform="translate(36.607 52.289)" fill="#fff"/>
            <rect id="Rectángulo_47317" data-name="Rectángulo 47317" width="12.544" height="2.091" transform="translate(40.789 52.289)" fill="#fff"/>
            <rect id="Rectángulo_47318" data-name="Rectángulo 47318" width="16.725" height="2.091" transform="translate(36.607 56.471)" fill="#fff"/>
            <rect id="Rectángulo_47319" data-name="Rectángulo 47319" width="2.091" height="2.091" transform="translate(38.698 10.475)" fill="#fff"/>
            <rect id="Rectángulo_47320" data-name="Rectángulo 47320" width="10.453" height="2.091" transform="translate(42.88 10.475)" fill="#fff"/>
            <rect id="Rectángulo_47321" data-name="Rectángulo 47321" width="14.634" height="2.091" transform="translate(38.698 14.657)" fill="#fff"/>
            <rect id="Rectángulo_47322" data-name="Rectángulo 47322" width="2.091" height="2.091" transform="translate(38.698 21.974)" fill="#fff"/>
            <rect id="Rectángulo_47323" data-name="Rectángulo 47323" width="10.453" height="2.091" transform="translate(42.88 21.974)" fill="#fff"/>
            <rect id="Rectángulo_47324" data-name="Rectángulo 47324" width="14.634" height="2.091" transform="translate(38.698 26.156)" fill="#fff"/>
            <path id="Trazado_198299" data-name="Trazado 198299" d="M72.826,80.545H85.371A1.045,1.045,0,0,0,86.416,79.5V71.142A1.045,1.045,0,0,0,85.371,70.1H82.234V64.871a1.045,1.045,0,0,0-1.045-1.046H77.008a1.045,1.045,0,0,0-1.046,1.046V68H72.827a1.045,1.045,0,0,0-1.045,1.046V79.507a1.045,1.045,0,0,0,1.044,1.04m11.5-2.085H82.234V72.187h2.091Zm-6.27-12.546h2.091V78.461H78.055ZM73.874,70.1h2.09v8.357H73.873Z" transform="translate(-34.127 -30.344)" fill="#fff"/>
            <path id="Trazado_198300" data-name="Trazado 198300" d="M42.936,26.345H55.479A1.045,1.045,0,0,0,56.524,25.3V19.027a1.045,1.045,0,0,0-1.045-1.045H42.936a1.045,1.045,0,0,0-1.046,1.045V25.3a1.045,1.045,0,0,0,1.044,1.046Zm1.045-6.273H54.438v4.183H43.981Z" transform="translate(-19.916 -8.549)" fill="#fff"/>
            <path id="Trazado_198301" data-name="Trazado 198301" d="M42.936,48.269H55.479a1.045,1.045,0,0,0,1.045-1.045V40.953a1.045,1.045,0,0,0-1.045-1.046H42.936a1.045,1.045,0,0,0-1.046,1.046v6.271a1.045,1.045,0,0,0,1.046,1.045M43.981,42H54.438v4.181H43.981Z" transform="translate(-19.916 -18.972)" fill="#fff"/>
            <path id="Trazado_198302" data-name="Trazado 198302" d="M4.2,17.252V31.386a1.047,1.047,0,0,0,.229.654l3.951,4.942V61.7a1.046,1.046,0,0,0,1.046,1.045H57.515A1.045,1.045,0,0,0,58.56,61.7V5.254a1.045,1.045,0,0,0-1.045-1.046H17.252A9.408,9.408,0,1,0,4.2,17.252m8.358,5.776H6.3V20.934h6.266ZM9.432,34.944,7.425,32.433h4.017ZM6.3,25.118H8.387v5.227H6.3Zm6.273,5.227H10.478V25.118h2.091ZM56.472,6.3V60.658H10.478V36.982l3.951-4.94a1.047,1.047,0,0,0,.229-.653V17.252A9.353,9.353,0,0,0,18.291,6.3ZM9.433,2.117A7.318,7.318,0,0,1,13.1,15.765a1.045,1.045,0,0,0-.524.9v2.176h-2.1V13.007l2.83-2.832L11.831,8.7l-2.4,2.4-2.4-2.4L5.557,10.173,8.387,13v5.838H6.3V16.668a1.043,1.043,0,0,0-.523-.9A7.318,7.318,0,0,1,9.438,2.116Z" transform="translate(-0.002 -0.002)" fill="#fff"/>
          </g>
        </g>
      </g>
    </g>
  </g>
</svg>
