<svg xmlns="http://www.w3.org/2000/svg" xmlns:xlink="http://www.w3.org/1999/xlink" width="93.038" height="103.152" viewBox="0 0 93.038 103.152">
  <defs>
    <clipPath id="clip-path">
      <rect id="Rectángulo_403236" data-name="Rectángulo 403236" width="91" height="91" transform="translate(642 6975)" fill="#fff" stroke="#707070" stroke-width="1"/>
    </clipPath>
  </defs>
  <g id="Grupo_1102150" data-name="Grupo 1102150" transform="translate(-911.199 -5037.5)">
    <g id="Grupo_1102147" data-name="Grupo 1102147">
      <g id="Grupo_1101856" data-name="Grupo 1101856" transform="translate(270.725 -1937.5)">
        <path id="Trazado_877346" data-name="Trazado 877346" d="M46.007,0s7.669,1.546,24.312,5.834c15.723,4.053,21.236,5.674,21.236,5.674s2.593,15.885-4.539,45.224c-5.758,23.684-24.638,38.9-41.009,44.542C29.636,95.631,10.756,80.416,5,56.732-2.134,27.393.459,11.508.459,11.508S5.972,9.887,21.692,5.834C38.338,1.546,46.007,0,46.007,0" transform="translate(640.986 6976.349)" fill="none" stroke="#072c6c" stroke-width="1"/>
        <path id="Trazado_877313" data-name="Trazado 877313" d="M42.993,0s7.167,1.444,22.719,5.452c14.693,3.787,19.844,5.3,19.844,5.3S87.979,25.6,81.315,53.015C75.934,75.147,58.291,89.366,42.993,94.639,27.694,89.366,10.051,75.147,4.67,53.015-1.994,25.6.429,10.754.429,10.754s5.151-1.515,19.842-5.3C35.826,1.444,42.993,0,42.993,0" transform="translate(644 6979.667)" fill="#f7b956"/>
        <g id="Enmascarar_grupo_1098815" data-name="Enmascarar grupo 1098815" clip-path="url(#clip-path)">
          <g id="Layer_1" transform="translate(640.916 6973.916)">
            <g id="Grupo_1102074" data-name="Grupo 1102074">
              <path id="Trazado_877950" data-name="Trazado 877950" d="M87.533,8.388H5.636A3.639,3.639,0,0,0,2,12.028v51.7a3.64,3.64,0,0,0,3.639,3.64h81.9a3.64,3.64,0,0,0,3.639-3.64v-51.7a3.639,3.639,0,0,0-3.639-3.639Z" fill="#72c2e9"/>
              <path id="Trazado_877951" data-name="Trazado 877951" d="M22.882-.922h47.4v77.6h-47.4Z" transform="translate(84.463 -8.706) rotate(90)" fill="#efefef"/>
              <path id="Trazado_877952" data-name="Trazado 877952" d="M55.581,78.776H37.588L40.8,67.37H52.371Z" fill="#72c2e9"/>
              <path id="Trazado_877953" data-name="Trazado 877953" d="M53.31,70.707H39.859L40.8,67.37H52.371Z" fill="#4ba5c8"/>
              <path id="Trazado_877954" data-name="Trazado 877954" d="M63.963,82.415v2.366H29.206V82.415a3.641,3.641,0,0,1,3.639-3.639H60.323A3.641,3.641,0,0,1,63.963,82.415Z" fill="#72c2e9"/>
              <path id="Trazado_877955" data-name="Trazado 877955" d="M30.407,25.823H20.974l0-2.73a1.664,1.664,0,0,1,1.664-1.662h4.868a3.662,3.662,0,0,0,1.7-.416l2.033-1.062a5.141,5.141,0,0,1-.828,5.87Z" fill="#7c7b7a"/>
              <path id="Trazado_877956" data-name="Trazado 877956" d="M25.69,34.013A4.716,4.716,0,0,1,20.974,29.3V25.823h9.432V29.3A4.716,4.716,0,0,1,25.69,34.013Z" fill="#ffb69f"/>
              <path id="Trazado_877957" data-name="Trazado 877957" d="M34.756,39.508v5.787H16.483V39.508a5.5,5.5,0,0,1,5.5-5.5h7.283A5.5,5.5,0,0,1,34.756,39.508Z" fill="#fc5d3d"/>
              <path id="Trazado_877958" data-name="Trazado 877958" d="M71.657,25.763,59.581,37.879,53.063,22.062a17.115,17.115,0,0,1,18.594,3.7Z" fill="#fc5d3d"/>
              <path id="Trazado_877959" data-name="Trazado 877959" d="M76.319,34.334,59.581,37.879,71.657,25.763a17.085,17.085,0,0,1,4.662,8.571Z" fill="#72c2e9"/>
              <path id="Trazado_877960" data-name="Trazado 877960" d="M66.882,53.35l-7.3-15.471,16.738-3.545A17.114,17.114,0,0,1,66.882,53.35Z" fill="#f0c020"/>
              <path id="Trazado_877961" data-name="Trazado 877961" d="M59.581,37.879,52.073,53.248a17.107,17.107,0,0,1,.99-31.186Z" fill="#7d7b79"/>
              <path id="Trazado_877962" data-name="Trazado 877962" d="M66.882,53.35a17.115,17.115,0,0,1-14.809-.1l7.508-15.369Z" fill="#13bf6d"/>
              <g id="Grupo_1102072" data-name="Grupo 1102072">
                <path id="Trazado_877963" data-name="Trazado 877963" d="M82.11,59.415H17.057a.91.91,0,0,1,0-1.82H81.2V17.651a.91.91,0,1,1,1.82,0V58.505A.91.91,0,0,1,82.11,59.415Zm-68.692,0H11.059a.91.91,0,0,1,0-1.82h2.358a.91.91,0,0,1,0,1.82Z" fill="#fff"/>
              </g>
              <circle id="Elipse_11670" data-name="Elipse 11670" cx="0.91" cy="0.91" r="0.91" transform="translate(6.875 27.823)"/>
              <path id="Trazado_877964" data-name="Trazado 877964" d="M91.175,44.354a.91.91,0,1,0,.906.913A.913.913,0,0,0,91.175,44.354Z"/>
              <circle id="Elipse_11671" data-name="Elipse 11671" cx="0.91" cy="0.91" r="0.91" transform="translate(36.303 83.87)"/>
              <g id="Grupo_1102073" data-name="Grupo 1102073">
                <path id="Trazado_877965" data-name="Trazado 877965" d="M6.875,61.583a.906.906,0,0,0,.91.906h77.6a.907.907,0,0,0,.91-.906V14.176a.907.907,0,0,0-.91-.91H7.785a.908.908,0,0,0-.91.91V25.094a.91.91,0,1,0,1.82,0V15.085h75.78V60.673H8.695v-28.3a.91.91,0,1,0-1.82,0Z"/>
                <path id="Trazado_877966" data-name="Trazado 877966" d="M1.084,63.73a4.558,4.558,0,0,0,4.549,4.549H39.6l-2.7,9.586H32.846A4.558,4.558,0,0,0,28.3,82.415V84.78a.911.911,0,0,0,.91.91h4.367a.91.91,0,1,0,0-1.82H30.116V82.415a2.74,2.74,0,0,1,2.73-2.73H60.323a2.74,2.74,0,0,1,2.73,2.73V83.87h-22.2a.91.91,0,1,0,0,1.82h23.11a.907.907,0,0,0,.91-.91V82.415a4.558,4.558,0,0,0-4.549-4.549H56.27l-2.7-9.586H87.535a4.552,4.552,0,0,0,4.546-4.549V48.9a.908.908,0,0,0-1.816,0V63.73a2.742,2.742,0,0,1-2.73,2.73H5.633A2.743,2.743,0,0,1,2.9,63.73v-51.7A2.74,2.74,0,0,1,5.633,9.3h81.9a2.74,2.74,0,0,1,2.73,2.73v29.6a.91.91,0,1,0,1.82,0,0,0,0,0,0,0,0V12.028a4.552,4.552,0,0,0-4.546-4.549H5.633a4.556,4.556,0,0,0-4.549,4.549ZM38.79,77.865l2.7-9.586h10.2l2.7,9.586Z"/>
                <path id="Trazado_877967" data-name="Trazado 877967" d="M15.573,39.508v5.787a.91.91,0,1,0,1.82,0V39.508a4.591,4.591,0,0,1,4.586-4.585h7.283a4.591,4.591,0,0,1,4.586,4.585v5.787a.91.91,0,1,0,1.82,0V39.508A6.41,6.41,0,0,0,29.8,33.13,5.6,5.6,0,0,0,31.316,29.3V26.16a6.036,6.036,0,0,0,.733-6.613.91.91,0,0,0-1.234-.4L28.781,20.21a2.758,2.758,0,0,1-1.274.313H22.641a2.574,2.574,0,0,0-2.573,2.569c0,3.076,0,1.464,0,6.2a5.6,5.6,0,0,0,1.513,3.826,6.408,6.408,0,0,0-6.005,6.385ZM21.884,29.3V26.735H29.5V29.3a3.806,3.806,0,1,1-7.611,0Zm.757-6.955h4.866a6.369,6.369,0,0,0,3.246-1.11,4.229,4.229,0,0,1-.763,3.681H21.884l0-1.818a.755.755,0,0,1,.753-.753Z"/>
                <path id="Trazado_877968" data-name="Trazado 877968" d="M34.756,48.906H16.483a.91.91,0,0,0,0,1.82H34.756a.91.91,0,0,0,0-1.82Z"/>
                <path id="Trazado_877969" data-name="Trazado 877969" d="M34.756,53.092H16.483a.908.908,0,1,0,0,1.816H34.756a.908.908,0,1,0,0-1.816Z"/>
              </g>
              <path id="Trazado_877970" data-name="Trazado 877970" d="M59.581,55.894a17.821,17.821,0,0,0,7.688-1.721h0a18.075,18.075,0,0,0,9.939-20.025v0A18.017,18.017,0,1,0,59.581,55.894Zm12.06-28.826a16.122,16.122,0,0,1,3.575,6.57L62.385,36.355l9.256-9.287ZM53.3,52.809,59.567,39.98l6.093,12.913A16.236,16.236,0,0,1,53.3,52.809Zm14.005-.695-6.41-13.584,14.7-3.112A16.256,16.256,0,0,1,67.305,52.115ZM59.581,21.683a16.082,16.082,0,0,1,10.771,4.1L59.9,36.269,54.26,22.579A16.1,16.1,0,0,1,59.581,21.683Zm-16.2,16.2a16.144,16.144,0,0,1,9.192-14.605l6.006,14.574L51.666,52.008a16.082,16.082,0,0,1-8.28-14.13Z"/>
            </g>
          </g>
        </g>
      </g>
    </g>
  </g>
</svg>
