<svg xmlns="http://www.w3.org/2000/svg" xmlns:xlink="http://www.w3.org/1999/xlink" width="93.038" height="103.152" viewBox="0 0 93.038 103.152">
  <defs>
    <clipPath id="clip-path">
      <rect id="Rectángulo_403236" data-name="Rectángulo 403236" width="91" height="91" transform="translate(642 6975)" fill="#fff" stroke="#707070" stroke-width="1"/>
    </clipPath>
    <clipPath id="clip-path-2">
      <path id="path1115" d="M0-91H91V0H0Z"/>
    </clipPath>
  </defs>
  <g id="Grupo_1102143" data-name="Grupo 1102143" transform="translate(-639.199 -5944)">
    <g id="Grupo_1101831" data-name="Grupo 1101831" transform="translate(-1.275 -1031)">
      <path id="Trazado_877346" data-name="Trazado 877346" d="M46.007,0s7.669,1.546,24.312,5.834c15.723,4.053,21.236,5.674,21.236,5.674s2.593,15.885-4.539,45.224c-5.758,23.684-24.638,38.9-41.009,44.542C29.636,95.631,10.756,80.416,5,56.732-2.134,27.393.459,11.508.459,11.508S5.972,9.887,21.692,5.834C38.338,1.546,46.007,0,46.007,0" transform="translate(640.986 6976.349)" fill="none" stroke="#593d09" stroke-width="1"/>
      <path id="Trazado_877313" data-name="Trazado 877313" d="M42.993,0s7.167,1.444,22.719,5.452c14.693,3.787,19.844,5.3,19.844,5.3S87.979,25.6,81.315,53.015C75.934,75.147,58.291,89.366,42.993,94.639,27.694,89.366,10.051,75.147,4.67,53.015-1.994,25.6.429,10.754.429,10.754s5.151-1.515,19.842-5.3C35.826,1.444,42.993,0,42.993,0" transform="translate(644 6979.667)" fill="#ffaf1a"/>
      <g id="Enmascarar_grupo_1098817" data-name="Enmascarar grupo 1098817" clip-path="url(#clip-path)">
        <g id="g1107" transform="translate(642 7066)">
          <path id="path1109" d="M23.928-1.777H2.841V-21.5H23.928Z" fill="#d1aee4"/>
          <g id="g1111">
            <g id="g1113" clip-path="url(#clip-path-2)">
              <path id="path1119" d="M23.928-1.777H2.841V-21.5H23.928Z" fill="none" stroke="#000" stroke-linecap="round" stroke-linejoin="round" stroke-miterlimit="10" stroke-width="3.555"/>
            </g>
          </g>
          <path id="path1121" d="M52.581-1.777H31.494v-36.4H52.581Z" fill="#fff3a0"/>
          <g id="g1123">
            <g id="g1125" clip-path="url(#clip-path-2)">
              <path id="path1131" d="M52.581-1.777H31.494v-36.4H52.581Z" fill="none" stroke="#000" stroke-linecap="round" stroke-linejoin="round" stroke-miterlimit="10" stroke-width="3.555"/>
              <g id="g1133" transform="translate(60.146 -84.659)">
                <path id="path1135" d="M0,0V31.1" fill="none" stroke="#000" stroke-linecap="round" stroke-linejoin="round" stroke-miterlimit="10" stroke-width="3.555"/>
              </g>
            </g>
          </g>
          <path id="path1137" d="M76.909-73.674H60.147V-89.223H76.909Z" fill="#ff7d97"/>
          <g id="g1139">
            <g id="g1141" clip-path="url(#clip-path-2)">
              <path id="path1147" d="M76.909-73.674H60.147V-89.223H76.909Z" fill="none" stroke="#000" stroke-linecap="round" stroke-linejoin="round" stroke-miterlimit="10" stroke-width="3.555"/>
            </g>
          </g>
          <g id="g1149" transform="translate(88.159 -81.448)">
            <path id="path1151" d="M0,0H-11.25V7.774H-20.1v7.774H0L-2.935,7.774Z" fill="#ff7d97"/>
          </g>
          <g id="g1153">
            <g id="g1155" clip-path="url(#clip-path-2)">
              <g id="g1161" transform="translate(88.159 -81.448)">
                <path id="path1163" d="M0,0H-11.25V7.774H-20.1v7.774H0L-2.935,7.774Z" fill="none" stroke="#000" stroke-linecap="round" stroke-linejoin="round" stroke-miterlimit="10" stroke-width="3.555"/>
              </g>
            </g>
          </g>
          <g id="g1165" transform="translate(81.234 -20.281)">
            <path id="path1167" d="M0,0V18.5H-21.087V-34.573H0v18.5" fill="#ccf5fc"/>
          </g>
          <g id="g1169">
            <g id="g1171" clip-path="url(#clip-path-2)">
              <g id="g1177" transform="translate(81.234 -20.281)">
                <path id="path1179" d="M0,0V18.5H-21.087V-34.573H0v18.5" fill="none" stroke="#000" stroke-linecap="round" stroke-linejoin="round" stroke-miterlimit="10" stroke-width="3.555"/>
              </g>
            </g>
          </g>
          <g id="g1181" transform="translate(81.234 -28.349)">
            <path id="path1183" d="M0,0H0" fill="none" stroke="#000" stroke-linecap="round" stroke-linejoin="round" stroke-miterlimit="10" stroke-width="3.555"/>
          </g>
        </g>
      </g>
    </g>
  </g>
</svg>
