<svg xmlns="http://www.w3.org/2000/svg" xmlns:xlink="http://www.w3.org/1999/xlink" width="93.038" height="103.152" viewBox="0 0 93.038 103.152">
  <defs>
    <clipPath id="clip-path">
      <rect id="Rectángulo_403236" data-name="Rectángulo 403236" width="91" height="91" transform="translate(642 6975)" fill="#fff" stroke="#707070" stroke-width="1"/>
    </clipPath>
  </defs>
  <g id="Grupo_1102144" data-name="Grupo 1102144" transform="translate(-908.199 -5944)">
    <g id="Grupo_1102075" data-name="Grupo 1102075" transform="translate(267.725 -1031)">
      <path id="Trazado_877346" data-name="Trazado 877346" d="M46.007,0s7.669,1.546,24.312,5.834c15.723,4.053,21.236,5.674,21.236,5.674s2.593,15.885-4.539,45.224c-5.758,23.684-24.638,38.9-41.009,44.542C29.636,95.631,10.756,80.416,5,56.732-2.134,27.393.459,11.508.459,11.508S5.972,9.887,21.692,5.834C38.338,1.546,46.007,0,46.007,0" transform="translate(640.986 6976.349)" fill="none" stroke="#593d09" stroke-width="1"/>
      <path id="Trazado_877313" data-name="Trazado 877313" d="M42.993,0s7.167,1.444,22.719,5.452c14.693,3.787,19.844,5.3,19.844,5.3S87.979,25.6,81.315,53.015C75.934,75.147,58.291,89.366,42.993,94.639,27.694,89.366,10.051,75.147,4.67,53.015-1.994,25.6.429,10.754.429,10.754s5.151-1.515,19.842-5.3C35.826,1.444,42.993,0,42.993,0" transform="translate(644 6979.667)" fill="#ffaf1a"/>
      <g id="Enmascarar_grupo_1098818" data-name="Enmascarar grupo 1098818" clip-path="url(#clip-path)">
        <g id="lista-de-verificacion" transform="translate(642 6975)">
          <g id="Grupo_1102079" data-name="Grupo 1102079">
            <path id="Trazado_877971" data-name="Trazado 877971" d="M71.444,89.667H11.118a2.873,2.873,0,0,1-2.873-2.873V4.206a2.873,2.873,0,0,1,2.873-2.873H71.444a2.873,2.873,0,0,1,2.873,2.873V86.794a2.873,2.873,0,0,1-2.873,2.873Z" fill="#ecf4ff"/>
          </g>
          <g id="Grupo_1102080" data-name="Grupo 1102080">
            <path id="Trazado_877972" data-name="Trazado 877972" d="M71.444,1.333H67.853a2.873,2.873,0,0,1,2.873,2.873V86.794a2.873,2.873,0,0,1-2.873,2.873h3.591a2.873,2.873,0,0,0,2.873-2.873V4.206a2.873,2.873,0,0,0-2.873-2.873Z" fill="#ddeafb"/>
          </g>
          <g id="Grupo_1102099" data-name="Grupo 1102099">
            <g id="Grupo_1102086" data-name="Grupo 1102086">
              <g id="Grupo_1102085" data-name="Grupo 1102085">
                <g id="Grupo_1102084" data-name="Grupo 1102084">
                  <g id="Grupo_1102083" data-name="Grupo 1102083">
                    <g id="Grupo_1102081" data-name="Grupo 1102081">
                      <path id="Trazado_877973" data-name="Trazado 877973" d="M30.637,30.778H17.812a2.565,2.565,0,0,1-2.565-2.565V15.388a2.565,2.565,0,0,1,2.565-2.565H30.637A2.565,2.565,0,0,1,33.2,15.388V28.213a2.565,2.565,0,0,1-2.565,2.565Z" fill="#b3e59f"/>
                    </g>
                    <g id="Grupo_1102082" data-name="Grupo 1102082">
                      <path id="Trazado_877974" data-name="Trazado 877974" d="M30.852,12.835q.041.534.041,1.079A14.043,14.043,0,0,1,16.85,27.956a14.2,14.2,0,0,1-1.6-.092v.348a2.565,2.565,0,0,0,2.565,2.565H30.637A2.565,2.565,0,0,0,33.2,28.213V15.388a2.564,2.564,0,0,0-2.349-2.554Z" fill="#95d6a4"/>
                    </g>
                  </g>
                </g>
              </g>
            </g>
            <g id="Grupo_1102092" data-name="Grupo 1102092">
              <g id="Grupo_1102091" data-name="Grupo 1102091">
                <g id="Grupo_1102090" data-name="Grupo 1102090">
                  <g id="Grupo_1102089" data-name="Grupo 1102089">
                    <g id="Grupo_1102087" data-name="Grupo 1102087">
                      <path id="Trazado_877975" data-name="Trazado 877975" d="M30.637,54.477H17.812a2.565,2.565,0,0,1-2.565-2.565V39.088a2.565,2.565,0,0,1,2.565-2.565H30.637A2.565,2.565,0,0,1,33.2,39.088V51.912A2.565,2.565,0,0,1,30.637,54.477Z" fill="#b3e59f"/>
                    </g>
                    <g id="Grupo_1102088" data-name="Grupo 1102088">
                      <path id="Trazado_877976" data-name="Trazado 877976" d="M30.852,36.534q.041.534.041,1.079A14.043,14.043,0,0,1,15.247,51.564v.348a2.565,2.565,0,0,0,2.565,2.565H30.637A2.565,2.565,0,0,0,33.2,51.912V39.088a2.564,2.564,0,0,0-2.349-2.554Z" fill="#95d6a4"/>
                    </g>
                  </g>
                </g>
              </g>
            </g>
            <g id="Grupo_1102098" data-name="Grupo 1102098">
              <g id="Grupo_1102097" data-name="Grupo 1102097">
                <g id="Grupo_1102096" data-name="Grupo 1102096">
                  <g id="Grupo_1102095" data-name="Grupo 1102095">
                    <g id="Grupo_1102093" data-name="Grupo 1102093">
                      <path id="Trazado_877977" data-name="Trazado 877977" d="M30.637,78.176H17.812a2.565,2.565,0,0,1-2.565-2.565V62.787a2.565,2.565,0,0,1,2.565-2.565H30.637A2.565,2.565,0,0,1,33.2,62.787V75.612A2.565,2.565,0,0,1,30.637,78.176Z" fill="#b3e59f"/>
                    </g>
                    <g id="Grupo_1102094" data-name="Grupo 1102094">
                      <path id="Trazado_877978" data-name="Trazado 877978" d="M30.852,60.233q.041.534.041,1.079A14.043,14.043,0,0,1,15.247,75.263v.348a2.565,2.565,0,0,0,2.565,2.565H30.637A2.565,2.565,0,0,0,33.2,75.612V62.787a2.564,2.564,0,0,0-2.349-2.554Z" fill="#95d6a4"/>
                    </g>
                  </g>
                </g>
              </g>
            </g>
          </g>
          <g id="Grupo_1102104" data-name="Grupo 1102104">
            <g id="Grupo_1102100" data-name="Grupo 1102100">
              <path id="Trazado_877979" data-name="Trazado 877979" d="M57.51,88.208l-3.36,1.459-.416-3.639a7.182,7.182,0,0,1,.916-4.407L76.535,43.713,82.755,47.3,60.869,85.212a7.182,7.182,0,0,1-3.359,3Z" fill="#4a80aa"/>
            </g>
            <g id="Grupo_1102101" data-name="Grupo 1102101">
              <path id="Trazado_877980" data-name="Trazado 877980" d="M79.956,45.688,58.07,83.6a7.181,7.181,0,0,1-3.359,3l-.869.378.309,2.7,3.36-1.459a7.182,7.182,0,0,0,3.359-3L82.755,47.3Z" fill="#407093"/>
            </g>
            <g id="Grupo_1102102" data-name="Grupo 1102102">
              <path id="Trazado_877981" data-name="Trazado 877981" d="M72.1,50h5.745v7.182H72.1Z" transform="translate(-8.925 91.729) rotate(-59.999)" fill="#ffe07d"/>
            </g>
            <g id="Grupo_1102103" data-name="Grupo 1102103">
              <path id="Trazado_877982" data-name="Trazado 877982" d="M73.813,52.965h5.745V56.2H73.813Z" transform="translate(-8.925 93.704) rotate(-59.999)" fill="#ffd064"/>
            </g>
          </g>
          <g id="Grupo_1102105" data-name="Grupo 1102105">
            <path id="Trazado_877983" data-name="Trazado 877983" d="M8.245,73.289a1.333,1.333,0,0,0,1.333-1.333V4.205a1.541,1.541,0,0,1,1.539-1.539H71.444a1.541,1.541,0,0,1,1.539,1.539V18.331a1.333,1.333,0,0,0,2.666,0V4.205A4.21,4.21,0,0,0,71.444,0H11.117A4.21,4.21,0,0,0,6.912,4.205V71.956a1.333,1.333,0,0,0,1.333,1.333Z"/>
            <path id="Trazado_877984" data-name="Trazado 877984" d="M34.535,15.388a3.9,3.9,0,0,0-3.9-3.9H17.812a3.9,3.9,0,0,0-3.9,3.9V28.213a3.9,3.9,0,0,0,3.9,3.9H30.637a3.9,3.9,0,0,0,3.9-3.9ZM31.868,28.213a1.233,1.233,0,0,1-1.232,1.232H17.812a1.233,1.233,0,0,1-1.232-1.232V15.388a1.233,1.233,0,0,1,1.232-1.232H30.637a1.233,1.233,0,0,1,1.232,1.232Z"/>
            <path id="Trazado_877985" data-name="Trazado 877985" d="M26.873,18.584,23.267,22.19l-1.332-1.332a1.333,1.333,0,1,0-1.885,1.885l2.274,2.274a1.333,1.333,0,0,0,1.885,0l4.548-4.548a1.333,1.333,0,0,0-1.885-1.885Z"/>
            <path id="Trazado_877986" data-name="Trazado 877986" d="M41.46,22.775H62.467a1.333,1.333,0,0,0,0-2.666H41.46a1.333,1.333,0,0,0,0,2.666Z"/>
            <path id="Trazado_877987" data-name="Trazado 877987" d="M67.314,14.363H54.567a1.333,1.333,0,0,0,0,2.666H67.314a1.333,1.333,0,1,0,0-2.666Z"/>
            <path id="Trazado_877988" data-name="Trazado 877988" d="M41.46,17.029h6.823a1.333,1.333,0,1,0,0-2.666H41.46a1.333,1.333,0,0,0,0,2.666Z"/>
            <path id="Trazado_877989" data-name="Trazado 877989" d="M49.54,25.854a1.333,1.333,0,0,0,0,2.666h7a1.333,1.333,0,0,0,0-2.666Z"/>
            <path id="Trazado_877990" data-name="Trazado 877990" d="M41.46,28.52h1.8a1.333,1.333,0,0,0,0-2.666h-1.8a1.333,1.333,0,0,0,0,2.666Z"/>
            <path id="Trazado_877991" data-name="Trazado 877991" d="M34.535,39.088a3.9,3.9,0,0,0-3.9-3.9H17.812a3.9,3.9,0,0,0-3.9,3.9V51.912a3.9,3.9,0,0,0,3.9,3.9H30.637a3.9,3.9,0,0,0,3.9-3.9ZM31.868,51.912a1.233,1.233,0,0,1-1.232,1.232H17.812a1.233,1.233,0,0,1-1.232-1.232V39.088a1.233,1.233,0,0,1,1.232-1.232H30.637a1.233,1.233,0,0,1,1.232,1.232Z"/>
            <path id="Trazado_877992" data-name="Trazado 877992" d="M26.873,42.283l-3.606,3.606-1.332-1.332a1.333,1.333,0,0,0-1.885,1.885l2.274,2.274a1.333,1.333,0,0,0,1.885,0l4.548-4.548a1.333,1.333,0,0,0-1.885-1.885Z"/>
            <path id="Trazado_877993" data-name="Trazado 877993" d="M63.8,45.141a1.333,1.333,0,0,0-1.333-1.333H41.46a1.333,1.333,0,0,0,0,2.666H62.467A1.333,1.333,0,0,0,63.8,45.141Z"/>
            <path id="Trazado_877994" data-name="Trazado 877994" d="M68.647,39.4a1.333,1.333,0,0,0-1.333-1.333H54.567a1.333,1.333,0,0,0,0,2.666H67.314A1.333,1.333,0,0,0,68.647,39.4Z"/>
            <path id="Trazado_877995" data-name="Trazado 877995" d="M41.46,40.729h6.823a1.333,1.333,0,0,0,0-2.666H41.46a1.333,1.333,0,0,0,0,2.666Z"/>
            <path id="Trazado_877996" data-name="Trazado 877996" d="M57.875,50.886a1.333,1.333,0,0,0-1.333-1.333h-7a1.333,1.333,0,0,0,0,2.666h7A1.333,1.333,0,0,0,57.875,50.886Z"/>
            <path id="Trazado_877997" data-name="Trazado 877997" d="M41.46,52.219h1.8a1.333,1.333,0,0,0,0-2.666h-1.8a1.333,1.333,0,0,0,0,2.666Z"/>
            <path id="Trazado_877998" data-name="Trazado 877998" d="M30.637,58.889H17.812a3.9,3.9,0,0,0-3.9,3.9V75.612a3.9,3.9,0,0,0,3.9,3.9H30.637a3.9,3.9,0,0,0,3.9-3.9V62.787A3.9,3.9,0,0,0,30.637,58.889Zm1.232,16.722a1.233,1.233,0,0,1-1.232,1.232H17.812a1.233,1.233,0,0,1-1.232-1.232V62.787a1.233,1.233,0,0,1,1.232-1.232H30.637a1.233,1.233,0,0,1,1.232,1.232Z"/>
            <path id="Trazado_877999" data-name="Trazado 877999" d="M26.873,65.982l-3.606,3.606-1.332-1.332a1.333,1.333,0,0,0-1.885,1.885l2.274,2.274a1.333,1.333,0,0,0,1.885,0l4.548-4.548a1.333,1.333,0,0,0-1.885-1.885Z"/>
            <path id="Trazado_878000" data-name="Trazado 878000" d="M41.46,64.428h6.823a1.333,1.333,0,0,0,0-2.666H41.46a1.333,1.333,0,1,0,0,2.666Z"/>
            <path id="Trazado_878001" data-name="Trazado 878001" d="M43.256,75.919a1.333,1.333,0,0,0,0-2.666h-1.8a1.333,1.333,0,0,0,0,2.666Z"/>
            <path id="Trazado_878002" data-name="Trazado 878002" d="M84.042,46.959a1.333,1.333,0,0,0-.621-.809L77.2,42.559a1.333,1.333,0,0,0-1.553.16V24.552a1.333,1.333,0,0,0-2.666,0V47.2L64.576,61.763H54.566a1.333,1.333,0,0,0,0,2.666h8.471L61.26,67.507H41.46a1.333,1.333,0,0,0,0,2.666H59.72l-1.778,3.079h-8.4a1.333,1.333,0,0,0,0,2.666H56.4L53.5,80.954A8.449,8.449,0,0,0,52.41,86.18l.246,2.154H11.117a1.541,1.541,0,0,1-1.539-1.539V78.176a1.333,1.333,0,0,0-2.666,0v8.618A4.21,4.21,0,0,0,11.117,91H71.444a4.21,4.21,0,0,0,4.205-4.205V62.278l8.26-14.308a1.332,1.332,0,0,0,.133-1.011Zm-7.88,9.1L72.252,53.8l1.54-2.667L77.7,53.39ZM72.983,86.795a1.541,1.541,0,0,1-1.539,1.539H59.879a8.552,8.552,0,0,0,2.144-2.456l5.215-9.031a1.333,1.333,0,1,0-2.309-1.333l-5.215,9.031a5.892,5.892,0,0,1-2.736,2.44l-1.708.742-.212-1.851a5.8,5.8,0,0,1,.745-3.589l15.115-26.18,3.91,2.258-6.79,11.762a1.333,1.333,0,0,0,2.309,1.333L72.983,66.9v19.9Zm6.052-35.714-3.91-2.257,1.9-3.289,3.91,2.257Z"/>
          </g>
        </g>
      </g>
    </g>
  </g>
</svg>
