<svg xmlns="http://www.w3.org/2000/svg" xmlns:xlink="http://www.w3.org/1999/xlink" width="93.038" height="103.152" viewBox="0 0 93.038 103.152">
  <defs>
    <clipPath id="clip-path">
      <rect id="Rectángulo_403236" data-name="Rectángulo 403236" width="91" height="91" transform="translate(642 6975)" fill="#fff" stroke="#707070" stroke-width="1"/>
    </clipPath>
    <clipPath id="clip-path-2">
      <path id="path1122" d="M0-91H91V0H0Z"/>
    </clipPath>
  </defs>
  <g id="Grupo_1102145" data-name="Grupo 1102145" transform="translate(-1177.192 -5944)">
    <g id="Grupo_1102076" data-name="Grupo 1102076" transform="translate(536.718 -1031)">
      <path id="Trazado_877346" data-name="Trazado 877346" d="M46.007,0s7.669,1.546,24.312,5.834c15.723,4.053,21.236,5.674,21.236,5.674s2.593,15.885-4.539,45.224c-5.758,23.684-24.638,38.9-41.009,44.542C29.636,95.631,10.756,80.416,5,56.732-2.134,27.393.459,11.508.459,11.508S5.972,9.887,21.692,5.834C38.338,1.546,46.007,0,46.007,0" transform="translate(640.986 6976.349)" fill="none" stroke="#593d09" stroke-width="1"/>
      <path id="Trazado_877313" data-name="Trazado 877313" d="M42.993,0s7.167,1.444,22.719,5.452c14.693,3.787,19.844,5.3,19.844,5.3S87.979,25.6,81.315,53.015C75.934,75.147,58.291,89.366,42.993,94.639,27.694,89.366,10.051,75.147,4.67,53.015-1.994,25.6.429,10.754.429,10.754s5.151-1.515,19.842-5.3C35.826,1.444,42.993,0,42.993,0" transform="translate(644 6979.667)" fill="#ffaf1a"/>
      <g id="Enmascarar_grupo_1098819" data-name="Enmascarar grupo 1098819" clip-path="url(#clip-path)">
        <g id="g1116" transform="translate(642 7066)">
          <g id="g1118">
            <g id="g1120" clip-path="url(#clip-path-2)">
              <g id="g1126" transform="translate(83.864 -5.116)">
                <path id="path1128" d="M0,0H-76.728V-43.749a4.108,4.108,0,0,1,4.108-4.108H-4.108A4.108,4.108,0,0,1,0-43.749Z" fill="#d9deed"/>
              </g>
              <path id="path1130" d="M12.771-47.325H78.23v34.784H12.771Z" fill="#0d4ab5"/>
              <g id="g1132" transform="translate(85.906 -1.333)">
                <path id="path1134" d="M0,0H-80.812a3.761,3.761,0,0,1-3.761-3.761v-1.8H3.761v1.8A3.761,3.761,0,0,1,0,0" fill="#bec6da"/>
              </g>
              <g id="g1136" transform="translate(66.259 -19.572)">
                <path id="path1138" d="M0,0H-41.518a3.745,3.745,0,0,1-3.745-3.745V-39.24a3.745,3.745,0,0,1,3.745-3.745H0A3.745,3.745,0,0,1,3.745-39.24V-3.745A3.745,3.745,0,0,1,0,0" fill="#f7fafa"/>
              </g>
              <g id="g1140" transform="translate(66.259 -62.557)">
                <path id="path1142" d="M0,0H-7.109A3.745,3.745,0,0,1-3.364,3.745V39.24a3.745,3.745,0,0,1-3.745,3.745H0A3.745,3.745,0,0,0,3.745,39.24V3.745A3.745,3.745,0,0,0,0,0" fill="#edf0f0"/>
              </g>
              <g id="g1144" transform="translate(20.996 -55.339)">
                <path id="path1146" d="M0,0H49.008V-3.609a3.6,3.6,0,0,0-3.6-3.609H3.6A3.6,3.6,0,0,0,0-3.609Z" fill="#fee438"/>
              </g>
              <g id="g1148" transform="translate(66.661 -89.667)">
                <path id="path1150" d="M0,0A18.492,18.492,0,0,0-18.493,18.49a18.429,18.429,0,0,0,5.54,13.193v6.8l6.2-2.777A18.441,18.441,0,0,0,0,36.981,18.49,18.49,0,1,0,0,0" fill="#b5f4ff"/>
              </g>
              <g id="g1152" transform="translate(66.661 -89.667)">
                <path id="path1154" d="M0,0A18.574,18.574,0,0,0-3.555.343,18.5,18.5,0,0,1,11.384,18.49,18.5,18.5,0,0,1-3.549,36.637,18.473,18.473,0,0,0,0,36.981,18.49,18.49,0,1,0,0,0" fill="#96efff"/>
              </g>
              <g id="g1156" transform="translate(69.204 -70.68)">
                <path id="path1158" d="M0,0A2.544,2.544,0,0,0-2.544-2.544,2.544,2.544,0,0,0-5.087,0c0,1.4.1,6.66.1,8.065A2.544,2.544,0,0,0-2.44,10.609h-.1A2.544,2.544,0,0,0,0,8.065Z" fill="#f7fafa"/>
              </g>
              <g id="g1160" transform="translate(69.101 -79.346)">
                <path id="path1162" d="M0,0A2.441,2.441,0,0,1-2.44,2.441,2.441,2.441,0,0,1-4.881,0,2.441,2.441,0,0,1-2.44-2.441,2.441,2.441,0,0,1,0,0" fill="#f7fafa"/>
              </g>
              <g id="g1164" transform="translate(71.103 -52.973)">
                <path id="path1166" d="M0,0H8.653a4.108,4.108,0,0,1,4.108,4.108V46.08H-63.967V4.108A4.108,4.108,0,0,1-59.859,0h9.752" fill="none" stroke="#060606" stroke-linecap="round" stroke-linejoin="round" stroke-miterlimit="10" stroke-width="2.666"/>
              </g>
              <g id="g1168" transform="translate(71.103 -47.325)">
                <path id="path1170" d="M0,0H7.127V34.784H-58.333V0h8.226" fill="none" stroke="#060606" stroke-linecap="round" stroke-linejoin="round" stroke-miterlimit="10" stroke-width="2.666"/>
              </g>
              <g id="g1172" transform="translate(18.83 -1.333)">
                <path id="path1174" d="M0,0H67.076a3.761,3.761,0,0,0,3.761-3.761v-1.8H-17.5v1.8A3.761,3.761,0,0,0-13.737,0h6.993" fill="none" stroke="#060606" stroke-linecap="round" stroke-linejoin="round" stroke-miterlimit="10" stroke-width="2.666"/>
              </g>
              <g id="g1176" transform="translate(70.004 -52.609)">
                <path id="path1178" d="M0,0V29.292a3.745,3.745,0,0,1-3.745,3.745H-45.263a3.745,3.745,0,0,1-3.745-3.745V-6.2a3.745,3.745,0,0,1,3.745-3.745H-19.7" fill="none" stroke="#060606" stroke-linecap="round" stroke-linejoin="round" stroke-miterlimit="10" stroke-width="2.666"/>
              </g>
              <g id="g1180" transform="translate(50.299 -62.557)">
                <path id="path1182" d="M0,0H-25.7a3.6,3.6,0,0,0-3.6,3.609V7.218H3" fill="none" stroke="#060606" stroke-linecap="round" stroke-linejoin="round" stroke-miterlimit="10" stroke-width="2.666"/>
              </g>
              <g id="g1184" transform="translate(30.528 -45.685)">
                <path id="path1186" d="M0,0H29.523" fill="none" stroke="#060606" stroke-linecap="round" stroke-linejoin="round" stroke-miterlimit="10" stroke-width="2.666"/>
              </g>
              <g id="g1188" transform="translate(52.844 -37.604)">
                <path id="path1190" d="M0,0H7.207" fill="none" stroke="#060606" stroke-linecap="round" stroke-linejoin="round" stroke-miterlimit="10" stroke-width="2.666"/>
              </g>
              <g id="g1192" transform="translate(30.528 -37.604)">
                <path id="path1194" d="M0,0H15.127" fill="none" stroke="#060606" stroke-linecap="round" stroke-linejoin="round" stroke-miterlimit="10" stroke-width="2.666"/>
              </g>
              <g id="g1196" transform="translate(30.528 -29.524)">
                <path id="path1198" d="M0,0H29.523" fill="none" stroke="#060606" stroke-linecap="round" stroke-linejoin="round" stroke-miterlimit="10" stroke-width="2.666"/>
              </g>
              <g id="g1200" transform="translate(80.145 -83.83)">
                <path id="path1202" d="M0,0A18.442,18.442,0,0,0-13.484-5.838a18.492,18.492,0,0,0-18.493,18.49,18.43,18.43,0,0,0,5.54,13.193v6.8l6.2-2.777a18.436,18.436,0,0,0,6.752,1.277A18.492,18.492,0,0,0,5.009,12.653,18.438,18.438,0,0,0,3.762,5.967" fill="none" stroke="#060606" stroke-linecap="round" stroke-linejoin="round" stroke-miterlimit="10" stroke-width="2.666"/>
              </g>
              <g id="g1204" transform="translate(69.204 -70.68)">
                <path id="path1206" d="M0,0A2.544,2.544,0,0,0-2.544-2.544,2.544,2.544,0,0,0-5.087,0c0,1.4.1,6.66.1,8.065A2.544,2.544,0,0,0-2.44,10.609h-.1A2.544,2.544,0,0,0,0,8.065Z" fill="none" stroke="#060606" stroke-linecap="round" stroke-linejoin="round" stroke-miterlimit="10" stroke-width="2.666"/>
              </g>
              <g id="g1208" transform="translate(69.101 -79.346)">
                <path id="path1210" d="M0,0A2.441,2.441,0,0,1-2.44,2.441,2.441,2.441,0,0,1-4.881,0,2.441,2.441,0,0,1-2.44-2.441,2.441,2.441,0,0,1,0,0Z" fill="none" stroke="#060606" stroke-linecap="round" stroke-linejoin="round" stroke-miterlimit="10" stroke-width="2.666"/>
              </g>
            </g>
          </g>
        </g>
      </g>
    </g>
  </g>
</svg>
