<svg xmlns="http://www.w3.org/2000/svg" xmlns:xlink="http://www.w3.org/1999/xlink" width="93.038" height="103.152" viewBox="0 0 93.038 103.152">
  <defs>
    <clipPath id="clip-path">
      <rect id="Rectángulo_403236" data-name="Rectángulo 403236" width="91" height="91" transform="translate(642 6975)" fill="#fff" stroke="#707070" stroke-width="1"/>
    </clipPath>
  </defs>
  <g id="Grupo_1102146" data-name="Grupo 1102146" transform="translate(2248.511 5756)">
    <g id="Grupo_1102077" data-name="Grupo 1102077" transform="translate(-2888.986 -12731)">
      <path id="Trazado_877346" data-name="Trazado 877346" d="M46.007,0s7.669,1.546,24.312,5.834c15.723,4.053,21.236,5.674,21.236,5.674s2.593,15.885-4.539,45.224c-5.758,23.684-24.638,38.9-41.009,44.542C29.636,95.631,10.756,80.416,5,56.732-2.134,27.393.459,11.508.459,11.508S5.972,9.887,21.692,5.834C38.338,1.546,46.007,0,46.007,0" transform="translate(640.986 6976.349)" fill="none" stroke="#593d09" stroke-width="1"/>
      <path id="Trazado_877313" data-name="Trazado 877313" d="M42.993,0s7.167,1.444,22.719,5.452c14.693,3.787,19.844,5.3,19.844,5.3S87.979,25.6,81.315,53.015C75.934,75.147,58.291,89.366,42.993,94.639,27.694,89.366,10.051,75.147,4.67,53.015-1.994,25.6.429,10.754.429,10.754s5.151-1.515,19.842-5.3C35.826,1.444,42.993,0,42.993,0" transform="translate(644 6979.667)" fill="#ffaf1a"/>
      <g id="Enmascarar_grupo_1098820" data-name="Enmascarar grupo 1098820" clip-path="url(#clip-path)">
        <g id="informacion_3_" data-name="informacion (3)" transform="translate(642 6975)">
          <g id="Grupo_1102107" data-name="Grupo 1102107">
            <g id="Grupo_1102106" data-name="Grupo 1102106">
              <path id="Trazado_878003" data-name="Trazado 878003" d="M16.821,89.656H74.179a3.985,3.985,0,0,0,3.985-3.985V5.329a3.985,3.985,0,0,0-3.985-3.985H33.92a6.546,6.546,0,0,0-4.628,1.917L14.754,16.8a6.545,6.545,0,0,0-1.917,4.628v64.24a3.984,3.984,0,0,0,3.984,3.984Z" fill="#edf5fa"/>
            </g>
          </g>
          <g id="Grupo_1102109" data-name="Grupo 1102109">
            <g id="Grupo_1102108" data-name="Grupo 1102108">
              <path id="Trazado_878004" data-name="Trazado 878004" d="M74.179,1.344H68.8a3.985,3.985,0,0,1,3.985,3.985V85.671A3.985,3.985,0,0,1,68.8,89.656h5.376a3.985,3.985,0,0,0,3.985-3.985V5.329a3.985,3.985,0,0,0-3.985-3.985Z" fill="#d0e7f2"/>
            </g>
          </g>
          <g id="Grupo_1102111" data-name="Grupo 1102111">
            <g id="Grupo_1102110" data-name="Grupo 1102110">
              <path id="Trazado_878005" data-name="Trazado 878005" d="M13.743,19.664H27.972a4.181,4.181,0,0,0,4.181-4.181V2.1" fill="#b7d9eb"/>
            </g>
          </g>
          <g id="Grupo_1102113" data-name="Grupo 1102113">
            <g id="Grupo_1102112" data-name="Grupo 1102112">
              <path id="Trazado_878006" data-name="Trazado 878006" d="M68.715,20.781A11.894,11.894,0,1,0,53.2,32.111l4.009,6.944,4.217-7.3a11.9,11.9,0,0,0,7.291-10.97Z" fill="#feaee1"/>
            </g>
          </g>
          <g id="Grupo_1102115" data-name="Grupo 1102115">
            <g id="Grupo_1102114" data-name="Grupo 1102114">
              <path id="Trazado_878007" data-name="Trazado 878007" d="M56.821,8.887a11.908,11.908,0,0,0-2.688.309,11.895,11.895,0,0,1,1.914,22.555L54.518,34.4l2.688,4.656,4.217-7.3a11.9,11.9,0,0,0-4.6-22.864Z" fill="#fe93d3"/>
            </g>
          </g>
          <g id="Grupo_1102116" data-name="Grupo 1102116">
            <path id="Trazado_878008" data-name="Trazado 878008" d="M74.179,0H33.92a7.837,7.837,0,0,0-5.561,2.293L13.838,15.82l-.034.033a7.838,7.838,0,0,0-2.311,5.579V56.673a1.344,1.344,0,1,0,2.688,0V21.432c0-.142.007-.283.018-.423H27.972A5.531,5.531,0,0,0,33.5,15.483V2.707c.14-.011.281-.018.423-.018H74.179a2.643,2.643,0,0,1,2.64,2.641V16.474a1.344,1.344,0,1,0,2.688,0V5.329A5.334,5.334,0,0,0,74.179,0ZM30.809,15.483a2.84,2.84,0,0,1-2.837,2.837H15.214a5.264,5.264,0,0,1,.474-.55L30.208,4.245l.034-.033a5.277,5.277,0,0,1,.566-.491Z"/>
            <path id="Trazado_878009" data-name="Trazado 878009" d="M78.163,20.506a1.344,1.344,0,0,0-1.344,1.344v63.82a2.643,2.643,0,0,1-2.64,2.641H16.821a2.643,2.643,0,0,1-2.64-2.641V62.05a1.344,1.344,0,0,0-2.688,0V85.671A5.335,5.335,0,0,0,16.821,91H74.179a5.335,5.335,0,0,0,5.329-5.329V21.851A1.344,1.344,0,0,0,78.163,20.506Z"/>
            <path id="Trazado_878010" data-name="Trazado 878010" d="M57.18,27.456a1.344,1.344,0,0,0,1.344-1.344V21.139a1.344,1.344,0,0,0-2.688,0v4.972A1.344,1.344,0,0,0,57.18,27.456Z"/>
            <path id="Trazado_878011" data-name="Trazado 878011" d="M57.18,18.674a1.344,1.344,0,0,0,1.344-1.344V16.167a1.344,1.344,0,0,0-2.688,0V17.33A1.344,1.344,0,0,0,57.18,18.674Z"/>
            <path id="Trazado_878012" data-name="Trazado 878012" d="M56.043,39.726a1.344,1.344,0,0,0,2.328,0l4-6.923a13.239,13.239,0,1,0-10.082.416ZM46.272,20.781A10.549,10.549,0,1,1,60.9,30.512a1.344,1.344,0,0,0-.644.567l-3.053,5.287-2.845-4.928a1.344,1.344,0,0,0-.755-.608A10.514,10.514,0,0,1,46.272,20.781Z"/>
            <path id="Trazado_878013" data-name="Trazado 878013" d="M25.01,32.805H36.36a1.344,1.344,0,1,0,0-2.688H25.01a1.344,1.344,0,0,0,0,2.688Z"/>
            <path id="Trazado_878014" data-name="Trazado 878014" d="M25.01,37.824H36.36a1.344,1.344,0,1,0,0-2.688H25.01a1.344,1.344,0,1,0,0,2.688Z"/>
            <path id="Trazado_878015" data-name="Trazado 878015" d="M25.01,47.749H67.783a1.344,1.344,0,1,0,0-2.688H25.01a1.344,1.344,0,1,0,0,2.688Z"/>
            <path id="Trazado_878016" data-name="Trazado 878016" d="M25.01,52.767H67.783a1.344,1.344,0,1,0,0-2.688H25.01a1.344,1.344,0,0,0,0,2.688Z"/>
            <path id="Trazado_878017" data-name="Trazado 878017" d="M25.01,60.8H59.67a1.344,1.344,0,1,0,0-2.688H25.01a1.344,1.344,0,0,0,0,2.688Z"/>
            <path id="Trazado_878018" data-name="Trazado 878018" d="M25.01,65.821H67.783a1.344,1.344,0,1,0,0-2.688H25.01a1.344,1.344,0,0,0,0,2.688Z"/>
            <path id="Trazado_878019" data-name="Trazado 878019" d="M25.01,73.858H67.783a1.344,1.344,0,1,0,0-2.688H25.01a1.344,1.344,0,1,0,0,2.688Z"/>
            <path id="Trazado_878020" data-name="Trazado 878020" d="M25.01,78.876H47.075a1.344,1.344,0,0,0,0-2.688H25.01a1.344,1.344,0,0,0,0,2.688Z"/>
          </g>
        </g>
      </g>
    </g>
  </g>
</svg>
