<svg xmlns="http://www.w3.org/2000/svg" xmlns:xlink="http://www.w3.org/1999/xlink" width="58.294" height="63.764" viewBox="0 0 58.294 63.764">
  <defs>
    <clipPath id="clip-path">
      <rect id="Rectángulo_403241" data-name="Rectángulo 403241" width="37.02" height="37.019" transform="translate(0 0)" fill="#ffaf1a" stroke="#707070" stroke-width="1"/>
    </clipPath>
  </defs>
  <g id="Grupo_1102146" data-name="Grupo 1102146" transform="translate(-1350.727 -9766.638)">
    <g id="Grupo_1102015" data-name="Grupo 1102015" transform="translate(1005.828 5611.601)">
      <g id="Grupo_1101840" data-name="Grupo 1101840" transform="translate(345.542 4155.527)">
        <path id="Trazado_877346" data-name="Trazado 877346" d="M28.5,0s4.751.958,15.063,3.614C53.308,6.125,56.723,7.13,56.723,7.13s1.607,9.842-2.812,28.018c-3.567,14.673-15.265,24.1-25.407,27.6-10.143-3.5-21.84-12.922-25.407-27.6C-1.322,16.972.284,7.13.284,7.13s3.415-1,13.155-3.516C23.752.958,28.5,0,28.5,0" transform="translate(0 0)" fill="none" stroke="#072c6c" stroke-width="1"/>
        <path id="Trazado_877313" data-name="Trazado 877313" d="M26.636,0s4.44.895,14.076,3.378c9.1,2.346,12.295,3.285,12.295,3.285s1.5,9.2-2.628,26.183C47.045,46.558,36.114,55.367,26.636,58.634,17.158,55.367,6.227,46.558,2.893,32.846-1.236,15.86.266,6.663.266,6.663s3.192-.939,12.293-3.285C22.2.895,26.636,0,26.636,0" transform="translate(1.868 2.055)" fill="#0d4ab5"/>
      </g>
      <g id="Enmascarar_grupo_1098795" data-name="Enmascarar grupo 1098795" transform="translate(354.973 4162.901)" clip-path="url(#clip-path)">
        <g id="buscar" transform="translate(0.001 0)">
          <g id="Grupo_1101946" data-name="Grupo 1101946" transform="translate(0.579 0.578)">
            <path id="Trazado_877442" data-name="Trazado 877442" d="M0,0H2.9V4.114H0Z" transform="translate(26.479 25.933) rotate(-45)" fill="#e6e2e6"/>
            <path id="Trazado_877443" data-name="Trazado 877443" d="M0,0H2.9V4.114H0Z" transform="translate(26.479 25.933) rotate(-45)" fill="#ecdaec"/>
            <path id="Trazado_877444" data-name="Trazado 877444" d="M0,0H1.38V4.114H0Z" transform="translate(26.479 25.933) rotate(-45)" fill="#e2cbe2"/>
            <path id="Trazado_877445" data-name="Trazado 877445" d="M.871,1.956A1.085,1.085,0,0,1,1.956.871H20.208l6.72,6.72V35.649a1.085,1.085,0,0,1-1.085,1.085H1.956A1.085,1.085,0,0,1,.871,35.649Z" transform="translate(-0.871 -0.871)" fill="#f9f6f6"/>
            <path id="Trazado_877446" data-name="Trazado 877446" d="M25.843,52.374H1.956A1.085,1.085,0,0,1,.871,51.29v1.3a1.085,1.085,0,0,0,1.085,1.085H25.843a1.085,1.085,0,0,0,1.085-1.085v-1.3A1.085,1.085,0,0,1,25.843,52.374Z" transform="translate(-0.871 -17.813)" fill="#ecdaec"/>
            <g id="Grupo_1101944" data-name="Grupo 1101944" transform="translate(13.12)">
              <path id="Trazado_877447" data-name="Trazado 877447" d="M31.079,7.591h5.635L29.995.871V6.506A1.085,1.085,0,0,0,31.079,7.591Z" transform="translate(-23.777 -0.871)" fill="#e2cbe2"/>
              <path id="Trazado_877448" data-name="Trazado 877448" d="M31.079,7.591h5.635L29.995.871V6.506A1.085,1.085,0,0,0,31.079,7.591Z" transform="translate(-23.777 -0.871)" fill="#e2cbe2"/>
              <circle id="Elipse_11651" data-name="Elipse 11651" cx="9.001" cy="9.001" r="9.001" transform="translate(0 10.517)" fill="#e2cbe2"/>
            </g>
            <path id="Trazado_877449" data-name="Trazado 877449" d="M36,35a9,9,0,0,1-15.342-5.714,9,9,0,1,0,17.954,0A8.965,8.965,0,0,1,36,35Z" transform="translate(-7.511 -10.419)" fill="#dab9d8"/>
            <circle id="Elipse_11652" data-name="Elipse 11652" cx="6.517" cy="6.517" r="6.517" transform="translate(15.603 13.001)" fill="#ffe27a"/>
            <path id="Trazado_877450" data-name="Trazado 877450" d="M35.5,33.243A6.516,6.516,0,0,1,24.4,29.286a6.516,6.516,0,1,0,12.968,0A6.489,6.489,0,0,1,35.5,33.243Z" transform="translate(-8.768 -10.419)" fill="#f9cf58"/>
            <path id="Trazado_877451" data-name="Trazado 877451" d="M31.975,31.679a1.136,1.136,0,0,1-.794-.323l-1.5-1.454a1.14,1.14,0,0,1,1.589-1.634l.68.661L34,26.835a1.14,1.14,0,1,1,1.632,1.591L32.79,31.335a1.136,1.136,0,0,1-.816.344Z" transform="translate(-10.437 -9.48)" fill="#98db7c"/>
            <path id="Trazado_877452" data-name="Trazado 877452" d="M35.627,27.372,32.791,30.28a1.139,1.139,0,0,1-1.61.021l-1.5-1.454a1.146,1.146,0,0,1-.14-.166,1.139,1.139,0,0,0,.14,1.467l1.5,1.454a1.139,1.139,0,0,0,1.61-.021l2.836-2.908a1.139,1.139,0,0,0,.119-1.447A1.146,1.146,0,0,1,35.627,27.372Z" transform="translate(-10.438 -9.727)" fill="#82d361"/>
            <path id="Trazado_877453" data-name="Trazado 877453" d="M47.392,40.612l-2.859,2.859,3.421,3.421a2.022,2.022,0,0,0,2.859-2.859Z" transform="translate(-15.543 -14.225)" fill="#ff4755"/>
            <path id="Trazado_877454" data-name="Trazado 877454" d="M48.929,46.869l-3.42-3.42-.976.976,3.421,3.421a2.023,2.023,0,0,0,3.263-.576A2.023,2.023,0,0,1,48.929,46.869Z" transform="translate(-15.543 -15.178)" fill="#fc2b3a"/>
            <g id="Grupo_1101945" data-name="Grupo 1101945" transform="translate(3.708 9.981)">
              <path id="Trazado_877455" data-name="Trazado 877455" d="M9.5,19.617H7.127a.671.671,0,0,1-.671-.671V16.574a.671.671,0,0,1,.671-.671H9.5a.671.671,0,0,1,.671.671v2.372a.671.671,0,0,1-.671.671Z" transform="translate(-6.456 -15.903)" fill="#98db7c"/>
              <path id="Trazado_877456" data-name="Trazado 877456" d="M9.5,31.068H7.127a.671.671,0,0,1-.671-.671V28.025a.671.671,0,0,1,.671-.671H9.5a.671.671,0,0,1,.671.671V30.4a.671.671,0,0,1-.671.671Z" transform="translate(-6.456 -19.751)" fill="#98db7c"/>
              <path id="Trazado_877457" data-name="Trazado 877457" d="M9.5,42.753H7.127a.671.671,0,0,1-.671-.671V39.71a.671.671,0,0,1,.671-.671H9.5a.671.671,0,0,1,.671.671v2.372a.671.671,0,0,1-.671.671Z" transform="translate(-6.456 -23.677)" fill="#98db7c"/>
            </g>
            <path id="Trazado_877458" data-name="Trazado 877458" d="M9.5,19.2H7.127a.671.671,0,0,1-.671-.671v1.3a.671.671,0,0,0,.671.671H9.5a.671.671,0,0,0,.671-.671v-1.3A.671.671,0,0,1,9.5,19.2Z" transform="translate(-2.748 -6.804)" fill="#82d361"/>
            <path id="Trazado_877459" data-name="Trazado 877459" d="M9.5,30.648H7.127a.671.671,0,0,1-.671-.671v1.3a.671.671,0,0,0,.671.671H9.5a.671.671,0,0,0,.671-.671v-1.3a.671.671,0,0,1-.671.671Z" transform="translate(-2.748 -10.652)" fill="#82d361"/>
            <path id="Trazado_877460" data-name="Trazado 877460" d="M9.5,42.333H7.127a.671.671,0,0,1-.671-.671v1.3a.671.671,0,0,0,.671.671H9.5a.671.671,0,0,0,.671-.671v-1.3a.671.671,0,0,1-.671.671Z" transform="translate(-2.748 -14.578)" fill="#82d361"/>
            <path id="Trazado_877461" data-name="Trazado 877461" d="M29.995,9.358v1.3a1.085,1.085,0,0,0,1.085,1.085h5.635v-1.3H31.079A1.085,1.085,0,0,1,29.995,9.358Z" transform="translate(-10.658 -3.723)" fill="#ecdaec"/>
          </g>
          <g id="Grupo_1101947" data-name="Grupo 1101947" transform="translate(0 0)">
            <path id="Trazado_877462" data-name="Trazado 877462" d="M31.712,31.955a1.673,1.673,0,0,0,1.207-.509l2.842-2.914a1.685,1.685,0,0,0-2.413-2.353l-1.667,1.709-.292-.284a1.685,1.685,0,1,0-2.35,2.416l1.5,1.457A1.677,1.677,0,0,0,31.712,31.955ZM29.785,28.4a.6.6,0,0,1,.846-.012l.681.662a.543.543,0,0,0,.768-.01l2.046-2.1a.6.6,0,0,1,.857.836l-2.842,2.914a.6.6,0,0,1-.846.011l-1.5-1.457A.6.6,0,0,1,29.785,28.4Z" transform="translate(-9.587 -8.626)"/>
            <path id="Trazado_877463" data-name="Trazado 877463" d="M25.837,30.292a.543.543,0,0,0-.868.654,7.162,7.162,0,0,0,.651.747,7.068,7.068,0,1,0-1.737-2.845.543.543,0,0,0,1.035-.33,5.992,5.992,0,1,1,1.47,2.407,6.085,6.085,0,0,1-.551-.634Z" transform="translate(-7.912 -6.594)"/>
            <path id="Trazado_877464" data-name="Trazado 877464" d="M36.272,30.025,32.843,26.6a.544.544,0,0,0-.769,0l-.021.021L30.735,25.3a9.546,9.546,0,0,0,1.519-4.6.543.543,0,0,0-1.085-.068,8.469,8.469,0,0,1-8.451,7.934h-.051A8.471,8.471,0,1,1,31.052,18.6a.543.543,0,0,0,1.07-.192A9.568,9.568,0,0,0,27.2,11.655V7.276a.55.55,0,0,0-.159-.384L20.305.159A.551.551,0,0,0,19.921,0H1.63A1.632,1.632,0,0,0,0,1.63V6.2a.543.543,0,0,0,1.087,0V1.63a.544.544,0,0,1,.543-.543H19.378v5.1a1.632,1.632,0,0,0,1.63,1.63h5.1v3.344a9.6,9.6,0,0,0-3.3-.62l-.016,0H10.665a.543.543,0,1,0,0,1.087h7.608a9.524,9.524,0,0,0-2.168,1.556H10.665a.543.543,0,1,0,0,1.087h4.463a9.458,9.458,0,0,0-1.783,3.885H10.665a.543.543,0,1,0,0,1.087h2.52q-.038.425-.038.857,0,.354.025.7H10.665a.543.543,0,1,0,0,1.087h2.649a9.457,9.457,0,0,0,1.815,4.04H10.665a.543.543,0,1,0,0,1.087h5.443a9.523,9.523,0,0,0,2.164,1.554H10.665a.543.543,0,1,0,0,1.087H22.71a9.608,9.608,0,0,0,3.4-.622V35.39a.544.544,0,0,1-.543.543H1.63a.544.544,0,0,1-.543-.543V8.371A.543.543,0,0,0,0,8.371V35.39a1.632,1.632,0,0,0,1.63,1.63H25.568a1.632,1.632,0,0,0,1.63-1.63V28.542q.364-.193.713-.42l1.319,1.319a.548.548,0,0,0-.021.789l3.428,3.428a2.569,2.569,0,0,0,3.634-3.633ZM21.008,6.733a.544.544,0,0,1-.543-.543V1.855l4.878,4.878ZM28.8,27.472q.348-.288.674-.612t.612-.674l1.2,1.2L30,28.673ZM35.5,32.89a1.49,1.49,0,0,1-2.1,0l-3.044-3.044,2.1-2.1L35.5,30.794A1.489,1.489,0,0,1,35.5,32.89Z" transform="translate(0 0)"/>
            <path id="Trazado_877465" data-name="Trazado 877465" d="M6.812,19.869H9.189A1.217,1.217,0,0,0,10.4,18.654V16.277a1.217,1.217,0,0,0-1.216-1.215H6.812A1.217,1.217,0,0,0,5.6,16.277v2.377a1.217,1.217,0,0,0,1.215,1.215Zm-.129-3.592a.129.129,0,0,1,.129-.129H9.189a.129.129,0,0,1,.129.129v2.377a.129.129,0,0,1-.129.129H6.812a.129.129,0,0,1-.129-.129Z" transform="translate(-1.881 -5.061)"/>
            <path id="Trazado_877466" data-name="Trazado 877466" d="M5.6,30.128a1.217,1.217,0,0,0,1.215,1.215H9.189A1.217,1.217,0,0,0,10.4,30.128V27.751a1.217,1.217,0,0,0-1.216-1.215H6.812A1.217,1.217,0,0,0,5.6,27.751Zm1.087-2.377a.129.129,0,0,1,.129-.129H9.189a.129.129,0,0,1,.129.129v2.377a.129.129,0,0,1-.129.129H6.812a.129.129,0,0,1-.129-.129Z" transform="translate(-1.881 -8.917)"/>
            <path id="Trazado_877467" data-name="Trazado 877467" d="M5.6,41.835A1.217,1.217,0,0,0,6.812,43.05H9.189A1.217,1.217,0,0,0,10.4,41.835V39.458a1.217,1.217,0,0,0-1.216-1.215H6.812A1.217,1.217,0,0,0,5.6,39.458Zm1.087-2.377a.129.129,0,0,1,.129-.129H9.189a.129.129,0,0,1,.129.129v2.377a.129.129,0,0,1-.129.129H6.812a.129.129,0,0,1-.129-.129Z" transform="translate(-1.881 -12.851)"/>
          </g>
        </g>
      </g>
    </g>
  </g>
</svg>
