<svg xmlns="http://www.w3.org/2000/svg" xmlns:xlink="http://www.w3.org/1999/xlink" width="86.881" height="95.518" viewBox="0 0 86.881 95.518">
  <defs>
    <clipPath id="clip-path">
      <rect id="Rectángulo_403241" data-name="Rectángulo 403241" width="55.755" height="55.755" transform="translate(359.746 4166.633)" fill="#ffaf1a" stroke="#707070" stroke-width="1"/>
    </clipPath>
  </defs>
  <g id="Grupo_1102132" data-name="Grupo 1102132" transform="translate(-178.63 -4959.982)">
    <g id="Grupo_1101926" data-name="Grupo 1101926" transform="translate(-166.401 804.945)">
      <g id="Grupo_1102131" data-name="Grupo 1102131">
        <g id="Grupo_1101840" data-name="Grupo 1101840" transform="translate(345.542 4155.527)">
          <path id="Trazado_877346" data-name="Trazado 877346" d="M42.929,0s7.156,1.442,22.686,5.444C80.286,9.225,85.43,10.738,85.43,10.738s2.42,14.822-4.235,42.2c-5.373,22.1-22.99,36.3-38.266,41.562C27.654,89.234,10.036,75.036,4.664,52.937-1.991,25.561.429,10.738.429,10.738S5.572,9.225,20.241,5.444C35.773,1.442,42.929,0,42.929,0" transform="translate(0 0)" fill="none" stroke="#072c6c" stroke-width="1"/>
          <path id="Trazado_877313" data-name="Trazado 877313" d="M40.117,0s6.687,1.348,21.2,5.087c13.71,3.534,18.517,4.948,18.517,4.948s2.261,13.851-3.958,39.434C70.855,70.12,54.392,83.388,40.117,88.308,25.842,83.388,9.379,70.12,4.358,49.469-1.861,23.886.4,10.035.4,10.035S5.207,8.621,18.915,5.087C33.43,1.348,40.117,0,40.117,0" transform="translate(2.812 3.095)" fill="#0d4ab5"/>
        </g>
      </g>
      <g id="Enmascarar_grupo_1098795" data-name="Enmascarar grupo 1098795" clip-path="url(#clip-path)">
        <g id="buscar" transform="translate(359.747 4166.633)">
          <g id="Grupo_1101946" data-name="Grupo 1101946">
            <path id="Trazado_877442" data-name="Trazado 877442" d="M42.3,37.471h4.367v6.2H42.3Z" transform="translate(-15.658 43.347) rotate(-45)" fill="#e6e2e6"/>
            <path id="Trazado_877443" data-name="Trazado 877443" d="M42.3,37.471h4.367v6.2H42.3Z" transform="translate(-15.658 43.347) rotate(-45)" fill="#ecdaec"/>
            <path id="Trazado_877444" data-name="Trazado 877444" d="M42.64,38.28h2.079v6.2H42.64Z" transform="translate(-16.467 43.012) rotate(-45)" fill="#e2cbe2"/>
            <path id="Trazado_877445" data-name="Trazado 877445" d="M.871,2.5A1.633,1.633,0,0,1,2.5.871h27.49l10.12,10.12V53.25a1.633,1.633,0,0,1-1.633,1.633H2.5A1.633,1.633,0,0,1,.871,53.25Z" fill="#f9f6f6"/>
            <path id="Trazado_877446" data-name="Trazado 877446" d="M38.482,52.923H2.5A1.633,1.633,0,0,1,.871,51.29v1.96A1.633,1.633,0,0,0,2.5,54.883H38.482a1.633,1.633,0,0,0,1.633-1.633V51.29A1.633,1.633,0,0,1,38.482,52.923Z" fill="#ecdaec"/>
            <g id="Grupo_1101944" data-name="Grupo 1101944">
              <path id="Trazado_877447" data-name="Trazado 877447" d="M31.628,10.992h8.487L29.995.871V9.358A1.633,1.633,0,0,0,31.628,10.992Z" fill="#e2cbe2"/>
              <path id="Trazado_877448" data-name="Trazado 877448" d="M31.628,10.992h8.487L29.995.871V9.358A1.633,1.633,0,0,0,31.628,10.992Z" fill="#e2cbe2"/>
              <circle id="Elipse_11651" data-name="Elipse 11651" cx="13.556" cy="13.556" r="13.556" transform="translate(20.631 16.71)" fill="#e2cbe2"/>
            </g>
            <path id="Trazado_877449" data-name="Trazado 877449" d="M43.772,37.891a13.556,13.556,0,0,1-23.106-8.605,13.556,13.556,0,1,0,27.041,0A13.5,13.5,0,0,1,43.772,37.891Z" fill="#dab9d8"/>
            <circle id="Elipse_11652" data-name="Elipse 11652" cx="9.815" cy="9.815" r="9.815" transform="translate(24.371 20.451)" fill="#ffe27a"/>
            <path id="Trazado_877450" data-name="Trazado 877450" d="M41.127,35.246a9.814,9.814,0,0,1-16.705-5.96,9.814,9.814,0,1,0,19.531,0A9.773,9.773,0,0,1,41.127,35.246Z" fill="#f9cf58"/>
            <path id="Trazado_877451" data-name="Trazado 877451" d="M33.308,34.3a1.71,1.71,0,0,1-1.2-.486l-2.252-2.19a1.716,1.716,0,1,1,2.393-2.461l1.024,1,3.075-3.153a1.716,1.716,0,0,1,2.457,2.4l-4.272,4.38a1.711,1.711,0,0,1-1.229.518Z" fill="#98db7c"/>
            <path id="Trazado_877452" data-name="Trazado 877452" d="M38.809,27.446l-4.272,4.38a1.716,1.716,0,0,1-2.425.032l-2.252-2.19a1.725,1.725,0,0,1-.211-.249,1.715,1.715,0,0,0,.211,2.209l2.252,2.19a1.716,1.716,0,0,0,2.425-.032l4.272-4.38a1.716,1.716,0,0,0,.179-2.179A1.726,1.726,0,0,1,38.809,27.446Z" fill="#82d361"/>
            <path id="Trazado_877453" data-name="Trazado 877453" d="M48.839,40.612l-4.306,4.306,5.153,5.153a3.045,3.045,0,1,0,4.306-4.306Z" fill="#ff4755"/>
            <path id="Trazado_877454" data-name="Trazado 877454" d="M51.153,48.6,46,43.449l-1.47,1.47,5.153,5.153A3.047,3.047,0,0,0,54.6,49.2a3.046,3.046,0,0,1-3.446-.6Z" fill="#fc2b3a"/>
            <g id="Grupo_1101945" data-name="Grupo 1101945">
              <path id="Trazado_877455" data-name="Trazado 877455" d="M11.039,21.5H7.466a1.01,1.01,0,0,1-1.01-1.01V16.913a1.01,1.01,0,0,1,1.01-1.01h3.573a1.01,1.01,0,0,1,1.01,1.01v3.573a1.01,1.01,0,0,1-1.01,1.01Z" fill="#98db7c"/>
              <path id="Trazado_877456" data-name="Trazado 877456" d="M11.039,32.948H7.466a1.01,1.01,0,0,1-1.01-1.01V28.365a1.01,1.01,0,0,1,1.01-1.01h3.573a1.01,1.01,0,0,1,1.01,1.01v3.573a1.01,1.01,0,0,1-1.01,1.01Z" fill="#98db7c"/>
              <path id="Trazado_877457" data-name="Trazado 877457" d="M11.039,44.632H7.466a1.01,1.01,0,0,1-1.01-1.01V40.049a1.01,1.01,0,0,1,1.01-1.01h3.573a1.01,1.01,0,0,1,1.01,1.01v3.573a1.01,1.01,0,0,1-1.01,1.01Z" fill="#98db7c"/>
            </g>
            <path id="Trazado_877458" data-name="Trazado 877458" d="M11.039,19.536H7.466a1.01,1.01,0,0,1-1.01-1.01v1.96a1.01,1.01,0,0,0,1.01,1.01h3.573a1.01,1.01,0,0,0,1.01-1.01v-1.96a1.01,1.01,0,0,1-1.01,1.01Z" fill="#82d361"/>
            <path id="Trazado_877459" data-name="Trazado 877459" d="M11.039,30.988H7.466a1.01,1.01,0,0,1-1.01-1.01v1.96a1.01,1.01,0,0,0,1.01,1.01h3.573a1.01,1.01,0,0,0,1.01-1.01v-1.96a1.01,1.01,0,0,1-1.01,1.01Z" fill="#82d361"/>
            <path id="Trazado_877460" data-name="Trazado 877460" d="M11.039,42.672H7.466a1.01,1.01,0,0,1-1.01-1.01v1.96a1.01,1.01,0,0,0,1.01,1.01h3.573a1.01,1.01,0,0,0,1.01-1.01v-1.96a1.01,1.01,0,0,1-1.01,1.01Z" fill="#82d361"/>
            <path id="Trazado_877461" data-name="Trazado 877461" d="M29.995,9.358v1.96a1.633,1.633,0,0,0,1.633,1.633h8.487v-1.96H31.628A1.633,1.633,0,0,1,29.995,9.358Z" fill="#ecdaec"/>
          </g>
          <g id="Grupo_1101947" data-name="Grupo 1101947">
            <path id="Trazado_877462" data-name="Trazado 877462" d="M33.323,35.135a2.519,2.519,0,0,0,1.817-.766l4.281-4.389a2.538,2.538,0,0,0-3.634-3.544l-2.511,2.575-.44-.428A2.538,2.538,0,1,0,29.3,32.222l2.257,2.194A2.525,2.525,0,0,0,33.323,35.135Zm-2.9-5.361a.9.9,0,0,1,1.275-.018l1.026,1a.819.819,0,0,0,1.156-.015l3.082-3.159a.9.9,0,0,1,1.291,1.258l-4.281,4.389a.906.906,0,0,1-1.274.017l-2.257-2.194a.9.9,0,0,1-.018-1.275Z"/>
            <path id="Trazado_877463" data-name="Trazado 877463" d="M27,35.692a.818.818,0,0,0-1.307.986,10.786,10.786,0,0,0,.98,1.126,10.646,10.646,0,1,0-2.615-4.285.818.818,0,0,0,1.559-.5,9.024,9.024,0,1,1,2.214,3.625,9.164,9.164,0,0,1-.83-.954Z"/>
            <path id="Trazado_877464" data-name="Trazado 877464" d="M54.629,45.221l-5.163-5.163a.819.819,0,0,0-1.158,0l-.032.032L46.289,38.1a14.377,14.377,0,0,0,2.288-6.922.818.818,0,0,0-1.634-.1,12.754,12.754,0,0,1-12.728,11.95h-.077a12.758,12.758,0,1,1,12.63-15.021.818.818,0,0,0,1.611-.289,14.411,14.411,0,0,0-7.416-10.164v-6.6a.828.828,0,0,0-.24-.579L30.582.24A.829.829,0,0,0,30,0H2.455A2.458,2.458,0,0,0,0,2.455V9.333a.818.818,0,0,0,1.637,0V2.455a.819.819,0,0,1,.818-.818H29.185V9.322a2.458,2.458,0,0,0,2.455,2.455h7.686v5.036a14.461,14.461,0,0,0-4.967-.934l-.024,0H16.063a.818.818,0,1,0,0,1.637H27.521a14.345,14.345,0,0,0-3.265,2.344H16.063a.818.818,0,1,0,0,1.637h6.721A14.245,14.245,0,0,0,20.1,27.344H16.063a.818.818,0,1,0,0,1.637h3.8q-.057.64-.058,1.29,0,.533.038,1.06H16.063a.818.818,0,1,0,0,1.637h3.99a14.244,14.244,0,0,0,2.733,6.084H16.063a.818.818,0,1,0,0,1.637h8.2a14.343,14.343,0,0,0,3.259,2.34H16.062a.818.818,0,1,0,0,1.637H34.2a14.47,14.47,0,0,0,5.123-.936V53.3a.819.819,0,0,1-.818.818H2.455a.819.819,0,0,1-.818-.818V12.607a.818.818,0,0,0-1.637,0V53.3a2.458,2.458,0,0,0,2.455,2.455H38.508A2.458,2.458,0,0,0,40.963,53.3V42.988q.548-.291,1.074-.632l1.987,1.986a.826.826,0,0,0-.032,1.189l5.163,5.163a3.87,3.87,0,0,0,5.473-5.472ZM31.64,10.14a.819.819,0,0,1-.818-.818V2.794l7.347,7.346ZM43.372,41.376q.524-.433,1.015-.922t.922-1.015l1.809,1.809-1.937,1.937Zm10.1,8.16a2.244,2.244,0,0,1-3.158,0l-4.585-4.584,3.158-3.158,4.585,4.584A2.243,2.243,0,0,1,53.471,49.536Z"/>
            <path id="Trazado_877465" data-name="Trazado 877465" d="M7.427,22.3h3.58a1.833,1.833,0,0,0,1.831-1.83v-3.58a1.833,1.833,0,0,0-1.831-1.83H7.427A1.833,1.833,0,0,0,5.6,16.892v3.58A1.833,1.833,0,0,0,7.427,22.3Zm-.194-5.41a.194.194,0,0,1,.194-.194h3.58a.194.194,0,0,1,.194.194v3.58a.194.194,0,0,1-.194.194H7.427a.194.194,0,0,1-.194-.194Z"/>
            <path id="Trazado_877466" data-name="Trazado 877466" d="M5.6,31.946a1.833,1.833,0,0,0,1.831,1.83h3.58a1.833,1.833,0,0,0,1.831-1.83v-3.58a1.833,1.833,0,0,0-1.831-1.83H7.427A1.833,1.833,0,0,0,5.6,28.366Zm1.637-3.58a.194.194,0,0,1,.194-.194h3.58a.194.194,0,0,1,.194.194v3.58a.194.194,0,0,1-.194.194H7.427a.194.194,0,0,1-.194-.194Z"/>
            <path id="Trazado_877467" data-name="Trazado 877467" d="M5.6,43.653a1.833,1.833,0,0,0,1.831,1.83h3.58a1.833,1.833,0,0,0,1.831-1.83v-3.58a1.833,1.833,0,0,0-1.831-1.83H7.427A1.833,1.833,0,0,0,5.6,40.073Zm1.637-3.58a.194.194,0,0,1,.194-.194h3.58a.194.194,0,0,1,.194.194v3.58a.194.194,0,0,1-.194.194H7.427a.194.194,0,0,1-.194-.194Z"/>
          </g>
        </g>
      </g>
    </g>
  </g>
</svg>
