<svg xmlns="http://www.w3.org/2000/svg" xmlns:xlink="http://www.w3.org/1999/xlink" width="124.979" height="137.827" viewBox="0 0 124.979 137.827">
  <defs>
    <clipPath id="clip-path">
      <rect id="Rectángulo_403236" data-name="Rectángulo 403236" width="120.97" height="120.97" transform="translate(642.663 6975)" fill="#fff" stroke="#707070" stroke-width="1"/>
    </clipPath>
  </defs>
  <g id="Grupo_1102137" data-name="Grupo 1102137" transform="translate(-1157.89 -6032.57)">
    <g id="Grupo_1101934" data-name="Grupo 1101934" transform="translate(517.904 -942.43)">
      <path id="Trazado_877346" data-name="Trazado 877346" d="M61.489,136.37l-.433-.149A89.017,89.017,0,0,1,28,115.293,85.92,85.92,0,0,1,14.513,97.9,81.178,81.178,0,0,1,5.682,76.066,256.024,256.024,0,0,1,.714,50.084,186.828,186.828,0,0,1-.927,31.11,89.756,89.756,0,0,1-.372,15.42l.135-.825.8-.236c.074-.022,7.589-2.224,28.269-7.555C50.743,1.16,61.124-.947,61.226-.967l.263-.053.263.053c.1.021,10.483,2.127,32.388,7.771,20.684,5.332,28.2,7.534,28.273,7.555l.8.236.135.825a89.757,89.757,0,0,1,.555,15.69,186.829,186.829,0,0,1-1.641,18.973A256.03,256.03,0,0,1,117.3,76.066,81.178,81.178,0,0,1,108.464,97.9a85.921,85.921,0,0,1-13.489,17.39A89.017,89.017,0,0,1,61.922,136.22ZM2.144,16.672a100.193,100.193,0,0,0-.41,14.469c.3,9.183,1.676,24.323,6.531,44.3,7.733,31.81,33.4,51.133,53.223,58.117,19.826-6.984,45.49-26.308,53.223-58.118,4.856-19.975,6.232-35.115,6.531-44.3a100.189,100.189,0,0,0-.41-14.469c-2.444-.7-10.525-2.954-27.357-7.293C73.562,4.247,63.223,2.054,61.489,1.693c-1.735.36-12.074,2.554-31.991,7.685C12.669,13.717,4.587,15.976,2.144,16.672Z" transform="translate(640.986 6976.458)" fill="#072c6c"/>
      <path id="Trazado_877313" data-name="Trazado 877313" d="M57.152,0s9.527,1.92,30.2,7.247c19.532,5.035,26.38,7.049,26.38,7.049s3.221,19.733-5.638,56.179C100.943,99.9,77.489,118.8,57.152,125.807,36.816,118.8,13.361,99.9,6.209,70.475-2.651,34.029.571,14.3.571,14.3s6.848-2.014,26.377-7.049C47.625,1.92,57.152,0,57.152,0" transform="translate(645.322 6981.204)" fill="#74abf9"/>
      <g id="Enmascarar_grupo_1098798" data-name="Enmascarar grupo 1098798" clip-path="url(#clip-path)">
        <g id="Layer_1" transform="translate(641.222 6973.558)">
          <g id="Grupo_1101955" data-name="Grupo 1101955">
            <path id="Trazado_877496" data-name="Trazado 877496" d="M116.362,11.151H7.492a4.838,4.838,0,0,0-4.838,4.838V84.718a4.839,4.839,0,0,0,4.838,4.839h108.87a4.839,4.839,0,0,0,4.838-4.839V15.989a4.838,4.838,0,0,0-4.838-4.838Z" fill="#72c2e9"/>
            <path id="Trazado_877497" data-name="Trazado 877497" d="M30.418-1.226H93.435V101.933H30.418Z" transform="translate(112.281 -11.573) rotate(90)" fill="#efefef"/>
            <path id="Trazado_877498" data-name="Trazado 877498" d="M73.886,104.72H49.967l4.267-15.162H69.619Z" fill="#72c2e9"/>
            <path id="Trazado_877499" data-name="Trazado 877499" d="M70.868,93.994H52.986l1.248-4.436H69.619Z" fill="#4ba5c8"/>
            <path id="Trazado_877500" data-name="Trazado 877500" d="M85.028,109.558V112.7h-46.2v-3.145a4.84,4.84,0,0,1,4.838-4.838H80.19A4.84,4.84,0,0,1,85.028,109.558Z" fill="#72c2e9"/>
            <path id="Trazado_877501" data-name="Trazado 877501" d="M40.422,34.328H27.882l0-3.629a2.212,2.212,0,0,1,2.211-2.21h6.471a4.868,4.868,0,0,0,2.254-.553l2.7-1.411a6.834,6.834,0,0,1-1.1,7.8Z" fill="#7c7b7a"/>
            <path id="Trazado_877502" data-name="Trazado 877502" d="M34.151,45.214a6.269,6.269,0,0,1-6.269-6.269V34.328H40.42v4.617A6.269,6.269,0,0,1,34.151,45.214Z" fill="#ffb69f"/>
            <path id="Trazado_877503" data-name="Trazado 877503" d="M46.2,52.519v7.693H21.911V52.519a7.307,7.307,0,0,1,7.3-7.3H38.9A7.308,7.308,0,0,1,46.2,52.519Z" fill="#fc5d3d"/>
            <path id="Trazado_877504" data-name="Trazado 877504" d="M95.257,34.248,79.2,50.354,70.539,29.328a22.752,22.752,0,0,1,24.718,4.92Z" fill="#fc5d3d"/>
            <path id="Trazado_877505" data-name="Trazado 877505" d="M101.454,45.642,79.2,50.354,95.257,34.248a22.712,22.712,0,0,1,6.2,11.394Z" fill="#72c2e9"/>
            <path id="Trazado_877506" data-name="Trazado 877506" d="M88.909,70.92,79.2,50.354l22.25-4.712A22.75,22.75,0,0,1,88.909,70.92Z" fill="#f0c020"/>
            <path id="Trazado_877507" data-name="Trazado 877507" d="M79.2,50.354,69.223,70.785a22.741,22.741,0,0,1,1.316-41.457Z" fill="#7d7b79"/>
            <path id="Trazado_877508" data-name="Trazado 877508" d="M88.909,70.92a22.751,22.751,0,0,1-19.686-.135L79.2,50.354Z" fill="#13bf6d"/>
            <g id="Grupo_1101953" data-name="Grupo 1101953">
              <path id="Trazado_877509" data-name="Trazado 877509" d="M109.152,78.983H22.674a1.21,1.21,0,1,1,0-2.419h85.268v-53.1a1.21,1.21,0,1,1,2.419,0V77.773A1.209,1.209,0,0,1,109.152,78.983Zm-91.315,0H14.7a1.21,1.21,0,1,1,0-2.419h3.135a1.21,1.21,0,1,1,0,2.419Z" fill="#fff"/>
            </g>
            <circle id="Elipse_11653" data-name="Elipse 11653" cx="1.21" cy="1.21" r="1.21" transform="translate(9.139 36.987)"/>
            <path id="Trazado_877510" data-name="Trazado 877510" d="M121.2,58.961a1.21,1.21,0,1,0,1.2,1.214A1.214,1.214,0,0,0,121.2,58.961Z"/>
            <circle id="Elipse_11654" data-name="Elipse 11654" cx="1.21" cy="1.21" r="1.21" transform="translate(48.259 111.492)"/>
            <g id="Grupo_1101954" data-name="Grupo 1101954">
              <path id="Trazado_877511" data-name="Trazado 877511" d="M9.139,81.864a1.2,1.2,0,0,0,1.21,1.2H113.505a1.205,1.205,0,0,0,1.21-1.2V18.844a1.206,1.206,0,0,0-1.21-1.21H10.349a1.207,1.207,0,0,0-1.21,1.21V33.358a1.21,1.21,0,1,0,2.419,0v-13.3H112.3v60.6H11.558V43.034a1.21,1.21,0,0,0-2.419,0Z"/>
              <path id="Trazado_877512" data-name="Trazado 877512" d="M1.441,84.719a6.059,6.059,0,0,0,6.048,6.048H52.637L49.051,103.51H43.663a6.059,6.059,0,0,0-6.048,6.048V112.7a1.211,1.211,0,0,0,1.21,1.21h5.806a1.21,1.21,0,1,0,0-2.419h-4.6v-1.935a3.642,3.642,0,0,1,3.629-3.629H80.19a3.642,3.642,0,0,1,3.629,3.629v1.935H54.307a1.21,1.21,0,1,0,0,2.419H85.028a1.206,1.206,0,0,0,1.21-1.21v-3.145a6.059,6.059,0,0,0-6.048-6.048H74.8L71.216,90.766h45.148a6.052,6.052,0,0,0,6.043-6.048V65.009a1.207,1.207,0,0,0-2.414,0v19.71a3.645,3.645,0,0,1-3.629,3.629H7.489A3.646,3.646,0,0,1,3.86,84.719V15.99a3.643,3.643,0,0,1,3.629-3.629H116.364a3.642,3.642,0,0,1,3.629,3.629V55.333a1.21,1.21,0,1,0,2.419,0,0,0,0,0,0,0,0V15.99a6.052,6.052,0,0,0-6.043-6.048H7.489A6.056,6.056,0,0,0,1.441,15.99ZM51.565,103.51l3.586-12.743H68.7L72.29,103.51Z"/>
              <path id="Trazado_877513" data-name="Trazado 877513" d="M20.7,52.519v7.693a1.21,1.21,0,1,0,2.419,0V52.519a6.1,6.1,0,0,1,6.1-6.1H38.9a6.1,6.1,0,0,1,6.1,6.1v7.693a1.21,1.21,0,1,0,2.419,0V52.519a8.521,8.521,0,0,0-7.8-8.478,7.444,7.444,0,0,0,2.02-5.1v-4.17a8.024,8.024,0,0,0,.975-8.791,1.21,1.21,0,0,0-1.64-.532l-2.7,1.413a3.667,3.667,0,0,1-1.693.416H30.1a3.422,3.422,0,0,0-3.42,3.416c-.005,4.089,0,1.946,0,8.248a7.442,7.442,0,0,0,2.012,5.086A8.518,8.518,0,0,0,20.7,52.519Zm8.39-13.574V35.54H39.21v3.405a5.059,5.059,0,1,1-10.118,0ZM30.1,29.7h6.468c1.754,0,2.755-.66,4.316-1.476a5.621,5.621,0,0,1-1.015,4.894H29.091l0-2.417a1,1,0,0,1,1-1Z"/>
              <path id="Trazado_877514" data-name="Trazado 877514" d="M46.2,65.013H21.911a1.21,1.21,0,0,0,0,2.419H46.2a1.21,1.21,0,0,0,0-2.419Z"/>
              <path id="Trazado_877515" data-name="Trazado 877515" d="M46.2,70.577H21.911a1.207,1.207,0,1,0,0,2.414H46.2a1.207,1.207,0,1,0,0-2.414Z"/>
            </g>
            <path id="Trazado_877516" data-name="Trazado 877516" d="M79.2,74.3a23.691,23.691,0,0,0,10.22-2.288h0a24.028,24.028,0,0,0,13.212-26.62v0A23.951,23.951,0,1,0,79.2,74.3Zm16.032-38.32a21.431,21.431,0,0,1,4.752,8.733L82.931,48.328,95.236,35.982ZM70.854,70.2l8.331-17.054,8.1,17.166A21.584,21.584,0,0,1,70.854,70.2Zm18.618-.924L80.95,51.22l19.535-4.137A21.61,21.61,0,0,1,89.472,69.278ZM79.2,28.825a21.378,21.378,0,0,1,14.319,5.45L79.63,48.213l-7.5-18.2A21.4,21.4,0,0,1,79.2,28.825ZM57.675,50.354a21.461,21.461,0,0,1,12.22-19.416l7.984,19.373-9.2,18.825A21.379,21.379,0,0,1,57.675,50.354Z"/>
          </g>
        </g>
      </g>
    </g>
  </g>
</svg>
