<svg xmlns="http://www.w3.org/2000/svg" xmlns:xlink="http://www.w3.org/1999/xlink" width="58.074" height="63.523" viewBox="0 0 58.074 63.523">
  <defs>
    <clipPath id="clip-path">
      <rect id="Rectángulo_403259" data-name="Rectángulo 403259" width="36.878" height="36.877" transform="translate(443.938 5846.873)" fill="#0d4ab5" stroke="#707070" stroke-width="1"/>
    </clipPath>
  </defs>
  <g id="Grupo_1102133" data-name="Grupo 1102133" transform="translate(-307.069 -822.51)">
    <g id="Grupo_1101897" data-name="Grupo 1101897" transform="translate(-126.83 -5016.527)">
      <g id="Grupo_1101896" data-name="Grupo 1101896" transform="translate(434.543 5839.527)">
        <path id="Trazado_877346" data-name="Trazado 877346" d="M28.394,0s4.733.954,15,3.6c9.7,2.5,13.106,3.5,13.106,3.5s1.6,9.8-2.8,27.911C50.151,49.631,38.5,59.021,28.394,62.5c-10.1-3.482-21.756-12.873-25.31-27.49C-1.317,16.906.283,7.1.283,7.1s3.4-1,13.1-3.5C23.661.954,28.394,0,28.394,0" transform="translate(-0.001 0)" fill="none" stroke="#593d09" stroke-width="1"/>
        <path id="Trazado_877313" data-name="Trazado 877313" d="M26.534,0s4.423.891,14.022,3.365C49.624,5.7,52.8,6.637,52.8,6.637S54.3,15.8,50.186,32.72c-3.321,13.66-14.21,22.435-23.652,25.689C17.092,55.154,6.2,46.379,2.882,32.72-1.231,15.8.265,6.637.265,6.637S3.444,5.7,12.511,3.365C22.111.891,26.534,0,26.534,0" transform="translate(1.859 2.047)" fill="#ffaf1a"/>
      </g>
      <g id="Enmascarar_grupo_1098790" data-name="Enmascarar grupo 1098790" clip-path="url(#clip-path)">
        <g id="digital" transform="translate(443.94 5846.875)">
          <path id="Trazado_877412" data-name="Trazado 877412" d="M22.757,29.959v4.609a.576.576,0,0,0,.576.576h6.989a2.3,2.3,0,1,0,0-1.152H23.909V29.959Zm9.794,3.457A1.152,1.152,0,1,1,31.4,34.568,1.152,1.152,0,0,1,32.551,33.415Z" fill="#0d4ab5"/>
          <path id="Trazado_877413" data-name="Trazado 877413" d="M17.86,29.959v2.38a2.3,2.3,0,1,0,1.152,0v-2.38Zm1.728,4.609a1.152,1.152,0,1,1-1.152-1.152A1.152,1.152,0,0,1,19.588,34.568Z" fill="#0d4ab5"/>
          <circle id="Elipse_11644" data-name="Elipse 11644" cx="0.864" cy="0.864" r="0.864" transform="translate(19.012 12.099)" fill="#0d4ab5"/>
          <circle id="Elipse_11645" data-name="Elipse 11645" cx="1.152" cy="1.152" r="1.152" transform="translate(24.197 11.811)" fill="#0d4ab5"/>
          <circle id="Elipse_11646" data-name="Elipse 11646" cx="1.44" cy="1.44" r="1.44" transform="translate(30.247 22.469)" fill="#0d4ab5"/>
          <circle id="Elipse_11647" data-name="Elipse 11647" cx="1.152" cy="1.152" r="1.152" transform="translate(24.197 22.757)" fill="#0d4ab5"/>
          <circle id="Elipse_11648" data-name="Elipse 11648" cx="0.864" cy="0.864" r="0.864" transform="translate(19.012 23.045)" fill="#0d4ab5"/>
          <path id="Trazado_877414" data-name="Trazado 877414" d="M34.568,8.066H2.3A2.308,2.308,0,0,0,0,10.37v5.185a2.308,2.308,0,0,0,2.3,2.3H6.625v1.152H2.3a2.308,2.308,0,0,0-2.3,2.3V26.5a2.308,2.308,0,0,0,2.3,2.3H34.568a2.308,2.308,0,0,0,2.3-2.3V21.317a2.308,2.308,0,0,0-2.3-2.3H30.247V17.86h4.321a2.308,2.308,0,0,0,2.3-2.3V10.37A2.308,2.308,0,0,0,34.568,8.066ZM19.876,10.946a2.016,2.016,0,1,1-2.016,2.016A2.016,2.016,0,0,1,19.876,10.946ZM26.79,17.86v1.152H10.082V17.86ZM14.979,11.523a.576.576,0,1,1,1.152,0V14.4a.576.576,0,0,1-1.152,0Zm-2.881,0a.576.576,0,1,1,1.152,0V14.4a.576.576,0,1,1-1.152,0Zm-2.881,0a.576.576,0,1,1,1.152,0V14.4a.576.576,0,1,1-1.152,0ZM4.609,14.4a.576.576,0,1,1-1.152,0V11.523a.576.576,0,1,1,1.152,0Zm0,10.946a.576.576,0,0,1-1.152,0V22.469a.576.576,0,0,1,1.152,0Zm2.881,0a.576.576,0,0,1-1.152,0V22.469a.576.576,0,0,1,1.152,0Zm0-10.946a.576.576,0,1,1-1.152,0V11.523a.576.576,0,1,1,1.152,0Zm1.44,4.609H7.778V17.86H8.93Zm1.44,6.337a.576.576,0,0,1-1.152,0V22.469a.576.576,0,0,1,1.152,0Zm2.881,0a.576.576,0,0,1-1.152,0V22.469a.576.576,0,0,1,1.152,0Zm2.881,0a.576.576,0,0,1-1.152,0V22.469a.576.576,0,0,1,1.152,0Zm3.745.576a2.016,2.016,0,1,1,2.016-2.016,2.016,2.016,0,0,1-2.016,2.016Zm5.473.288a2.3,2.3,0,1,1,2.3-2.3A2.3,2.3,0,0,1,25.35,26.214Zm0-10.946a2.3,2.3,0,1,1,2.3-2.3A2.3,2.3,0,0,1,25.35,15.267Zm2.593,2.593h1.152v1.152H27.942Zm3.745,3.457a2.593,2.593,0,1,1-2.593,2.593,2.593,2.593,0,0,1,2.593-2.593Zm0-5.761a2.593,2.593,0,1,1,2.593-2.593,2.593,2.593,0,0,1-2.593,2.593Z" fill="#0d4ab5"/>
          <circle id="Elipse_11649" data-name="Elipse 11649" cx="1.44" cy="1.44" r="1.44" transform="translate(30.247 11.523)" fill="#0d4ab5"/>
          <path id="Trazado_877415" data-name="Trazado 877415" d="M19.012,6.914V4.533a2.3,2.3,0,1,0-1.152,0v2.38ZM17.284,2.3a1.152,1.152,0,1,1,1.152,1.152A1.152,1.152,0,0,1,17.284,2.3Z" fill="#0d4ab5"/>
          <path id="Trazado_877416" data-name="Trazado 877416" d="M14.115,6.914V2.3a.576.576,0,0,0-.576-.576H6.55a2.3,2.3,0,1,0,0,1.152h6.413V6.914ZM4.321,3.457A1.152,1.152,0,1,1,5.473,2.3,1.152,1.152,0,0,1,4.321,3.457Z" fill="#0d4ab5"/>
          <path id="Trazado_877417" data-name="Trazado 877417" d="M30.322,2.881a2.3,2.3,0,1,0,0-1.152H23.333a.576.576,0,0,0-.576.576V6.914h1.152V2.881Zm2.229-1.728A1.152,1.152,0,1,1,31.4,2.3,1.152,1.152,0,0,1,32.551,1.152Z" fill="#0d4ab5"/>
          <path id="Trazado_877418" data-name="Trazado 877418" d="M4.321,36.872A2.306,2.306,0,0,0,6.55,35.144h6.989a.576.576,0,0,0,.576-.576V29.959H12.963v4.033H6.55a2.3,2.3,0,1,0-2.229,2.881Zm0-3.457a1.152,1.152,0,1,1-1.152,1.152,1.152,1.152,0,0,1,1.152-1.152Z" fill="#0d4ab5"/>
        </g>
      </g>
    </g>
  </g>
</svg>
