<svg xmlns="http://www.w3.org/2000/svg" xmlns:xlink="http://www.w3.org/1999/xlink" width="58.074" height="63.523" viewBox="0 0 58.074 63.523">
  <defs>
    <clipPath id="clip-path">
      <rect id="Rectángulo_403259" data-name="Rectángulo 403259" width="36.878" height="36.877" transform="translate(443.938 5846.873)" fill="#0d4ab5" stroke="#707070" stroke-width="1"/>
    </clipPath>
  </defs>
  <g id="Grupo_1102134" data-name="Grupo 1102134" transform="translate(-616.697 -822.51)">
    <g id="Grupo_1101938" data-name="Grupo 1101938" transform="translate(182.798 -5016.527)">
      <g id="Grupo_1101896" data-name="Grupo 1101896" transform="translate(434.543 5839.527)">
        <path id="Trazado_877346" data-name="Trazado 877346" d="M28.394,0s4.733.954,15,3.6c9.7,2.5,13.106,3.5,13.106,3.5s1.6,9.8-2.8,27.911C50.151,49.631,38.5,59.021,28.394,62.5c-10.1-3.482-21.756-12.873-25.31-27.49C-1.317,16.906.283,7.1.283,7.1s3.4-1,13.1-3.5C23.661.954,28.394,0,28.394,0" transform="translate(-0.001 0)" fill="none" stroke="#593d09" stroke-width="1"/>
        <path id="Trazado_877313" data-name="Trazado 877313" d="M26.534,0s4.423.891,14.022,3.365C49.624,5.7,52.8,6.637,52.8,6.637S54.3,15.8,50.186,32.72c-3.321,13.66-14.21,22.435-23.652,25.689C17.092,55.154,6.2,46.379,2.882,32.72-1.231,15.8.265,6.637.265,6.637S3.444,5.7,12.511,3.365C22.111.891,26.534,0,26.534,0" transform="translate(1.859 2.047)" fill="#ffaf1a"/>
      </g>
      <g id="Enmascarar_grupo_1098791" data-name="Enmascarar grupo 1098791" clip-path="url(#clip-path)">
        <g id="gestion-de-base-de-datos" transform="translate(442.748 5845.687)">
          <path id="Trazado_877419" data-name="Trazado 877419" d="M37.36,12.661a1.125,1.125,0,0,1-.839-.69c-.006-.006-.006-.006-.006-.012a1.12,1.12,0,0,1,.1-1.076l.41-.583L35.736,9.01l-.589.41a1.122,1.122,0,0,1-1.07.1c-.006,0-.006-.006-.012-.006a1.133,1.133,0,0,1-.7-.839l-.119-.7H31.424l-.119.7a1.125,1.125,0,0,1-.69.839c-.006.006-.006.006-.012.006a1.116,1.116,0,0,1-1.082-.1L28.939,9l-1.291,1.291.41.583a1.106,1.106,0,0,1,.1,1.076.021.021,0,0,1-.006.012,1.125,1.125,0,0,1-.839.69l-.7.119V14.6l.7.119a1.135,1.135,0,0,1,.839.69c0,.006.006.006.006.012a1.1,1.1,0,0,1-.1,1.076l-.41.589,1.291,1.291.583-.41a1.116,1.116,0,0,1,1.082-.1c.006.006.006.006.012.006a1.1,1.1,0,0,1,.69.839l.119.7H33.25l.119-.7a1.121,1.121,0,0,1,.7-.839c.006-.006.006-.006.012-.006a1.1,1.1,0,0,1,1.076.1l.589.41,1.291-1.291-.41-.589a1.106,1.106,0,0,1-.1-1.076.021.021,0,0,1,.006-.012,1.125,1.125,0,0,1,.839-.69l.7-.119V12.774ZM32.334,16.17a2.48,2.48,0,1,1,2.486-2.48,2.478,2.478,0,0,1-2.486,2.48Z" fill="#0d4ab5"/>
          <path id="Trazado_877420" data-name="Trazado 877420" d="M12.953,7.4c6.506,0,11.775-1.392,11.775-3.1s-5.269-3.1-11.775-3.1S1.189,2.581,1.189,4.294,6.459,7.4,12.953,7.4Z" fill="#0d4ab5"/>
          <path id="Trazado_877421" data-name="Trazado 877421" d="M30.758,26.137c-.006-.006-.006-.012-.012-.024a1.8,1.8,0,0,1,.167-1.725l.66-.934-2.07-2.07-.94.66a1.784,1.784,0,0,1-1.725.161c-.006,0-.012-.006-.018-.006a1.782,1.782,0,0,1-1.106-1.344l-.19-1.124H22.6l-.19,1.124A1.775,1.775,0,0,1,21.3,22.195c-.006.006-.012.006-.018.012a1.81,1.81,0,0,1-1.731-.161l-.934-.66-2.07,2.07.66.934a1.784,1.784,0,0,1,.161,1.725c0,.012-.006.018-.006.024a1.785,1.785,0,0,1-1.338,1.106l-1.124.19v2.92l1.124.19a1.807,1.807,0,0,1,1.338,1.106c0,.006.006.012.006.024a1.784,1.784,0,0,1-.161,1.725l-.66.94L18.62,36.4l.934-.654a1.8,1.8,0,0,1,1.731-.167c.006.006.012.006.018.012a1.763,1.763,0,0,1,1.106,1.338l.19,1.13h2.926l.19-1.124A1.775,1.775,0,0,1,26.821,35.6c.006-.006.012-.006.018-.012a1.8,1.8,0,0,1,1.725.161l.94.66,2.07-2.064-.66-.94a1.784,1.784,0,0,1-.161-1.725c0-.012.006-.018.006-.024A1.807,1.807,0,0,1,32.1,30.55l1.124-.19V27.44L32.1,27.25a1.794,1.794,0,0,1-1.338-1.112Zm-6.7,6.726A3.967,3.967,0,1,1,28.029,28.9a3.966,3.966,0,0,1-3.973,3.967Z" fill="#0d4ab5"/>
          <path id="Trazado_877422" data-name="Trazado 877422" d="M12.953,13.244c6.506,0,11.775-1.392,11.775-3.1V6.322c-3,2.194-10.7,2.272-11.775,2.272S4.181,8.516,1.189,6.322V10.14c0,1.713,5.269,3.1,11.763,3.1Z" fill="#0d4ab5"/>
          <path id="Trazado_877423" data-name="Trazado 877423" d="M12.953,19.084c6.506,0,11.775-1.392,11.775-3.1V12.156c-3,2.194-10.7,2.272-11.775,2.272S4.181,14.35,1.189,12.156V15.98c0,1.719,5.269,3.1,11.763,3.1Z" fill="#0d4ab5"/>
          <path id="Trazado_877424" data-name="Trazado 877424" d="M12.953,20.274c-1.065,0-8.772-.083-11.763-2.272V21.82c0,1.719,5.263,3.1,11.763,3.1,1.07,0,2.111-.036,3.1-.107l-1.059-1.493,3.4-3.4a46.228,46.228,0,0,1-5.442.351Z" fill="#0d4ab5"/>
          <path id="Trazado_877425" data-name="Trazado 877425" d="M1.189,23.842v3.824c0,1.713,5.263,3.1,11.763,3.1.256,0,.506,0,.755-.006V26.108c-.351.006-.613.006-.755.006C11.888,26.114,4.181,26.036,1.189,23.842Z" fill="#0d4ab5"/>
          <path id="Trazado_877426" data-name="Trazado 877426" d="M18.484,19.834l-.089.089c.059-.006.119-.018.178-.024Z" fill="#0d4ab5"/>
        </g>
      </g>
    </g>
  </g>
</svg>
