<svg xmlns="http://www.w3.org/2000/svg" xmlns:xlink="http://www.w3.org/1999/xlink" width="58.074" height="63.523" viewBox="0 0 58.074 63.523">
  <defs>
    <clipPath id="clip-path">
      <rect id="Rectángulo_403259" data-name="Rectángulo 403259" width="36.878" height="36.877" transform="translate(443.938 5846.873)" fill="#0d4ab5" stroke="#707070" stroke-width="1"/>
    </clipPath>
  </defs>
  <g id="Grupo_1102135" data-name="Grupo 1102135" transform="translate(-926.196 -822.51)">
    <g id="Grupo_1101939" data-name="Grupo 1101939" transform="translate(492.297 -5016.527)">
      <g id="Grupo_1101896" data-name="Grupo 1101896" transform="translate(434.543 5839.527)">
        <path id="Trazado_877346" data-name="Trazado 877346" d="M28.394,0s4.733.954,15,3.6c9.7,2.5,13.106,3.5,13.106,3.5s1.6,9.8-2.8,27.911C50.151,49.631,38.5,59.021,28.394,62.5c-10.1-3.482-21.756-12.873-25.31-27.49C-1.317,16.906.283,7.1.283,7.1s3.4-1,13.1-3.5C23.661.954,28.394,0,28.394,0" transform="translate(-0.001 0)" fill="none" stroke="#593d09" stroke-width="1"/>
        <path id="Trazado_877313" data-name="Trazado 877313" d="M26.534,0s4.423.891,14.022,3.365C49.624,5.7,52.8,6.637,52.8,6.637S54.3,15.8,50.186,32.72c-3.321,13.66-14.21,22.435-23.652,25.689C17.092,55.154,6.2,46.379,2.882,32.72-1.231,15.8.265,6.637.265,6.637S3.444,5.7,12.511,3.365C22.111.891,26.534,0,26.534,0" transform="translate(1.859 2.047)" fill="#ffaf1a"/>
      </g>
      <g id="Enmascarar_grupo_1098792" data-name="Enmascarar grupo 1098792" clip-path="url(#clip-path)">
        <g id="Microphone" transform="translate(439.545 5843.465)">
          <path id="Trazado_877427" data-name="Trazado 877427" d="M29.987,11.586a8.178,8.178,0,1,1-8.178-8.178A8.178,8.178,0,0,1,29.987,11.586ZM40.21,33.395a6.883,6.883,0,1,1-6.877-6.877,6.883,6.883,0,0,1,6.877,6.877Zm-2.726,0a.682.682,0,0,0-.682-.682H34.076V29.987a.682.682,0,0,0-1.363,0v2.726H29.987a.682.682,0,0,0,0,1.363h2.726V36.8a.682.682,0,0,0,1.363,0V34.076H36.8A.682.682,0,0,0,37.484,33.395Zm-12.4,0a8.253,8.253,0,0,1,7.987-8.233,11.668,11.668,0,0,0-3.087-1.479c-.32-.1-.641-.177-.968-.252l-.286-.055c-.259-.048-.518-.082-.784-.116l-.307-.034c-.348,0-.682-.055-1.063-.055H17.038a6.86,6.86,0,0,0-1.063.055l-.307.034a4.351,4.351,0,0,0-.784.116l-.279.055a9.223,9.223,0,0,0-.975.252A11.586,11.586,0,0,0,5.452,34.758,5.452,5.452,0,0,0,10.9,40.21H28.7a8.253,8.253,0,0,1-3.612-6.815Z" fill="#0d4ab5"/>
        </g>
      </g>
    </g>
  </g>
</svg>
