<svg xmlns="http://www.w3.org/2000/svg" xmlns:xlink="http://www.w3.org/1999/xlink" width="295" height="246" viewBox="0 0 295 246">
  <defs>
    <clipPath id="clip-path">
      <rect id="Rectángulo_402020" data-name="Rectángulo 402020" width="225.871" height="148.531"/>
    </clipPath>
    <clipPath id="clip-path-2">
      <rect id="Rectángulo_402021" data-name="Rectángulo 402021" width="70.815" height="95.153" fill="#74abf9"/>
    </clipPath>
  </defs>
  <g id="Grupo_1102133" data-name="Grupo 1102133" transform="translate(-600 -1079.677)">
    <g id="Grupo_1100184" data-name="Grupo 1100184" transform="translate(-0.256 675.677)">
      <rect id="Rectángulo_35929" data-name="Rectángulo 35929" width="295" height="246" transform="translate(600.256 404)" fill="#f1f7ff"/>
      <g id="_415748890_c6c87e52-9a62-4d04-8ef1-5d1e2d32d03c" data-name="415748890_c6c87e52-9a62-4d04-8ef1-5d1e2d32d03c" transform="translate(563.054 237.397)">
        <g id="Grupo_1100238" data-name="Grupo 1100238" transform="translate(88.478 202.964)">
          <g id="Grupo_1100237" data-name="Grupo 1100237" transform="translate(0)" clip-path="url(#clip-path)">
            <path id="Trazado_874547" data-name="Trazado 874547" d="M405.756,351.291H307.018a.208.208,0,1,1,0-.416H405.55V203.38H180.573v45.694a.208.208,0,1,1-.416,0v-45.9a.21.21,0,0,1,.207-.207H405.758a.21.21,0,0,1,.209.207V351.084A.211.211,0,0,1,405.756,351.291Z" transform="translate(-180.115 -202.964)"/>
          </g>
        </g>
        <path id="Trazado_874548" data-name="Trazado 874548" d="M412.712,261.51H198.8a.208.208,0,0,1,0-.416H412.721a.21.21,0,0,1,.209.209A.226.226,0,0,1,412.712,261.51Z" transform="translate(-105.146 -42.593)"/>
        <path id="Trazado_874549" data-name="Trazado 874549" d="M282.995,225.138a2.857,2.857,0,1,0,2.857-2.857A2.853,2.853,0,0,0,282.995,225.138Z" transform="translate(-166.988 -14.154)" fill="#9eb6e1"/>
        <path id="Trazado_874550" data-name="Trazado 874550" d="M247.854,225.138a2.857,2.857,0,1,0,2.857-2.857A2.853,2.853,0,0,0,247.854,225.138Z" transform="translate(-141.24 -14.154)" fill="#9eb6e1"/>
        <path id="Trazado_874551" data-name="Trazado 874551" d="M218.251,225.483a2.879,2.879,0,0,1-.056.557,2.775,2.775,0,0,1-.163.536,2.817,2.817,0,0,1-.263.494,2.944,2.944,0,0,1-.355.433,2.913,2.913,0,0,1-.433.355,2.889,2.889,0,0,1-1.03.426,2.892,2.892,0,0,1-1.115,0,2.869,2.869,0,0,1-1.029-.426,2.875,2.875,0,0,1-.433-.355,2.841,2.841,0,0,1-.356-.433,2.89,2.89,0,0,1-.263-.494,2.758,2.758,0,0,1-.163-.536,2.883,2.883,0,0,1,0-1.113,2.772,2.772,0,0,1,.163-.536,2.85,2.85,0,0,1,1.052-1.282,2.869,2.869,0,0,1,1.029-.426,2.824,2.824,0,0,1,1.115,0,2.889,2.889,0,0,1,1.03.426,2.945,2.945,0,0,1,.433.355,2.913,2.913,0,0,1,.355.433,2.888,2.888,0,0,1,.426,1.03A2.855,2.855,0,0,1,218.251,225.483Z" transform="translate(-115.363 -14.407)" fill="#9eb6e1"/>
        <path id="Trazado_874552" data-name="Trazado 874552" d="M540.47,433.042H516.644a2.746,2.746,0,0,0-2.744,2.742v23.822a2.745,2.745,0,0,0,2.744,2.742H540.47a2.745,2.745,0,0,0,2.744-2.742V435.784A2.745,2.745,0,0,0,540.47,433.042Z" transform="translate(-336.176 -168.582)" fill="#ffaf1a"/>
        <path id="Trazado_874553" data-name="Trazado 874553" d="M548.118,502.815h-2.866a6.623,6.623,0,0,1-6.611-6.611v-4.132a1.142,1.142,0,0,1,1.144-1.144h13.8a1.141,1.141,0,0,1,1.144,1.144v4.142A6.609,6.609,0,0,1,548.118,502.815Zm-8.333-11.481a.729.729,0,0,0-.728.728V496.2a6.2,6.2,0,0,0,6.195,6.195h2.866a6.2,6.2,0,0,0,6.2-6.195v-4.132a.729.729,0,0,0-.729-.728h-13.8Z" transform="translate(-354.304 -210.996)" fill="#fff"/>
        <path id="Trazado_874554" data-name="Trazado 874554" d="M537.637,456.065a.216.216,0,0,1-.171-.086l-1.342-1.8a5.628,5.628,0,0,1,1.135-7.888l1.636-1.22a5.643,5.643,0,0,1,7.889,1.135l1.343,1.8a.209.209,0,0,1-.331.255l-1.343-1.8a5.219,5.219,0,0,0-7.3-1.05l-1.637,1.22a5.226,5.226,0,0,0-1.05,7.3l1.343,1.8a.217.217,0,0,1-.038.292A.23.23,0,0,1,537.637,456.065Z" transform="translate(-351.635 -176.577)" fill="#fff"/>
        <path id="Trazado_874555" data-name="Trazado 874555" d="M566.249,502.215a1.418,1.418,0,1,0-2.837,0,1.393,1.393,0,0,0,.738,1.239v2.723a.681.681,0,0,0,1.363,0v-2.723A1.4,1.4,0,0,0,566.249,502.215Z" transform="translate(-372.454 -218.227)" fill="#fff"/>
        <path id="Trazado_874556" data-name="Trazado 874556" d="M643.99,433.042h87.948v29.307H643.99Z" transform="translate(-431.495 -168.582)" fill="#9eb6e1"/>
        <path id="Trazado_874557" data-name="Trazado 874557" d="M696.473,473.125a4.794,4.794,0,0,1,.269.884,4.7,4.7,0,0,1,0,1.838,4.8,4.8,0,0,1-.269.884,4.72,4.72,0,0,1-1.021,1.527,4.689,4.689,0,0,1-1.529,1.021,4.566,4.566,0,0,1-.884.269,4.705,4.705,0,0,1-1.838,0,4.671,4.671,0,0,1-.884-.269,4.685,4.685,0,0,1-1.529-1.021,4.72,4.72,0,0,1-1.021-1.527,4.785,4.785,0,0,1-.269-.884,4.7,4.7,0,0,1,0-1.838,4.8,4.8,0,0,1,.269-.884,4.759,4.759,0,0,1,1.021-1.527,4.687,4.687,0,0,1,1.529-1.02,4.663,4.663,0,0,1,.884-.269,4.705,4.705,0,0,1,1.838,0,4.676,4.676,0,0,1,.884.269,4.69,4.69,0,0,1,1.529,1.02,4.759,4.759,0,0,1,1.021,1.527Z" transform="translate(-463.309 -195.821)" fill="#fff"/>
        <path id="Trazado_874558" data-name="Trazado 874558" d="M748.536,474.345a4.738,4.738,0,0,1,.022.923,4.76,4.76,0,0,1-.49,1.771,4.745,4.745,0,0,1-.494.78,4.715,4.715,0,0,1-2.237,1.574,4.709,4.709,0,0,1-1.824.224,4.685,4.685,0,0,1-.91-.157,4.716,4.716,0,0,1-2.31-1.463,4.768,4.768,0,0,1-.532-.755,4.829,4.829,0,0,1-.374-.845,4.708,4.708,0,0,1-.224-1.824,4.571,4.571,0,0,1,.159-.909,4.673,4.673,0,0,1,.331-.862,4.7,4.7,0,0,1,1.132-1.448,4.683,4.683,0,0,1,.755-.532,4.786,4.786,0,0,1,.845-.374,4.71,4.71,0,0,1,1.824-.224,4.65,4.65,0,0,1,.909.157,4.713,4.713,0,0,1,.862.333,4.658,4.658,0,0,1,.781.494,4.7,4.7,0,0,1,1.776,3.137Z" transform="translate(-501.22 -195.816)" fill="#fff"/>
        <path id="Trazado_874559" data-name="Trazado 874559" d="M798.909,471.609a4.709,4.709,0,0,1,0,6.66,4.719,4.719,0,0,1-1.527,1.021,4.79,4.79,0,0,1-.884.269,4.712,4.712,0,0,1-4.837-2,4.753,4.753,0,0,1-.7-1.7,4.707,4.707,0,0,1,0-1.838,4.675,4.675,0,0,1,.269-.884,4.662,4.662,0,0,1,1.021-1.527,4.706,4.706,0,0,1,6.661,0Z" transform="translate(-539.115 -195.829)" fill="#fff"/>
        <path id="Trazado_874560" data-name="Trazado 874560" d="M850.617,471.624a4.731,4.731,0,0,1,1.022,1.527,4.785,4.785,0,0,1,.269.884,4.7,4.7,0,0,1,0,1.838,4.8,4.8,0,0,1-.269.884,4.716,4.716,0,0,1-1.021,1.527,4.689,4.689,0,0,1-1.529,1.02,4.564,4.564,0,0,1-.884.269,4.7,4.7,0,0,1-1.838,0,4.65,4.65,0,0,1-.884-.267,4.785,4.785,0,0,1-.814-.436,4.649,4.649,0,0,1-.714-.586,4.716,4.716,0,0,1-1.289-2.411,4.707,4.707,0,0,1,0-1.838,4.749,4.749,0,0,1,.7-1.7,4.7,4.7,0,0,1,2.115-1.735,4.659,4.659,0,0,1,.884-.269,4.723,4.723,0,0,1,3.536.7A4.787,4.787,0,0,1,850.617,471.624Z" transform="translate(-577.002 -195.84)" fill="#fff"/>
        <path id="Trazado_874561" data-name="Trazado 874561" d="M900.177,470.448a4.778,4.778,0,0,1,.874.3,4.72,4.72,0,0,1,1.491,1.074,4.793,4.793,0,0,1,.56.734,4.674,4.674,0,0,1,.642,1.722,4.64,4.64,0,0,1,.059.922,4.712,4.712,0,0,1-.122.915,4.727,4.727,0,0,1-1.374,2.364,4.682,4.682,0,0,1-1.565.966,4.585,4.585,0,0,1-.892.237,4.716,4.716,0,0,1-2.711-.365,4.641,4.641,0,0,1-.8-.464,4.7,4.7,0,0,1-1.253-1.345,4.668,4.668,0,0,1-.407-.83,4.724,4.724,0,0,1-.171-2.729,4.747,4.747,0,0,1,1.374-2.364,4.811,4.811,0,0,1,.735-.56,4.692,4.692,0,0,1,.828-.407,4.825,4.825,0,0,1,.894-.237,4.766,4.766,0,0,1,.922-.057A4.693,4.693,0,0,1,900.177,470.448Z" transform="translate(-614.962 -195.897)" fill="#fff"/>
        <path id="Trazado_874562" data-name="Trazado 874562" d="M513.9,233.036H549.23V278.57H513.9Z" transform="translate(-336.177 -22.034)" fill="#fff"/>
        <path id="Trazado_874563" data-name="Trazado 874563" d="M548.7,278.209H513.369a.21.21,0,0,1-.207-.207V232.467a.21.21,0,0,1,.207-.207H548.7a.21.21,0,0,1,.209.207V278A.21.21,0,0,1,548.7,278.209Zm-35.13-.416h34.922V232.676H513.578v45.117Z" transform="translate(-335.635 -21.466)"/>
        <path id="Trazado_874564" data-name="Trazado 874564" d="M556.415,342.825a.188.188,0,0,1-.152-.065.209.209,0,0,1,.018-.294l4.758-4.311a.208.208,0,1,1,.274.312l-4.758,4.311A.274.274,0,0,1,556.415,342.825Z" transform="translate(-367.178 -99.018)"/>
        <path id="Trazado_874565" data-name="Trazado 874565" d="M567.8,368.98a.084.084,0,0,1-.047-.01l-7.369-1.655a.208.208,0,0,1,.085-.407l7.369,1.665a.212.212,0,0,1,.161.245A.2.2,0,0,1,567.8,368.98Z" transform="translate(-370.113 -120.123)"/>
        <path id="Trazado_874566" data-name="Trazado 874566" d="M592.727,347.507a.214.214,0,0,1-.2-.142l-2-6.043a.209.209,0,0,1,.4-.132l2,6.043a.2.2,0,0,1-.132.265A.155.155,0,0,1,592.727,347.507Z" transform="translate(-392.31 -101.175)"/>
        <path id="Trazado_874567" data-name="Trazado 874567" d="M539.036,359.681a2.733,2.733,0,1,1,2.734-2.733A2.741,2.741,0,0,1,539.036,359.681Zm0-5.051a2.317,2.317,0,1,0,2.318,2.318A2.323,2.323,0,0,0,539.036,354.63Z" transform="translate(-352.59 -110.823)"/>
        <path id="Trazado_874568" data-name="Trazado 874568" d="M579.2,323.311a2.733,2.733,0,1,1,2.734-2.734A2.742,2.742,0,0,1,579.2,323.311Zm0-5.051a2.317,2.317,0,1,0,2.318,2.317A2.321,2.321,0,0,0,579.2,318.26Z" transform="translate(-382.021 -84.174)"/>
        <path id="Trazado_874569" data-name="Trazado 874569" d="M595.552,372.384a2.733,2.733,0,1,1,2.734-2.734A2.742,2.742,0,0,1,595.552,372.384Zm0-5.051a2.317,2.317,0,1,0,2.318,2.317A2.321,2.321,0,0,0,595.552,367.333Z" transform="translate(-394 -120.131)"/>
        <path id="Trazado_874570" data-name="Trazado 874570" d="M677.365,233.036h35.328V278.57H677.365Z" transform="translate(-455.949 -22.034)" fill="#fff"/>
        <path id="Trazado_874571" data-name="Trazado 874571" d="M712.156,278.209H676.827a.21.21,0,0,1-.207-.207V232.467a.21.21,0,0,1,.207-.207h35.329a.21.21,0,0,1,.209.207V278A.21.21,0,0,1,712.156,278.209Zm-35.13-.416h34.913V232.676H677.026Z" transform="translate(-455.403 -21.466)"/>
        <path id="Trazado_874572" data-name="Trazado 874572" d="M706.927,339.564a.193.193,0,0,1-.189-.134l-4.19-10.26a.21.21,0,0,1,.388-.161l4,9.778,6.574-16.53a.206.206,0,0,1,.189-.132h10.509a.208.208,0,0,1,0,.416H713.832l-6.716,16.871A.2.2,0,0,1,706.927,339.564Z" transform="translate(-474.389 -87.311)"/>
        <path id="Trazado_874573" data-name="Trazado 874573" d="M755.317,355.538a.2.2,0,0,1-.18-.114l-6.045-11.187a.21.21,0,0,1,.369-.2l6.045,11.187a.207.207,0,0,1-.086.284A.242.242,0,0,1,755.317,355.538Z" transform="translate(-508.486 -103.285)"/>
        <path id="Trazado_874574" data-name="Trazado 874574" d="M749.274,355.538a.156.156,0,0,1-.095-.029.206.206,0,0,1-.085-.284l6.045-11.187a.2.2,0,0,1,.282-.085.207.207,0,0,1,.086.284l-6.054,11.187A.2.2,0,0,1,749.274,355.538Z" transform="translate(-508.487 -103.285)"/>
        <path id="Trazado_874575" data-name="Trazado 874575" d="M840.823,233.036h35.329V278.57H840.823Z" transform="translate(-575.717 -22.034)" fill="#fff"/>
        <path id="Trazado_874576" data-name="Trazado 874576" d="M875.614,278.209H840.287a.21.21,0,0,1-.209-.207V232.467a.21.21,0,0,1,.209-.207h35.327a.21.21,0,0,1,.209.207V278A.21.21,0,0,1,875.614,278.209Zm-35.13-.416H875.4V232.676H840.484Z" transform="translate(-575.172 -21.466)"/>
        <path id="Trazado_874577" data-name="Trazado 874577" d="M894.43,348.661H882.059a1.538,1.538,0,0,1-1.533-1.533v-13.05a.208.208,0,1,1,.416,0v13.05a1.118,1.118,0,0,0,1.116,1.116h12.164V334.079a.208.208,0,1,1,.416,0v14.374A.2.2,0,0,1,894.43,348.661Z" transform="translate(-604.808 -95.917)"/>
        <path id="Trazado_874578" data-name="Trazado 874578" d="M894.43,327.028H882.059a1.532,1.532,0,1,1,0-3.064H894.43a.21.21,0,0,1,.209.209v2.648A.2.2,0,0,1,894.43,327.028Zm-12.372-2.658a1.116,1.116,0,0,0,0,2.233h12.164V324.37Z" transform="translate(-604.808 -88.659)"/>
        <path id="Trazado_874579" data-name="Trazado 874579" d="M900.516,329.3H890.291a.207.207,0,0,1,0-.415h10.225a.21.21,0,0,1,.209.207A.2.2,0,0,1,900.516,329.3Z" transform="translate(-611.812 -92.265)"/>
        <path id="Trazado_874580" data-name="Trazado 874580" d="M900.129,346.413h-9.838a.21.21,0,0,1-.207-.207v-6.25a.21.21,0,0,1,.207-.209h9.838a.21.21,0,0,1,.207.209v6.25A.21.21,0,0,1,900.129,346.413ZM890.49,346h9.42v-5.834h-9.42Z" transform="translate(-611.812 -100.222)"/>
        <path id="Trazado_874581" data-name="Trazado 874581" d="M294.786,370.1l-16.005,10.913,11.531,11.12,12.381-12.227Z" transform="translate(-163.9 -122.466)" fill="#fff"/>
        <path id="Trazado_874582" data-name="Trazado 874582" d="M289.717,391.753a.209.209,0,0,1-.142-.057l-11.539-11.13a.23.23,0,0,1-.067-.171.187.187,0,0,1,.095-.151l16-10.914a.22.22,0,0,1,.284.039l7.917,9.806a.2.2,0,0,1-.018.274l-12.381,12.227A.184.184,0,0,1,289.717,391.753Zm-11.209-11.311,11.2,10.81L301.814,379.3l-7.671-9.512Z" transform="translate(-163.306 -121.873)"/>
        <path id="Trazado_874583" data-name="Trazado 874583" d="M368.546,335.323c.266.207-1.721,13.76-4.323,20.6s-19.665,1.608-18.065-5.721a105.5,105.5,0,0,1,4.378-14.3Z" transform="translate(-213.191 -96.982)" fill="#fff"/>
        <path id="Trazado_874584" data-name="Trazado 874584" d="M357.613,358.733a15.689,15.689,0,0,1-4.37-.661c-4.37-1.306-8.682-4.512-7.813-8.484a106.244,106.244,0,0,1,4.388-14.336.208.208,0,0,1,.189-.132l18.01-.578a.229.229,0,0,1,.132.047c.1.086.2.161-.122,2.535-.209,1.57-.53,3.518-.89,5.475a84.987,84.987,0,0,1-3.243,12.824C362.977,357.805,360.432,358.733,357.613,358.733Zm-7.473-23.2a106.555,106.555,0,0,0-4.313,14.137c-.813,3.717,3.33,6.753,7.53,8,3.991,1.192,8.872.947,10.139-2.392,2.44-6.432,4.3-18.753,4.332-20.314Z" transform="translate(-212.653 -96.409)"/>
        <path id="Trazado_874585" data-name="Trazado 874585" d="M332.355,300.374s3.32.521,6.489-2.77c0,0,2.866,2.269,8.769-.539s6.167-9.381,2.591-12.361-6.507-1.058-9.326-1.606-8.74-3.963-14.662-2.014-10.537,12.568-7.368,20.16c.8,1.93.738,4.464,2.186,4.719.331.057,2-1.561,2.356-1.561C327.464,304.385,332.355,300.374,332.355,300.374Z" transform="translate(-192.503 -56.804)"/>
        <path id="Trazado_874586" data-name="Trazado 874586" d="M343.514,346.757a7.681,7.681,0,0,1,.525,1.011,7.2,7.2,0,0,1,.361,1.062,6.586,6.586,0,0,1,.181,1.072,5.908,5.908,0,0,1,0,1.041,5.072,5.072,0,0,1-.191.97,4.192,4.192,0,0,1-.37.86,3.629,3.629,0,0,1-.533.72,3.363,3.363,0,0,1-.676.55,3.472,3.472,0,0,1-.795.361,3.76,3.76,0,0,1-.883.156,4.179,4.179,0,0,1-.936-.056,4.958,4.958,0,0,1-.952-.262,5.859,5.859,0,0,1-.934-.461,6.7,6.7,0,0,1-.878-.642,7.123,7.123,0,0,1-.789-.8,7.571,7.571,0,0,1-1.2-1.934,7.3,7.3,0,0,1-.361-1.062,6.586,6.586,0,0,1-.181-1.072,5.781,5.781,0,0,1,.006-1.041,4.826,4.826,0,0,1,.191-.969,4.168,4.168,0,0,1,.369-.862,3.72,3.72,0,0,1,.533-.72,3.389,3.389,0,0,1,1.471-.909,3.624,3.624,0,0,1,.883-.156,4.259,4.259,0,0,1,.935.054,4.882,4.882,0,0,1,.954.263,5.73,5.73,0,0,1,.933.461,6.466,6.466,0,0,1,.878.64,7.235,7.235,0,0,1,.789.8A7.557,7.557,0,0,1,343.514,346.757Z" transform="translate(-205.005 -103.056)" fill="#fff"/>
        <path id="Trazado_874587" data-name="Trazado 874587" d="M338.005,353.562a.167.167,0,0,1-.095-.028,7.29,7.29,0,0,1-2.7-2.592c-1.75-2.827-1.4-6.231.775-7.575s5.372-.142,7.132,2.685a7.429,7.429,0,0,1,1.05,2.837.209.209,0,1,1-.415.057,7.043,7.043,0,0,0-.994-2.676c-1.628-2.639-4.569-3.784-6.555-2.554s-2.269,4.37-.643,7.008a6.818,6.818,0,0,0,2.535,2.449.208.208,0,0,1,.086.284A.194.194,0,0,1,338.005,353.562Z" transform="translate(-204.434 -102.472)"/>
        <path id="Trazado_874588" data-name="Trazado 874588" d="M350.121,359.671a.216.216,0,0,1-.2-.142c-1.389-4.029-3.226-3.462-3.244-3.453a.211.211,0,0,1-.142-.4,1.755,1.755,0,0,1,1.3.152c.993.472,1.825,1.673,2.478,3.555a.208.208,0,0,1-.132.265A.131.131,0,0,1,350.121,359.671Z" transform="translate(-213.447 -111.853)"/>
        <path id="Trazado_874589" data-name="Trazado 874589" d="M359.284,639.292c.284.256,6.376-1.257,9.828-3.555s3.869-2.506,3.869-2.506,1.05,4.284,3.4,4.757,2.772-2.034,2.876-2.875c0,0,1.144,3.054,4.181,2.638s1.863-5.5,1.863-5.5.965-3.8-1.91-11.755c-1.089-3.017-2.979-7.016-2.979-7.016s2.194-.312,3.036,2.4,2.941,4.029,4.615,3.405,2.11-2.09.3-6.846c-1.93-5.078-3.557-7.736-5.96-8.568-1.778-.614-11.586,1.154-16.6,2.129a18.508,18.508,0,0,0-5.506,2.014l-10,5.58A27.187,27.187,0,0,0,359.284,639.292Z" transform="translate(-215.941 -293.655)" fill="#fff"/>
        <path id="Trazado_874590" data-name="Trazado 874590" d="M358.916,638.953a.507.507,0,0,1-.322-.066,27.745,27.745,0,0,1-9.308-17.222,25.527,25.527,0,0,1,.256-8.7.205.205,0,0,1,.1-.132l10-5.58a18.637,18.637,0,0,1,5.561-2.034c5.468-1.06,14.918-2.742,16.705-2.117,2.336.813,3.981,3.167,6.082,8.689,1.154,3.026,1.446,4.852.955,5.939a2.249,2.249,0,0,1-1.381,1.183,2.892,2.892,0,0,1-2.3-.171,5.4,5.4,0,0,1-2.582-3.366,2.777,2.777,0,0,0-2.507-2.261c.454.975,1.939,4.228,2.847,6.743,2.724,7.527,2.044,11.329,1.931,11.82.085.416.633,3.2-.426,4.729a2.229,2.229,0,0,1-1.618.973,4.044,4.044,0,0,1-4.105-2.184,3.331,3.331,0,0,1-1.164,2.091,2.274,2.274,0,0,1-1.853.321c-2.129-.426-3.207-3.669-3.492-4.644-.369.227-1.314.823-3.622,2.364C365.756,637.3,360.335,638.953,358.916,638.953Zm-.075-.407a27.239,27.239,0,0,0,9.6-3.546c3.425-2.279,3.878-2.515,3.888-2.525a.2.2,0,0,1,.18,0,.187.187,0,0,1,.113.142c.01.038,1.041,4.161,3.235,4.6a1.861,1.861,0,0,0,1.523-.255,3.313,3.313,0,0,0,1.1-2.44.2.2,0,0,1,.18-.18.211.211,0,0,1,.219.132c.047.124,1.125,2.894,3.954,2.506a1.828,1.828,0,0,0,1.334-.8c1.022-1.476.359-4.425.349-4.455a.155.155,0,0,1,0-.093c.01-.039.909-3.859-1.91-11.632-1.079-2.969-2.951-6.961-2.971-7a.209.209,0,0,1,.161-.292c.018,0,2.383-.3,3.263,2.553a5.029,5.029,0,0,0,2.373,3.12,2.453,2.453,0,0,0,1.969.152,1.836,1.836,0,0,0,1.144-.965c.444-.973.142-2.7-.965-5.617-2.053-5.4-3.632-7.689-5.837-8.454-1.239-.434-7.254.349-16.5,2.137a18.347,18.347,0,0,0-5.439,1.986l-9.923,5.532a25.357,25.357,0,0,0-.217,8.472A27.585,27.585,0,0,0,358.841,638.546Z" transform="translate(-215.385 -293.089)"/>
        <path id="Trazado_874591" data-name="Trazado 874591" d="M428.355,693.021a.2.2,0,0,1-.2-.152c-.02-.075-2.166-7.49-3.756-9.21-1.541-1.665-7.274-.095-7.331-.075a.207.207,0,0,1-.113-.4c.246-.065,6.035-1.655,7.747.2,1.655,1.8,3.764,9.068,3.849,9.381a.2.2,0,0,1-.142.255Z" transform="translate(-265.036 -351.356)"/>
        <path id="Trazado_874592" data-name="Trazado 874592" d="M440.343,669.458a.219.219,0,0,1-.189-.124c-.056-.122-5.619-12.294-7.471-13.75-1.826-1.437-7.463-.785-7.52-.775a.2.2,0,0,1-.047-.407c.237-.028,5.865-.681,7.822.86,1.939,1.523,7.368,13.4,7.6,13.911a.207.207,0,0,1-.1.274C440.4,669.448,440.373,669.458,440.343,669.458Z" transform="translate(-270.99 -330.658)"/>
        <path id="Trazado_874593" data-name="Trazado 874593" d="M439.573,632.9a.192.192,0,0,1-.189-.132,4.345,4.345,0,0,0-3.841-2.307,12.963,12.963,0,0,0-4.711.265.209.209,0,1,1-.132-.4,13.246,13.246,0,0,1,4.881-.284c3.245.284,4.153,2.468,4.19,2.563a.221.221,0,0,1-.113.274A.146.146,0,0,1,439.573,632.9Z" transform="translate(-275.108 -312.87)"/>
        <path id="Trazado_874594" data-name="Trazado 874594" d="M269.406,394.35l5.447-4.293s10.4,4.293,13.877,11.566-1.154,17.513-1.154,17.513Z" transform="translate(-157.031 -137.086)" fill="#fff"/>
        <path id="Trazado_874595" data-name="Trazado 874595" d="M287,418.806a.2.2,0,0,1-.17-.085l-18.171-24.777a.207.207,0,0,1,.039-.284l5.447-4.293a.206.206,0,0,1,.209-.028c.1.047,10.517,4.406,13.989,11.669s-1.107,17.581-1.154,17.684a.213.213,0,0,1-.17.124C287.018,418.806,287.009,418.806,287,418.806Zm-17.886-24.946,17.839,24.323c.748-1.817,4.058-10.63,1.022-17-3.206-6.714-12.533-10.923-13.658-11.415Z" transform="translate(-156.454 -136.547)"/>
        <path id="Trazado_874596" data-name="Trazado 874596" d="M146.622,470.355l-18.927,10.155s20.772-38.639,15.759-56.834-17.469-16.615-28.811-8.18S72.7,468.075,71.983,495.679c-1,38.725,33.239,31.084,36.653,30.319,18.994-4.218,50.908-27.16,50.908-27.16S147.681,494.621,146.622,470.355Z" transform="translate(-12.36 -151.291)" fill="#74abf9"/>
        <g id="Grupo_1100240" data-name="Grupo 1100240" transform="translate(56.02 256.005)">
          <g id="Grupo_1100239" data-name="Grupo 1100239" transform="translate(0 0)" clip-path="url(#clip-path-2)">
            <path id="Trazado_874597" data-name="Trazado 874597" d="M63.142,496.631H55.13s2.08-37.268,13.356-63.965,44-38.451,56.468-25.986C134.706,416.439,63.142,496.631,63.142,496.631Z" transform="translate(-55.11 -401.599)" fill="#74abf9"/>
          </g>
        </g>
        <path id="Trazado_874598" data-name="Trazado 874598" d="M71.5,608.7a.179.179,0,0,1-.065-.01.2.2,0,0,1-.132-.265c.085-.274,8.635-27.586,17.442-44.9a.216.216,0,0,1,.284-.095.221.221,0,0,1,.095.284c-8.8,17.287-17.339,44.57-17.424,44.844A.213.213,0,0,1,71.5,608.7Z" transform="translate(-11.87 -264.108)"/>
        <path id="Trazado_874599" data-name="Trazado 874599" d="M459.435,742.012H400.271a5.618,5.618,0,0,1,5.619-5.617h59.164A5.625,5.625,0,0,1,459.435,742.012Z" transform="translate(-252.918 -390.853)"/>
        <path id="Trazado_874600" data-name="Trazado 874600" d="M617.594,583.905l27.146-58.8a5.6,5.6,0,0,1,2.742,7.452l-23.713,51.349Z" transform="translate(-412.154 -236.037)"/>
        <path id="Trazado_874601" data-name="Trazado 874601" d="M568.186,600.316a.21.21,0,0,1-.207-.209V558.639a.208.208,0,0,1,.416,0v41.468A.21.21,0,0,1,568.186,600.316Z" transform="translate(-375.8 -260.457)"/>
        <path id="Trazado_874602" data-name="Trazado 874602" d="M756.574,688.481H709.943a3.487,3.487,0,0,1-3.49-3.49V633.178a3.487,3.487,0,0,1,3.49-3.49h46.632Z" transform="translate(-477.262 -312.667)" fill="#fff"/>
        <path id="Trazado_874603" data-name="Trazado 874603" d="M756,688.12H709.37a3.7,3.7,0,0,1-3.7-3.7V632.609a3.7,3.7,0,0,1,3.7-3.7H756a.21.21,0,0,1,.209.208v58.793A.21.21,0,0,1,756,688.12ZM709.36,629.328a3.289,3.289,0,0,0-3.282,3.281v51.813a3.289,3.289,0,0,0,3.282,3.281h46.424V629.328Z" transform="translate(-476.689 -312.099)"/>
        <path id="Trazado_874604" data-name="Trazado 874604" d="M734.334,691.529a.21.21,0,0,1-.209-.209V637.787a.208.208,0,1,1,.416,0V691.32A.2.2,0,0,1,734.334,691.529Z" transform="translate(-497.538 -318.448)"/>
        <path id="Trazado_874605" data-name="Trazado 874605" d="M762.615,681.13h28.764v17.751H762.615Z" transform="translate(-518.413 -350.36)" fill="#e2eaff"/>
        <path id="Trazado_874606" data-name="Trazado 874606" d="M809.232,688.481H762.6a3.487,3.487,0,0,1-3.49-3.49V633.178a3.487,3.487,0,0,1,3.49-3.49h46.633v58.793Z" transform="translate(-515.845 -312.667)" fill="#fff"/>
        <path id="Trazado_874607" data-name="Trazado 874607" d="M808.664,688.12H762.031a3.7,3.7,0,0,1-3.7-3.7V632.609a3.7,3.7,0,0,1,3.7-3.7h46.633a.21.21,0,0,1,.207.208v58.793A.21.21,0,0,1,808.664,688.12Zm-46.641-58.791a3.289,3.289,0,0,0-3.282,3.281v51.813a3.289,3.289,0,0,0,3.282,3.281h46.423V629.328Z" transform="translate(-515.276 -312.099)"/>
        <path id="Trazado_874608" data-name="Trazado 874608" d="M786.991,691.529a.21.21,0,0,1-.209-.209V637.787a.208.208,0,1,1,.416,0V691.32A.2.2,0,0,1,786.991,691.529Z" transform="translate(-536.121 -318.448)"/>
        <path id="Trazado_874609" data-name="Trazado 874609" d="M815.271,681.13h28.764v17.751H815.271Z" transform="translate(-556.995 -350.36)" fill="#e2eaff"/>
        <path id="Trazado_874610" data-name="Trazado 874610" d="M861.888,688.481H815.256a3.489,3.489,0,0,1-3.492-3.49V633.178a3.489,3.489,0,0,1,3.492-3.49h46.632Z" transform="translate(-554.426 -312.667)" fill="#fff"/>
        <path id="Trazado_874611" data-name="Trazado 874611" d="M861.32,688.12H814.688a3.7,3.7,0,0,1-3.7-3.7V632.609a3.7,3.7,0,0,1,3.7-3.7H861.32a.21.21,0,0,1,.207.208v58.793A.209.209,0,0,1,861.32,688.12Zm-46.632-58.791a3.289,3.289,0,0,0-3.282,3.281v51.813a3.289,3.289,0,0,0,3.282,3.281H861.11V629.328Z" transform="translate(-553.858 -312.099)"/>
        <path id="Trazado_874612" data-name="Trazado 874612" d="M839.686,691.529a.21.21,0,0,1-.207-.209V637.787a.208.208,0,1,1,.416,0V691.32A.205.205,0,0,1,839.686,691.529Z" transform="translate(-574.733 -318.448)"/>
        <path id="Trazado_874613" data-name="Trazado 874613" d="M867.927,681.13h28.765v17.751H867.927Z" transform="translate(-595.577 -350.36)" fill="#fff7e7"/>
      </g>
    </g>
  </g>
</svg>
