<svg xmlns="http://www.w3.org/2000/svg" xmlns:xlink="http://www.w3.org/1999/xlink" width="505" height="408" viewBox="0 0 505 408">
  <defs>
    <clipPath id="clip-path">
      <rect id="Rectángulo_403288" data-name="Rectángulo 403288" width="45" height="46" transform="translate(739.494 911)" fill="#fff"/>
    </clipPath>
    <clipPath id="clip-path-2">
      <rect id="Rectángulo_403289" data-name="Rectángulo 403289" width="46" height="46" transform="translate(601.494 1084)" fill="#12263f" stroke="#707070" stroke-width="1"/>
    </clipPath>
    <clipPath id="clip-path-3">
      <rect id="Rectángulo_403290" data-name="Rectángulo 403290" width="46" height="46" transform="translate(876.494 1084)" fill="#12263f" stroke="#707070" stroke-width="1"/>
    </clipPath>
  </defs>
  <g id="Grupo_1102142" data-name="Grupo 1102142" transform="translate(-914.711 -415)">
    <g id="Grupo_1101964" data-name="Grupo 1101964">
      <rect id="Rectángulo_403296" data-name="Rectángulo 403296" width="505" height="408" rx="20" transform="translate(914.711 415)" fill="#fff7e7"/>
      <g id="Grupo_1101956" data-name="Grupo 1101956" transform="translate(405.217 -430)">
        <path id="Trazado_877517" data-name="Trazado 877517" d="M80.906,0A80.906,80.906,0,1,1,0,80.906,80.906,80.906,0,0,1,80.906,0Z" transform="translate(680.787 882)" fill="#0d4ab5"/>
        <circle id="Elipse_11656" data-name="Elipse 11656" cx="81" cy="81" r="81" transform="translate(543.494 1055)" fill="#ffaf1a"/>
        <circle id="Elipse_11657" data-name="Elipse 11657" cx="81" cy="81" r="81" transform="translate(818.494 1055)" fill="#74abf9"/>
        <text id="Confidencialidad" transform="translate(757.494 988)" fill="#fff" font-size="16" font-family="Roboto-Black, Roboto" font-weight="800"><tspan x="-60.953" y="0">Confidencialidad</tspan></text>
        <text id="Disponibilidad" transform="translate(622.494 1161)" fill="#12263f" font-size="16" font-family="Roboto-Black, Roboto" font-weight="800"><tspan x="-51.523" y="0">Disponibilidad</tspan></text>
        <text id="Integridad" transform="translate(897.494 1161)" fill="#12263f" font-size="16" font-family="Roboto-Black, Roboto" font-weight="800"><tspan x="-37.105" y="0">Integridad</tspan></text>
        <g id="Enmascarar_grupo_1098799" data-name="Enmascarar grupo 1098799" clip-path="url(#clip-path)">
          <g id="_x38_" transform="translate(737.619 909.625)">
            <path id="Trazado_877518" data-name="Trazado 877518" d="M21.232,26.8a3.194,3.194,0,0,0,.7,2l-.461,4.061a.937.937,0,0,0,.932,1.043h4.06a.938.938,0,0,0,.932-1.043l-.461-4.066A3.2,3.2,0,1,0,21.232,26.8Zm4.523,0a1.349,1.349,0,0,1-.434.986.938.938,0,0,0-.295.794l.391,3.446H23.457l.391-3.446a.938.938,0,0,0-.3-.8,1.3,1.3,0,0,1-.437-.977,1.326,1.326,0,0,1,1.324-1.324A1.31,1.31,0,0,1,25.756,26.8Z" fill="#fff"/>
            <path id="Trazado_877519" data-name="Trazado 877519" d="M34.827,22.619a.937.937,0,0,0-.84-.954,23.643,23.643,0,0,1-8.879-3,.934.934,0,0,0-.977.039,18.543,18.543,0,0,1-9.21,3.05.938.938,0,0,0-.883.925,22.043,22.043,0,0,0,9.85,18.666.938.938,0,0,0,1.074,0,23.19,23.19,0,0,0,9.866-18.726Zm-10.406,16.8a20.143,20.143,0,0,1-8.5-15.865,20.377,20.377,0,0,0,8.774-2.981,25.779,25.779,0,0,0,8.226,2.842,21.147,21.147,0,0,1-8.5,16Z" fill="#fff"/>
            <path id="Trazado_877520" data-name="Trazado 877520" d="M44.531,9.553H44V7.768A2.574,2.574,0,0,0,41.433,5.2H15.59l-.107-.575A2.335,2.335,0,0,0,13.2,2.812H4.219A2.347,2.347,0,0,0,1.875,5.156v29.56a2.347,2.347,0,0,0,2.344,2.344h10.25a27.757,27.757,0,0,0,9.591,8.783.938.938,0,0,0,.89-.034,27.866,27.866,0,0,0,9.324-8.749H44.531a2.346,2.346,0,0,0,2.344-2.344V11.9a2.347,2.347,0,0,0-2.344-2.344Zm-3.1-2.481a.7.7,0,0,1,.7.7V9.553H16.79a.461.461,0,0,1-.448-.32l-.4-2.162ZM24.449,43.921A24,24,0,0,1,12.342,19.846,16.7,16.7,0,0,0,24.488,16.1a22.837,22.837,0,0,0,9.781,3.705,13.675,13.675,0,0,0,2.34.043c.034.364.068.833.087,1.387A25.006,25.006,0,0,1,24.449,43.921ZM45,34.715a.469.469,0,0,1-.469.469H35.376a28.077,28.077,0,0,0,3.194-14.007,20.2,20.2,0,0,0-.219-2.514A.933.933,0,0,0,37.3,17.9a11.716,11.716,0,0,1-2.839.047,21.533,21.533,0,0,1-9.479-3.776.94.94,0,0,0-1.186.059,14.721,14.721,0,0,1-12.064,3.647.937.937,0,0,0-1.121.781,25.669,25.669,0,0,0,2.733,16.53H4.219a.469.469,0,0,1-.469-.469V5.156a.469.469,0,0,1,.469-.469H13.2a.461.461,0,0,1,.448.32l.859,4.612a2.335,2.335,0,0,0,2.282,1.809H44.531A.469.469,0,0,1,45,11.9Z" fill="#fff"/>
          </g>
        </g>
        <g id="Enmascarar_grupo_1098800" data-name="Enmascarar grupo 1098800" clip-path="url(#clip-path-2)">
          <g id="disponible" transform="translate(601.494 1084)">
            <g id="Grupo_1101959" data-name="Grupo 1101959">
              <g id="Grupo_1101958" data-name="Grupo 1101958">
                <path id="Trazado_877521" data-name="Trazado 877521" d="M19.552,29.332l-8.732-8.626a3.017,3.017,0,0,0-3.676-.458V9.864A3,3,0,0,0,6.765,8.4,1.542,1.542,0,0,1,8.809,9.865V17.5a.734.734,0,1,0,1.468,0V9.865A3.013,3.013,0,0,0,5.7,7.291,3.012,3.012,0,0,0,1.118,9.865l.013,14.474a4.988,4.988,0,0,0,.558,2.129l.016.027,9.041,14.593a3.6,3.6,0,0,1,.363,1.4v2.766a.734.734,0,1,0,1.468,0V42.487a4.98,4.98,0,0,0-.558-2.13L12,40.33,2.962,25.737a3.612,3.612,0,0,1-.363-1.4L2.586,9.864a1.545,1.545,0,1,1,3.09,0V22.837c0,.018,0,.036,0,.054a3,3,0,0,0,.88,2.077l7.013,7.013a.734.734,0,1,0,1.038-1.038L7.6,23.93a1.545,1.545,0,1,1,2.188-2.182l8.732,8.626A7.146,7.146,0,0,1,20.309,34.7V45.266a.734.734,0,1,0,1.468,0V34.7A8.585,8.585,0,0,0,19.552,29.332Z" fill="#12263f"/>
              </g>
            </g>
            <g id="Grupo_1101961" data-name="Grupo 1101961">
              <g id="Grupo_1101960" data-name="Grupo 1101960">
                <path id="Trazado_877522" data-name="Trazado 877522" d="M41.869,6.851A3,3,0,0,0,40.3,7.29a3.013,3.013,0,0,0-4.58,2.574V17.5a.734.734,0,0,0,1.468,0V9.864A1.542,1.542,0,0,1,39.235,8.4a2.994,2.994,0,0,0-.379,1.461V20.249a3.017,3.017,0,0,0-3.673.454l-8.738,8.632A8.583,8.583,0,0,0,24.223,34.7V45.266a.734.734,0,0,0,1.468,0V34.7a7.145,7.145,0,0,1,1.788-4.321l8.738-8.632A1.545,1.545,0,0,1,38.4,23.93L31.39,30.943a.734.734,0,1,0,1.038,1.038l7.013-7.013a3,3,0,0,0,.88-2.077c0-.018,0-.036,0-.054V9.864a1.545,1.545,0,0,1,3.091,0L43.4,24.338a3.608,3.608,0,0,1-.363,1.4L34,40.33l-.016.027a4.977,4.977,0,0,0-.558,2.13v2.766a.734.734,0,0,0,1.468,0V42.487a3.6,3.6,0,0,1,.363-1.4L44.295,26.5l.016-.027a4.986,4.986,0,0,0,.558-2.129l.013-14.475A3.017,3.017,0,0,0,41.869,6.851Z" fill="#12263f"/>
              </g>
            </g>
            <g id="Grupo_1101963" data-name="Grupo 1101963">
              <g id="Grupo_1101962" data-name="Grupo 1101962">
                <path id="Trazado_877523" data-name="Trazado 877523" d="M33.521,5.383a.734.734,0,0,0,.734-.734V.734A.734.734,0,0,0,33.521,0H12.479a.734.734,0,0,0-.734.734V4.649a.734.734,0,0,0,.734.734h.245V6.851h-.245a.734.734,0,0,0-.734.734V11.5a.734.734,0,0,0,.734.734h.245V13.7h-.245a.734.734,0,0,0-.734.734v3.915a.734.734,0,0,0,.734.734H33.521a.734.734,0,0,0,.734-.734V14.436a.734.734,0,0,0-.734-.734h-.245V12.234h.245a.734.734,0,0,0,.734-.734V7.585a.734.734,0,0,0-.734-.734h-.245V5.383h.245Zm-.734,12.234H13.213V15.17H32.787v2.447Zm0-6.851H29.606a.734.734,0,1,0,0,1.468h2.2V13.7H14.191V12.234H26.67a.734.734,0,1,0,0-1.468H13.213V8.319H32.787v2.447Zm-18.6-3.915V5.383H31.808V6.851Zm18.6-2.936H13.213V1.468H32.787V3.915Z" fill="#12263f"/>
              </g>
            </g>
          </g>
        </g>
        <g id="Enmascarar_grupo_1098801" data-name="Enmascarar grupo 1098801" clip-path="url(#clip-path-3)">
          <path id="integridad-2" data-name="integridad" d="M29.937,24.155a9.4,9.4,0,1,0-9.4-9.4A9.411,9.411,0,0,0,29.937,24.155ZM24.408,20.7a5.661,5.661,0,0,1,11.058,0,8.106,8.106,0,0,1-11.058,0Zm5.529-5.742A2.362,2.362,0,1,1,32.3,12.6,2.364,2.364,0,0,1,29.937,14.957Zm0-8.325a8.118,8.118,0,0,1,6.532,12.944,6.93,6.93,0,0,0-4.2-4.193,3.64,3.64,0,1,0-4.671,0,6.93,6.93,0,0,0-4.2,4.193A8.118,8.118,0,0,1,29.937,6.632ZM44.795,29.448a2.567,2.567,0,0,0-3.3-.238,82.118,82.118,0,0,1-9.438,4.406,2.564,2.564,0,0,0-2.588-3.069,21.486,21.486,0,0,1-9.024-2.058c-2.112-.876-3.936-1.633-6.093-1.11-2.179.527-4.5,2.333-7.491,5.84a2.079,2.079,0,0,0-2.369.4L1.643,36.468a.639.639,0,0,0,0,.9l8.806,8.806a.639.639,0,0,0,.9,0L14.2,43.329a2.079,2.079,0,0,0,.469-2.212,14.173,14.173,0,0,1,6.437-.672c.582.035,1.194.084,1.841.136A46.015,46.015,0,0,0,27.6,40.8c3.223-.071,5.163-.976,7.755-2.349,2.641-1.4,8.274-4.74,9.327-6.124a2.214,2.214,0,0,0,.109-2.877ZM13.3,42.426l-2.4,2.4L3,36.92l2.4-2.4a.8.8,0,0,1,1.13,0L13.3,41.3a.8.8,0,0,1,0,1.13ZM43.669,31.552c-.741.974-5.479,3.952-8.908,5.768a14.52,14.52,0,0,1-7.185,2.2,45.166,45.166,0,0,1-4.526-.214c-.654-.053-1.271-.1-1.867-.138a15.19,15.19,0,0,0-7.3.9L7.844,34.035c5.918-6.933,8.134-6.015,12.111-4.365a22.866,22.866,0,0,0,9.524,2.155H29.5a1.279,1.279,0,0,1,1.146,1.928c-.44.741-2.034,1.126-4.263,1.028a14.659,14.659,0,0,1-5.02-1.02.639.639,0,1,0-.59,1.133,15.681,15.681,0,0,0,5.554,1.164c.234.01.477.016.723.016a8.763,8.763,0,0,0,3.276-.524,72.142,72.142,0,0,0,11.8-5.233c.785-.453,1.433-.33,1.7-.024s.2.772-.167,1.259Zm-29.184-4.6A5.841,5.841,0,0,0,19.307,24.4a4.612,4.612,0,0,0,.455.529,4.1,4.1,0,0,0,3.829,1.131,2.832,2.832,0,0,1,2.839,1.176,4.177,4.177,0,0,0,7.014,0,2.833,2.833,0,0,1,2.839-1.176,4.177,4.177,0,0,0,4.959-4.96,2.832,2.832,0,0,1,1.176-2.839,4.177,4.177,0,0,0,0-7.014,2.832,2.832,0,0,1-1.176-2.839,4.177,4.177,0,0,0-4.96-4.96,2.833,2.833,0,0,1-2.839-1.176,4.177,4.177,0,0,0-7.014,0,2.833,2.833,0,0,1-2.839,1.176,4.177,4.177,0,0,0-4.959,4.96,2.833,2.833,0,0,1-1.176,2.839,4.1,4.1,0,0,0-1.908,3.507,4.609,4.609,0,0,0,.042.613,5.843,5.843,0,1,0-1.1,11.581Zm2.341-12.194a2.829,2.829,0,0,1,1.37-2.465,4.085,4.085,0,0,0,1.7-4.094,2.828,2.828,0,0,1,.774-2.712,2.8,2.8,0,0,1,2.712-.774,4.085,4.085,0,0,0,4.094-1.7,2.9,2.9,0,0,1,4.931,0,4.085,4.085,0,0,0,4.094,1.7,2.829,2.829,0,0,1,2.712.774A2.8,2.8,0,0,1,39.983,8.2a4.085,4.085,0,0,0,1.7,4.094,2.9,2.9,0,0,1,0,4.93,4.085,4.085,0,0,0-1.7,4.094,2.829,2.829,0,0,1-.774,2.712A2.8,2.8,0,0,1,36.5,24.8,4.085,4.085,0,0,0,32.4,26.5a2.9,2.9,0,0,1-4.93,0,4.085,4.085,0,0,0-4.094-1.7A2.953,2.953,0,0,1,20,23.034a5.839,5.839,0,0,0-2.98-7.193,2.879,2.879,0,0,1-.194-1.086ZM14.484,16.54a4.566,4.566,0,1,1-4.566,4.566A4.571,4.571,0,0,1,14.484,16.54Zm-2.791,4.432a.639.639,0,0,1,1.107-.639l.789,1.367,2.681-2.681a.639.639,0,0,1,.9.9L13.9,23.192a.639.639,0,0,1-1-.132l-1.205-2.088Z" transform="translate(876.129 1083.635)" fill="#12263f"/>
        </g>
        <path id="Unión_7" data-name="Unión 7" d="M14.067,66.423V35.947H0L25.789,0,51.576,35.947H38.29V66.423Z" transform="translate(666.686 980.791) rotate(51)" fill="#01d159"/>
        <path id="Unión_10" data-name="Unión 10" d="M14.067,66.423V35.947H0L25.789,0,51.576,35.947H38.29V66.423Z" transform="matrix(-0.788, 0.616, -0.616, -0.788, 908.066, 1031.889)" fill="#01d159"/>
        <path id="Unión_9" data-name="Unión 9" d="M14.066,66.423V35.947H0L25.789,0,51.576,35.947H38.29V66.423Z" transform="translate(728.833 1161.437) rotate(-90)" fill="#01d159"/>
      </g>
    </g>
  </g>
</svg>
