<svg xmlns="http://www.w3.org/2000/svg" xmlns:xlink="http://www.w3.org/1999/xlink" width="86.881" height="95.518" viewBox="0 0 86.881 95.518">
  <defs>
    <clipPath id="clip-path">
      <rect id="Rectángulo_403241" data-name="Rectángulo 403241" width="55.755" height="55.755" transform="translate(359.746 4166.635)" fill="#0d4ab5" stroke="#707070" stroke-width="1"/>
    </clipPath>
  </defs>
  <g id="Grupo_1102136" data-name="Grupo 1102136" transform="translate(-408.2 -1334.125)">
    <g id="Grupo_1102133" data-name="Grupo 1102133">
      <g id="Grupo_1101858" data-name="Grupo 1101858" transform="translate(63.169 -2820.912)">
        <g id="Grupo_1101840" data-name="Grupo 1101840" transform="translate(345.542 4155.527)">
          <path id="Trazado_877346" data-name="Trazado 877346" d="M42.929,0s7.156,1.442,22.686,5.444C80.286,9.225,85.43,10.738,85.43,10.738s2.42,14.822-4.235,42.2c-5.373,22.1-22.99,36.3-38.266,41.562C27.654,89.234,10.036,75.036,4.664,52.937-1.991,25.561.429,10.738.429,10.738S5.572,9.225,20.241,5.444C35.773,1.442,42.929,0,42.929,0" transform="translate(0 0)" fill="none" stroke="#072c6c" stroke-width="1"/>
          <path id="Trazado_877313" data-name="Trazado 877313" d="M40.117,0s6.687,1.348,21.2,5.087c13.71,3.534,18.517,4.948,18.517,4.948s2.261,13.851-3.958,39.434C70.855,70.12,54.392,83.388,40.117,88.308,25.842,83.388,9.379,70.12,4.358,49.469-1.861,23.886.4,10.035.4,10.035S5.207,8.621,18.915,5.087C33.43,1.348,40.117,0,40.117,0" transform="translate(2.812 3.095)" fill="#ffaf1a"/>
        </g>
        <g id="Enmascarar_grupo_1098806" data-name="Enmascarar grupo 1098806" clip-path="url(#clip-path)">
          <g id="Page-1" transform="translate(359.747 4166.635)">
            <g id="_028---Confidential-Folder-Unlocking" data-name="028---Confidential-Folder-Unlocking">
              <g id="Icons_copy" transform="translate(0.929 0.929)">
                <path id="Shape" d="M33.453,40.887H16.187a7.434,7.434,0,1,0,0,5.575h4.256v1.858a1.858,1.858,0,1,0,3.717,0V46.462h3.717v1.858a1.858,1.858,0,0,0,3.717,0V46.462h1.858A1.864,1.864,0,0,0,35.311,44.6V42.745A1.864,1.864,0,0,0,33.453,40.887Zm-24.16,6.5a3.717,3.717,0,1,1,3.717-3.717A3.717,3.717,0,0,1,9.292,47.391Z" fill="#7f8e94"/>
                <path id="Shape-2" data-name="Shape" d="M31.594,46.462h1.858A1.864,1.864,0,0,0,35.311,44.6V42.745a1.864,1.864,0,0,0-1.858-1.858H30.665a1.864,1.864,0,0,1,1.858,1.858V44.6a1.864,1.864,0,0,1-1.858,1.858Z" fill="#545c60"/>
                <path id="Shape-3" data-name="Shape" d="M53.9,38.1V51.108A2.788,2.788,0,0,1,51.108,53.9H32.524a2.788,2.788,0,0,1-2.788-2.788v-.929a1.864,1.864,0,0,0,1.858-1.858V46.462h1.858A1.864,1.864,0,0,0,35.311,44.6V42.745a1.864,1.864,0,0,0-1.858-1.858H29.736V38.1a2.788,2.788,0,0,1,2.788-2.788H51.108A2.788,2.788,0,0,1,53.9,38.1Z" fill="#ffeb3a"/>
                <path id="Shape-4" data-name="Shape" d="M51.108,35.311H48.321A2.788,2.788,0,0,1,51.108,38.1V51.108A2.788,2.788,0,0,1,48.321,53.9h2.788A2.788,2.788,0,0,0,53.9,51.108V38.1A2.788,2.788,0,0,0,51.108,35.311Z" fill="#fdd834"/>
                <path id="Shape-5" data-name="Shape" d="M44.564,42.264a2.761,2.761,0,0,1-.889,2.554v2.574a1.858,1.858,0,0,1-3.717,0V44.817a2.732,2.732,0,0,1-.929-2.072,2.788,2.788,0,0,1,5.535-.481Z" fill="sienna"/>
                <path id="Shape-6" data-name="Shape" d="M51.108,31.594v3.717H47.391V31.594a5.575,5.575,0,0,0-11.151,0v3.717H32.524V31.594a9.292,9.292,0,0,1,18.455-1.552,9.451,9.451,0,0,1,.13,1.552Z" fill="#9e9e9e"/>
                <path id="Shape-7" data-name="Shape" d="M50.978,30.042a9.215,9.215,0,0,0-10.556-7.62,9.271,9.271,0,0,1,7.768,7.62,9.451,9.451,0,0,1,.13,1.552v3.717h2.788V31.594A9.452,9.452,0,0,0,50.978,30.042Z" fill="#707070"/>
                <path id="Shape-8" data-name="Shape" d="M41.816,6.5V22.3a9.292,9.292,0,0,0-9.292,9.292H1.858A1.864,1.864,0,0,1,0,29.736V1.858A1.864,1.864,0,0,1,1.858,0H14.868a1.864,1.864,0,0,1,1.32.548l4.1,4.1H39.957A1.864,1.864,0,0,1,41.816,6.5Z" fill="#ffaf1a"/>
                <path id="Shape-9" data-name="Shape" d="M30.665,18.12a9.724,9.724,0,0,1-3.9,7.8,5.864,5.864,0,0,0-3.429-5.325,4.133,4.133,0,0,0,1.756-3.4,4.182,4.182,0,0,0-8.363,0,4.133,4.133,0,0,0,1.756,3.4,5.864,5.864,0,0,0-3.429,5.325,9.757,9.757,0,1,1,15.611-7.8Z" fill="#ffe7b9"/>
                <path id="Shape-10" data-name="Shape" d="M26.762,25.917v.009a9.757,9.757,0,0,1-11.708,0v-.009a5.864,5.864,0,0,1,3.429-5.325,4.158,4.158,0,0,0,4.851,0A5.864,5.864,0,0,1,26.762,25.917Z" fill="#60a917"/>
                <path id="Shape-11" data-name="Shape" d="M25.09,17.191a4.182,4.182,0,1,1-4.182-4.182A4.182,4.182,0,0,1,25.09,17.191Z" fill="#ffe0b2"/>
              </g>
              <g id="Icons">
                <path id="Shape-12" data-name="Shape" d="M10.222,39.957A4.646,4.646,0,1,0,14.868,44.6,4.646,4.646,0,0,0,10.222,39.957Zm0,7.434A2.788,2.788,0,1,1,13.009,44.6,2.788,2.788,0,0,1,10.222,47.391Z"/>
                <path id="Shape-13" data-name="Shape" d="M52.967,35.443v-2.92a10.5,10.5,0,0,0-.142-1.705,10.222,10.222,0,0,0-20.3,1.705v2.92a3.717,3.717,0,0,0-2.788,3.585v1.858H17.716a8.363,8.363,0,1,0,0,7.434h2.727v.929a2.788,2.788,0,0,0,5.575,0v-.929h1.858v.929a2.779,2.779,0,0,0,1.858,2.619v.169a3.717,3.717,0,0,0,3.717,3.717H52.038a3.717,3.717,0,0,0,3.717-3.717V39.028a3.717,3.717,0,0,0-2.788-3.585ZM42.745,24.16a8.37,8.37,0,0,1,8.246,6.964,8.525,8.525,0,0,1,.117,1.4v2.788H49.25V32.524a6.5,6.5,0,0,0-13.009,0v2.788H34.382V32.524a8.372,8.372,0,0,1,8.363-8.363ZM38.1,35.311V32.524a4.646,4.646,0,0,1,9.292,0v2.788ZM28.807,46.462H25.09a.929.929,0,0,0-.929.929V49.25a.929.929,0,0,1-.929.929.907.907,0,0,1-.663-.284.9.9,0,0,1-.267-.645V47.391a.929.929,0,0,0-.929-.929H17.117a.929.929,0,0,0-.861.58,6.5,6.5,0,1,1,0-4.877.929.929,0,0,0,.861.58H34.382a.929.929,0,0,1,.929.929v1.858a.929.929,0,0,1-.929.929H32.524a.929.929,0,0,0-.929.929V49.25a.929.929,0,0,1-.929.929A.907.907,0,0,1,30,49.895a.9.9,0,0,1-.267-.645V47.391a.929.929,0,0,0-.929-.929ZM53.9,52.038A1.858,1.858,0,0,1,52.038,53.9H33.453a1.858,1.858,0,0,1-1.858-1.858v-.171a2.788,2.788,0,0,0,1.858-2.617v-.929h.929a2.788,2.788,0,0,0,2.788-2.788V43.674a2.788,2.788,0,0,0-2.788-2.788H31.594V39.028a1.858,1.858,0,0,1,1.858-1.858H52.038A1.858,1.858,0,0,1,53.9,39.028Z"/>
                <path id="Shape-14" data-name="Shape" d="M43.438,40.021a3.718,3.718,0,0,0-3.481,6.112v2.188a2.788,2.788,0,1,0,5.575,0V46.133a3.717,3.717,0,0,0-2.095-6.113ZM44,45.046a.929.929,0,0,0-.322.7v2.574a.929.929,0,1,1-1.858,0V45.747a.929.929,0,0,0-.319-.7,1.811,1.811,0,0,1-.611-1.372,1.858,1.858,0,0,1,3.689-.332,1.838,1.838,0,0,1-.583,1.7Z"/>
                <path id="Shape-15" data-name="Shape" d="M29.736,33.453a.929.929,0,1,0,0-1.858H2.788a.929.929,0,0,1-.929-.929V2.788a.929.929,0,0,1,.929-.929H15.8a.929.929,0,0,1,.663.279l2.509,2.509H9.292a.929.929,0,1,0,0,1.858H40.887a.929.929,0,0,1,.929.929v12.08a.929.929,0,1,0,1.858,0V7.434a2.788,2.788,0,0,0-2.788-2.788H21.6L17.774.821A2.774,2.774,0,0,0,15.8,0H2.788A2.788,2.788,0,0,0,0,2.788V30.665a2.788,2.788,0,0,0,2.788,2.788Z"/>
                <path id="Shape-16" data-name="Shape" d="M11.151,19.049A10.664,10.664,0,0,0,15.318,27.5a.743.743,0,0,0,.086.064,10.607,10.607,0,0,0,12.916-.04c.007-.007.018-.012.025-.02a10.68,10.68,0,1,0-17.195-8.452Zm5.795,7.341a4.925,4.925,0,0,1,2.431-3.8,5.094,5.094,0,0,0,4.925,0,4.925,4.925,0,0,1,2.427,3.8A8.8,8.8,0,0,1,16.946,26.39Zm4.892-5.018A3.252,3.252,0,1,1,25.09,18.12,3.252,3.252,0,0,1,21.837,21.373Zm8.828-2.323a8.78,8.78,0,0,1-2.312,5.934,6.8,6.8,0,0,0-2.565-3.624,5.111,5.111,0,1,0-7.9,0,6.8,6.8,0,0,0-2.565,3.624,8.821,8.821,0,1,1,15.34-5.934Z"/>
              </g>
            </g>
          </g>
        </g>
      </g>
    </g>
  </g>
</svg>
