<svg xmlns="http://www.w3.org/2000/svg" xmlns:xlink="http://www.w3.org/1999/xlink" width="124.979" height="137.827" viewBox="0 0 124.979 137.827">
  <defs>
    <clipPath id="clip-path">
      <rect id="Rectángulo_403236" data-name="Rectángulo 403236" width="120.97" height="120.97" transform="translate(642.663 6975)" fill="#fff" stroke="#707070" stroke-width="1"/>
    </clipPath>
  </defs>
  <g id="Grupo_1102137" data-name="Grupo 1102137" transform="translate(-318.642 -3112.489)">
    <g id="Grupo_1101884" data-name="Grupo 1101884" transform="translate(-321.344 -3862.511)">
      <path id="Trazado_877346" data-name="Trazado 877346" d="M61.489,136.37l-.433-.149A89.017,89.017,0,0,1,28,115.293,85.92,85.92,0,0,1,14.513,97.9,81.178,81.178,0,0,1,5.682,76.066,256.024,256.024,0,0,1,.714,50.084,186.828,186.828,0,0,1-.927,31.11,89.756,89.756,0,0,1-.372,15.42l.135-.825.8-.236c.074-.022,7.589-2.224,28.269-7.555C50.743,1.16,61.124-.947,61.226-.967l.263-.053.263.053c.1.021,10.483,2.127,32.388,7.771,20.684,5.332,28.2,7.534,28.273,7.555l.8.236.135.825a89.757,89.757,0,0,1,.555,15.69,186.829,186.829,0,0,1-1.641,18.973A256.03,256.03,0,0,1,117.3,76.066,81.178,81.178,0,0,1,108.464,97.9a85.921,85.921,0,0,1-13.489,17.39A89.017,89.017,0,0,1,61.922,136.22ZM2.144,16.672a100.193,100.193,0,0,0-.41,14.469c.3,9.183,1.676,24.323,6.531,44.3,7.733,31.81,33.4,51.133,53.223,58.117,19.826-6.984,45.49-26.308,53.223-58.118,4.856-19.975,6.232-35.115,6.531-44.3a100.189,100.189,0,0,0-.41-14.469c-2.444-.7-10.525-2.954-27.357-7.293C73.562,4.247,63.223,2.054,61.489,1.693c-1.735.36-12.074,2.554-31.991,7.685C12.669,13.717,4.587,15.976,2.144,16.672Z" transform="translate(640.986 6976.458)" fill="#072c6c"/>
      <path id="Trazado_877313" data-name="Trazado 877313" d="M57.152,0s9.527,1.92,30.2,7.247c19.532,5.035,26.38,7.049,26.38,7.049s3.221,19.733-5.638,56.179C100.943,99.9,77.489,118.8,57.152,125.807,36.816,118.8,13.361,99.9,6.209,70.475-2.651,34.029.571,14.3.571,14.3s6.848-2.014,26.377-7.049C47.625,1.92,57.152,0,57.152,0" transform="translate(645.322 6981.204)" fill="#74abf9"/>
      <g id="Enmascarar_grupo_1098796" data-name="Enmascarar grupo 1098796" clip-path="url(#clip-path)">
        <g id="evitar" transform="translate(642.663 6975)">
          <path id="Trazado_877468" data-name="Trazado 877468" d="M83.9,17.56V44.876a7.8,7.8,0,0,0-15.609,0V17.56a7.8,7.8,0,1,0,15.609,0Zm0,0" fill="#ffeaa7"/>
          <path id="Trazado_877469" data-name="Trazado 877469" d="M103.41,17.56H48.778A15.6,15.6,0,0,1,33.169,1.951V41.774a42.624,42.624,0,0,0,23.414,7V70.241a58.785,58.785,0,0,1-3,18.517,59.3,59.3,0,0,1-8.7,16.6l-11.707,5.853v7.8h85.85V1.951A15.6,15.6,0,0,1,103.41,17.56Zm0,0" fill="#ecc19c"/>
          <path id="Trazado_877470" data-name="Trazado 877470" d="M72.192,87.8h39.023v23.414H72.192Zm0,0" fill="#b27946"/>
          <path id="Trazado_877471" data-name="Trazado 877471" d="M33.169,1.951h85.85A15.6,15.6,0,0,1,103.41,17.56H83.9a7.8,7.8,0,0,0-15.609,0H48.778A15.6,15.6,0,0,1,33.169,1.951Zm0,0" fill="#cf9e76"/>
          <path id="Trazado_877472" data-name="Trazado 877472" d="M76.094,37.071a7.8,7.8,0,1,1-7.8,7.8A7.8,7.8,0,0,1,76.094,37.071Zm0,0" fill="#e6e9ed"/>
          <path id="Trazado_877473" data-name="Trazado 877473" d="M76.094,9.756a7.8,7.8,0,1,1-7.8,7.8A7.8,7.8,0,0,1,76.094,9.756Zm0,0" fill="#e6e9ed"/>
          <path id="Trazado_877474" data-name="Trazado 877474" d="M56.583,48.778V70.241a58.785,58.785,0,0,1-3,18.517,59.3,59.3,0,0,1-8.7,16.6l-15.609,7.8-15.609-7.8A58.583,58.583,0,0,1,1.951,70.241V48.778a42.63,42.63,0,0,0,24.78-7.941l2.536-1.815L31.8,40.838c.449.312.9.624,1.366.917v.02a42.624,42.624,0,0,0,23.414,7Zm0,0" fill="#ccd1d9"/>
          <path id="Trazado_877475" data-name="Trazado 877475" d="M39.023,99.508H19.511a3.913,3.913,0,0,1-3.9-3.9V76.094a3.913,3.913,0,0,1,3.9-3.9H39.023a3.913,3.913,0,0,1,3.9,3.9V95.605A3.913,3.913,0,0,1,39.023,99.508Zm0,0" fill="#fcd770"/>
          <path id="Trazado_877476" data-name="Trazado 877476" d="M33.169,83.9a3.9,3.9,0,1,1-3.9-3.9A3.9,3.9,0,0,1,33.169,83.9Zm0,0" fill="#ffc729"/>
          <path id="Trazado_877477" data-name="Trazado 877477" d="M44.876,76.094a5.845,5.845,0,0,0-3.9-5.494V62.436a11.707,11.707,0,0,0-23.414,0V70.6a5.845,5.845,0,0,0-3.9,5.494V95.605a5.861,5.861,0,0,0,5.853,5.853H39.023a5.861,5.861,0,0,0,5.853-5.853ZM29.267,54.632a7.812,7.812,0,0,1,7.8,7.8v7.8H21.462v-7.8A7.812,7.812,0,0,1,29.267,54.632ZM40.974,95.605a1.954,1.954,0,0,1-1.951,1.951H19.511a1.954,1.954,0,0,1-1.951-1.951V76.094a1.954,1.954,0,0,1,1.951-1.951H39.023a1.954,1.954,0,0,1,1.951,1.951Zm0,0"/>
          <path id="Trazado_877478" data-name="Trazado 877478" d="M29.267,78.045a5.839,5.839,0,0,0-1.951,11.348v4.261h3.9V89.393a5.839,5.839,0,0,0-1.951-11.348Zm0,7.8A1.951,1.951,0,1,1,31.218,83.9,1.954,1.954,0,0,1,29.267,85.85Zm0,0"/>
          <path id="Trazado_877479" data-name="Trazado 877479" d="M31.218,0V38.018l-1.951-1.395-3.677,2.63A40.458,40.458,0,0,1,1.951,46.827H0V70.241a60.869,60.869,0,0,0,12.1,36.291l.276.369,16.893,8.447,1.951-.976v6.6H120.97V0ZM76.094,23.414a5.853,5.853,0,1,1,5.853-5.853A5.861,5.861,0,0,1,76.094,23.414Zm5.853,1.9V37.12a9.563,9.563,0,0,0-11.707,0V25.316a9.563,9.563,0,0,0,11.707,0ZM76.094,39.023a5.853,5.853,0,1,1-5.853,5.853A5.861,5.861,0,0,1,76.094,39.023Zm9.558-23.414a9.756,9.756,0,0,0-19.117,0H48.778A13.668,13.668,0,0,1,35.277,3.9h81.635a13.668,13.668,0,0,1-13.5,11.707ZM14.946,103.823A56.941,56.941,0,0,1,3.9,70.241V50.688a44.322,44.322,0,0,0,23.956-8.259l1.409-1.009,1.411,1.007a44.3,44.3,0,0,0,23.954,8.259V70.241a56.941,56.941,0,0,1-11.044,33.583l-14.321,7.161Zm102.122,13.244H35.12V112.42l11.04-5.52.276-.369a60.868,60.868,0,0,0,12.1-36.291V46.827H56.583A40.418,40.418,0,0,1,35.12,40.683V12.963a17.525,17.525,0,0,0,13.658,6.548h17.56V44.876a9.756,9.756,0,0,0,19.511,0V19.511h17.56a17.525,17.525,0,0,0,13.658-6.548Zm0,0"/>
          <path id="Trazado_877480" data-name="Trazado 877480" d="M78.045,17.56a1.951,1.951,0,1,1-1.951-1.951A1.951,1.951,0,0,1,78.045,17.56Zm0,0"/>
          <path id="Trazado_877481" data-name="Trazado 877481" d="M78.045,44.876a1.951,1.951,0,1,1-1.951-1.951A1.951,1.951,0,0,1,78.045,44.876Zm0,0"/>
          <path id="Trazado_877482" data-name="Trazado 877482" d="M70.241,113.166h42.925V85.85H70.241Zm3.9-23.414h35.12v19.511H74.143Zm0,0"/>
          <path id="Trazado_877483" data-name="Trazado 877483" d="M78.045,93.654h27.316v3.9H78.045Zm0,0"/>
          <path id="Trazado_877484" data-name="Trazado 877484" d="M78.045,101.459H97.557v3.9H78.045Zm0,0"/>
          <path id="Trazado_877485" data-name="Trazado 877485" d="M101.459,101.459h3.9v3.9h-3.9Zm0,0"/>
        </g>
      </g>
    </g>
  </g>
</svg>
