<svg xmlns="http://www.w3.org/2000/svg" xmlns:xlink="http://www.w3.org/1999/xlink" width="86.881" height="95.518" viewBox="0 0 86.881 95.518">
  <defs>
    <clipPath id="clip-path">
      <rect id="Rectángulo_403241" data-name="Rectángulo 403241" width="55.755" height="55.755" transform="translate(359.746 4166.634)" fill="#0d4ab5" stroke="#707070" stroke-width="1"/>
    </clipPath>
  </defs>
  <g id="Grupo_1102132" data-name="Grupo 1102132" transform="translate(-1299.489 -4015.76)">
    <g id="Grupo_1101870" data-name="Grupo 1101870" transform="translate(954.458 -139.277)">
      <g id="Grupo_1101840" data-name="Grupo 1101840" transform="translate(345.542 4155.527)">
        <path id="Trazado_877346" data-name="Trazado 877346" d="M42.929,0s7.156,1.442,22.686,5.444C80.286,9.225,85.43,10.738,85.43,10.738s2.42,14.822-4.235,42.2c-5.373,22.1-22.99,36.3-38.266,41.562C27.654,89.234,10.036,75.036,4.664,52.937-1.991,25.561.429,10.738.429,10.738S5.572,9.225,20.241,5.444C35.773,1.442,42.929,0,42.929,0" transform="translate(0 0)" fill="none" stroke="#072c6c" stroke-width="1"/>
        <path id="Trazado_877313" data-name="Trazado 877313" d="M40.117,0s6.687,1.348,21.2,5.087c13.71,3.534,18.517,4.948,18.517,4.948s2.261,13.851-3.958,39.434C70.855,70.12,54.392,83.388,40.117,88.308,25.842,83.388,9.379,70.12,4.358,49.469-1.861,23.886.4,10.035.4,10.035S5.207,8.621,18.915,5.087C33.43,1.348,40.117,0,40.117,0" transform="translate(2.812 3.095)" fill="#0d4ab5"/>
      </g>
      <g id="Enmascarar_grupo_1098775" data-name="Enmascarar grupo 1098775" clip-path="url(#clip-path)">
        <g id="proteccion-de-datos" transform="translate(359.746 4166.634)">
          <g id="Grupo_1101869" data-name="Grupo 1101869">
            <g id="Grupo_1101865" data-name="Grupo 1101865">
              <g id="Grupo_1101862" data-name="Grupo 1101862">
                <path id="Trazado_877373" data-name="Trazado 877373" d="M37.694,3.912A2.983,2.983,0,0,0,34.706.935H21.049a2.983,2.983,0,0,0-2.988,2.977,2.983,2.983,0,0,1-2.988,2.977H4.232A3.062,3.062,0,0,0,1.164,9.945V29.28H54.591V9.944a3.062,3.062,0,0,0-3.068-3.056H40.682a2.983,2.983,0,0,1-2.988-2.977Z" fill="#bec3c7"/>
                <g id="Grupo_1101860" data-name="Grupo 1101860">
                  <g id="Grupo_1101859" data-name="Grupo 1101859">
                    <path id="Trazado_877374" data-name="Trazado 877374" d="M46.132.831H9.623A2.372,2.372,0,0,0,7.25,3.2V30.7H48.5V3.2A2.372,2.372,0,0,0,46.132.831Z" fill="#eaeaea"/>
                    <path id="Trazado_877375" data-name="Trazado 877375" d="M9.86,5.7a2.374,2.374,0,0,1,2.373-2.375H48.5V3.206A2.374,2.374,0,0,0,46.132.831H9.623A2.374,2.374,0,0,0,7.25,3.206V30.7H9.86Z" fill="#fff"/>
                  </g>
                  <path id="Trazado_877376" data-name="Trazado 877376" d="M13.994,5.936H41.761V7.6H13.994Z" fill="#12263f"/>
                </g>
                <g id="Grupo_1101861" data-name="Grupo 1101861">
                  <path id="Trazado_877377" data-name="Trazado 877377" d="M37.694,15.683a2.983,2.983,0,0,1-2.988,2.977H21.049a2.983,2.983,0,0,1-2.988-2.977,2.983,2.983,0,0,0-2.988-2.977H4.232a3.062,3.062,0,0,0-3.068,3.056V48a3.062,3.062,0,0,0,3.068,3.056H51.523A3.062,3.062,0,0,0,54.591,48V15.762a3.062,3.062,0,0,0-3.068-3.056H40.682a2.983,2.983,0,0,0-2.988,2.977Z" fill="#ffcb5b"/>
                  <path id="Trazado_877378" data-name="Trazado 877378" d="M51.523,12.706H40.682a2.983,2.983,0,0,0-2.988,2.977,2.983,2.983,0,0,1-2.988,2.977H21.049a2.983,2.983,0,0,1-2.988-2.977,2.983,2.983,0,0,0-2.988-2.977H4.232a3.062,3.062,0,0,0-3.068,3.056V48a3.06,3.06,0,0,0,2.847,3.047V18.137a3.062,3.062,0,0,1,3.068-3.056h5.859a2.983,2.983,0,0,1,2.988,2.977,2.983,2.983,0,0,0,2.988,2.977H36.841a2.983,2.983,0,0,0,2.988-2.977,2.983,2.983,0,0,1,2.988-2.977h8.706a3.062,3.062,0,0,1,3.068,3.056V15.762a3.062,3.062,0,0,0-3.068-3.056Z" fill="#ffe6a9"/>
                </g>
              </g>
              <g id="Grupo_1101864" data-name="Grupo 1101864">
                <g id="Grupo_1101863" data-name="Grupo 1101863">
                  <path id="Trazado_877379" data-name="Trazado 877379" d="M33.571,42.055H22.184A1.186,1.186,0,0,1,21,40.869V33.287A1.186,1.186,0,0,1,22.184,32.1H33.571a1.186,1.186,0,0,1,1.186,1.186v7.582A1.186,1.186,0,0,1,33.571,42.055Z" fill="#ef5264"/>
                  <path id="Trazado_877380" data-name="Trazado 877380" d="M23.37,35.662a1.187,1.187,0,0,1,1.186-1.187h10.2V33.288A1.187,1.187,0,0,0,33.571,32.1H22.183A1.187,1.187,0,0,0,21,33.288v7.58a1.187,1.187,0,0,0,1.186,1.187H23.37Z" fill="#ff8395"/>
                </g>
                <path id="Trazado_877381" data-name="Trazado 877381" d="M27.422,39.425,25.6,38.218l.915-1.387,1.2.795,2.2-2.672L31.2,36.011,28.52,39.26a.888.888,0,0,1-1.1.165Z" fill="#310e31"/>
              </g>
            </g>
            <g id="Grupo_1101868" data-name="Grupo 1101868">
              <g id="Grupo_1101866" data-name="Grupo 1101866">
                <path id="Trazado_877382" data-name="Trazado 877382" d="M40.6,47.088H15.156a2.372,2.372,0,0,0-2.373,2.373v3.091a2.372,2.372,0,0,0,2.373,2.373H40.6a2.373,2.373,0,0,0,2.373-2.373V49.46A2.372,2.372,0,0,0,40.6,47.088Z" fill="#57ceae"/>
                <path id="Trazado_877383" data-name="Trazado 877383" d="M15.63,51.837A2.374,2.374,0,0,1,18,49.462H42.972A2.374,2.374,0,0,0,40.6,47.088H15.156a2.374,2.374,0,0,0-2.373,2.375v3.087a2.374,2.374,0,0,0,2.373,2.375h.475Z" fill="#6df7ae"/>
              </g>
              <g id="Grupo_1101867" data-name="Grupo 1101867">
                <ellipse id="Elipse_11640" data-name="Elipse 11640" cx="0.949" cy="0.95" rx="0.949" ry="0.95" transform="translate(29.894 50.412)" fill="#12263f"/>
                <ellipse id="Elipse_11641" data-name="Elipse 11641" cx="0.949" cy="0.95" rx="0.949" ry="0.95" transform="translate(35.825 50.412)" fill="#12263f"/>
                <ellipse id="Elipse_11642" data-name="Elipse 11642" cx="0.949" cy="0.95" rx="0.949" ry="0.95" transform="translate(23.963 50.412)" fill="#12263f"/>
                <ellipse id="Elipse_11643" data-name="Elipse 11643" cx="0.949" cy="0.95" rx="0.949" ry="0.95" transform="translate(18.031 50.412)" fill="#12263f"/>
              </g>
            </g>
            <path id="Trazado_877384" data-name="Trazado 877384" d="M51.523,6.057H49.335V3.206A3.208,3.208,0,0,0,46.132,0H9.623a3.208,3.208,0,0,0-3.2,3.206V6.057H4.232a3.9,3.9,0,0,0-3.9,3.887V48a3.9,3.9,0,0,0,3.9,3.887h7.721v.662a3.208,3.208,0,0,0,3.2,3.206H40.6a3.208,3.208,0,0,0,3.2-3.206v-.662h7.721A3.9,3.9,0,0,0,55.421,48V9.944a3.9,3.9,0,0,0-3.9-3.887ZM45.969,22.133l-1.09,1.091a.905.905,0,0,1-.141-1.316l2.593-2.6a.87.87,0,0,1,1.315.141l-1.091,1.091,1.174,1.175,1.09-1.091a.871.871,0,0,1,.141,1.316l-2.593,2.6a.872.872,0,0,1-1.315-.141l1.09-1.091Zm3.851-3.855a2.51,2.51,0,0,0-3.664-.141l-2.593,2.6A2.522,2.522,0,0,0,43.7,24.4l-.594.595a2.517,2.517,0,0,0-3.664-.141l-2.593,2.6a2.515,2.515,0,0,0,.141,3.667l-1.516,1.517a2.019,2.019,0,0,0-1.792-1.359V28.868a5.808,5.808,0,1,0-11.615,0v2.407a2.019,2.019,0,0,0-1.792,1.359l-1.516-1.517a2.515,2.515,0,0,0,.141-3.667l-2.593-2.6a2.517,2.517,0,0,0-3.664.141l-.594-.595a2.557,2.557,0,0,0,.141-3.667L9.6,18.137a2.51,2.51,0,0,0-3.664.141L2.3,14.642a2.239,2.239,0,0,1,1.93-1.105H15.073a2.154,2.154,0,0,1,2.158,2.146,3.818,3.818,0,0,0,3.819,3.808H34.706a3.818,3.818,0,0,0,3.819-3.808,2.154,2.154,0,0,1,2.158-2.146H51.523a2.239,2.239,0,0,1,1.93,1.105ZM39.258,28.85l-1.09,1.091a.871.871,0,0,1-.141-1.316l2.593-2.6a.872.872,0,0,1,1.315.141l-1.09,1.091,1.174,1.175,1.09-1.091a.873.873,0,0,1,.141,1.316l-2.593,2.6a.87.87,0,0,1-1.315-.141l1.091-1.091Zm-5.687,4.082a.356.356,0,0,1,.356.356v7.58a.356.356,0,0,1-.356.356H22.183a.356.356,0,0,1-.356-.356v-7.58a.356.356,0,0,1,.356-.356Zm-9.841-1.662v-2.4a4.147,4.147,0,0,1,8.293,0v2.4Zm-7.318-.153a.87.87,0,0,1-1.315.141l-2.593-2.6a.873.873,0,0,1,.141-1.316l1.09,1.091,1.174-1.175-1.09-1.091a.871.871,0,0,1,1.315-.141l2.593,2.6a.871.871,0,0,1-.141,1.316L16.5,28.85l-1.174,1.175ZM9.7,24.4a.871.871,0,0,1-1.315.141l-2.593-2.6a.871.871,0,0,1,.141-1.316l1.09,1.091L8.2,20.545,7.109,19.454a.87.87,0,0,1,1.315-.141l2.593,2.6a.9.9,0,0,1-.141,1.316l-1.09-1.091L8.612,23.309ZM9.623,1.662h36.51a1.545,1.545,0,0,1,1.542,1.543v8.669H40.682a3.818,3.818,0,0,0-3.819,3.808,2.154,2.154,0,0,1-2.158,2.146H21.049a2.154,2.154,0,0,1-2.158-2.146,3.818,3.818,0,0,0-3.819-3.808H8.08V3.206A1.545,1.545,0,0,1,9.623,1.662ZM1.994,9.944A2.234,2.234,0,0,1,4.232,7.72H6.42v4.156H4.232a3.883,3.883,0,0,0-2.237.707Zm40.147,42.6A1.545,1.545,0,0,1,40.6,54.093H15.156a1.545,1.545,0,0,1-1.542-1.543V49.462a1.545,1.545,0,0,1,1.542-1.543H40.6a1.545,1.545,0,0,1,1.542,1.543v3.087ZM53.76,48a2.234,2.234,0,0,1-2.237,2.225H43.8v-.763a3.208,3.208,0,0,0-3.2-3.206H15.156a3.208,3.208,0,0,0-3.2,3.206v.763H4.232A2.234,2.234,0,0,1,1.994,48V16.686L4.76,19.454a2.515,2.515,0,0,0-.141,3.667l2.593,2.6a2.517,2.517,0,0,0,3.664-.141l.594.595a2.523,2.523,0,0,0-.141,3.667l2.593,2.6a2.51,2.51,0,0,0,3.664-.141l2.58,2.582v5.994a2.02,2.02,0,0,0,2.017,2.018H33.571a2.02,2.02,0,0,0,2.017-2.018V34.874l2.58-2.582a2.51,2.51,0,0,0,3.664.141l2.593-2.6a2.522,2.522,0,0,0-.141-3.667l.594-.595a2.517,2.517,0,0,0,3.664.141l2.593-2.6a2.515,2.515,0,0,0-.141-3.667l2.766-2.768Zm0-35.418a3.883,3.883,0,0,0-2.237-.707H49.335V7.72h2.188A2.234,2.234,0,0,1,53.76,9.944Z" fill="#12263f"/>
          </g>
        </g>
      </g>
    </g>
  </g>
</svg>
