<svg xmlns="http://www.w3.org/2000/svg" xmlns:xlink="http://www.w3.org/1999/xlink" width="68" height="68" viewBox="0 0 68 68">
  <defs>
    <clipPath id="clip-path">
      <rect id="Rectángulo_403313" data-name="Rectángulo 403313" width="68" height="68" transform="translate(179.711 3678)" fill="#ffaf1a"/>
    </clipPath>
  </defs>
  <g id="Grupo_1102134" data-name="Grupo 1102134" transform="translate(-179.711 -3678)">
    <g id="Enmascarar_grupo_1098810" data-name="Enmascarar grupo 1098810" clip-path="url(#clip-path)">
      <g id="documentos-oficiales" transform="translate(179.711 3678)">
        <g id="Grupo_1102047" data-name="Grupo 1102047">
          <g id="Grupo_1102036" data-name="Grupo 1102036">
            <path id="Trazado_877761" data-name="Trazado 877761" d="M9.871,1.1V18.645H5.484V2.194a1.1,1.1,0,0,1,1.1-1.1Z" fill="#aab2bd"/>
          </g>
          <g id="Grupo_1102037" data-name="Grupo 1102037">
            <path id="Trazado_877762" data-name="Trazado 877762" d="M14.258,1.1V18.645H9.871V1.1Z" fill="#ccd1d9"/>
          </g>
          <g id="Grupo_1102038" data-name="Grupo 1102038">
            <path id="Trazado_877763" data-name="Trazado 877763" d="M7.677,18.645V40.627h0A14.325,14.325,0,0,0,3.29,45.043v-25.3a1.1,1.1,0,0,1,1.1-1.1h3.29Z" fill="#fcd770"/>
          </g>
          <g id="Grupo_1102039" data-name="Grupo 1102039">
            <path id="Trazado_877764" data-name="Trazado 877764" d="M12.065,25.226V38.768a14.174,14.174,0,0,0-4.387,1.859V18.645h4.387Z" fill="#ffeaa7"/>
          </g>
          <g id="Grupo_1102040" data-name="Grupo 1102040">
            <path id="Trazado_877765" data-name="Trazado 877765" d="M53.742,2.194V14.258H40.161a1.1,1.1,0,0,0-.98.606l-1.588,3.175a1.1,1.1,0,0,1-.98.606H14.258V1.1H52.645a1.1,1.1,0,0,1,1.1,1.1Z" fill="#e6e9ed"/>
          </g>
          <g id="Grupo_1102041" data-name="Grupo 1102041">
            <path id="Trazado_877766" data-name="Trazado 877766" d="M55.935,25.226V49.355H47.161V44.968a4.388,4.388,0,0,0-4.387-4.387H36.194A2.193,2.193,0,0,0,34,42.774v6.581H29.23A14.278,14.278,0,0,0,12.065,38.768V25.226Z" fill="#ffeaa7"/>
          </g>
          <g id="Grupo_1102042" data-name="Grupo 1102042">
            <path id="Trazado_877767" data-name="Trazado 877767" d="M55.935,15.355v9.871H12.065V18.645H36.613a1.1,1.1,0,0,0,.98-.606l1.588-3.175a1.1,1.1,0,0,1,.98-.606H54.839a1.1,1.1,0,0,1,1.1,1.1Z" fill="#fcd770"/>
          </g>
          <g id="Grupo_1102043" data-name="Grupo 1102043">
            <path id="Trazado_877768" data-name="Trazado 877768" d="M66.9,53.365v.754a6.2,6.2,0,0,1-10.591,4.387l-.377-.377H47.161v4.387A4.388,4.388,0,0,1,42.774,66.9H38.387V40.581h4.387a4.388,4.388,0,0,1,4.387,4.387v4.387h8.774l.377-.377A6.2,6.2,0,0,1,66.9,53.365Z" fill="#aab2bd"/>
          </g>
          <g id="Grupo_1102044" data-name="Grupo 1102044">
            <path id="Trazado_877769" data-name="Trazado 877769" d="M38.387,40.581V66.9H36.194A2.193,2.193,0,0,1,34,64.71V42.774a2.193,2.193,0,0,1,2.194-2.194Z" fill="#ccd1d9"/>
          </g>
          <g id="Grupo_1102045" data-name="Grupo 1102045">
            <path id="Trazado_877770" data-name="Trazado 877770" d="M29.232,49.355A14.261,14.261,0,1,1,7.677,40.629h0A14.265,14.265,0,0,1,29.23,49.355Z" fill="#aab2bd"/>
          </g>
          <g id="Grupo_1102046" data-name="Grupo 1102046">
            <circle id="Elipse_11669" data-name="Elipse 11669" cx="9.871" cy="9.871" r="9.871" transform="translate(5.484 42.774)" fill="#f29ed0"/>
          </g>
        </g>
        <g id="Grupo_1102048" data-name="Grupo 1102048">
          <path id="Trazado_877771" data-name="Trazado 877771" d="M15.355,41.677A10.968,10.968,0,1,0,26.323,52.645,10.98,10.98,0,0,0,15.355,41.677Zm0,19.742a8.774,8.774,0,1,1,8.774-8.774A8.784,8.784,0,0,1,15.355,61.419Z"/>
          <path id="Trazado_877772" data-name="Trazado 877772" d="M13.1,54.322l-1.356-1.356-1.551,1.551,3.031,3.031,7.351-8.577-1.665-1.428Z"/>
          <path id="Trazado_877773" data-name="Trazado 877773" d="M60.7,46.065a7.256,7.256,0,0,0-3.667.986v-31.7a2.2,2.2,0,0,0-2.194-2.194V2.194A2.2,2.2,0,0,0,52.645,0H6.581A2.2,2.2,0,0,0,4.387,2.194V17.548a2.2,2.2,0,0,0-2.194,2.194v25a15.353,15.353,0,1,0,28.516,7.9,15.417,15.417,0,0,0-.157-2.194H32.9V64.71A3.294,3.294,0,0,0,36.194,68h6.581a5.49,5.49,0,0,0,5.484-5.484v-3.29h7.223l.055.055A7.3,7.3,0,0,0,68,54.118v-.753a7.309,7.309,0,0,0-7.3-7.3ZM8.774,38.774V19.742h2.194V37.93A15.237,15.237,0,0,0,8.774,38.774Zm2.194-21.225V2.194h2.194V17.548Zm2.194,2.194H36.613a2.182,2.182,0,0,0,1.962-1.213l1.587-3.174H54.839v8.774H13.161Zm39.484-6.581H40.162A2.182,2.182,0,0,0,38.2,14.374l-1.587,3.174H15.355V2.194h37.29ZM6.581,2.194H8.774V17.548H6.581ZM4.387,19.742H6.581v20.31a15.476,15.476,0,0,0-2.194,1.859ZM15.355,65.806A13.161,13.161,0,1,1,28.516,52.645,13.176,13.176,0,0,1,15.355,65.806ZM30.07,48.258a15.356,15.356,0,0,0-16.909-10.81V26.323H54.839V48.258H48.258v-3.29a5.49,5.49,0,0,0-5.484-5.484H36.194a3.294,3.294,0,0,0-3.29,3.29v5.484ZM35.1,64.71V42.774a1.1,1.1,0,0,1,1.1-1.1h1.1V65.806h-1.1A1.1,1.1,0,0,1,35.1,64.71Zm30.71-10.591a5.107,5.107,0,0,1-8.719,3.612l-.7-.7H46.065v5.484a3.294,3.294,0,0,1-3.29,3.29h-3.29V41.677h3.29a3.294,3.294,0,0,1,3.29,3.29v5.484H56.39l.7-.7a5.108,5.108,0,0,1,8.719,3.612Z"/>
          <path id="Trazado_877774" data-name="Trazado 877774" d="M41.677,17.548h2.194v2.194H41.677Z"/>
          <path id="Trazado_877775" data-name="Trazado 877775" d="M46.065,17.548h2.194v2.194H46.065Z"/>
          <path id="Trazado_877776" data-name="Trazado 877776" d="M50.452,17.548h2.194v2.194H50.452Z"/>
          <path id="Trazado_877777" data-name="Trazado 877777" d="M17.548,6.581h2.194V8.774H17.548Z"/>
          <path id="Trazado_877778" data-name="Trazado 877778" d="M21.935,6.581H32.9V8.774H21.935Z"/>
          <path id="Trazado_877779" data-name="Trazado 877779" d="M17.548,10.968H32.9v2.194H17.548Z"/>
        </g>
      </g>
    </g>
  </g>
</svg>
