<svg xmlns="http://www.w3.org/2000/svg" xmlns:xlink="http://www.w3.org/1999/xlink" width="68" height="68" viewBox="0 0 68 68">
  <defs>
    <clipPath id="clip-path">
      <rect id="Rectángulo_403315" data-name="Rectángulo 403315" width="68" height="68" transform="translate(459.711 3678)" fill="#ffaf1a"/>
    </clipPath>
  </defs>
  <g id="Grupo_1102135" data-name="Grupo 1102135" transform="translate(-459.711 -3678)">
    <g id="Enmascarar_grupo_1098811" data-name="Enmascarar grupo 1098811" clip-path="url(#clip-path)">
      <g id="marketing-de-contenidos" transform="translate(459.711 3678)">
        <g id="Grupo_1102051" data-name="Grupo 1102051">
          <g id="Grupo_1102049" data-name="Grupo 1102049">
            <path id="Trazado_877780" data-name="Trazado 877780" d="M10.325,1.063H46.644a1.144,1.144,0,0,1,.838.347l6.652,6.652a1.144,1.144,0,0,1,.347.838V58.644A1.187,1.187,0,0,1,53.3,59.829H10.325A1.187,1.187,0,0,1,9.14,58.644V2.247a1.187,1.187,0,0,1,1.185-1.185Z" fill="#d1d1d6" fill-rule="evenodd"/>
            <path id="Trazado_877781" data-name="Trazado 877781" d="M47.135,1.165a1.189,1.189,0,0,1,.347.244l6.652,6.652a1.185,1.185,0,0,1,.244.347H47.727a.593.593,0,0,1-.592-.592V1.165Z" fill="#a79ba7" fill-rule="evenodd"/>
            <path id="Trazado_877782" data-name="Trazado 877782" d="M3.216,8.172H39.535a1.144,1.144,0,0,1,.838.347l6.652,6.652a1.144,1.144,0,0,1,.347.838V65.753a1.187,1.187,0,0,1-1.185,1.185H3.216a1.187,1.187,0,0,1-1.185-1.185V9.356A1.187,1.187,0,0,1,3.216,8.172Z" fill="#eceff1" fill-rule="evenodd"/>
            <path id="Trazado_877783" data-name="Trazado 877783" d="M3.216,8.172H5.991V66.938H3.216a1.187,1.187,0,0,1-1.185-1.185V9.356A1.187,1.187,0,0,1,3.216,8.172Z" fill="#d1d1d6" fill-rule="evenodd"/>
            <path id="Trazado_877784" data-name="Trazado 877784" d="M40.026,8.274a1.189,1.189,0,0,1,.347.244l6.652,6.652a1.185,1.185,0,0,1,.244.347H40.618a.593.593,0,0,1-.592-.592Z" fill="#a79ba7" fill-rule="evenodd"/>
            <path id="Trazado_877785" data-name="Trazado 877785" d="M12.406,18.087H18.07a1.489,1.489,0,0,1,1.485,1.485v5.664A1.489,1.489,0,0,1,18.07,26.72H12.406a1.489,1.489,0,0,1-1.485-1.485V19.571A1.489,1.489,0,0,1,12.406,18.087Z" fill="#8ac9fe" fill-rule="evenodd"/>
            <path id="Trazado_877786" data-name="Trazado 877786" d="M18.4,18.106a1.5,1.5,0,0,1,1.175,1.457v5.686a1.5,1.5,0,0,1-1.49,1.49H12.4a1.5,1.5,0,0,1-1.457-1.175,1.486,1.486,0,0,0,.315.034h5.686a1.5,1.5,0,0,0,1.49-1.49V18.422a1.478,1.478,0,0,0-.034-.315Z" fill="#60b7ff" fill-rule="evenodd"/>
          </g>
          <g id="Grupo_1102050" data-name="Grupo 1102050">
            <path id="Trazado_877787" data-name="Trazado 877787" d="M39.415,66.273v-10.8H35.278v8.4a3.07,3.07,0,0,0,3.065,3.064h.409A.665.665,0,0,0,39.415,66.273Z" fill="#d1d1d6" fill-rule="evenodd"/>
            <path id="Trazado_877788" data-name="Trazado 877788" d="M39.415,66.273v-10.8H38.087v10.8a.666.666,0,0,1-.376.6,3.058,3.058,0,0,0,.632.066h.409a.665.665,0,0,0,.664-.664Z" fill="#b1b1b5" fill-rule="evenodd"/>
            <path id="Trazado_877789" data-name="Trazado 877789" d="M59.1,51.257a3.3,3.3,0,0,0-3.3-3.3c-.054,0-1.578,0-1.632,0v6.582c.053,0,1.578,0,1.632,0A3.3,3.3,0,0,0,59.1,51.257Z" fill="#d1d1d6" fill-rule="evenodd"/>
            <path id="Trazado_877790" data-name="Trazado 877790" d="M59.1,51.257a3.3,3.3,0,0,0-3.3-3.3c-.054,0-1.578,0-1.632,0v1.328c.053,0,1.578,0,1.632,0a3.3,3.3,0,0,1,3.228,2.631A3.3,3.3,0,0,0,59.1,51.257Z" fill="#b1b1b5" fill-rule="evenodd"/>
            <path id="Trazado_877791" data-name="Trazado 877791" d="M39.415,56.761h-5.86a5.576,5.576,0,1,1,0-11.153h5.86c4.979-1.024,9.7-4.086,13.708-6.34a1.693,1.693,0,0,1,2.523,1.476V61.406a1.693,1.693,0,0,1-2.6,1.431c-4.109-2.6-8.494-5.211-13.632-6.075Z" fill="#d1d1d6" fill-rule="evenodd"/>
            <path id="Trazado_877792" data-name="Trazado 877792" d="M28.019,51.849a5.574,5.574,0,0,1,5.537-6.24h5.86c4.979-1.024,9.7-4.086,13.708-6.34a1.693,1.693,0,0,1,2.523,1.476v1.328A1.693,1.693,0,0,0,53.123,40.6c-4.007,2.253-8.729,5.315-13.708,6.34h-5.86A5.6,5.6,0,0,0,28.019,51.849Z" fill="#b1b1b5" fill-rule="evenodd"/>
            <path id="Trazado_877793" data-name="Trazado 877793" d="M39.415,55.469V45.608h-5.86a5.576,5.576,0,1,0,0,11.153h5.86Z" fill="#fe646f" fill-rule="evenodd"/>
            <path id="Trazado_877794" data-name="Trazado 877794" d="M39.415,46.936V45.608h-5.86a5.574,5.574,0,0,0-5.537,6.24,5.6,5.6,0,0,1,5.536-4.912Z" fill="#fd4755" fill-rule="evenodd"/>
            <path id="Trazado_877795" data-name="Trazado 877795" d="M55.646,47.966V40.744a1.693,1.693,0,0,0-2.523-1.476c-.658.37-1.335.762-2.03,1.163V61.619c.659.4,1.31.809,1.954,1.217a1.693,1.693,0,0,0,2.6-1.43V47.966Z" fill="#fe646f" fill-rule="evenodd"/>
            <path id="Trazado_877796" data-name="Trazado 877796" d="M55.646,42.073V40.744a1.693,1.693,0,0,0-2.523-1.476c-.658.37-1.335.762-2.03,1.163v1.328c.694-.4,1.372-.793,2.03-1.163a1.693,1.693,0,0,1,2.523,1.476Z" fill="#fd4755" fill-rule="evenodd"/>
          </g>
        </g>
        <path id="Trazado_877797" data-name="Trazado 877797" d="M12.347,25.11h5.6v-5.6h-5.6Zm-2.125,1.063V18.449a1.062,1.062,0,0,1,1.063-1.062h7.723a1.062,1.062,0,0,1,1.063,1.062v7.723a1.063,1.063,0,0,1-1.062,1.063H11.284a1.063,1.063,0,0,1-1.062-1.062ZM58.04,51.258a2.236,2.236,0,0,0-1.331-2.041V53.3a2.233,2.233,0,0,0,1.331-2.04ZM54.585,40.744a.631.631,0,0,0-.94-.55c-.486.274-.977.557-1.487.85v19.98q.729.45,1.46.914a.63.63,0,0,0,.968-.533V40.744ZM46.311,60.178a26.938,26.938,0,0,0-5.833-2.121v7.819h5.833Zm-7.958,5.7V57.824H36.341v6.05a2,2,0,0,0,2,2h.009Zm-35.258,0V9.234H38.963v6.283a1.063,1.063,0,0,0,1.063,1.063h6.285V41.871a28.653,28.653,0,0,1-7,2.674H33.555a6.639,6.639,0,0,0,0,13.278h.66v6.05a4.1,4.1,0,0,0,.521,2H3.095Zm37.994-51.42h3.719l-3.719-3.718Zm-.611,41.426V46.456a39.053,39.053,0,0,0,9.555-4.191V59.754a32.211,32.211,0,0,0-9.555-3.873ZM38.352,55.7V46.671h-4.8a4.514,4.514,0,0,0,0,9.028h4.8ZM10.2,7.109V2.125h35.87V8.409a1.062,1.062,0,0,0,1.063,1.062h6.284V38.039a2.764,2.764,0,0,0-.816.3c-.62.348-1.243.708-1.9,1.089-.736.425-1.492.861-2.264,1.294V15.518a1.064,1.064,0,0,0-.312-.751L40.777,7.421a1.059,1.059,0,0,0-.752-.311H10.2ZM48.2,7.346h3.719L48.2,3.628ZM56.71,55.521v5.885a2.722,2.722,0,0,1-1.428,2.415,2.725,2.725,0,0,1-2.8-.086c-1.341-.851-2.681-1.68-4.043-2.441v5.644A1.063,1.063,0,0,1,47.373,68H2.032A1.062,1.062,0,0,1,.97,66.938V8.172A1.062,1.062,0,0,1,2.032,7.109H8.078V1.063A1.063,1.063,0,0,1,9.14,0H47.135a1.064,1.064,0,0,1,.752.311l7.346,7.346a1.062,1.062,0,0,1,.311.751V38.495a2.726,2.726,0,0,1,1.166,2.25v6.25a4.358,4.358,0,0,1,0,8.527Zm5.428-9.1,1.644-1.644A1.119,1.119,0,0,0,62.2,43.2l-1.645,1.644a1.119,1.119,0,0,0,1.582,1.582Zm-.258,9.558A1.119,1.119,0,1,0,60.3,57.565l1.644,1.644a1.119,1.119,0,1,0,1.582-1.582Zm4.032-5.845H63.587a1.119,1.119,0,0,0,0,2.238h2.326a1.119,1.119,0,0,0,0-2.238ZM25.574,19.511h9.29a1.063,1.063,0,0,0,0-2.125h-9.29a1.063,1.063,0,0,0,0,2.125Zm1.4,37.418H11.284a1.062,1.062,0,1,0,0,2.124H26.97a1.062,1.062,0,1,0,0-2.124ZM11.284,51.146H23.747a1.063,1.063,0,0,0,0-2.125H11.284a1.063,1.063,0,1,0,0,2.125Zm0-7.909H38.12a1.063,1.063,0,0,0,0-2.125H11.284a1.063,1.063,0,1,0,0,2.125Zm0-7.909H38.12a1.062,1.062,0,1,0,0-2.124H11.284a1.062,1.062,0,1,0,0,2.124Zm13.228-8.971a1.062,1.062,0,0,0,1.063,1.063H38.12a1.063,1.063,0,0,0,0-2.125H25.574A1.062,1.062,0,0,0,24.512,26.358Z" fill-rule="evenodd"/>
      </g>
    </g>
  </g>
</svg>
