<svg xmlns="http://www.w3.org/2000/svg" xmlns:xlink="http://www.w3.org/1999/xlink" width="68" height="68" viewBox="0 0 68 68">
  <defs>
    <clipPath id="clip-path">
      <rect id="Rectángulo_403317" data-name="Rectángulo 403317" width="68" height="68" transform="translate(739.711 3678)" fill="#ffaf1a"/>
    </clipPath>
  </defs>
  <g id="Grupo_1102136" data-name="Grupo 1102136" transform="translate(-739.711 -3678)">
    <g id="Enmascarar_grupo_1098809" data-name="Enmascarar grupo 1098809" clip-path="url(#clip-path)">
      <g id="buscar_1_" data-name="buscar (1)" transform="translate(739.711 3678)">
        <g id="Grupo_1102034" data-name="Grupo 1102034">
          <path id="Trazado_877735" data-name="Trazado 877735" d="M51.6,45.7h5.326v7.556H51.6Z" transform="translate(-19.097 52.867) rotate(-45)" fill="#e6e2e6"/>
          <path id="Trazado_877736" data-name="Trazado 877736" d="M51.6,45.7h5.326v7.556H51.6Z" transform="translate(-19.097 52.867) rotate(-45)" fill="#ecdaec"/>
          <path id="Trazado_877737" data-name="Trazado 877737" d="M52,46.687H54.54v7.556H52Z" transform="translate(-20.084 52.458) rotate(-45)" fill="#e2cbe2"/>
          <path id="Trazado_877738" data-name="Trazado 877738" d="M1.062,3.055A1.992,1.992,0,0,1,3.055,1.062H36.582L48.926,13.406v51.54a1.992,1.992,0,0,1-1.992,1.992H3.055a1.992,1.992,0,0,1-1.992-1.992Z" fill="#f9f6f6"/>
          <path id="Trazado_877739" data-name="Trazado 877739" d="M46.933,64.547H3.055a1.992,1.992,0,0,1-1.992-1.992v2.391a1.992,1.992,0,0,0,1.992,1.992H46.933a1.992,1.992,0,0,0,1.992-1.992V62.555A1.992,1.992,0,0,1,46.933,64.547Z" fill="#ecdaec"/>
          <g id="Grupo_1102032" data-name="Grupo 1102032">
            <path id="Trazado_877740" data-name="Trazado 877740" d="M38.575,13.406H48.926L36.582,1.062V11.413A1.992,1.992,0,0,0,38.575,13.406Z" fill="#e2cbe2"/>
            <path id="Trazado_877741" data-name="Trazado 877741" d="M38.575,13.406H48.926L36.582,1.062V11.413A1.992,1.992,0,0,0,38.575,13.406Z" fill="#e2cbe2"/>
            <circle id="Elipse_11667" data-name="Elipse 11667" cx="16.533" cy="16.533" r="16.533" transform="translate(25.162 20.38)" fill="#e2cbe2"/>
          </g>
          <path id="Trazado_877742" data-name="Trazado 877742" d="M53.385,46.213A16.533,16.533,0,0,1,25.2,35.718a16.533,16.533,0,1,0,32.98,0A16.468,16.468,0,0,1,53.385,46.213Z" fill="#dab9d8"/>
          <circle id="Elipse_11668" data-name="Elipse 11668" cx="11.971" cy="11.971" r="11.971" transform="translate(29.724 24.943)" fill="#ffe27a"/>
          <path id="Trazado_877743" data-name="Trazado 877743" d="M50.159,42.987a11.97,11.97,0,0,1-20.374-7.269,11.97,11.97,0,1,0,23.82,0A11.92,11.92,0,0,1,50.159,42.987Z" fill="#f9cf58"/>
          <path id="Trazado_877744" data-name="Trazado 877744" d="M40.623,41.838a2.086,2.086,0,0,1-1.459-.592l-2.747-2.671a2.093,2.093,0,1,1,2.918-3l1.248,1.214,3.751-3.846a2.093,2.093,0,1,1,3,2.923l-5.21,5.342a2.086,2.086,0,0,1-1.5.632Z" fill="#98db7c"/>
          <path id="Trazado_877745" data-name="Trazado 877745" d="M47.332,33.473l-5.21,5.342a2.093,2.093,0,0,1-2.958.039l-2.747-2.671a2.1,2.1,0,0,1-.257-.3,2.092,2.092,0,0,0,.257,2.695l2.747,2.671a2.093,2.093,0,0,0,2.958-.039l5.21-5.342a2.093,2.093,0,0,0,.218-2.658A2.1,2.1,0,0,1,47.332,33.473Z" fill="#82d361"/>
          <path id="Trazado_877746" data-name="Trazado 877746" d="M59.565,49.532l-5.252,5.252L60.6,61.068a3.714,3.714,0,0,0,5.252-5.252Z" fill="#ff4755"/>
          <path id="Trazado_877747" data-name="Trazado 877747" d="M62.388,59.273l-6.282-6.282-1.793,1.793L60.6,61.068a3.716,3.716,0,0,0,5.994-1.058,3.715,3.715,0,0,1-4.2-.737Z" fill="#fc2b3a"/>
          <g id="Grupo_1102033" data-name="Grupo 1102033">
            <path id="Trazado_877748" data-name="Trazado 877748" d="M13.464,26.218H9.106a1.232,1.232,0,0,1-1.232-1.232V20.628A1.232,1.232,0,0,1,9.106,19.4h4.358A1.232,1.232,0,0,1,14.7,20.628v4.358a1.232,1.232,0,0,1-1.232,1.232Z" fill="#98db7c"/>
            <path id="Trazado_877749" data-name="Trazado 877749" d="M13.464,40.184H9.106a1.232,1.232,0,0,1-1.232-1.232V34.595a1.232,1.232,0,0,1,1.232-1.232h4.358A1.232,1.232,0,0,1,14.7,34.595v4.358a1.232,1.232,0,0,1-1.232,1.232Z" fill="#98db7c"/>
            <path id="Trazado_877750" data-name="Trazado 877750" d="M13.464,54.435H9.106A1.232,1.232,0,0,1,7.874,53.2V48.845a1.232,1.232,0,0,1,1.232-1.232h4.358A1.232,1.232,0,0,1,14.7,48.845V53.2a1.232,1.232,0,0,1-1.232,1.232Z" fill="#98db7c"/>
          </g>
          <path id="Trazado_877751" data-name="Trazado 877751" d="M13.464,23.827H9.106A1.232,1.232,0,0,1,7.874,22.6v2.391a1.232,1.232,0,0,0,1.232,1.232h4.358A1.232,1.232,0,0,0,14.7,24.986V22.6a1.232,1.232,0,0,1-1.232,1.232Z" fill="#82d361"/>
          <path id="Trazado_877752" data-name="Trazado 877752" d="M13.464,37.794H9.106a1.232,1.232,0,0,1-1.232-1.232v2.391a1.232,1.232,0,0,0,1.232,1.232h4.358A1.232,1.232,0,0,0,14.7,38.952V36.562a1.232,1.232,0,0,1-1.232,1.232Z" fill="#82d361"/>
          <path id="Trazado_877753" data-name="Trazado 877753" d="M13.464,52.044H9.106a1.232,1.232,0,0,1-1.232-1.232V53.2a1.232,1.232,0,0,0,1.232,1.232h4.358A1.232,1.232,0,0,0,14.7,53.2V50.812a1.232,1.232,0,0,1-1.232,1.232Z" fill="#82d361"/>
          <path id="Trazado_877754" data-name="Trazado 877754" d="M36.582,11.413V13.8A1.992,1.992,0,0,0,38.575,15.8H48.926V13.406H38.575A1.992,1.992,0,0,1,36.582,11.413Z" fill="#ecdaec"/>
        </g>
        <g id="Grupo_1102035" data-name="Grupo 1102035">
          <path id="Trazado_877755" data-name="Trazado 877755" d="M40.642,42.852a3.072,3.072,0,0,0,2.217-.934l5.221-5.353a3.1,3.1,0,0,0-4.433-4.322l-3.063,3.14-.537-.522A3.1,3.1,0,1,0,35.731,39.3l2.753,2.676A3.08,3.08,0,0,0,40.642,42.852ZM37.1,36.314a1.1,1.1,0,0,1,1.555-.022l1.251,1.216a1,1,0,0,0,1.41-.019l3.759-3.853a1.1,1.1,0,0,1,1.574,1.535l-5.221,5.353a1.1,1.1,0,0,1-1.554.021l-2.753-2.676a1.1,1.1,0,0,1-.022-1.554Z"/>
          <path id="Trazado_877756" data-name="Trazado 877756" d="M32.926,43.531a1,1,0,0,0-1.594,1.2,13.156,13.156,0,0,0,1.195,1.373,12.984,12.984,0,1,0-3.19-5.226,1,1,0,0,0,1.9-.607,11.006,11.006,0,1,1,2.7,4.421,11.177,11.177,0,0,1-1.013-1.164Z"/>
          <path id="Trazado_877757" data-name="Trazado 877757" d="M66.627,55.153l-6.3-6.3a1,1,0,0,0-1.412,0l-.039.039-2.423-2.423a17.535,17.535,0,0,0,2.791-8.442,1,1,0,0,0-1.992-.126A15.556,15.556,0,0,1,41.731,52.479h-.094a15.56,15.56,0,1,1,15.4-18.32A1,1,0,0,0,59,33.806a17.576,17.576,0,0,0-9.045-12.4V13.365a1.01,1.01,0,0,0-.292-.706L37.3.292A1.011,1.011,0,0,0,36.592,0H2.995A3,3,0,0,0,0,2.994v8.389a1,1,0,0,0,2,0V2.994a1,1,0,0,1,1-1h32.6v9.373a3,3,0,0,0,2.995,2.994h9.374v6.142a17.637,17.637,0,0,0-6.057-1.139.217.217,0,0,0-.03,0H19.59a1,1,0,1,0,0,2H33.566a17.5,17.5,0,0,0-3.982,2.859H19.59a1,1,0,1,0,0,2h8.2a17.373,17.373,0,0,0-3.276,7.136H19.591a1,1,0,1,0,0,2h4.63q-.069.78-.07,1.573,0,.65.047,1.293H19.591a1,1,0,1,0,0,2h4.866a17.372,17.372,0,0,0,3.334,7.42h-8.2a1,1,0,1,0,0,2h10a17.493,17.493,0,0,0,3.975,2.854H19.59a1,1,0,1,0,0,2H41.715a17.648,17.648,0,0,0,6.248-1.142V65.006a1,1,0,0,1-1,1H2.995a1,1,0,0,1-1-1V15.376a1,1,0,0,0-2,0V65.006A3,3,0,0,0,2.995,68H46.965a3,3,0,0,0,2.995-2.994V52.429q.668-.355,1.31-.771l2.423,2.422a1.007,1.007,0,0,0-.039,1.45l6.3,6.3a4.72,4.72,0,0,0,6.675-6.674ZM38.589,12.367a1,1,0,0,1-1-1V3.408l8.961,8.96ZM52.9,50.463q.639-.528,1.238-1.125T55.261,48.1l2.206,2.206L55.1,52.669Zm12.317,9.953a2.737,2.737,0,0,1-3.852,0l-5.592-5.591,3.852-3.851,5.592,5.591A2.736,2.736,0,0,1,65.215,60.416Z"/>
          <path id="Trazado_877758" data-name="Trazado 877758" d="M9.058,27.2h4.367a2.235,2.235,0,0,0,2.233-2.232V20.6a2.235,2.235,0,0,0-2.233-2.232H9.058A2.235,2.235,0,0,0,6.826,20.6v4.366A2.235,2.235,0,0,0,9.058,27.2Zm-.236-6.6a.237.237,0,0,1,.236-.236h4.367a.237.237,0,0,1,.236.236v4.366a.237.237,0,0,1-.236.236H9.058a.237.237,0,0,1-.236-.236Z"/>
          <path id="Trazado_877759" data-name="Trazado 877759" d="M6.826,38.962a2.235,2.235,0,0,0,2.233,2.232h4.367a2.235,2.235,0,0,0,2.233-2.232V34.6a2.235,2.235,0,0,0-2.233-2.232H9.058A2.235,2.235,0,0,0,6.826,34.6Zm2-4.366a.237.237,0,0,1,.236-.236h4.367a.237.237,0,0,1,.236.236v4.366a.237.237,0,0,1-.236.236H9.058a.237.237,0,0,1-.236-.236Z"/>
          <path id="Trazado_877760" data-name="Trazado 877760" d="M6.826,53.24a2.235,2.235,0,0,0,2.233,2.232h4.367a2.235,2.235,0,0,0,2.233-2.232V48.874a2.235,2.235,0,0,0-2.233-2.232H9.058a2.235,2.235,0,0,0-2.233,2.232Zm2-4.366a.237.237,0,0,1,.236-.236h4.367a.237.237,0,0,1,.236.236V53.24a.237.237,0,0,1-.236.236H9.058a.237.237,0,0,1-.236-.236Z"/>
        </g>
      </g>
    </g>
  </g>
</svg>
