<svg xmlns="http://www.w3.org/2000/svg" width="400" height="375.501" viewBox="0 0 400 375.501">
  <g id="Grupo_1102134" data-name="Grupo 1102134" transform="translate(-1020 -2355.499)">
    <g id="Grupo_1101986" data-name="Grupo 1101986">
      <rect id="_2150377139" data-name="2150377139" width="400" height="375.501" rx="20" transform="translate(1020 2355.499)" fill="#74abf9"/>
      <g id="Grupo_1101983" data-name="Grupo 1101983" transform="translate(975.33 2405.799)">
        <g id="Grupo_1101984" data-name="Grupo 1101984">
          <g id="Grupo_1101981" data-name="Grupo 1101981">
            <g id="Grupo_1101985" data-name="Grupo 1101985">
              <path id="Trazado_877533" data-name="Trazado 877533" d="M353.4,269.617H252.186a9.485,9.485,0,0,1-9.485-9.486V63.611a9.485,9.485,0,0,1,9.485-9.485H353.4a9.485,9.485,0,0,1,9.486,9.485v196.52a9.485,9.485,0,0,1-9.486,9.486" transform="translate(-53.94 -12.029)" fill="#fff"/>
              <path id="Trazado_877534" data-name="Trazado 877534" d="M401.663,113.367h-4.306V91.386c1.214.3,5.755-.927,5.665,1.36v19.263a1.36,1.36,0,0,1-1.36,1.36" transform="translate(-88.311 -20.296)" fill="#0e1530"/>
              <path id="Trazado_877535" data-name="Trazado 877535" d="M236.649,113.367h4.306V91.386c-1.214.3-5.755-.927-5.665,1.36v19.263a1.359,1.359,0,0,0,1.36,1.36" transform="translate(-52.292 -20.296)" fill="#0e1530"/>
              <path id="Trazado_877536" data-name="Trazado 877536" d="M401.663,146.147h-4.306V124.166c1.214.3,5.755-.927,5.665,1.36v19.263a1.36,1.36,0,0,1-1.36,1.36" transform="translate(-88.311 -27.581)" fill="#0e1530"/>
              <path id="Trazado_877537" data-name="Trazado 877537" d="M350.7,37.209H253.214a14.284,14.284,0,0,0-14.283,14.283V271.281a14.286,14.286,0,0,0,14.286,14.286H350.7a14.284,14.284,0,0,0,14.284-14.284V51.493A14.284,14.284,0,0,0,350.7,37.209M244.794,255.9V60.01a6.482,6.482,0,0,1,6.482-6.482H352.635a6.482,6.482,0,0,1,6.482,6.482V255.9a6.482,6.482,0,0,1-6.482,6.482H251.276a6.482,6.482,0,0,1-6.482-6.482" transform="translate(-53.102 -8.27)" fill="#0d4ab5"/>
              <path id="Trazado_877538" data-name="Trazado 877538" d="M327.124,343.015H303.493a4.484,4.484,0,0,1,0-8.968h23.631c5.811-.085,5.823,9.054,0,8.968" transform="translate(-66.454 -74.241)" fill="#072c6c"/>
              <path id="Trazado_877539" data-name="Trazado 877539" d="M332.745,48.816H297.387a1.359,1.359,0,0,1,0-2.717h35.358a1.359,1.359,0,0,1,0,2.717" transform="translate(-65.791 -10.245)" fill="#0e1530"/>
              <path id="Trazado_877540" data-name="Trazado 877540" d="M339.4,162.513a.731.731,0,0,1-.482-.18A25.524,25.524,0,0,0,326.9,156.6a.738.738,0,1,1,.282-1.448,26.971,26.971,0,0,1,12.7,6.066.738.738,0,0,1-.484,1.3" transform="translate(-72.52 -34.478)" fill="#dd3d60"/>
              <path id="Trazado_877541" data-name="Trazado 877541" d="M304.95,158.04a.738.738,0,0,1-.295-1.415,27.415,27.415,0,0,1,11-2.258c1.171,0,2.331.053,3.445.159a.738.738,0,0,1-.138,1.469c-1.07-.1-2.182-.152-3.308-.152a25.941,25.941,0,0,0-10.41,2.135.73.73,0,0,1-.294.061" transform="translate(-67.61 -34.308)" fill="#dd3d60"/>
              <path id="Trazado_877542" data-name="Trazado 877542" d="M291.167,228.229a.737.737,0,0,1-.635-.36A47.04,47.04,0,0,1,286.456,219a.738.738,0,1,1,1.4-.477,45.561,45.561,0,0,0,3.947,8.588.738.738,0,0,1-.633,1.115" transform="translate(-63.655 -48.456)" fill="#dd3d60"/>
              <path id="Trazado_877543" data-name="Trazado 877543" d="M300.471,240.949a.73.73,0,0,1-.5-.2,43.5,43.5,0,0,1-6.248-7.2.738.738,0,0,1,1.215-.838,42.042,42.042,0,0,0,6.035,6.959.738.738,0,0,1-.5,1.28" transform="translate(-65.25 -51.648)" fill="#dd3d60"/>
              <path id="Trazado_877544" data-name="Trazado 877544" d="M307.295,226.341a.737.737,0,0,1-.4-.117c-21.677-13.986-19.5-39.415-19.183-42.269.437-14.138,10.855-24.845,24.229-24.845,18.17,0,25.592,14.426,26.427,26.779a.738.738,0,0,1-.687.786.73.73,0,0,1-.786-.686c-.829-12.28-7.82-25.4-24.953-25.4-12.558,0-22.341,10.091-22.758,23.473-.313,2.819-2.417,27.419,18.512,40.923a.738.738,0,0,1-.4,1.358" transform="translate(-63.897 -35.362)" fill="#dd3d60"/>
              <path id="Trazado_877545" data-name="Trazado 877545" d="M351.156,198.8a.727.727,0,0,1-.211-.03c-3.135-.928-4.444-4.136-4.611-6.6q-.044-.648-.117-1.283a.738.738,0,0,1,1.466-.167q.078.667.123,1.349c.108,1.605.98,4.524,3.557,5.286a.738.738,0,0,1-.208,1.446" transform="translate(-76.945 -42.242)" fill="#dd3d60"/>
              <path id="Trazado_877546" data-name="Trazado 877546" d="M344.464,184.477a.738.738,0,0,1-.719-.576,22.009,22.009,0,0,0-6.29-11.312.738.738,0,1,1,1.01-1.076,23.469,23.469,0,0,1,6.721,12.063.737.737,0,0,1-.72.9" transform="translate(-74.946 -38.074)" fill="#dd3d60"/>
              <path id="Trazado_877547" data-name="Trazado 877547" d="M331.028,169.021a.733.733,0,0,1-.41-.125,21.251,21.251,0,0,0-9.069-3.376,21.634,21.634,0,0,0-2.836-.188.738.738,0,0,1,0-1.476,23.22,23.22,0,0,1,12.726,3.815.738.738,0,0,1-.411,1.351" transform="translate(-70.669 -36.416)" fill="#dd3d60"/>
              <path id="Trazado_877548" data-name="Trazado 877548" d="M298.276,173.26a.739.739,0,0,1-.586-1.187,20.558,20.558,0,0,1,12.977-7.851.738.738,0,0,1,.243,1.456,19.088,19.088,0,0,0-12.047,7.292.737.737,0,0,1-.586.289" transform="translate(-66.127 -36.496)" fill="#dd3d60"/>
              <path id="Trazado_877549" data-name="Trazado 877549" d="M292.32,193.55a.738.738,0,0,1-.737-.722,32.5,32.5,0,0,1,.167-4.454,23.279,23.279,0,0,1,2.691-10.321.738.738,0,1,1,1.3.7,21.806,21.806,0,0,0-2.518,9.7c0,.026,0,.054-.007.08a30.862,30.862,0,0,0-.159,4.267.739.739,0,0,1-.722.754h-.016" transform="translate(-64.801 -39.485)" fill="#dd3d60"/>
              <path id="Trazado_877550" data-name="Trazado 877550" d="M295.893,215.217a.738.738,0,0,1-.679-.448,44.509,44.509,0,0,1-3.251-12.358.738.738,0,0,1,1.466-.17,43.015,43.015,0,0,0,3.142,11.948.738.738,0,0,1-.678,1.028" transform="translate(-64.887 -44.802)" fill="#dd3d60"/>
              <path id="Trazado_877551" data-name="Trazado 877551" d="M307.26,233.537a.733.733,0,0,1-.493-.189,40.584,40.584,0,0,1-8.981-11.585.738.738,0,1,1,1.311-.678,39.1,39.1,0,0,0,8.655,11.165.738.738,0,0,1-.492,1.287" transform="translate(-66.164 -49.047)" fill="#dd3d60"/>
              <path id="Trazado_877552" data-name="Trazado 877552" d="M321.176,244.506a.736.736,0,0,1-.324-.075,48.915,48.915,0,0,1-8.091-4.959.738.738,0,1,1,.894-1.174A47.475,47.475,0,0,0,321.5,243.1a.738.738,0,0,1-.325,1.4" transform="translate(-69.445 -52.927)" fill="#dd3d60"/>
              <path id="Trazado_877553" data-name="Trazado 877553" d="M322.538,227.893a.743.743,0,0,1-.309-.068c-26.217-12.078-27.329-34.451-27.046-41.021l.01-.271A18.538,18.538,0,0,1,313.642,168.6a19.249,19.249,0,0,1,2.543.17c9.54,1.291,15.9,8.488,16.593,18.781.259,3.821,2.571,8.023,7.152,8.8a.738.738,0,0,1-.246,1.456c-5.375-.909-8.081-5.755-8.379-10.154-.646-9.552-6.514-16.227-15.316-17.418a17.741,17.741,0,0,0-2.347-.156,17.053,17.053,0,0,0-16.972,16.5l-.012.285c-.274,6.339.807,27.925,26.19,39.619a.738.738,0,0,1-.31,1.409" transform="translate(-65.597 -37.471)" fill="#dd3d60"/>
              <path id="Trazado_877554" data-name="Trazado 877554" d="M349.512,208.6a.736.736,0,0,1-.173-.02c-5.218-1.249-8.63-3.535-10.431-6.987a.738.738,0,1,1,1.309-.682c1.591,3.05,4.688,5.09,9.467,6.234a.738.738,0,0,1-.172,1.456" transform="translate(-75.303 -44.564)" fill="#dd3d60"/>
              <path id="Trazado_877555" data-name="Trazado 877555" d="M337.664,195.492a.738.738,0,0,1-.719-.572,17.956,17.956,0,0,1-.336-2c-.057-.5-.1-1.013-.127-1.581a16.335,16.335,0,0,0-1.384-5.891.738.738,0,1,1,1.346-.605,17.786,17.786,0,0,1,1.512,6.42c.027.537.066,1.024.119,1.489a16.327,16.327,0,0,0,.309,1.836.739.739,0,0,1-.554.884.769.769,0,0,1-.166.019" transform="translate(-74.46 -40.984)" fill="#dd3d60"/>
              <path id="Trazado_877556" data-name="Trazado 877556" d="M331.562,180.675a.736.736,0,0,1-.587-.291,13.448,13.448,0,0,0-6.448-4.618.738.738,0,1,1,.468-1.4,14.908,14.908,0,0,1,7.154,5.122.738.738,0,0,1-.586,1.185" transform="translate(-72.013 -38.744)" fill="#dd3d60"/>
              <path id="Trazado_877557" data-name="Trazado 877557" d="M309.273,176.929a.738.738,0,0,1-.39-1.365,14.8,14.8,0,0,1,9.478-2.12.738.738,0,0,1,.65.816.728.728,0,0,1-.817.651,13.325,13.325,0,0,0-8.533,1.907.73.73,0,0,1-.389.111" transform="translate(-68.571 -38.526)" fill="#dd3d60"/>
              <path id="Trazado_877558" data-name="Trazado 877558" d="M300.631,191.293h0a.738.738,0,0,1-.737-.739c0-.48.012-.933.03-1.359l.012-.281a14.678,14.678,0,0,1,4.358-10.056.738.738,0,1,1,1.042,1.045,13.217,13.217,0,0,0-3.925,9.059l-.012.295q-.028.611-.029,1.3a.738.738,0,0,1-.738.737" transform="translate(-66.65 -39.703)" fill="#dd3d60"/>
              <path id="Trazado_877559" data-name="Trazado 877559" d="M304.561,212.137a.738.738,0,0,1-.663-.413,38.83,38.83,0,0,1-3.785-13.419.738.738,0,1,1,1.468-.141,37.368,37.368,0,0,0,3.642,12.91.739.739,0,0,1-.663,1.063" transform="translate(-66.698 -43.893)" fill="#dd3d60"/>
              <path id="Trazado_877560" data-name="Trazado 877560" d="M316.109,229.405a.736.736,0,0,1-.474-.173,40.109,40.109,0,0,1-8.687-10.089.738.738,0,1,1,1.265-.76,38.661,38.661,0,0,0,8.37,9.718.738.738,0,0,1-.474,1.3" transform="translate(-68.195 -48.456)" fill="#dd3d60"/>
              <path id="Trazado_877561" data-name="Trazado 877561" d="M332.339,240.621a.733.733,0,0,1-.286-.058,54.128,54.128,0,0,1-10.4-5.731.738.738,0,1,1,.856-1.2,52.713,52.713,0,0,0,10.115,5.573.738.738,0,0,1-.287,1.419" transform="translate(-71.418 -51.893)" fill="#dd3d60"/>
              <path id="Trazado_877562" data-name="Trazado 877562" d="M332.018,226.138a.73.73,0,0,1-.257-.047c-25.292-9.415-27.37-28.978-27.09-36.951l.009-.246a11.145,11.145,0,0,1,11.072-10.805,11.973,11.973,0,0,1,1.57.1c5.779.782,9.878,5.546,10.2,11.854.282,5.55,2.094,13.236,14.522,15.886a.738.738,0,0,1-.308,1.444c-10.076-2.15-15.207-7.793-15.688-17.255-.283-5.576-3.869-9.782-8.92-10.465a10.446,10.446,0,0,0-1.374-.092,9.781,9.781,0,0,0-9.6,9.366l-.009.261c-.269,7.654,1.738,26.436,26.129,35.517a.738.738,0,0,1-.257,1.429" transform="translate(-67.707 -39.58)" fill="#dd3d60"/>
              <path id="Trazado_877563" data-name="Trazado 877563" d="M335.612,224.793a.743.743,0,0,1-.226-.036,45.774,45.774,0,0,1-10.461-4.817.738.738,0,1,1,.79-1.247,44.317,44.317,0,0,0,10.124,4.66.738.738,0,0,1-.227,1.44m-12.9-6.549a.737.737,0,0,1-.446-.15,34.291,34.291,0,0,1-9.091-10.294.738.738,0,0,1,1.281-.733,32.824,32.824,0,0,0,8.7,9.853.738.738,0,0,1-.446,1.325m19.6-6.122a.717.717,0,0,1-.166-.019,37.7,37.7,0,0,1-5.108-1.546.738.738,0,1,1,.533-1.377,36.329,36.329,0,0,0,4.908,1.485.738.738,0,0,1-.166,1.457m-8.091-2.921a.737.737,0,0,1-.348-.088,19.483,19.483,0,0,1-8.109-7.74.738.738,0,1,1,1.293-.712,18.03,18.03,0,0,0,7.512,7.151.738.738,0,0,1-.349,1.389m-21.786-3.708a.738.738,0,0,1-.671-.43,35.706,35.706,0,0,1-3.155-12.328.738.738,0,1,1,1.472-.1,34.226,34.226,0,0,0,3.024,11.814.737.737,0,0,1-.67,1.045m12.708-6.623a.739.739,0,0,1-.7-.5,24.975,24.975,0,0,1-1.216-7.043,8.751,8.751,0,0,0-.48-2.552.738.738,0,1,1,1.391-.492,10.223,10.223,0,0,1,.563,2.981,23.507,23.507,0,0,0,1.139,6.63.739.739,0,0,1-.7.976m-15.837-8.165a.727.727,0,0,1-.1-.007.738.738,0,0,1-.632-.83,8.138,8.138,0,0,1,9.13-6.964,7.671,7.671,0,0,1,4.78,2.536.738.738,0,1,1-1.1.979,6.218,6.218,0,0,0-3.873-2.053,6.658,6.658,0,0,0-7.47,5.7.738.738,0,0,1-.73.639" transform="translate(-68.578 -40.634)" fill="#dd3d60"/>
              <path id="Trazado_877564" data-name="Trazado 877564" d="M338.992,223.071a.736.736,0,0,1-.207-.03c-28.358-8.238-25.563-31.4-25.532-31.631a4.433,4.433,0,0,1,4.981-3.795c2.185.3,3.715,2.24,3.8,4.837.191,5.481,2.57,18.676,20.486,22.81a.738.738,0,1,1-.332,1.438c-18.912-4.364-21.426-18.375-21.629-24.2-.05-1.43-.741-3.184-2.526-3.425a2.953,2.953,0,0,0-3.321,2.53c-.026.217-2.429,22.2,24.481,30.016a.738.738,0,0,1-.205,1.447" transform="translate(-69.6 -41.688)" fill="#dd3d60"/>
              <path id="Trazado_877565" data-name="Trazado 877565" d="M346.448,228.208a.735.735,0,0,1-.191-.025,45.643,45.643,0,0,1-7.53-2.707.738.738,0,1,1,.627-1.336,44.107,44.107,0,0,0,7.285,2.617.738.738,0,0,1-.191,1.451" transform="translate(-75.187 -49.799)" fill="#dd3d60"/>
              <path id="Trazado_877566" data-name="Trazado 877566" d="M332.96,221.205a.729.729,0,0,1-.365-.1,27.574,27.574,0,0,1-10.1-9.527.738.738,0,1,1,1.259-.769,26.134,26.134,0,0,0,9.569,9.014.738.738,0,0,1-.366,1.379" transform="translate(-71.65 -46.774)" fill="#dd3d60"/>
              <path id="Trazado_877567" data-name="Trazado 877567" d="M320.718,205.241a.738.738,0,0,1-.674-.436,23.642,23.642,0,0,1-2.091-11.846.738.738,0,0,1,1.463.2,22.583,22.583,0,0,0,1.975,11.044.738.738,0,0,1-.673,1.041" transform="translate(-70.643 -42.743)" fill="#dd3d60"/>
              <path id="Trazado_877568" data-name="Trazado 877568" d="M306.05,238.97a1.179,1.179,0,0,1-.428-.081c-30.66-12.089-41.882-37.013-45.9-55.794a113.224,113.224,0,0,1-1.377-38.115,1.166,1.166,0,0,1,1.15-.971c37.177,0,45.442-14.628,45.521-14.776a1.171,1.171,0,0,1,1.03-.619h.006a1.166,1.166,0,0,1,1.03.625c.076.142,8.342,14.77,45.52,14.77a1.167,1.167,0,0,1,1.15.971,113.247,113.247,0,0,1-1.377,38.115c-4.016,18.78-15.238,43.7-45.9,55.794a1.176,1.176,0,0,1-.428.081m-45.544-92.63a112.2,112.2,0,0,0,1.516,36.341c5.646,26.307,20.456,44.428,44.028,53.868,23.594-9.449,38.411-27.595,44.044-53.94a112.088,112.088,0,0,0,1.5-36.268c-31.263-.218-42.406-10.522-45.546-14.5-3.14,3.977-14.282,14.282-45.544,14.5" transform="translate(-57.196 -28.584)" fill="#0e1530"/>
              <path id="Trazado_877569" data-name="Trazado 877569" d="M174.973,92.707s3.925,5.262,4.891,14.993l-11.346-2.185L170.9,94.693" transform="translate(-37.453 -20.604)"/>
              <path id="Trazado_877570" data-name="Trazado 877570" d="M215.783,360.238l-2.346,16.208s-7.931,4.255-18.712-1.306l1-17.027Z" transform="translate(-43.277 -79.589)" fill="#f39c94"/>
              <path id="Trazado_877571" data-name="Trazado 877571" d="M235.43,397.363H188.2s-.793-10.65,5.065-18.242L201.918,381s2.878-4,4.184-4.321,7.507-.649,7.507-.649l1.136,4.475.957,2.511,3.681,1.164c4.681-1.738,8.7-1.755,10.22-1.165,5.671,2.238,5.826,14.349,5.826,14.349" transform="translate(-41.819 -83.571)" fill="#492f89"/>
              <path id="Trazado_877572" data-name="Trazado 877572" d="M155.96,363.782l2.289,14.707a25.757,25.757,0,0,0,16.774.489l-1.512-17.02" transform="translate(-34.662 -80.444)" fill="#f39c94"/>
              <path id="Trazado_877573" data-name="Trazado 877573" d="M152.618,397.327h32.918s1.079-8.923-4.4-12.945a32.905,32.905,0,0,0-5.652-3.095c-.369-2.823-.525-4.973-.667-5.264-.276-.539-9.275.437-12.351,1.091-.83.177-2.086,3.941-2.086,3.941l-2.9.525c-6.248,5.8-4.859,15.746-4.859,15.746" transform="translate(-33.89 -83.535)" fill="#492f89"/>
              <path id="Trazado_877574" data-name="Trazado 877574" d="M193.678,399.872l-.019,0a.155.155,0,0,1-.136-.173c.01-.088,1-8.88-4.341-12.8a.155.155,0,1,1,.184-.25c5.492,4.029,4.477,13,4.466,13.089a.155.155,0,0,1-.154.137" transform="translate(-42.031 -85.924)"/>
              <path id="Trazado_877575" data-name="Trazado 877575" d="M142.843,182.6s-11.635,14.066-10.593,28.827,8.856,47.756,8.856,47.756-2.778,6.6-.347,18.234,8.352,51.522,8.352,51.522,12.487,2.659,22.906-.988l-6.6-101.764q7.447,20.838,16.5,35.427c-4.359,12.8-2.658,40.305-3.126,65.47,0,0,11.976,4.374,22.742,1.6,0,0,7.648-62.377,6.78-67.413S182.09,179.3,182.09,179.3" transform="translate(-29.378 -39.848)" fill="#4d89f5"/>
              <path id="Trazado_877576" data-name="Trazado 877576" d="M193.681,338.345a.156.156,0,0,1-.156-.152c-.712-27.752.142-58.332,3.152-63.085a.151.151,0,0,1,.095-.068l4.539-1.08L196.3,271.91a.159.159,0,0,1-.054-.037c-8.712-9.155-16.9-35.987-16.977-36.257a.155.155,0,0,1,.3-.09c.082.269,8.229,26.985,16.883,36.109l5.425,2.221a.156.156,0,0,1-.023.3l-4.947,1.177c-2.563,4.259-3.883,31.21-3.071,62.857a.156.156,0,0,1-.152.159Z" transform="translate(-39.841 -52.321)"/>
              <path id="Trazado_877577" data-name="Trazado 877577" d="M153.909,333.428a.155.155,0,0,1-.153-.133c-.064-.436-6.373-43.7-7.943-53.714-1.5-9.594.753-15.458.985-16.026-.273-1.512-6.86-38.077-7.44-44.835a37.9,37.9,0,0,1,1.524-13.37.156.156,0,1,1,.3.1,37.563,37.563,0,0,0-1.51,13.245c.589,6.851,7.376,44.472,7.445,44.851a.152.152,0,0,1-.01.091c-.026.058-2.543,5.94-.982,15.9,1.57,10.012,7.879,53.281,7.942,53.716a.156.156,0,0,1-.131.177l-.023,0" transform="translate(-30.949 -45.615)"/>
              <path id="Trazado_877578" data-name="Trazado 877578" d="M174.607,231.467a.157.157,0,0,1-.156-.145l-.261-3.6a.154.154,0,0,1,.037-.112l3.909-4.647-.334-16.3a.157.157,0,0,1,.153-.159h0a.156.156,0,0,1,.156.152l.334,16.355a.157.157,0,0,1-.037.1l-3.906,4.642.257,3.539a.156.156,0,0,1-.144.167h-.012" transform="translate(-38.713 -45.896)"/>
              <path id="Trazado_877579" data-name="Trazado 877579" d="M141.646,187.245a68.147,68.147,0,0,0-5.639-6.452,56.648,56.648,0,0,0-5.615-2.2l.667-1.995-5.867-1.5-13.025-21.013,12.156-18.061-19.958-3.765s-10.392,14.613-10.953,19.568c-.775,6.836,23.7,30.127,23.7,30.127.506,7.711,7.447,7.227,7.447,7.227s3.156,5.181,4.137,6.019c1.43,1.223,3.459-.006,2.94-1.189.313.373.569.667.717.817,1.409,1.43,4.191.027,3.137-1.811-.166-.29-.989-1.609-1.959-3.158,1.277,1.428,2.705,2.988,3.214,3.407,1.019.837,3.565-.108,2.9-1.585-.151-.333-1.063-1.782-2.1-3.391a13.345,13.345,0,0,0,1.312,1c1.444.862,3.64-.786,2.793-2.043" transform="translate(-20.757 -29.393)" fill="#f39c94"/>
              <path id="Trazado_877580" data-name="Trazado 877580" d="M113.819,159.743a.156.156,0,0,1-.1-.036c-.026-.022-2.712-2.168-8.8-.861a.157.157,0,0,1-.185-.12.155.155,0,0,1,.12-.184c6.258-1.341,8.956.832,9.068.926a.156.156,0,0,1-.1.275" transform="translate(-23.275 -35.139)"/>
              <path id="Trazado_877581" data-name="Trazado 877581" d="M147.649,201.724a.156.156,0,0,1-.134-.077,52.006,52.006,0,0,0-3.212-5.029,26.148,26.148,0,0,0-4.194-1.942.155.155,0,0,1-.089-.2.158.158,0,0,1,.2-.089,27.4,27.4,0,0,1,4.295,2.005,57.367,57.367,0,0,1,3.267,5.1.154.154,0,0,1-.055.212.152.152,0,0,1-.079.022" transform="translate(-31.117 -43.2)"/>
              <path id="Trazado_877582" data-name="Trazado 877582" d="M143.428,204.165a.156.156,0,0,1-.141-.089c-.88-1.844-2.35-4.846-2.551-5.052-.2-.17-1.926-1.332-2.812-1.923a.156.156,0,1,1,.173-.259c.1.071,2.58,1.721,2.844,1.947s2.078,4,2.627,5.153a.155.155,0,0,1-.074.207.148.148,0,0,1-.067.016" transform="translate(-30.638 -43.742)"/>
              <path id="Trazado_877583" data-name="Trazado 877583" d="M140.372,208.558a.157.157,0,0,1-.138-.084c-.03-.061-3.088-5.987-3.63-6.637a12.955,12.955,0,0,0-2.451-1.713.156.156,0,0,1-.06-.212.155.155,0,0,1,.212-.061,12.925,12.925,0,0,1,2.539,1.786c.563.675,3.541,6.448,3.668,6.693a.156.156,0,0,1-.067.21.159.159,0,0,1-.072.017" transform="translate(-29.797 -44.412)"/>
              <path id="Trazado_877584" data-name="Trazado 877584" d="M261.573,144.742s-4.366-2.718-5.967-3.016-9.495-.636-9.495-.636a21.041,21.041,0,0,0-3.592.021l-29.558,4.542-5.636-8.85-14.3,7.8s8.514,16.828,13.95,16.828c4.491,0,37.232-10.97,37.232-10.97l.015-.006L245.7,152.5a6.949,6.949,0,0,1,.993,3.547c-.05,1.936,2.979,2.362,3.723.276.572-1.6-.374-6.2-.847-8.257l5.923-2.651a22.32,22.32,0,0,0,6.078-.672" transform="translate(-42.9 -30.404)" fill="#f39c94"/>
              <path id="Trazado_877585" data-name="Trazado 877585" d="M183.233,109.688a38.042,38.042,0,0,1,8.639,1.925C195.23,113,207.965,134.3,207.965,134.3s-10.766,6.136-18.986,8.336Z" transform="translate(-40.723 -24.378)" fill="#01d159"/>
              <path id="Trazado_877586" data-name="Trazado 877586" d="M196.96,144.851a55.416,55.416,0,0,1-7.062,2.5l-2.543-14.6,5.278-1.877.315,6.966Z" transform="translate(-41.639 -29.086)"/>
              <path id="Trazado_877587" data-name="Trazado 877587" d="M131.052,104.855s-8.509-3.3-13.545,1.563-19.623,28.653-19.623,28.653c5.557,5.094,18.06,10.189,26.678,10.883l5.624-11.987,6.215,12.883-5.348,21.391s5.557,4.168,22.055,4.516,24.486-5.384,24.486-5.384l-7.467-33.342s3.126-8.336,2.6-10.42-8.466-15.239-8.466-15.239l-5.631-.782Z" transform="translate(-21.754 -23.061)" fill="#01d159"/>
              <path id="Trazado_877588" data-name="Trazado 877588" d="M156.3,89.76l-6.151,12.59-7.028-.408s10.661,21.334,23.251,20.379,4.541-17.535,4.541-17.535l-4.965-.969,1.466-11.752" transform="translate(-31.809 -19.949)" fill="#f39c94"/>
              <path id="Trazado_877589" data-name="Trazado 877589" d="M171.12,94.025l-.988,7.933a12.923,12.923,0,0,1-9.527-9.893Z" transform="translate(-35.694 -20.461)"/>
              <path id="Trazado_877590" data-name="Trazado 877590" d="M150.858,76.565s8.844,15.867,20.656,13.769c11.612-2.063,9.883-28.1,2.093-33.131-8.327-5.384-29.7,1.3-22.749,19.363" transform="translate(-33.224 -12.311)" fill="#f39c94"/>
              <path id="Trazado_877591" data-name="Trazado 877591" d="M164.9,67.583c-3.425,3.946-8.439.744-8.439.744a3.837,3.837,0,0,0-6.9,1.75c-.782,5.511,5.474,11.414,5.474,11.414l-5.488,11.234-9.046-.608a28.7,28.7,0,0,1,4.89-9.417c-1.142-2.565-10.462-20.3-.3-31.151,10.227-10.922,25.318-.894,25.318-.894a6.757,6.757,0,0,1,6.357.2c6.261,3.867.124,15.754.124,15.754a25.114,25.114,0,0,0-2.85-8.736c-2.489-4.632-5.716,5.769-9.141,9.716" transform="translate(-31.202 -10.324)"/>
              <path id="Trazado_877592" data-name="Trazado 877592" d="M139.416,141.213l2.381-4.846-.406,8.94Z" transform="translate(-30.985 -30.307)"/>
              <path id="Trazado_877593" data-name="Trazado 877593" d="M247.472,43.111H208.146a6.509,6.509,0,0,1-6.51-6.51V23.008a6.509,6.509,0,0,1,6.51-6.51h39.326a6.509,6.509,0,0,1,6.51,6.51V36.6a6.509,6.509,0,0,1-6.51,6.51" transform="translate(-44.813 -3.667)" fill="#fff"/>
              <path id="Trazado_877594" data-name="Trazado 877594" d="M247.417,43.25H208.09a6.712,6.712,0,0,1-6.7-6.7V22.952a6.712,6.712,0,0,1,6.7-6.7h39.326a6.712,6.712,0,0,1,6.7,6.7V36.546a6.712,6.712,0,0,1-6.7,6.7M208.09,16.637a6.322,6.322,0,0,0-6.315,6.315V36.546a6.322,6.322,0,0,0,6.315,6.315h39.326a6.322,6.322,0,0,0,6.315-6.315V22.952a6.322,6.322,0,0,0-6.315-6.315Z" transform="translate(-44.757 -3.611)"/>
              <path id="Trazado_877595" data-name="Trazado 877595" d="M212.842,47.912s.989,15.571-10.423,15.571c0,0,19.655,5.4,19.655-15.571" transform="translate(-44.987 -10.648)" fill="#fff"/>
              <path id="Trazado_877596" data-name="Trazado 877596" d="M207.62,64.234a22.545,22.545,0,0,1-5.309-.618.195.195,0,0,1,.051-.383,8.69,8.69,0,0,0,6.616-2.689c4.09-4.357,3.62-12.593,3.614-12.675a.194.194,0,0,1,.182-.206.186.186,0,0,1,.206.182c.005.084.488,8.484-3.718,12.964a8.757,8.757,0,0,1-5.431,2.723c2.661.442,8.527.921,12.806-2.343,3.441-2.623,5.185-7.109,5.185-13.333a.194.194,0,1,1,.389,0c0,6.353-1.8,10.943-5.34,13.644a15.2,15.2,0,0,1-9.252,2.734" transform="translate(-44.931 -10.593)"/>
              <path id="Trazado_877597" data-name="Trazado 877597" d="M217.163,38.58a3.263,3.263,0,0,1-2.488-.945c-1.213-1.29-1.062-3.523-.918-5.683.2-2.944.1-4.2-1.017-4.334-2.389-.3-5.332,2.917-6.266,4.179a.778.778,0,0,1-1.251-.924c.159-.215,3.943-5.266,7.708-4.8,2.756.341,2.546,3.469,2.378,5.982-.117,1.742-.249,3.718.5,4.514a1.811,1.811,0,0,0,1.374.454c1.417-.007,2.908-1.891,4.351-3.715,1.711-2.162,3.333-4.2,5.377-4.044,2.2.173,2.532,1.978,2.752,3.172.271,1.462.442,2.062,1.874,2,1.832-.068,3.734-2.323,5.412-4.314,1.748-2.073,3.4-4.031,5.254-4.068,1.816-.025,2.79,1.668,3.617,3.174,1.184,2.153,2.052,3.426,4.137,2.945a.778.778,0,1,1,.35,1.516c-3.385.778-4.808-1.817-5.85-3.712-.809-1.471-1.363-2.368-2.2-2.368h-.024c-1.151.023-2.647,1.8-4.095,3.515-1.979,2.346-4.024,4.772-6.543,4.866-2.843.115-3.212-1.927-3.462-3.271s-.421-1.832-1.346-1.9c-1.22-.114-2.652,1.71-4.035,3.458-1.671,2.112-3.4,4.294-5.562,4.3Z" transform="translate(-45.576 -5.788)"/>
              <path id="Trazado_877598" data-name="Trazado 877598" d="M422.748,238.138,401.7,232.114,386.29,210.623s-.142-7.841-.439-9.727a83.73,83.73,0,0,0-2.116-8.36c-.639-2.025-2.761-.348-3.283,1.178s-.261,5.734-.261,5.734-8.652-14.042-9.345-14.968a1.769,1.769,0,0,0-3.2.856c-.261,1.638,5.25,12.7,5.25,12.7s-6.3,4.579-6.441,5.361,1.266,4.716,2.01,6.553c.311.766,2.309.075,2.309.075a12.294,12.294,0,0,0,3.984,4.214l2.42.6c3.214,8.107,14.044,31.373,18.68,34.132,3.742,2.227,25.925,7.963,25.925,7.963Z" transform="translate(-81.441 -40.834)" fill="#d97969"/>
              <path id="Trazado_877599" data-name="Trazado 877599" d="M372.46,215.747c-.66,0-1.416-.43-1.689-1.655l-1.783-5.394a.172.172,0,0,1,.109-.217.169.169,0,0,1,.216.109L371.1,214c.247,1.1.915,1.439,1.453,1.4a1.568,1.568,0,0,0,1.334-1.58c.1-1.636-1.726-6.608-1.745-6.658a.172.172,0,0,1,.322-.118c.076.207,1.863,5.09,1.764,6.8a1.9,1.9,0,0,1-1.647,1.9c-.04,0-.08,0-.121,0" transform="translate(-82.005 -45.99)"/>
              <path id="Trazado_877600" data-name="Trazado 877600" d="M376.929,213.978c-.831,0-1.5-.7-1.782-1.884a.171.171,0,1,1,.333-.08c.25,1.032.777,1.622,1.449,1.622h.026a1.6,1.6,0,0,0,1.415-1.361c.31-1.6-1.569-7.228-1.587-7.285a.171.171,0,0,1,.107-.217.173.173,0,0,1,.217.108c.079.235,1.926,5.771,1.6,7.459a1.949,1.949,0,0,1-1.742,1.639h-.034" transform="translate(-83.374 -45.508)"/>
              <path id="Trazado_877601" data-name="Trazado 877601" d="M407.952,255.7a.193.193,0,0,1-.186-.25l2.759-9.233a.194.194,0,1,1,.372.111l-2.76,9.234a.194.194,0,0,1-.186.138" transform="translate(-90.623 -54.689)"/>
              <path id="Trazado_877602" data-name="Trazado 877602" d="M487.9,260.257c-11.041-2.747-22.065-5.055-22.065-5.055L448.6,253.675l-5.462-.439-19.856-3.9c-3.073,3.728-5.155,16.366-4.807,22.174l16.152,3.288,2.944,29.212-13.125,27.445,63.511,1.191s-1.374-8.439-2.822-21.22c7.9-21.175,2.566-44.924,2.766-51.168" transform="translate(-92.997 -55.414)" fill="#ffaf1a"/>
              <path id="Trazado_877603" data-name="Trazado 877603" d="M437.881,279.963l-.771-7.383-4.037,6.4Z" transform="translate(-96.249 -60.58)"/>
              <path id="Trazado_877604" data-name="Trazado 877604" d="M495.691,295.186l3.127,22.276,8.356-3.047Z" transform="translate(-110.166 -65.604)"/>
              <path id="Trazado_877605" data-name="Trazado 877605" d="M452.691,213.133a6.218,6.218,0,0,0-2.857,5.484c.012,3.008,3.133,4.7,3.133,4.7l1.982-8.525" transform="translate(-99.974 -47.368)"/>
              <path id="Trazado_877606" data-name="Trazado 877606" d="M454.273,215c-3.145,6.364-4.331,25.116,3.338,27.119a12.152,12.152,0,0,0,2.639-.165l-1.763,6.471s2.336,3.176,7.522,2.91c5.3-.271,9.482-4.452,9.482-4.452l-.784-13.583a3.421,3.421,0,0,0,2.164-2.269c7.223-24.633-18.32-24.686-22.6-16.032" transform="translate(-100.422 -46.622)" fill="#d97969"/>
              <path id="Trazado_877607" data-name="Trazado 877607" d="M414.1,390.263a18.738,18.738,0,0,0-4.807-7.521l-.6-3.784a35.837,35.837,0,0,0-4.3-.771c-.586-.5-1.255-1.066-1.8-1.5-1.266-1-7.744-.152-10.723,1.543l-2.879.232s-7.523-2.689-13.181-.77c-9.73,3.3-10.276,19.717-3.375,19.717h40.806a8.568,8.568,0,0,0,.851-7.15" transform="translate(-81.743 -83.623)" fill="#01d159"/>
              <path id="Trazado_877608" data-name="Trazado 877608" d="M372.5,379.88c7.014,3.82,31.3,4.921,31.3,4.921a14.417,14.417,0,0,0,.44,5.92H482.3s19.271-10.841,12.9-28.428c-5.936-16.372-31.828-9.83-31.828-9.83-7.677-.52-24.1.759-24.1.759s-51.884-7.437-60.169-7.063c-17.525.791-21.645,25.529-6.6,33.72" transform="translate(-80.734 -76.93)" fill="#181e4c"/>
              <path id="Trazado_877609" data-name="Trazado 877609" d="M455.562,379.47l-11.414-2.15-4.067,16.143,15.26,2.833s7.971-9.23.221-16.827" transform="translate(-97.807 -83.858)" fill="#d97969"/>
              <path id="Trazado_877610" data-name="Trazado 877610" d="M489.32,377.7c-5.657-1.919-13.181.769-13.181.769l-2.879-.231c-2.979-1.7-9.458-2.546-10.723-1.544-.545.432-1.214,1-1.8,1.5a35.871,35.871,0,0,0-4.3.771l-.6,3.784a18.738,18.738,0,0,0-4.807,7.521,8.568,8.568,0,0,0,.851,7.15H492.7c6.9,0,6.355-16.415-3.375-19.717" transform="translate(-100.152 -83.623)" fill="#01d159"/>
              <path id="Trazado_877611" data-name="Trazado 877611" d="M432.095,372.691a.179.179,0,0,1-.089-.025c-.182-.111-18.453-11.116-45.268-13.812a.171.171,0,0,1-.153-.187.162.162,0,0,1,.188-.153c26.9,2.7,45.23,13.748,45.412,13.86a.172.172,0,0,1-.089.318" transform="translate(-85.917 -79.678)"/>
              <path id="Trazado_877612" data-name="Trazado 877612" d="M432.823,368.087a.172.172,0,0,1-.052-.335,189.62,189.62,0,0,1,56.977-8.884.171.171,0,0,1,0,.342h-.005a189.427,189.427,0,0,0-56.863,8.87.175.175,0,0,1-.052.009" transform="translate(-96.156 -79.754)"/>
              <path id="Trazado_877613" data-name="Trazado 877613" d="M438.954,360.1h31.733c0-1.666-.957-3.834-4.839-3.834H438.954Z" transform="translate(-97.556 -79.179)"/>
              <path id="Trazado_877614" data-name="Trazado 877614" d="M390.972,349.525H443.93a1.578,1.578,0,0,0,1.529-1.967l-9.4-36.951a2.54,2.54,0,0,0-2.461-1.914H380.644a1.578,1.578,0,0,0-1.529,1.967l9.4,36.952a2.539,2.539,0,0,0,2.461,1.913" transform="translate(-84.246 -68.606)"/>
              <path id="Trazado_877615" data-name="Trazado 877615" d="M387.84,349.525H440.8a1.578,1.578,0,0,0,1.529-1.967l-9.4-36.951a2.54,2.54,0,0,0-2.461-1.914H377.512a1.578,1.578,0,0,0-1.529,1.967l9.4,36.952a2.539,2.539,0,0,0,2.461,1.913" transform="translate(-83.55 -68.606)" fill="#9eb6e1"/>
              <path id="Trazado_877616" data-name="Trazado 877616" d="M420.619,334.367c0,1.611-2.3,2.917-5.143,2.917s-5.144-1.306-5.144-2.917,2.3-2.917,5.144-2.917,5.143,1.306,5.143,2.917" transform="translate(-91.195 -73.664)" fill="#fff"/>
              <path id="Trazado_877617" data-name="Trazado 877617" d="M508.154,295.885c-6.992,2.621-15.773,4.13-20.043,4.76,2.357,6.533,4.526,12.071,4.526,12.071l-27.354,9.854s-5.833-7.964-7.1-9.613c-.684-.879-5.53-2.209-6.121-2.341s-7.256.288-8.011.3c-.8.007-1.155,1.335-.792,2.321a8.3,8.3,0,0,0-1.992.121,2.388,2.388,0,0,0-.025,2.57c.831,1.24,4.317,1.148,4.317,1.148-1.151.008-2.266.009-2.53.033-1.073.086-1.39,2.48.057,3.148a34.329,34.329,0,0,0,6.183,1.2c-2.281,1.584-4.4,2.294-5.681,3.57-.971.964-.1,2.311,1.613,2.483,2.731.273,5.287-.894,7.662-1.713.731,2.489,1.828,5.149,3.329,6.191,3.072,2.131,6.992.957,7.171.9.482.023,20.276-1.058,34.128-3.018,7.5-1.066,13.743-3.974,15.026-11.215.856-4.8-1.4-13.805-4.363-22.765" transform="translate(-97.986 -65.76)" fill="#d97969"/>
              <path id="Trazado_877618" data-name="Trazado 877618" d="M454.438,324.2s-2.717-.521-3.312-.632c-.576-.108-3.7-.257-3.735-.258a.2.2,0,0,1-.185-.2.2.2,0,0,1,.2-.186c.13.006,3.186.152,3.788.264s3.314.635,3.314.635Z" transform="translate(-99.39 -71.767)"/>
              <path id="Trazado_877619" data-name="Trazado 877619" d="M454.2,319.45a.173.173,0,0,1-.052-.008c-.027-.007-2.665-.747-3.644-.856s-5.266-.257-5.31-.259a.195.195,0,0,1,.013-.389c.177.005,4.339.15,5.339.262a36.68,36.68,0,0,1,3.705.868.194.194,0,0,1-.052.381" transform="translate(-98.901 -70.661)"/>
              <path id="Trazado_877620" data-name="Trazado 877620" d="M454.952,329.214a.1.1,0,0,1-.021,0l-2.908-.318a.194.194,0,0,1-.171-.215.179.179,0,0,1,.214-.171l2.907.318a.194.194,0,0,1-.021.387" transform="translate(-100.422 -73.009)"/>
              <path id="Trazado_877621" data-name="Trazado 877621" d="M519.683,320.642a.2.2,0,0,1-.16-.084c-3.746-5.477-11.62-3.28-11.7-3.256a.192.192,0,0,1-.241-.133.194.194,0,0,1,.133-.24c.082-.025,8.223-2.3,12.129,3.408a.194.194,0,0,1-.16.3" transform="translate(-112.807 -70.333)"/>
              <path id="Trazado_877622" data-name="Trazado 877622" d="M480.852,225.58a11.1,11.1,0,0,0,5.468-8.722,5.608,5.608,0,0,0-4.11-5.99,8.429,8.429,0,0,0-1.883-7.372c-4.953-5.348-11.89-.672-11.89-.672s-3.074-7.911-11.237-6.252c-5.6,1.136-9.24,7.2-3.712,16.775a23.1,23.1,0,0,0,5.942,1.544,32.691,32.691,0,0,0,10.647-.459c-1.107,5.513,1.374,8.823,6.64,10.423Z" transform="translate(-100.177 -43.637)"/>
              <path id="Trazado_877623" data-name="Trazado 877623" d="M462.337,249.275s.1-.023.283-.072c1.295-.354,6.723-2.056,9.79-6.494,0,4.269-3.574,10.127-11.176,10.613" transform="translate(-102.508 -53.941)"/>
              <path id="Trazado_877624" data-name="Trazado 877624" d="M485.744,226.227c4.46,2.448-.773,11.313-4.534,10.985-6.72-.586-1.49-14.292,4.534-10.985" transform="translate(-106.248 -50.164)" fill="#d97969"/>
              <path id="Trazado_877625" data-name="Trazado 877625" d="M504.316,263.325a12.129,12.129,0,0,1,7.389,5.295c2.829,4.468,9.308,22.638,9.308,22.638-5.088,4.567-13.275,6.5-22.191,7.819,0,0-7.223-18.1-6.478-24.5s4.061-12.6,11.971-11.253" transform="translate(-109.41 -58.482)" fill="#ffaf1a"/>
              <path id="Trazado_877626" data-name="Trazado 877626" d="M338.518,391.28s-13.851-9.892-30.084-6.471a33.448,33.448,0,0,1,34.34-2.386,56.039,56.039,0,0,0-14.83-13.429,33.148,33.148,0,0,1,19.063,12.981s-1.44-12.981-14.645-33.31c0,0,26.41,12.9,28.57,42.616" transform="translate(-68.549 -77.49)" fill="#c7ddfd"/>
              <path id="Trazado_877627" data-name="Trazado 877627" d="M548.817,395.5s4.17-17.29,17.276-27.868a76.274,76.274,0,0,1-3.575,22.584,47.176,47.176,0,0,1,11.914-8.649s-2.427,8.294-6.476,13.933" transform="translate(-146.911 -81.704)" fill="#c7ddfd"/>
              <path id="Trazado_877628" data-name="Trazado 877628" d="M418.477,109.287H354.165a6.465,6.465,0,0,1-6.465-6.465V68.789a6.465,6.465,0,0,1,6.465-6.465h64.312a6.466,6.466,0,0,1,6.465,6.465v34.032a6.466,6.466,0,0,1-6.465,6.465" transform="translate(-77.275 -13.851)" fill="#fff"/>
              <path id="Trazado_877629" data-name="Trazado 877629" d="M418.421,109.427H354.109a6.667,6.667,0,0,1-6.66-6.66V68.735a6.667,6.667,0,0,1,6.66-6.66h64.312a6.667,6.667,0,0,1,6.66,6.66v34.032a6.667,6.667,0,0,1-6.66,6.66M354.109,62.464a6.279,6.279,0,0,0-6.271,6.271v34.032a6.279,6.279,0,0,0,6.271,6.271h64.312a6.278,6.278,0,0,0,6.271-6.271V68.735a6.278,6.278,0,0,0-6.271-6.271Z" transform="translate(-77.22 -13.796)" fill="#0f0e13"/>
              <path id="Trazado_877630" data-name="Trazado 877630" d="M384.211,98H361.077A3.078,3.078,0,0,1,358,94.924V81.52a3.078,3.078,0,0,1,3.078-3.078h23.134a3.078,3.078,0,0,1,3.078,3.078v13.4A3.078,3.078,0,0,1,384.211,98" transform="translate(-79.564 -17.434)" fill="#fff"/>
              <path id="Trazado_877631" data-name="Trazado 877631" d="M384.1,98.279H360.966a3.471,3.471,0,0,1-3.466-3.467v-13.4a3.471,3.471,0,0,1,3.466-3.467H384.1a3.471,3.471,0,0,1,3.466,3.467v13.4a3.471,3.471,0,0,1-3.466,3.467M360.966,78.72a2.692,2.692,0,0,0-2.689,2.689v13.4a2.692,2.692,0,0,0,2.689,2.689H384.1a2.693,2.693,0,0,0,2.689-2.689v-13.4A2.693,2.693,0,0,0,384.1,78.72Z" transform="translate(-79.453 -17.322)" fill="#0f0e13"/>
              <path id="Trazado_877632" data-name="Trazado 877632" d="M358,82.4l14.645,9.631L387.289,82.4" transform="translate(-79.564 -18.313)" fill="#fff"/>
              <path id="Trazado_877633" data-name="Trazado 877633" d="M372.584,92.327a.384.384,0,0,1-.213-.064l-14.645-9.631.426-.65,14.432,9.49,14.431-9.49.427.65L372.8,92.263a.384.384,0,0,1-.213.064" transform="translate(-79.504 -18.22)" fill="#0f0e13"/>
              <line id="Línea_3215" data-name="Línea 3215" y1="6.428" x2="10.607" transform="translate(278.435 71.062)" fill="#fff"/>
              <rect id="Rectángulo_403308" data-name="Rectángulo 403308" width="12.403" height="0.778" transform="translate(278.233 77.157) rotate(-31.21)" fill="#0f0e13"/>
              <line id="Línea_3216" data-name="Línea 3216" x1="10.607" y1="6.428" transform="translate(297.118 71.062)" fill="#fff"/>
              <rect id="Rectángulo_403309" data-name="Rectángulo 403309" width="0.778" height="12.403" transform="matrix(0.518, -0.855, 0.855, 0.518, 296.916, 71.395)" fill="#0f0e13"/>
              <path id="Trazado_877634" data-name="Trazado 877634" d="M431.912,79.923H402.418a.778.778,0,0,1,0-1.556h29.494a.778.778,0,1,1,0,1.556" transform="translate(-89.263 -17.417)" fill="#0f0e13"/>
              <path id="Trazado_877635" data-name="Trazado 877635" d="M438.063,87.439h-7.968a.778.778,0,0,1,0-1.556h7.968a.778.778,0,1,1,0,1.556" transform="translate(-95.415 -19.087)" fill="#0f0e13"/>
              <path id="Trazado_877636" data-name="Trazado 877636" d="M419.848,87.439h-17.43a.778.778,0,0,1,0-1.556h17.43a.778.778,0,1,1,0,1.556" transform="translate(-89.263 -19.087)" fill="#0f0e13"/>
              <path id="Trazado_877637" data-name="Trazado 877637" d="M431.912,94.957H402.418a.778.778,0,0,1,0-1.556h29.494a.778.778,0,1,1,0,1.556" transform="translate(-89.263 -20.758)" fill="#0f0e13"/>
              <path id="Trazado_877638" data-name="Trazado 877638" d="M431.912,102.474H402.418a.778.778,0,0,1,0-1.556h29.494a.778.778,0,1,1,0,1.556" transform="translate(-89.263 -22.429)" fill="#0f0e13"/>
              <path id="Trazado_877639" data-name="Trazado 877639" d="M425.189,109.991h-53.02a.778.778,0,1,1,0-1.556h53.02a.778.778,0,1,1,0,1.556" transform="translate(-82.541 -24.099)" fill="#0f0e13"/>
              <path id="Trazado_877643" data-name="Trazado 877643" d="M269.586,307.838h-32.96a3.574,3.574,0,0,1-3.575-3.575V271.3a3.574,3.574,0,0,1,3.575-3.575h32.96a3.574,3.574,0,0,1,3.575,3.575v32.96a3.575,3.575,0,0,1-3.575,3.575" transform="translate(-51.795 -59.502)" fill="#ffaf1a"/>
              <path id="Trazado_877644" data-name="Trazado 877644" d="M254.957,282.793,241.38,306.307h27.153Z" transform="translate(-53.646 -62.85)" fill="#fff"/>
              <path id="Trazado_877645" data-name="Trazado 877645" d="M275.682,278.736a6.156,6.156,0,1,1-6.156-6.156,6.156,6.156,0,0,1,6.156,6.156" transform="translate(-58.533 -60.58)" fill="#dd3d60"/>
              <path id="Trazado_877646" data-name="Trazado 877646" d="M318.655,19.6H307.728a1.6,1.6,0,0,1-1.6-1.6V7.073a1.6,1.6,0,0,1,1.6-1.6h10.927a1.6,1.6,0,0,1,1.6,1.6V18a1.6,1.6,0,0,1-1.6,1.6" transform="translate(-68.035 -17.216)" fill="#072c6c"/>
              <path id="Trazado_877647" data-name="Trazado 877647" d="M343.572,19.6H332.645a1.6,1.6,0,0,1-1.6-1.6V7.073a1.6,1.6,0,0,1,1.6-1.6h10.927a1.6,1.6,0,0,1,1.6,1.6V18a1.6,1.6,0,0,1-1.6,1.6" transform="translate(-73.573 -17.216)" fill="#072c6c"/>
              <path id="Trazado_877648" data-name="Trazado 877648" d="M368.379,19.881H357.452a1.994,1.994,0,0,1-1.992-1.992V6.963a1.994,1.994,0,0,1,1.992-1.992h10.927a1.994,1.994,0,0,1,1.992,1.992V17.889a1.994,1.994,0,0,1-1.992,1.992M357.452,5.749a1.216,1.216,0,0,0-1.214,1.214V17.889a1.216,1.216,0,0,0,1.214,1.214h10.927a1.215,1.215,0,0,0,1.214-1.214V6.963a1.215,1.215,0,0,0-1.214-1.214Z" transform="translate(-79 -17.105)" fill="#072c6c"/>
              <path id="Trazado_877649" data-name="Trazado 877649" d="M393.408,19.6H382.481a1.6,1.6,0,0,1-1.6-1.6V7.073a1.6,1.6,0,0,1,1.6-1.6h10.927a1.6,1.6,0,0,1,1.6,1.6V18a1.6,1.6,0,0,1-1.6,1.6" transform="translate(-84.649 -17.216)" fill="#072c6c"/>
              <path id="Trazado_877650" data-name="Trazado 877650" d="M357.154,10.115a20.823,20.823,0,0,1,6.138,5.872A57.216,57.216,0,0,1,374.856,2.674L371.4,0a38.843,38.843,0,0,0-8.106,12.848,12.81,12.81,0,0,0-6.138-2.732" transform="translate(-79.376 -16)" fill="#ffaf1a"/>
              <path id="Trazado_877651" data-name="Trazado 877651" d="M58.583,303.668H47.656a1.6,1.6,0,0,1-1.6-1.6V291.138a1.6,1.6,0,0,1,1.6-1.6H58.583a1.6,1.6,0,0,1,1.6,1.6v10.927a1.6,1.6,0,0,1-1.6,1.6" transform="translate(15.765 -26.761)" fill="#072c6c"/>
              <path id="Trazado_877652" data-name="Trazado 877652" d="M83.389,303.946H72.463a2,2,0,0,1-1.992-1.993V291.028a1.994,1.994,0,0,1,1.992-1.992H83.389a1.994,1.994,0,0,1,1.991,1.992v10.926a1.994,1.994,0,0,1-1.991,1.993M72.463,289.814a1.215,1.215,0,0,0-1.214,1.214v10.926a1.215,1.215,0,0,0,1.214,1.215H83.389a1.215,1.215,0,0,0,1.213-1.215V291.028a1.215,1.215,0,0,0-1.213-1.214Z" transform="translate(10.338 -26.65)" fill="#072c6c"/>
              <path id="Trazado_877653" data-name="Trazado 877653" d="M108.418,303.668H97.491a1.6,1.6,0,0,1-1.6-1.6V291.138a1.6,1.6,0,0,1,1.6-1.6h10.927a1.6,1.6,0,0,1,1.6,1.6v10.927a1.6,1.6,0,0,1-1.6,1.6" transform="translate(4.689 -26.761)" fill="#072c6c"/>
              <path id="Trazado_877654" data-name="Trazado 877654" d="M72.164,294.18a20.822,20.822,0,0,1,6.138,5.872,57.216,57.216,0,0,1,11.564-13.314l-3.459-2.674A38.843,38.843,0,0,0,78.3,296.913a12.81,12.81,0,0,0-6.138-2.732" transform="translate(9.962 -25.545)" fill="#ffaf1a"/>
              <path id="Trazado_877655" data-name="Trazado 877655" d="M430.916,176.423H412.564a1.9,1.9,0,0,1-1.9-1.9V159.9a1.9,1.9,0,0,1,1.9-1.9h18.352a1.9,1.9,0,0,1,1.9,1.9v14.622a1.9,1.9,0,0,1-1.9,1.9" transform="translate(-91.269 -35.117)" fill="#0d4ab5"/>
              <path id="Trazado_877656" data-name="Trazado 877656" d="M431.045,154.531h-2.326v-3.567a6.271,6.271,0,1,0-12.543,0v3.567h-2.326v-3.567a8.6,8.6,0,1,1,17.194,0Z" transform="translate(-91.977 -31.641)" fill="#072c6c"/>
              <path id="Trazado_877657" data-name="Trazado 877657" d="M427.426,164.947a3.53,3.53,0,1,0-4.835,3.274v5.912H425.2v-5.912a3.525,3.525,0,0,0,2.225-3.274" transform="translate(-93.425 -35.875)" fill="#072c6c"/>
            </g>
          </g>
        </g>
      </g>
    </g>
  </g>
</svg>
