<svg xmlns="http://www.w3.org/2000/svg" xmlns:xlink="http://www.w3.org/1999/xlink" width="74" height="74" viewBox="0 0 74 74">
  <defs>
    <clipPath id="clip-path">
      <rect id="Rectángulo_403286" data-name="Rectángulo 403286" width="74" height="74" transform="translate(610.571 633)" fill="#fff" stroke="#707070" stroke-width="1"/>
    </clipPath>
    <clipPath id="clip-path-2">
      <path id="path2466" d="M0-74H74V0H0Z"/>
    </clipPath>
  </defs>
  <g id="Grupo_1102131" data-name="Grupo 1102131" transform="translate(-610.571 -633)">
    <g id="Enmascarar_grupo_1098789" data-name="Enmascarar grupo 1098789" clip-path="url(#clip-path)">
      <g id="g2448" transform="translate(610.571 707)">
        <g id="g2450" transform="translate(57.343 -16.078)">
          <path id="path2452" d="M0,0-3.456,3.456-26.665-19.753l3.456-3.456Z" fill="#cbc4cb"/>
        </g>
        <g id="g2454" transform="translate(34.134 -39.287)">
          <path id="path2456" d="M0,0H0L-3.456,3.456,19.753,26.665l1.693-1.693L-1.763,1.763Z" fill="#b5adb6"/>
        </g>
        <g id="g2458" transform="translate(57.343 -16.078)">
          <path id="path2460" d="M0,0-3.456,3.456-26.665-19.753l3.456-3.456Z" fill="none" stroke="#000" stroke-linecap="round" stroke-linejoin="round" stroke-miterlimit="10" stroke-width="2.168"/>
        </g>
        <g id="g2462">
          <g id="g2464" clip-path="url(#clip-path-2)">
            <g id="g2470" transform="translate(59.226 -4.922)">
              <path id="path2472" d="M0,0-12.579-12.579a1.568,1.568,0,0,1,0-2.218l3.6-3.6a1.569,1.569,0,0,1,2.218,0l5.589,5.589" fill="#fff" stroke="#000" stroke-linecap="round" stroke-linejoin="round" stroke-miterlimit="10" stroke-width="2.168"/>
            </g>
            <g id="g2474" transform="translate(68.193 -4.263)">
              <path id="path2476" d="M0,0-2.49,2.49a2.353,2.353,0,0,1-3.327,0L-18.95-10.643l5.817-5.817L0-3.327A2.353,2.353,0,0,1,0,0" fill="#27a5fe"/>
            </g>
            <g id="g2478" transform="translate(55.383 -15.928)">
              <path id="path2480" d="M0,0,2.236-2.236-.323-4.795-6.14,1.022,6.993,14.155a2.353,2.353,0,0,0,3.327,0l.9-.9L0,2.044A1.445,1.445,0,0,1,0,0" fill="#0593fc"/>
            </g>
            <g id="g2482" transform="translate(59.481 -16.302)">
              <path id="path2484" d="M0,0-4.421-4.421-10.238,1.4,2.895,14.529a2.353,2.353,0,0,0,3.327,0l2.49-2.49a2.353,2.353,0,0,0,0-3.327L3.577,3.577" fill="none" stroke="#000" stroke-linecap="round" stroke-linejoin="round" stroke-miterlimit="10" stroke-width="2.168"/>
            </g>
            <g id="g2486" transform="translate(26.376 -64.137)">
              <path id="path2488" d="M0,0A20.547,20.547,0,0,1,20.547,20.547,20.547,20.547,0,0,1,0,41.095,20.547,20.547,0,0,1-20.547,20.547,20.547,20.547,0,0,1,0,0" fill="#00f3a7"/>
            </g>
            <g id="g2490" transform="translate(26.376 -64.137)">
              <path id="path2492" d="M0,0A20.547,20.547,0,0,1,20.547,20.547,20.547,20.547,0,0,1,0,41.095,20.547,20.547,0,0,1-20.547,20.547,20.547,20.547,0,0,1,0,0Z" fill="none" stroke="#000" stroke-linecap="round" stroke-linejoin="round" stroke-miterlimit="10" stroke-width="2.168"/>
            </g>
            <g id="g2494" transform="translate(26.376 -59.431)">
              <path id="path2496" d="M0,0A15.842,15.842,0,0,1,15.842,15.842,15.842,15.842,0,0,1,0,31.684,15.842,15.842,0,0,1-15.842,15.842,15.842,15.842,0,0,1,0,0" fill="#d8ecfe"/>
            </g>
            <g id="g2498" transform="translate(16.621 -43.59)">
              <path id="path2500" d="M0,0A15.846,15.846,0,0,1,12.8-15.549a15.923,15.923,0,0,0-3.043-.293A15.842,15.842,0,0,0-6.087,0,15.842,15.842,0,0,0,9.755,15.842a15.923,15.923,0,0,0,3.043-.293A15.846,15.846,0,0,1,0,0" fill="#c4e2ff"/>
            </g>
            <g id="g2502" transform="translate(26.376 -59.431)">
              <path id="path2504" d="M0,0A15.842,15.842,0,0,1,15.842,15.842,15.842,15.842,0,0,1,0,31.684,15.842,15.842,0,0,1-15.842,15.842,15.842,15.842,0,0,1,0,0Z" fill="none" stroke="#000" stroke-linecap="round" stroke-linejoin="round" stroke-miterlimit="10" stroke-width="2.168"/>
            </g>
            <g id="g2506" transform="translate(50.297 -72.916)">
              <path id="path2508" d="M0,0H-26.16a.723.723,0,0,0-.723.723v26.16a.723.723,0,0,0,.723.723h5.546a.723.723,0,0,1,.723.723v4.165A.723.723,0,0,0-18.658,33l5.187-5.187a.723.723,0,0,1,.511-.212H0a.723.723,0,0,0,.723-.723V.723A.723.723,0,0,0,0,0" fill="#27a5fe"/>
            </g>
            <g id="g2510" transform="translate(28.328 -46.033)">
              <path id="path2512" d="M0,0V-26.16a.723.723,0,0,1,.723-.723H-4.191a.723.723,0,0,0-.723.723V0a.723.723,0,0,0,.723.723H.723A.723.723,0,0,1,0,0" fill="#0593fc"/>
            </g>
            <g id="g2514" transform="translate(51.02 -61.281)">
              <path id="path2516" d="M0,0V-10.912a.723.723,0,0,0-.723-.723h-26.16a.723.723,0,0,0-.723.723v26.16a.723.723,0,0,0,.723.723h5.546a.723.723,0,0,1,.723.723v4.165a.723.723,0,0,0,1.234.511l5.187-5.187a.723.723,0,0,1,.511-.212H-.723A.723.723,0,0,0,0,15.248V5.059" fill="none" stroke="#000" stroke-linecap="round" stroke-linejoin="round" stroke-miterlimit="10" stroke-width="2.168"/>
            </g>
            <g id="g2518" transform="translate(39.282 -50.441)">
              <path id="path2520" d="M0,0H-4.084V-10.683H-.317A.317.317,0,0,1,0-10.366Z" fill="#fff"/>
            </g>
            <g id="g2522" transform="translate(39.282 -50.441)">
              <path id="path2524" d="M0,0H-4.084V-10.683H-.317A.317.317,0,0,1,0-10.366Z" fill="none" stroke="#000" stroke-linecap="round" stroke-linejoin="round" stroke-miterlimit="10" stroke-width="2.168"/>
            </g>
            <g id="g2526" transform="translate(38.965 -64.279)">
              <path id="path2528" d="M0,0H-3.45a.317.317,0,0,1-.317-.317v-3.45a.317.317,0,0,1,.317-.317H0a.317.317,0,0,1,.317.317v3.45A.317.317,0,0,1,0,0" fill="#fff"/>
            </g>
            <g id="g2530" transform="translate(38.965 -64.279)">
              <path id="path2532" d="M0,0H-3.45a.317.317,0,0,1-.317-.317v-3.45a.317.317,0,0,1,.317-.317H0a.317.317,0,0,1,.317.317v3.45A.317.317,0,0,1,0,0Z" fill="none" stroke="#000" stroke-linecap="round" stroke-linejoin="round" stroke-miterlimit="10" stroke-width="2.168"/>
            </g>
            <g id="g2534" transform="translate(36.935 -61.125)">
              <path id="path2536" d="M0,0H-3.2" fill="#fff" stroke="#000" stroke-linecap="round" stroke-linejoin="round" stroke-miterlimit="10" stroke-width="2.168"/>
            </g>
            <g id="g2538" transform="translate(40.694 -50.441)">
              <path id="path2540" d="M0,0H-6.906" fill="#fff" stroke="#000" stroke-linecap="round" stroke-linejoin="round" stroke-miterlimit="10" stroke-width="2.168"/>
            </g>
            <g id="g2542" transform="translate(61.798 -30.398)">
              <path id="path2544" d="M0,0H-9.8a.434.434,0,0,1-.434-.434v-9.8a.434.434,0,0,1,.434-.434H0a.434.434,0,0,1,.434.434v9.8A.434.434,0,0,1,0,0" fill="#00f3a7"/>
            </g>
            <g id="g2546" transform="translate(55.211 -30.832)">
              <path id="path2548" d="M0,0V-9.8a.434.434,0,0,1,.434-.434H-3.212a.434.434,0,0,0-.434.434V0a.434.434,0,0,0,.434.434H.434A.434.434,0,0,1,0,0" fill="#05e39c"/>
            </g>
            <g id="g2550" transform="translate(61.798 -30.398)">
              <path id="path2552" d="M0,0H-9.8a.434.434,0,0,1-.434-.434v-9.8a.434.434,0,0,1,.434-.434H0a.434.434,0,0,1,.434.434v9.8A.434.434,0,0,1,0,0Z" fill="none" stroke="#000" stroke-linecap="round" stroke-linejoin="round" stroke-miterlimit="10" stroke-width="2.168"/>
            </g>
            <g id="g2554" transform="translate(35.29 -10.635)">
              <path id="path2556" d="M0,0H-6.5a.434.434,0,0,1-.434-.434v-6.5A.434.434,0,0,1-6.5-7.372H0a.434.434,0,0,1,.434.434v6.5A.434.434,0,0,1,0,0" fill="#fd8087"/>
            </g>
            <g id="g2558" transform="translate(31.508 -11.069)">
              <path id="path2560" d="M0,0V-6.5a.434.434,0,0,1,.434-.434H-2.723a.434.434,0,0,0-.434.434V0a.434.434,0,0,0,.434.434H.434A.434.434,0,0,1,0,0" fill="#fe646f"/>
            </g>
            <g id="g2562" transform="translate(35.29 -10.635)">
              <path id="path2564" d="M0,0H-6.5a.434.434,0,0,1-.434-.434v-6.5A.434.434,0,0,1-6.5-7.372H0a.434.434,0,0,1,.434.434v6.5A.434.434,0,0,1,0,0Z" fill="none" stroke="#000" stroke-linecap="round" stroke-linejoin="round" stroke-miterlimit="10" stroke-width="2.168"/>
            </g>
            <g id="g2566" transform="translate(14.524 -64.246)">
              <path id="path2568" d="M0,0H-5.418a.434.434,0,0,1-.434-.434V-5.852a.434.434,0,0,1,.434-.434H0a.434.434,0,0,1,.434.434V-.434A.434.434,0,0,1,0,0" fill="#fed402"/>
            </g>
            <g id="g2570" transform="translate(11.534 -64.68)">
              <path id="path2572" d="M0,0V-5.418a.434.434,0,0,1,.434-.434H-2.429a.434.434,0,0,0-.434.434V0a.434.434,0,0,0,.434.434H.434A.434.434,0,0,1,0,0" fill="#fac600"/>
            </g>
            <g id="g2574" transform="translate(14.524 -64.246)">
              <path id="path2576" d="M0,0H-5.418a.434.434,0,0,1-.434-.434V-5.852a.434.434,0,0,1,.434-.434H0a.434.434,0,0,1,.434.434V-.434A.434.434,0,0,1,0,0Z" fill="none" stroke="#000" stroke-linecap="round" stroke-linejoin="round" stroke-miterlimit="10" stroke-width="2.168"/>
            </g>
            <g id="g2578" transform="translate(18.238 -36.849)">
              <path id="path2580" d="M0,0H-12.686a.434.434,0,0,0-.434.434v20.9a.434.434,0,0,0,.434.434H3.857a.434.434,0,0,0,.434-.434V4.29a.434.434,0,0,0-.127-.307L.307.127A.434.434,0,0,0,0,0" fill="#fed402"/>
            </g>
            <g id="g2582" transform="translate(9.973 -15.519)">
              <path id="path2584" d="M0,0V-20.9a.434.434,0,0,1,.434-.434H-4.421a.434.434,0,0,0-.434.434V0a.434.434,0,0,0,.434.434H.434A.434.434,0,0,1,0,0" fill="#fac600"/>
            </g>
            <g id="g2586" transform="translate(18.211 -15.086)">
              <path id="path2588" d="M0,0H3.884a.434.434,0,0,0,.434-.434V-17.473a.433.433,0,0,0-.127-.307L.334-21.636a.434.434,0,0,0-.307-.127H-12.659a.434.434,0,0,0-.434.434v20.9A.434.434,0,0,0-12.659,0h7.6" fill="none" stroke="#000" stroke-linecap="round" stroke-linejoin="round" stroke-miterlimit="10" stroke-width="2.168"/>
            </g>
            <g id="g2590" transform="translate(10.341 -21.092)">
              <path id="path2592" d="M0,0H6.964" fill="none" stroke="#000" stroke-linecap="round" stroke-linejoin="round" stroke-miterlimit="10" stroke-width="2.168"/>
            </g>
            <g id="g2594" transform="translate(10.341 -25.967)">
              <path id="path2596" d="M0,0H6.964" fill="none" stroke="#000" stroke-linecap="round" stroke-linejoin="round" stroke-miterlimit="10" stroke-width="2.168"/>
            </g>
            <g id="g2598" transform="translate(10.341 -30.842)">
              <path id="path2600" d="M0,0H3.946" fill="none" stroke="#000" stroke-linecap="round" stroke-linejoin="round" stroke-miterlimit="10" stroke-width="2.168"/>
            </g>
            <g id="g2602" transform="translate(65.013 -63.651)">
              <path id="path2604" d="M0,0H-8.936A.434.434,0,0,0-9.37.434V15.193a.434.434,0,0,0,.434.434H2.7a.434.434,0,0,0,.434-.434V3.131A.434.434,0,0,0,3,2.825L.307.127A.434.434,0,0,0,0,0" fill="#d8ecfe"/>
            </g>
            <g id="g2606" transform="translate(59.765 -48.458)">
              <path id="path2608" d="M0,0V-14.759a.434.434,0,0,1,.434-.434H-3.688a.434.434,0,0,0-.434.434V0a.434.434,0,0,0,.434.434H.434A.434.434,0,0,1,0,0" fill="#c4e2ff"/>
            </g>
            <g id="g2610" transform="translate(65.013 -63.651)">
              <path id="path2612" d="M0,0H-8.936A.434.434,0,0,0-9.37.434V15.193a.434.434,0,0,0,.434.434H2.7a.434.434,0,0,0,.434-.434V3.131A.434.434,0,0,0,3,2.825L.307.127A.434.434,0,0,0,0,0Z" fill="none" stroke="#000" stroke-linecap="round" stroke-linejoin="round" stroke-miterlimit="10" stroke-width="2.168"/>
            </g>
            <g id="g2614" transform="translate(59.394 -52.337)">
              <path id="path2616" d="M0,0H5" fill="none" stroke="#000" stroke-linecap="round" stroke-linejoin="round" stroke-miterlimit="10" stroke-width="2.168"/>
            </g>
            <g id="g2618" transform="translate(59.394 -55.837)">
              <path id="path2620" d="M0,0H5" fill="none" stroke="#000" stroke-linecap="round" stroke-linejoin="round" stroke-miterlimit="10" stroke-width="2.168"/>
            </g>
            <g id="g2622" transform="translate(59.394 -59.338)">
              <path id="path2624" d="M0,0H2.834" fill="none" stroke="#000" stroke-linecap="round" stroke-linejoin="round" stroke-miterlimit="10" stroke-width="2.168"/>
            </g>
          </g>
        </g>
      </g>
    </g>
  </g>
</svg>
