<svg xmlns="http://www.w3.org/2000/svg" xmlns:xlink="http://www.w3.org/1999/xlink" width="93.038" height="103.152" viewBox="0 0 93.038 103.152">
  <defs>
    <clipPath id="clip-path">
      <rect id="Rectángulo_403236" data-name="Rectángulo 403236" width="91" height="91" transform="translate(642 6975)" fill="#fff" stroke="#707070" stroke-width="1"/>
    </clipPath>
  </defs>
  <g id="Grupo_1102132" data-name="Grupo 1102132" transform="translate(-284.867 -5037.5)">
    <g id="Grupo_1101836" data-name="Grupo 1101836" transform="translate(-355.607 -1937.5)">
      <path id="Trazado_877346" data-name="Trazado 877346" d="M46.007,0s7.669,1.546,24.312,5.834c15.723,4.053,21.236,5.674,21.236,5.674s2.593,15.885-4.539,45.224c-5.758,23.684-24.638,38.9-41.009,44.542C29.636,95.631,10.756,80.416,5,56.732-2.134,27.393.459,11.508.459,11.508S5.972,9.887,21.692,5.834C38.338,1.546,46.007,0,46.007,0" transform="translate(640.986 6976.349)" fill="none" stroke="#593d09" stroke-width="1"/>
      <path id="Trazado_877313" data-name="Trazado 877313" d="M42.993,0s7.167,1.444,22.719,5.452c14.693,3.787,19.844,5.3,19.844,5.3S87.979,25.6,81.315,53.015C75.934,75.147,58.291,89.366,42.993,94.639,27.694,89.366,10.051,75.147,4.67,53.015-1.994,25.6.429,10.754.429,10.754s5.151-1.515,19.842-5.3C35.826,1.444,42.993,0,42.993,0" transform="translate(644 6979.667)" fill="#ffaf1a"/>
      <g id="Enmascarar_grupo_1098813" data-name="Enmascarar grupo 1098813" clip-path="url(#clip-path)">
        <g id="carpeta-confidencial_1_" data-name="carpeta-confidencial (1)" transform="translate(642 6975)">
          <path id="Trazado_877917" data-name="Trazado 877917" d="M42.564,30.823V1.468H77.79V13.21H89.532V57.242H77.79V48.435A14.677,14.677,0,1,0,54.306,36.694a14.927,14.927,0,0,0,.294,2.935h-.294a2.913,2.913,0,0,0-1.835.646L45.94,45.5H42.564Zm0,0" fill="#e6e9ed"/>
          <path id="Trazado_877918" data-name="Trazado 877918" d="M89.532,13.21H77.79V1.468Zm0,0" fill="#ccd1d9"/>
          <path id="Trazado_877919" data-name="Trazado 877919" d="M83.661,36.694A14.641,14.641,0,0,1,77.79,48.435V42.564a2.944,2.944,0,0,0-2.935-2.935H54.6a14.927,14.927,0,0,1-.294-2.935,14.677,14.677,0,1,1,29.355,0Zm0,0" fill="#fcd770"/>
          <path id="Trazado_877920" data-name="Trazado 877920" d="M42.564,30.823v5.871H7.339v41.1H13.21a5.871,5.871,0,0,1-11.742,0V33.758A2.944,2.944,0,0,1,4.4,30.823Zm0,0" fill="#ff826e"/>
          <path id="Trazado_877921" data-name="Trazado 877921" d="M42.564,36.694V45.5H13.21V77.79H7.339v-41.1Zm0,0" fill="#e6e9ed"/>
          <path id="Trazado_877922" data-name="Trazado 877922" d="M74.855,39.629H54.306a2.913,2.913,0,0,0-1.835.646L45.94,45.5H13.21V77.79a5.863,5.863,0,0,1-5.871,5.871H71.919A5.869,5.869,0,0,0,77.79,77.79V42.564a2.944,2.944,0,0,0-2.935-2.935Zm0,0" fill="#b4dd7f"/>
          <path id="Trazado_877923" data-name="Trazado 877923" d="M57.242,68.984V77.79a11.742,11.742,0,0,1-23.484,0V68.984a2.944,2.944,0,0,1,2.935-2.935H54.306a2.944,2.944,0,0,1,2.935,2.935Zm0,0" fill="#fcd770"/>
          <path id="Trazado_877924" data-name="Trazado 877924" d="M48.435,74.855A2.935,2.935,0,1,1,45.5,71.919,2.936,2.936,0,0,1,48.435,74.855Zm0,0" fill="#ffc729"/>
          <path id="Trazado_877925" data-name="Trazado 877925" d="M91,12.6,78.4,0H41.1V29.355H4.4a4.409,4.409,0,0,0-4.4,4.4V77.79a7.347,7.347,0,0,0,7.339,7.339H34.524a13.2,13.2,0,0,0,21.952,0H71.919a7.347,7.347,0,0,0,7.339-7.339V58.71H91ZM79.258,5.011l6.731,6.731H79.258ZM11.742,44.032v32.29H8.806V38.161H41.1v5.871ZM2.935,77.79V33.758A1.471,1.471,0,0,1,4.4,32.29H41.1v2.935H5.871V79.258h5.6A4.392,4.392,0,0,1,2.935,77.79ZM45.5,88.065A10.287,10.287,0,0,1,35.226,77.79V68.984a1.47,1.47,0,0,1,1.468-1.468H54.306a1.47,1.47,0,0,1,1.468,1.468V77.79A10.287,10.287,0,0,1,45.5,88.065Zm7.339-23.484H38.161v-4.4a7.339,7.339,0,0,1,14.677,0ZM76.323,77.79a4.409,4.409,0,0,1-4.4,4.4H57.939a13.115,13.115,0,0,0,.77-4.4V68.984a4.4,4.4,0,0,0-2.935-4.133V60.177a10.274,10.274,0,1,0-20.548,0v4.673a4.4,4.4,0,0,0-2.935,4.133V77.79a13.115,13.115,0,0,0,.77,4.4H13.172a7.265,7.265,0,0,0,1.506-4.4V46.968H46.452l6.938-5.549a1.47,1.47,0,0,1,.916-.322H74.855a1.471,1.471,0,0,1,1.468,1.468Zm-20.548-41.1a13.21,13.21,0,1,1,26.419,0,13.09,13.09,0,0,1-2.935,8.3V42.565a4.409,4.409,0,0,0-4.4-4.4H55.861a13.181,13.181,0,0,1-.087-1.468ZM79.258,55.774V49.115a16,16,0,0,0,5.871-12.421,16.145,16.145,0,1,0-32.2,1.695,4.4,4.4,0,0,0-1.374.737l-6.132,4.906H44.032V2.936h32.29V14.677H88.064v41.1Zm0,0"/>
          <path id="Trazado_877926" data-name="Trazado 877926" d="M45.5,70.452a4.392,4.392,0,0,0-1.468,8.536v6.141h2.935V78.988A4.392,4.392,0,0,0,45.5,70.452Zm0,5.871a1.468,1.468,0,1,1,1.468-1.468A1.47,1.47,0,0,1,45.5,76.323Zm0,0"/>
          <path id="Trazado_877927" data-name="Trazado 877927" d="M55.774,44.032H73.387v2.935H55.774Zm0,0"/>
          <path id="Trazado_877928" data-name="Trazado 877928" d="M46.968,5.871H49.9V8.806H46.968Zm0,0"/>
          <path id="Trazado_877929" data-name="Trazado 877929" d="M52.839,5.871H73.387V8.806H52.839Zm0,0"/>
          <path id="Trazado_877930" data-name="Trazado 877930" d="M46.968,11.742H73.387v2.935H46.968Zm0,0"/>
          <path id="Trazado_877931" data-name="Trazado 877931" d="M46.968,17.613h8.806v2.935H46.968Zm0,0"/>
        </g>
      </g>
    </g>
  </g>
</svg>
