<svg xmlns="http://www.w3.org/2000/svg" xmlns:xlink="http://www.w3.org/1999/xlink" width="93.038" height="103.152" viewBox="0 0 93.038 103.152">
  <defs>
    <clipPath id="clip-path">
      <rect id="Rectángulo_403236" data-name="Rectángulo 403236" width="91" height="91" transform="translate(642 6975)" fill="#fff" stroke="#707070" stroke-width="1"/>
    </clipPath>
  </defs>
  <g id="Grupo_1102146" data-name="Grupo 1102146" transform="translate(-596.199 -5037.5)">
    <g id="Grupo_1102065" data-name="Grupo 1102065" transform="translate(-44.275 -1937.5)">
      <path id="Trazado_877346" data-name="Trazado 877346" d="M46.007,0s7.669,1.546,24.312,5.834c15.723,4.053,21.236,5.674,21.236,5.674s2.593,15.885-4.539,45.224c-5.758,23.684-24.638,38.9-41.009,44.542C29.636,95.631,10.756,80.416,5,56.732-2.134,27.393.459,11.508.459,11.508S5.972,9.887,21.692,5.834C38.338,1.546,46.007,0,46.007,0" transform="translate(640.986 6976.349)" fill="none" stroke="#593d09" stroke-width="1"/>
      <path id="Trazado_877313" data-name="Trazado 877313" d="M42.993,0s7.167,1.444,22.719,5.452c14.693,3.787,19.844,5.3,19.844,5.3S87.979,25.6,81.315,53.015C75.934,75.147,58.291,89.366,42.993,94.639,27.694,89.366,10.051,75.147,4.67,53.015-1.994,25.6.429,10.754.429,10.754s5.151-1.515,19.842-5.3C35.826,1.444,42.993,0,42.993,0" transform="translate(644 6979.667)" fill="#ffaf1a"/>
      <g id="Enmascarar_grupo_1098814" data-name="Enmascarar grupo 1098814" clip-path="url(#clip-path)">
        <g id="_x31_7_x2C__Reliable_x2C__report_x2C__spreadsheet_x2C__business_and_finance_x2C__data_analytics_x2C__information" transform="translate(641.822 6974.822)">
          <g id="Grupo_1102071" data-name="Grupo 1102071">
            <g id="Grupo_1102070" data-name="Grupo 1102070">
              <path id="Trazado_877932" data-name="Trazado 877932" d="M85.825,1.963V82.257H78.688L26.943,9.1V1.963Z" fill="#76e7fc"/>
              <path id="Trazado_877933" data-name="Trazado 877933" d="M78.688,89.394H19.806V9.1H64.414L69.142,19l9.546,4.372Z" fill="#fbf3f3"/>
              <path id="Trazado_877934" data-name="Trazado 877934" d="M63.968,71.551h7.583V82.257H63.968Z" fill="#ff415b"/>
              <path id="Trazado_877935" data-name="Trazado 877935" d="M63.968,71.551V82.257H56.384V66.2h7.583Z" fill="#ff884d"/>
              <path id="Trazado_877936" data-name="Trazado 877936" d="M56.384,66.2V82.257H48.8V60.845h7.583Z" fill="#fb3"/>
              <path id="Trazado_877937" data-name="Trazado 877937" d="M48.8,60.845V82.257H41.218V55.492H48.8Z" fill="#fd3"/>
              <path id="Trazado_877938" data-name="Trazado 877938" d="M48.355,37.649h23.2V48.355h-23.2Z" fill="#6680ff"/>
              <path id="Trazado_877939" data-name="Trazado 877939" d="M48.355,30.512h23.2v7.137h-23.2Z" fill="#80aaff"/>
              <path id="Trazado_877940" data-name="Trazado 877940" d="M48.355,37.649V48.355H37.649V30.512H48.355Z" fill="#ff415b"/>
              <path id="Trazado_877941" data-name="Trazado 877941" d="M26.943,30.512H37.649V48.355H26.943Z" fill="#ff884d"/>
              <path id="Trazado_877942" data-name="Trazado 877942" d="M26.943,16.237H57.276v7.137H26.943Z" fill="#76e7fc"/>
              <path id="Trazado_877943" data-name="Trazado 877943" d="M78.688,23.375H64.414V9.1Z" fill="#e8e3f0"/>
              <path id="Trazado_877944" data-name="Trazado 877944" d="M34.08,55.849v5.562A22.705,22.705,0,0,1,19.806,82.494,22.705,22.705,0,0,1,5.531,61.411V55.849a28.647,28.647,0,0,0,14.223-3.777l.052-.029.052.029A28.667,28.667,0,0,0,34.08,55.849Z" fill="#53e261"/>
              <g id="Grupo_1102069" data-name="Grupo 1102069">
                <path id="Trazado_877945" data-name="Trazado 877945" d="M85.825.178H26.943a1.785,1.785,0,0,0-1.784,1.784V7.316H19.806A1.785,1.785,0,0,0,18.022,9.1V50.985a26.93,26.93,0,0,1-12.49,3.079,1.785,1.785,0,0,0-1.784,1.784v5.562A24.472,24.472,0,0,0,18.022,83.666v5.728a1.785,1.785,0,0,0,1.784,1.784H78.688a1.785,1.785,0,0,0,1.784-1.784V84.041h5.353a1.784,1.784,0,0,0,1.784-1.784V1.963A1.785,1.785,0,0,0,85.825.178ZM7.316,61.411v-3.83a30.511,30.511,0,0,0,12.49-3.5,30.515,30.515,0,0,0,12.49,3.5v3.83A20.816,20.816,0,0,1,19.806,80.56,20.816,20.816,0,0,1,7.316,61.411ZM21.59,87.61V83.666A24.472,24.472,0,0,0,35.865,61.411V55.849a1.785,1.785,0,0,0-1.784-1.784,26.933,26.933,0,0,1-12.49-3.079v-40.1H62.629v12.49a1.785,1.785,0,0,0,1.784,1.784H76.9V87.61ZM74.38,21.59H66.2V13.408Zm9.661,58.882H80.473v-57.1a1.794,1.794,0,0,0-.523-1.262L65.675,7.838a1.8,1.8,0,0,0-1.262-.523H28.727V3.747H84.041Z"/>
                <path id="Trazado_877946" data-name="Trazado 877946" d="M26.854,61.667a1.785,1.785,0,0,0-2.524,0l-7.417,7.417-1.631-1.631a1.784,1.784,0,0,0-2.524,2.524l2.893,2.893a1.785,1.785,0,0,0,2.524,0l8.679-8.679a1.784,1.784,0,0,0,0-2.523Z"/>
                <path id="Trazado_877947" data-name="Trazado 877947" d="M71.551,69.767h-5.8V66.2a1.785,1.785,0,0,0-1.784-1.784h-5.8V60.845a1.785,1.785,0,0,0-1.784-1.784h-5.8V55.492A1.785,1.785,0,0,0,48.8,53.708H41.218a1.785,1.785,0,0,0-1.784,1.784V82.257a1.785,1.785,0,0,0,1.784,1.784H71.551a1.785,1.785,0,0,0,1.784-1.784V71.551A1.785,1.785,0,0,0,71.551,69.767ZM43,57.276h4.015v23.2H43Zm7.583,5.353H54.6V80.473H50.585Zm7.583,5.353h4.015v12.49H58.169Zm11.6,12.49H65.752V73.335h4.015Z"/>
                <path id="Trazado_877948" data-name="Trazado 877948" d="M71.551,28.727H26.943a1.785,1.785,0,0,0-1.784,1.784V48.355a1.785,1.785,0,0,0,1.784,1.784H71.551a1.785,1.785,0,0,0,1.784-1.784V30.512A1.785,1.785,0,0,0,71.551,28.727Zm-1.784,7.137H50.139V32.3H69.767Zm-23.2,10.706H39.433V32.3h7.137ZM28.727,32.3h7.137V46.571H28.727ZM50.139,46.571V39.433H69.767v7.137Z"/>
                <path id="Trazado_877949" data-name="Trazado 877949" d="M26.943,25.159H57.276a1.785,1.785,0,0,0,1.784-1.784V16.237a1.785,1.785,0,0,0-1.784-1.784H26.943a1.785,1.785,0,0,0-1.784,1.784v7.137A1.785,1.785,0,0,0,26.943,25.159Zm1.784-7.137H55.492V21.59H28.727Z"/>
              </g>
            </g>
          </g>
        </g>
      </g>
    </g>
  </g>
</svg>
