<svg xmlns="http://www.w3.org/2000/svg" xmlns:xlink="http://www.w3.org/1999/xlink" width="93.038" height="103.152" viewBox="0 0 93.038 103.152">
  <defs>
    <clipPath id="clip-path">
      <rect id="Rectángulo_403236" data-name="Rectángulo 403236" width="91" height="91" transform="translate(642 6975)" fill="#fff" stroke="#707070" stroke-width="1"/>
    </clipPath>
    <clipPath id="clip-path-2">
      <path id="path3051" d="M0-91H91V0H0Z"/>
    </clipPath>
  </defs>
  <g id="Grupo_1102151" data-name="Grupo 1102151" transform="translate(-1226.199 -5037.5)">
    <g id="Grupo_1102148" data-name="Grupo 1102148">
      <g id="Grupo_1102066" data-name="Grupo 1102066" transform="translate(585.725 -1937.5)">
        <path id="Trazado_877346" data-name="Trazado 877346" d="M46.007,0s7.669,1.546,24.312,5.834c15.723,4.053,21.236,5.674,21.236,5.674s2.593,15.885-4.539,45.224c-5.758,23.684-24.638,38.9-41.009,44.542C29.636,95.631,10.756,80.416,5,56.732-2.134,27.393.459,11.508.459,11.508S5.972,9.887,21.692,5.834C38.338,1.546,46.007,0,46.007,0" transform="translate(640.986 6976.349)" fill="none" stroke="#593d09" stroke-width="1"/>
        <path id="Trazado_877313" data-name="Trazado 877313" d="M42.993,0s7.167,1.444,22.719,5.452c14.693,3.787,19.844,5.3,19.844,5.3S87.979,25.6,81.315,53.015C75.934,75.147,58.291,89.366,42.993,94.639,27.694,89.366,10.051,75.147,4.67,53.015-1.994,25.6.429,10.754.429,10.754s5.151-1.515,19.842-5.3C35.826,1.444,42.993,0,42.993,0" transform="translate(644 6979.667)" fill="#416fbd"/>
        <g id="Enmascarar_grupo_1098816" data-name="Enmascarar grupo 1098816" clip-path="url(#clip-path)">
          <g id="g3045" transform="translate(642 7066)">
            <g id="g3047">
              <g id="g3049" clip-path="url(#clip-path-2)">
                <g id="g3055" transform="translate(57.249 -89.667)">
                  <path id="path3057" d="M0,0H-38.146a3.569,3.569,0,0,0-3.569,3.569V46.754a3.569,3.569,0,0,0,3.569,3.569H0A3.568,3.568,0,0,0,3.377,47.9H5.847V2.577H3.426A3.568,3.568,0,0,0,0,0" fill="#60b8fe"/>
                </g>
                <g id="g3059" transform="translate(62.287 -89.667)">
                  <path id="path3061" d="M0,0H-5.038A3.569,3.569,0,0,1-1.469,3.569V46.754a3.569,3.569,0,0,1-3.569,3.569H0a3.569,3.569,0,0,0,3.569-3.569V3.569A3.569,3.569,0,0,0,0,0" fill="#27a5fe"/>
                </g>
                <g id="g3063" transform="translate(30.28 -80.514)">
                  <path id="path3065" d="M0,0-1.567-2.071H-6.6A3.569,3.569,0,0,0-10.174,1.5V41.169H32.007A3.569,3.569,0,0,0,35.576,37.6V0Z" fill="#27a5fe"/>
                </g>
                <g id="g3067" transform="translate(73.276 -79.016)">
                  <path id="path3069" d="M0,0H-2.847A3.569,3.569,0,0,0-6.416-3.569H-44.562A3.569,3.569,0,0,0-48.131,0V43.185a3.569,3.569,0,0,0,3.569,3.569H-6.416a3.565,3.565,0,0,0,3.2-2H0Z" fill="#eaf6ff"/>
                </g>
                <g id="g3071" transform="translate(71.898 -82.585)">
                  <path id="path3073" d="M0,0H-5.038A3.569,3.569,0,0,1-1.469,3.569V46.754a3.569,3.569,0,0,1-3.569,3.569H0a3.569,3.569,0,0,0,3.569-3.569V3.569A3.569,3.569,0,0,0,0,0" fill="#d8ecfe"/>
                </g>
                <g id="g3075" transform="translate(81.505 -43.858)">
                  <path id="path3077" d="M0,0A3.569,3.569,0,0,0-3.569-3.569H-49.328l-4.036-7.412h-2.452a2.676,2.676,0,0,0-2.371-1.436H-74.372A2.677,2.677,0,0,0-77.048-9.74v48.7a3.569,3.569,0,0,0,3.569,3.569h69.91A3.569,3.569,0,0,0,0,38.956H2.445V0Z" fill="#fdb541"/>
                </g>
                <g id="g3079" transform="translate(25.689 -54.838)">
                  <path id="path3081" d="M0,0,3.878,7.412H8.916L5.038,0A2.677,2.677,0,0,0,2.666-1.436H-2.372A2.677,2.677,0,0,1,0,0" fill="#fea713"/>
                </g>
                <g id="g3083" transform="translate(82.974 -47.427)">
                  <path id="path3085" d="M0,0H-5.038A3.569,3.569,0,0,1-1.469,3.569V42.525a3.569,3.569,0,0,1-3.569,3.569H0a3.569,3.569,0,0,0,3.569-3.569V3.569A3.569,3.569,0,0,0,0,0" fill="#fea713"/>
                </g>
                <g id="g3087" transform="translate(66.468 -6.664)">
                  <path id="path3089" d="M0,0H-41.935a3.034,3.034,0,0,1-3.034-3.034V-31.986a3.034,3.034,0,0,1,3.034-3.034H0a3.034,3.034,0,0,1,3.034,3.034V-3.034A3.034,3.034,0,0,1,0,0" fill="#fddba6"/>
                </g>
                <g id="g3091" transform="translate(56.509 -6.664)">
                  <path id="path3093" d="M0,0H-22.017V-1.446A11.009,11.009,0,0,1-11.009-12.454,11.008,11.008,0,0,1,0-1.446Z" fill="#f47c7c"/>
                </g>
                <g id="g3095" transform="translate(53.933 -27.551)">
                  <path id="path3097" d="M0,0A8.433,8.433,0,0,1-8.433,8.433,8.433,8.433,0,0,1-16.865,0,8.433,8.433,0,0,1-8.433-8.433,8.433,8.433,0,0,1,0,0" fill="#ffa78f"/>
                </g>
                <g id="g3099" transform="translate(82.974 -47.427)">
                  <path id="path3101" d="M0,0H-48.369l-3.878-7.412a2.677,2.677,0,0,0-2.372-1.436H-75.841a2.677,2.677,0,0,0-2.677,2.677v48.7a3.569,3.569,0,0,0,3.569,3.569H0a3.569,3.569,0,0,0,3.569-3.569V3.569A3.569,3.569,0,0,0,0,0Z" fill="none" stroke="#000" stroke-linecap="round" stroke-linejoin="round" stroke-miterlimit="10" stroke-width="2.666" stroke-dasharray="602 35 600 0"/>
                </g>
                <g id="g3103" transform="translate(56.509 -6.664)">
                  <path id="path3105" d="M0,0H-22.017V-1.446A11.009,11.009,0,0,1-11.009-12.454,11.008,11.008,0,0,1,0-1.446Z" fill="none" stroke="#000" stroke-linecap="round" stroke-linejoin="round" stroke-miterlimit="10" stroke-width="2.666"/>
                </g>
                <g id="g3107" transform="translate(53.933 -27.551)">
                  <path id="path3109" d="M0,0A8.433,8.433,0,0,1-8.433,8.433,8.433,8.433,0,0,1-16.865,0,8.433,8.433,0,0,1-8.433-8.433,8.433,8.433,0,0,1,0,0Z" fill="none" stroke="#000" stroke-linecap="round" stroke-linejoin="round" stroke-miterlimit="10" stroke-width="2.666"/>
                </g>
                <g id="g3111" transform="translate(66.468 -6.664)">
                  <path id="path3113" d="M0,0H-41.935a3.034,3.034,0,0,1-3.034-3.034V-31.986a3.034,3.034,0,0,1,3.034-3.034H0a3.034,3.034,0,0,1,3.034,3.034V-3.034A3.034,3.034,0,0,1,0,0Z" fill="none" stroke="#000" stroke-linecap="round" stroke-linejoin="round" stroke-miterlimit="10" stroke-width="2.666"/>
                </g>
                <g id="g3115" transform="translate(31.613 -75.093)">
                  <path id="path3117" d="M0,0H14.454" fill="none" stroke="#000" stroke-linecap="round" stroke-linejoin="round" stroke-miterlimit="10" stroke-width="2.666"/>
                </g>
                <g id="g3119" transform="translate(31.613 -67)">
                  <path id="path3121" d="M0,0H7.227" fill="none" stroke="#000" stroke-linecap="round" stroke-linejoin="round" stroke-miterlimit="10" stroke-width="2.666"/>
                </g>
                <g id="g3123" transform="translate(31.613 -60.424)">
                  <path id="path3125" d="M0,0H7.227" fill="none" stroke="#000" stroke-linecap="round" stroke-linejoin="round" stroke-miterlimit="10" stroke-width="2.666"/>
                </g>
                <g id="g3127" transform="translate(68.998 -67)">
                  <path id="path3129" d="M0,0H-22.931" fill="none" stroke="#000" stroke-linecap="round" stroke-linejoin="round" stroke-miterlimit="10" stroke-width="2.666"/>
                </g>
                <g id="g3131" transform="translate(68.998 -60.424)">
                  <path id="path3133" d="M0,0H-22.931" fill="none" stroke="#000" stroke-linecap="round" stroke-linejoin="round" stroke-miterlimit="10" stroke-width="2.666"/>
                </g>
                <g id="g3135" transform="translate(31.613 -53.848)">
                  <path id="path3137" d="M0,0H7.227" fill="none" stroke="#000" stroke-linecap="round" stroke-linejoin="round" stroke-miterlimit="10" stroke-width="2.666"/>
                </g>
                <g id="g3139" transform="translate(68.998 -53.848)">
                  <path id="path3141" d="M0,0H-22.931" fill="none" stroke="#000" stroke-linecap="round" stroke-linejoin="round" stroke-miterlimit="10" stroke-width="2.666"/>
                </g>
                <g id="g3143" transform="translate(82.974 -47.427)">
                  <path id="path3145" d="M0,0H-48.369l-3.878-7.412a2.677,2.677,0,0,0-2.372-1.436H-75.841a2.677,2.677,0,0,0-2.677,2.677v48.7a3.569,3.569,0,0,0,3.569,3.569H0a3.569,3.569,0,0,0,3.569-3.569V3.569A3.569,3.569,0,0,0,0,0Z" fill="none" stroke="#000" stroke-linecap="round" stroke-linejoin="round" stroke-miterlimit="10" stroke-width="2.666" stroke-dasharray="602 35 600 0"/>
                </g>
                <g id="g3147" transform="translate(28.355 -56.274)">
                  <path id="path3149" d="M0,0A2.677,2.677,0,0,1,2.372,1.436L6.25,8.847H47.111v-31.59a3.569,3.569,0,0,0-3.569-3.569H.358a3.569,3.569,0,0,0-3.569,3.569V0Z" fill="none" stroke="#000" stroke-linecap="round" stroke-linejoin="round" stroke-miterlimit="10" stroke-width="2.666" stroke-dasharray="375 35 300 0"/>
                </g>
                <g id="g3151" transform="translate(25.144 -56.274)">
                  <path id="path3153" d="M0,0V-22.742a3.569,3.569,0,0,1,3.569-3.569H40.712v-3.513a3.569,3.569,0,0,0-3.569-3.569H-6.042a3.569,3.569,0,0,0-3.569,3.569V0Z" fill="none" stroke="#000" stroke-linecap="round" stroke-linejoin="round" stroke-miterlimit="10" stroke-width="2.666"/>
                </g>
              </g>
            </g>
          </g>
        </g>
      </g>
    </g>
  </g>
</svg>
