<svg xmlns="http://www.w3.org/2000/svg" xmlns:xlink="http://www.w3.org/1999/xlink" width="295" height="173.487" viewBox="0 0 295 173.487">
  <defs>
    <clipPath id="clip-path">
      <rect id="Rectángulo_403338" data-name="Rectángulo 403338" width="261.419" height="171.246" fill="none"/>
    </clipPath>
  </defs>
  <g id="Grupo_1102139" data-name="Grupo 1102139" transform="translate(-1125 -5678.259)">
    <g id="Grupo_1102138" data-name="Grupo 1102138">
      <g id="Grupo_1102137" data-name="Grupo 1102137">
        <rect id="BG" width="295" height="173.059" rx="20" transform="translate(1125 5678.259)" fill="#0d4ab5"/>
        <g id="Grupo_1102068" data-name="Grupo 1102068" transform="translate(1141.791 5680.498)">
          <g id="Grupo_1102067" data-name="Grupo 1102067" transform="translate(0 0.002)" clip-path="url(#clip-path)">
            <path id="Trazado_877856" data-name="Trazado 877856" d="M686.533,160.874c1.96.008,3.937-.042,5.891.123.007,5.4-.119,10.842.032,16.242l-.55-.025c-.173-5.24-.079-10.52-.052-15.764l-4.723-.034,0,15.8h-.57Z" transform="translate(-595.123 -139.453)" fill="#514098"/>
            <path id="Trazado_877857" data-name="Trazado 877857" d="M1643.71,95.4c-.095-1.683-.267-15.815.1-16.406l.29.01a30.459,30.459,0,0,1,.161,5.584l-.015,10.321a24.708,24.708,0,0,1,17.559,7.9,13.7,13.7,0,0,1,2.809,4.127l-.136.71a26.055,26.055,0,0,0-2.916-4.162,24.672,24.672,0,0,0-12.586-7.5,35.872,35.872,0,0,0-5.266-.579" transform="translate(-1424.747 -68.478)" fill="#010102"/>
            <path id="Trazado_877858" data-name="Trazado 877858" d="M758.428,79.089c1.968.016,3.938.016,5.906.056.063,9.067-.052,18.141-.093,27.208l-.481-.044c.188-2.971.033-6.055.032-9.035l-.008-17.654c-1.59-.032-3.179.022-4.768.065l-.027,9.826L759,103.577l-.507.683c-.176-6.114-.143-12.319.026-18.435-.074-2.245-.018-4.491-.087-6.736" transform="translate(-657.397 -68.559)" fill="#514098"/>
            <path id="Trazado_877859" data-name="Trazado 877859" d="M1241.763,1512.9l.22.087.033.3c-.905,1.858-2.173,6.331-3.38,7.558l-.207-.022c-.221-.674,1.65-5.04,2.012-6a58.6,58.6,0,0,0-4.863,4.758c-2.489,2.512-5.034,4.959-7.553,7.44-1.716,1.69-3.411,3.5-5.267,5.04-1.838,1.52-10.56,4.392-13.283,5.419q-8.576,3.313-17.226,6.426c-.14-.154-.127-.285-.167-.485.44-.482,25.968-9.7,28.755-11.046,2.756-1.326,5.211-4.359,7.375-6.516,3.806-3.792,7.527-7.906,11.6-11.4-1.3.469-2.589.954-3.9,1.386-.658.217-1.724.618-2.37.295a1.711,1.711,0,0,1,.837-.555c.852-.354,1.785-.532,2.658-.836,1.592-.556,3.147-1.247,4.722-1.852" transform="translate(-1033.36 -1311.463)" fill="#010102"/>
            <path id="Trazado_877860" data-name="Trazado 877860" d="M691,164.954l4.723.034c-.027,5.244-.121,10.524.052,15.764H691Z" transform="translate(-598.996 -142.991)" fill="#fefefe"/>
            <path id="Trazado_877861" data-name="Trazado 877861" d="M1436.48,884.866a6.284,6.284,0,0,1,2.855.319,5.243,5.243,0,0,1,3.008,2.9,5.478,5.478,0,0,1-.211,4.219,5.393,5.393,0,0,1-3.526,2.686,6.341,6.341,0,0,1-3.516-.395,4.937,4.937,0,0,1-1.223-.84q-.181-.17-.345-.357a4.963,4.963,0,0,1-.574-.808q-.122-.216-.223-.443t-.178-.463a5.514,5.514,0,0,1,.381-4.279,5.39,5.39,0,0,1,3.553-2.54" transform="translate(-1241.578 -767.022)" fill="#fdb903"/>
            <path id="Trazado_877862" data-name="Trazado 877862" d="M1436.694,983.267a6.37,6.37,0,0,1,3.125.382,4.825,4.825,0,0,1,2.645,2.8,5.444,5.444,0,0,1-.155,4.221,5.637,5.637,0,0,1-3.735,2.832,5.923,5.923,0,0,1-3.373-.4,4.86,4.86,0,0,1-.441-.238,4.955,4.955,0,0,1-1.73-1.776,4.926,4.926,0,0,1-.406-.914,5.463,5.463,0,0,1,.279-4.2,5.6,5.6,0,0,1,3.79-2.712" transform="translate(-1241.623 -852.313)" fill="#01d159"/>
            <path id="Trazado_877863" data-name="Trazado 877863" d="M1436.814,787.746a6.2,6.2,0,0,1,3.337.626,4.8,4.8,0,0,1,2.38,3.026,5.6,5.6,0,0,1-.51,4.228,5.543,5.543,0,0,1-3.752,2.557,6.322,6.322,0,0,1-3.512-.592,4.723,4.723,0,0,1-2.3-3.089,5.8,5.8,0,0,1,.745-4.524,5.3,5.3,0,0,1,3.609-2.232" transform="translate(-1241.587 -682.852)" fill="#fdb903"/>
            <path id="Trazado_877864" data-name="Trazado 877864" d="M1435.466,686.44a6.248,6.248,0,0,1,3.155.33,5.444,5.444,0,0,1,3.115,3.022,5.475,5.475,0,0,1-3.913,7.364,6.571,6.571,0,0,1-3.665-.44,5.111,5.111,0,0,1-.453-.242q-.221-.132-.427-.286t-.4-.327a5.185,5.185,0,0,1-.686-.763q-.152-.207-.283-.429t-.239-.455q-.108-.233-.192-.476-.047-.133-.087-.269t-.074-.273q-.033-.137-.06-.276t-.046-.279q-.019-.14-.032-.281t-.018-.282q0-.141,0-.283t.011-.282q.009-.141.026-.281t.039-.28q.023-.14.053-.278t.067-.274q.038-.136.081-.271t.094-.266q.051-.132.108-.261t.121-.256a5.886,5.886,0,0,1,3.7-2.907" transform="translate(-1240.607 -594.986)" fill="#010102"/>
            <path id="Trazado_877865" data-name="Trazado 877865" d="M235.632,1862.936c3.362.009,6.747-.056,10.106.045-.282,1.6-1.5,6.164-.945,7.383-.514,1.5-.944,3.091-1.584,4.538-2.514-.284-5.721-.446-8.055-1.39.685-2.375.273-7.751.477-10.576" transform="translate(-203.845 -1614.881)" fill="#fdb903"/>
            <path id="Trazado_877866" data-name="Trazado 877866" d="M644.638,1863.452c3.454.1,6.952.092,10.407.014a42.707,42.707,0,0,1,.142,7.048c-.437,1.409-.776,2.848-1.138,4.277-3.221-.157-6.407-.428-9.614-.757.57-2.3.214-7.973.2-10.583" transform="translate(-558.63 -1615.339)" fill="#fdb903"/>
            <path id="Trazado_877867" data-name="Trazado 877867" d="M759.779,83.069c1.589-.043,3.178-.1,4.768-.065l.008,17.654c0,2.98.156,6.064-.032,9.035q-2.388.057-4.776.071l-.484-.023-.01-2.095.506-.683L759.753,92.9Z" transform="translate(-658.16 -71.945)" fill="#fefefe"/>
            <path id="Trazado_877868" data-name="Trazado 877868" d="M759.253,263.691l.507-.683-.012,2.8-.485-.023Z" transform="translate(-658.161 -227.99)" fill="#514098"/>
            <path id="Trazado_877869" data-name="Trazado 877869" d="M1814.545,232.3a26.664,26.664,0,0,1,4.922,11.427c-5.759.219-11.543.138-17.3.108-.546-1.07-1.236-2.184-1.666-3.3l.136-.71c4.333-2.918,9.252-5.185,13.914-7.527" transform="translate(-1560.765 -201.374)" fill="#01d159"/>
            <path id="Trazado_877870" data-name="Trazado 877870" d="M646.612,1916.5c2.382,1.362,17.374,9.426,18.179,10.685l-.057.282c-3.4.463-7.142.166-10.59.169-6.526,0-13.08.1-19.6-.19.353-2.441.725-5.032,1.317-7.426,3.207.328,6.392.6,9.614.757.361-1.43.7-2.869,1.138-4.277" transform="translate(-550.055 -1661.32)" fill="#010102"/>
            <path id="Trazado_877871" data-name="Trazado 877871" d="M223.356,1923.345c.639-1.447,1.07-3.039,1.584-4.538,3.045,2.083,17.555,9.253,18.7,10.822l-.078.245a3.576,3.576,0,0,1-1.492.3c-3.449.124-6.965-.106-10.425-.113-6.459-.014-12.936.093-19.393-.022a47.9,47.9,0,0,1,2.027-8.129c.363-.165.64-.032,1.022.041,2.333.944,5.54,1.106,8.055,1.39" transform="translate(-183.991 -1663.323)" fill="#010102"/>
            <path id="Trazado_877872" data-name="Trazado 877872" d="M87.729,2000.911c5.251-.017,10.51.158,15.764.159,4.684,0,9.427-.189,14.106-.04,1.054.033.246.644.9.946a6.378,6.378,0,0,0,1.378.011l141.222-.033c.893-.007,2.95-.171,3.656.417a5.865,5.865,0,0,1-1.882.321c-3.153.139-6.411-.067-9.577-.069l-22.118-.006-51.451.035L47.976,2002.6c-14.059-.03-28.145.231-42.2.006a4.391,4.391,0,0,1-1.93-.22c.36-.6,1.125-.458,1.739-.448,4.516.07,9.042.02,13.559.025,3.34,0,6.705.089,10.041-.008,1.977-.057,3.891-.529,5.876-.566,3.265-.06,6.558.065,9.825.087l15.382.047c1.75.016,3.451.4,5.2.456,4.482.153,9.016.015,13.5,0,1.628,0,3.259-.043,4.887-.028.863.008,1.731.132,2.594.09a2.026,2.026,0,0,0,1.031-.262c.215-.143.207-.621.247-.87" transform="translate(-3.335 -1734.494)" fill="#010102"/>
            <path id="Trazado_877873" data-name="Trazado 877873" d="M1187.892,1792.381l14.237.031c-.006,5.591-.177,11.327.129,16.908l-14.419,0c.153-5.639.055-11.3.053-16.942" transform="translate(-1029.682 -1553.731)" fill="#bab4e4"/>
            <path id="Trazado_877874" data-name="Trazado 877874" d="M1265.479,76.239l.555-.011c.68.754,1.018,2.678,1.31,3.657,1.044.127,2.073.173,3.124.2a25.686,25.686,0,0,0,1.964-2.853,22.886,22.886,0,0,1,2.984,1.643c-.4,1.169-.916,2.285-1.421,3.41a20.26,20.26,0,0,1,2.058,2.246,27.356,27.356,0,0,0,3.657-.99l1.475,2.811c-1.168.674-2.463,1.161-3.664,1.788.114,1.125.149,2.246.18,3.377q1.948.651,3.877,1.353c-.389,1.066-.8,2.112-1.253,3.152a22.253,22.253,0,0,1-3.668-.638c-.544.786-1.19,1.525-1.791,2.271a35.286,35.286,0,0,1,1.713,3.995c-.988.549-1.948,1.154-2.914,1.742l-2.426-3.255a18.058,18.058,0,0,1-2.747.506l-.17.072c-.624.649-.808,3.3-.979,4.234l-3.388-.443c-.075-1.555-.006-3.131.01-4.688a21.979,21.979,0,0,1-2.917-1.461,38.851,38.851,0,0,1-2.943,2.572c-.9-.781-1.719-1.684-2.558-2.528a32.387,32.387,0,0,0,2.6-3.279,19.525,19.525,0,0,1-1.143-2.7q-2.1-.2-4.2-.355a32.8,32.8,0,0,1,.259-3.654c1.249-.018,2.5-.137,3.744-.231a21.182,21.182,0,0,1,1.213-3.25c-.981-.818-1.92-1.7-2.874-2.544.689-.92,1.428-1.8,2.162-2.682q1.711,1.173,3.472,2.27a23.723,23.723,0,0,1,2.4-1.456c-.149-1.255-.236-2.487-.266-3.75q1.278-.287,2.564-.53" transform="translate(-1085.997 -66.079)" fill="#010102"/>
            <path id="Trazado_877875" data-name="Trazado 877875" d="M1321.658,135.413a7.2,7.2,0,0,1,3.518.926q.134.078.263.162t.255.175q.125.091.246.188t.236.2q.116.1.226.211t.215.222q.1.114.2.233t.192.242q.093.124.18.252t.167.26q.08.132.153.268t.14.276q.066.14.126.282t.112.288q.052.146.1.293t.082.3q.037.146.067.294t.052.3q.022.149.036.3t.021.3c0,.1.006.2.005.3s0,.2-.01.3-.015.2-.026.3-.025.2-.041.3-.035.2-.056.3-.045.2-.072.293-.055.193-.087.288-.065.19-.1.283-.075.186-.116.278-.084.182-.13.271-.094.178-.144.264-.1.173-.157.257a6.492,6.492,0,0,1-4.412,2.8,6.828,6.828,0,0,1-4.244-1.073q-.129-.089-.253-.184t-.244-.2q-.12-.1-.234-.208t-.223-.22q-.109-.112-.212-.23t-.2-.241q-.1-.123-.188-.25t-.175-.26q-.085-.132-.162-.268t-.148-.275q-.071-.14-.135-.283t-.12-.289q-.057-.146-.106-.295t-.091-.3q-.042-.151-.076-.3t-.061-.307a5.984,5.984,0,0,1,1.137-4.58,6.339,6.339,0,0,1,4.5-2.434" transform="translate(-1140.724 -117.383)" fill="#fefefe"/>
            <path id="Trazado_877876" data-name="Trazado 877876" d="M1647.448,79.073c.084.044.166.091.25.132.908.443,6.206.618,7.773.961,12.429,2.718,19.571,9.058,26.4,19.309-4.662,2.342-9.58,4.61-13.914,7.527a13.7,13.7,0,0,0-2.809-4.127,24.708,24.708,0,0,0-17.559-7.9l.016-10.321a30.481,30.481,0,0,0-.161-5.584" transform="translate(-1428.095 -68.545)" fill="#fdb903"/>
            <path id="Trazado_877877" data-name="Trazado 877877" d="M1310.22,1669.47c5.176.228,10.377.086,15.559.154-.352,11.015-.115,22.128-.02,33.149-2.513.1-5.064,0-7.581-.014-2.717.1-5.468,0-8.188,0l-15.04.02c-.305-5.581-.135-11.317-.129-16.908l.006-6.679,15.389.034Z" transform="translate(-1122.374 -1447.185)" fill="#fdb903"/>
            <path id="Trazado_877878" data-name="Trazado 877878" d="M1625.561,700.464c2.172-.1,4.353-.06,6.527-.058q.41,2.753.648,5.526a27.4,27.4,0,0,1,5.6,2.179c1.344-1.079,2.673-2.187,4.083-3.179a49.458,49.458,0,0,1,4.854,4.86l-3.167,4.1a29.494,29.494,0,0,1,2.306,5.482q2.9.339,5.789.745c0,2.106-.021,4.21.1,6.314-1.828.486-3.791.722-5.653,1.073a28.218,28.218,0,0,1-2.241,5.422c.977,1.475,2.109,2.824,3.066,4.325a51.265,51.265,0,0,0-4.706,4.717c-1.385-1.122-2.888-2.086-4.367-3.079a37.96,37.96,0,0,1-5.87,2.361c-.163,1.915-.315,3.828-.575,5.732-.735.331-5.679.167-6.953.193q-.4-3-.656-6.015c-2-.7-3.927-1.567-5.85-2.444-1.377.825-2.666,1.863-3.965,2.807a51.567,51.567,0,0,1-4.815-4.945c.941-1.351,2.018-2.637,3.021-3.946a29.948,29.948,0,0,1-1.658-5.126c-1.907-.472-3.913-.742-5.846-1.117l.028-6.108c1.964-.225,3.93-.623,5.878-.963a25.9,25.9,0,0,1,1.947-5.065c-1.034-1.381-1.866-2.895-2.928-4.272l4.861-4.728c1.454.969,2.821,2.09,4.254,3.095a46.983,46.983,0,0,1,5.372-2.341c.413-1.814.628-3.71.918-5.551" transform="translate(-1391.5 -607.142)" fill="#514098"/>
            <path id="Trazado_877879" data-name="Trazado 877879" d="M1628.636,704.061c1.862-.078,3.735-.035,5.6-.03q.424,2.671.689,5.362a32.575,32.575,0,0,1,5.942,2.343c1.491-.87,2.712-2.131,4.169-3.064,1.417,1.445,2.833,2.878,4.327,4.244-1.012,1.373-2.106,2.668-3.205,3.97a21.824,21.824,0,0,1,2.359,6.063q2.85.266,5.691.629c.16,1.87.091,3.8.1,5.68a37.863,37.863,0,0,1-5.4.875,28.248,28.248,0,0,1-2.408,6.016q1.579,2.078,3.092,4.2a23.14,23.14,0,0,0-4.261,4.22q-2.082-1.567-4.2-3.081a26.253,26.253,0,0,1-6.368,2.417c-.293,1.936-.427,3.921-.6,5.872-2.073-.1-4.171,0-6.245.07q-.355-2.89-.512-5.8c-2.149-.862-4.257-1.758-6.356-2.737-1.315.795-2.536,1.806-3.768,2.725a38.313,38.313,0,0,1-4.393-4.388q1.546-1.9,3.032-3.839a21.881,21.881,0,0,1-1.788-5.646q-2.972-.413-5.923-.955a48.153,48.153,0,0,0,.071-5.367c1.918-.342,3.834-.706,5.769-.939a36.229,36.229,0,0,1,2.184-5.644q-1.41-2.09-2.883-4.135c1.487-1.328,2.845-2.751,4.21-4.2q2.051,1.588,4.179,3.072a43.69,43.69,0,0,1,5.961-2.447,24.651,24.651,0,0,1,.938-5.489" transform="translate(-1394.079 -610.278)" fill="#fefefe"/>
            <path id="Trazado_877880" data-name="Trazado 877880" d="M1702.919,785.244a12.186,12.186,0,0,1,7.777,1.827,11.462,11.462,0,0,1,5.312,7.265,12.645,12.645,0,0,1-1.669,9.214,12.248,12.248,0,0,1-8.218,5.076c-3.326.224-6.116.049-8.9-1.965a11.179,11.179,0,0,1-4.652-7.451,12.54,12.54,0,0,1,2.229-9.375,11.936,11.936,0,0,1,8.124-4.59" transform="translate(-1467.07 -680.644)" fill="#74abf9"/>
            <path id="Trazado_877881" data-name="Trazado 877881" d="M1748.027,839.766a6.075,6.075,0,0,1,3.131.4,4.773,4.773,0,0,1,2.469,2.916,4.722,4.722,0,0,1-.333,3.823,5.061,5.061,0,0,1-3.188,2.225,6.337,6.337,0,0,1-3.357-.377q-.209-.093-.408-.207t-.385-.247a4.605,4.605,0,0,1-.687-.6,4.488,4.488,0,0,1-.3-.348q-.139-.182-.26-.376t-.221-.4q-.1-.206-.18-.42a4.874,4.874,0,0,1,.276-3.838,5.253,5.253,0,0,1,3.437-2.552" transform="translate(-1511.828 -727.926)" fill="#0c0a0e"/>
            <path id="Trazado_877882" data-name="Trazado 877882" d="M1540.6,1521.551q6.9.087,13.8.093-.055,26.462.173,52.922l-13.905-.008-14.225-.008c-.1-11.022-.332-22.135.02-33.15q.076-4.977-.034-9.954,7.056-.144,14.114-.092c.483-1.129.066-8.05.056-9.8" transform="translate(-1323.057 -1318.961)" fill="#bab4e4"/>
            <path id="Trazado_877883" data-name="Trazado 877883" d="M1540.542,1595.083c.322.706.3,39.815.126,43.2l-14.225-.008c-.1-11.021-.332-22.135.02-33.15q.076-4.977-.034-9.954,7.056-.144,14.114-.092" transform="translate(-1323.057 -1382.69)" fill="#292360"/>
            <path id="Trazado_877884" data-name="Trazado 877884" d="M774.59,318.761a1.318,1.318,0,0,0,.219-.83c-.984-.516-2.3-.179-3.375-.168-2.452.023-4.912-.028-7.366-.036a37.8,37.8,0,0,1-6.024-.2,3.367,3.367,0,0,1-1.459-.581,4.063,4.063,0,0,1-1.151-5.32c1.573-3.195,4.058-6.9,5.926-10.049L773.2,281.715q2.553-4.17,4.98-8.415a53.7,53.7,0,0,1,3.41-5.723,4.6,4.6,0,0,1,3.2-1.888,5.356,5.356,0,0,1,4,1.288c1.006.934,7.828,13.147,9.282,15.589L810.1,302.585c1.791,3,3.744,6,5.376,9.083a4.45,4.45,0,0,1,.372.989,4.478,4.478,0,0,1,.129,1.048,3.651,3.651,0,0,1-1.1,2.739,4.243,4.243,0,0,1-.935.683,4.3,4.3,0,0,1-.529.239,4.2,4.2,0,0,1-.557.164c-2.385.5-5.374.186-7.818.181l-14.672,0c-1.186,2.077-3.589,2.378-5.228,3.818a44.987,44.987,0,0,0-3.551,3.985c-.523-.861-4.5-5.46-5.081-5.647-.671-.044-1.34-.747-1.917-1.1" transform="translate(-654.378 -230.291)" fill="#ffaf1a"/>
            <path id="Trazado_877885" data-name="Trazado 877885" d="M774.59,318.761a1.318,1.318,0,0,0,.219-.83c-.984-.516-2.3-.179-3.375-.168-2.452.023-4.912-.028-7.366-.036a37.8,37.8,0,0,1-6.024-.2,3.367,3.367,0,0,1-1.459-.581,4.063,4.063,0,0,1-1.151-5.32c1.573-3.195,4.058-6.9,5.926-10.049L773.2,281.715q2.553-4.17,4.98-8.415a53.7,53.7,0,0,1,3.41-5.723,4.6,4.6,0,0,1,3.2-1.888,5.356,5.356,0,0,1,4,1.288c1.006.934,7.828,13.147,9.282,15.589L810.1,302.585c1.791,3,3.744,6,5.376,9.083a4.45,4.45,0,0,1,.372.989,4.478,4.478,0,0,1,.129,1.048,3.651,3.651,0,0,1-1.1,2.739,4.243,4.243,0,0,1-.935.683,4.3,4.3,0,0,1-.529.239,4.2,4.2,0,0,1-.557.164c-2.385.5-5.374.186-7.818.181l-14.672,0a11.037,11.037,0,0,1-3.5-.22l-.175-.21c.564-.566,2.523-.371,3.353-.373l14.735.007a52.306,52.306,0,0,0,7.338-.1,4.008,4.008,0,0,0,2.249-.96,2.909,2.909,0,0,0,.81-2.17,5.824,5.824,0,0,0-.841-2.408C809.882,303,804.62,295.071,799.8,287l-6.369-10.792c-1.283-2.2-3.741-7.344-5.425-8.822a3.654,3.654,0,0,0-2.827-.983,4.769,4.769,0,0,0-3.253,2.12,40.159,40.159,0,0,0-2.424,4.079q-2.081,3.686-4.28,7.3-6.88,11.327-13.57,22.767c-1.755,3-3.77,5.935-5.364,9.016a3.762,3.762,0,0,0-.592,2.5,3.27,3.27,0,0,0,1.43,2.166,4.79,4.79,0,0,0,2.078.521c2.546.219,5.206.074,7.766.079l14.182,0-.257.153a30.616,30.616,0,0,0-4.393,2.759c-.671-.044-1.34-.747-1.917-1.1" transform="translate(-654.378 -230.291)" fill="#010102"/>
            <path id="Trazado_877886" data-name="Trazado 877886" d="M832.575,324.722c.738.7,4.7,7.712,5.617,9.224l9.013,14.973c2.921,4.764,5.944,9.474,8.745,14.31q-11.743.048-23.485-.023l-23.286-.024c1.548-3.8,4.539-7.891,6.726-11.405l9.312-15.266c1.977-3.21,4.988-9.345,7.357-11.789" transform="translate(-701.439 -281.486)" fill="#fefefe"/>
            <path id="Trazado_877887" data-name="Trazado 877887" d="M964.788,550.229q2.389,0,4.777.055c0,1.253-.12,2.514-.2,3.764l-4.54-.049c-.074-1.25-.038-2.517-.04-3.77" transform="translate(-836.323 -476.968)" fill="#010102"/>
            <path id="Trazado_877888" data-name="Trazado 877888" d="M956.624,409.848c2.262-.082,4.572-.065,6.834.053-.139,5.029-.438,10.81-1.01,15.81l-.074.444c-.936.515-3.561.136-4.689.093-.209-2.592-.312-5.2-.5-7.793-.21-2.859-.515-5.742-.557-8.607" transform="translate(-829.252 -355.234)" fill="#0c0a0e"/>
            <path id="Trazado_877889" data-name="Trazado 877889" d="M522.146,1097.735c.182,2.694.856,5.419,1.247,8.1l2.441,17.555c.185,1.357.789,7.621,1.3,8.465l-.026.343c.376,3.287.91,6.558,1.326,9.841q2.958,21.712,5.141,43.515c.426,4.694.968,9.429,1.136,14.141-1.216,0-2.464-.057-3.677.012-3.455.077-6.953.088-10.407-.015-1.721-.088-3.476-.032-5.2-.036-3.469-12.816-6.057-25.917-9.127-38.838l-3.23-13.727c-.495-2.06-1.7-5.9-1.692-7.777a25.428,25.428,0,0,1,.69-4.6q.61-3.159,1.126-6.336c1-6.2,1.725-12.432,2.645-18.641a12.086,12.086,0,0,0,2.961-1.668,14,14,0,0,0,4.829-9.44,67.062,67.062,0,0,0,8.521-.886" transform="translate(-434.616 -951.575)" fill="#292360"/>
            <path id="Trazado_877890" data-name="Trazado 877890" d="M1440.4,221.829a26.725,26.725,0,0,1,18.532,5.447q.279.224.551.454t.54.467q.267.237.528.481t.516.493q.255.25.5.506t.492.518q.242.262.478.53t.466.541q.229.274.452.553t.438.564q.216.285.424.574t.411.585q.2.295.4.594t.381.6q.187.3.366.613t.351.622q.172.313.336.63t.32.638q.156.321.3.646t.289.653q.14.328.272.66t.257.667q.124.335.24.672t.224.678q.108.34.207.684t.19.688q.09.345.173.693t.156.7q.074.35.139.7t.122.7q.056.353.1.706t.087.709c.913,8.223-.987,16.295-6.237,22.781-5.007,6.186-11.8,9.489-19.627,10.345a26.984,26.984,0,0,1-19-5.905,29.525,29.525,0,0,1-10.752-19.733q-.033-.38-.057-.761t-.039-.762q-.015-.381-.02-.762t0-.763q0-.382.017-.763t.036-.762q.022-.381.054-.761t.073-.759q.041-.379.091-.758t.109-.755q.059-.377.127-.752t.146-.749q.078-.373.164-.745t.182-.741q.1-.369.2-.736t.218-.731q.113-.364.235-.726t.253-.72q.131-.358.27-.713t.287-.707q.148-.351.3-.7t.322-.692q.165-.344.338-.684t.355-.675q.182-.336.371-.667t.387-.657q.2-.327.4-.648t.418-.638q.213-.316.434-.627t.449-.617q.228-.306.464-.605t.478-.595c4.848-5.882,11.82-9.019,19.3-9.731" transform="translate(-1225.654 -192.213)" fill="#010102"/>
            <path id="Trazado_877891" data-name="Trazado 877891" d="M1767.753,284.338a31.177,31.177,0,0,1,7.191,12.941,3.876,3.876,0,0,0-.762.291c-.344-.973-.567-2-.9-2.982a28.1,28.1,0,0,0-5.739-10.031Z" transform="translate(-1532.201 -246.479)" fill="#fbfbfa"/>
            <path id="Trazado_877892" data-name="Trazado 877892" d="M1553.291,602.262c-.019.06-.036.12-.058.178a3.729,3.729,0,0,1-.476.806c.071-.076.136-.158.213-.228a1.75,1.75,0,0,1,1.03-.385q-.238.214-.48.423t-.491.411q-.248.2-.5.4t-.51.386q-.258.19-.52.374t-.529.361q-.267.177-.537.348t-.546.334q-.275.164-.554.321t-.562.307q-.283.15-.569.293t-.576.279q-.289.136-.583.265t-.589.251q-.3.122-.6.236t-.6.222q-.3.107-.606.207t-.611.192q-.306.092-.615.177t-.619.161q-.311.077-.623.147t-.627.131q-.314.062-.63.116t-.632.1q-.317.046-.635.084t-.637.069q-.318.03-.638.053t-.639.037q-.32.015-.64.022t-.64.006q-.32,0-.64-.01t-.64-.025a26.414,26.414,0,0,1-12.085-3.652l.266-.343c1.072.353,2.121.861,3.185,1.255q1.078.411,2.183.743t2.232.579q1.127.248,2.269.413t2.293.245a24.084,24.084,0,0,0,17.761-6.289" transform="translate(-1320.305 -522.073)" fill="#fefefe"/>
            <path id="Trazado_877893" data-name="Trazado 877893" d="M1569.542,385.439c2.133-1.8,4.259-2.977,7.18-2.744a7.6,7.6,0,0,1,5.373,2.877q.138.168.266.342t.249.355q.12.181.23.367t.211.379q.1.192.191.389t.171.4q.081.2.151.407t.13.414q.06.208.109.419c.033.141.062.282.087.425s.048.285.066.429.033.287.044.431.018.288.022.433,0,.289,0,.433-.011.289-.022.433-.026.288-.045.431a9.137,9.137,0,0,1-3.582,6.029,10.621,10.621,0,0,1-3.346,1.177,8.151,8.151,0,0,1-6.054-1.5q-.172-.129-.338-.266c-.111-.091-.218-.186-.324-.282s-.209-.2-.309-.3-.2-.206-.294-.314-.188-.217-.277-.328-.177-.226-.261-.342-.165-.234-.243-.355-.153-.242-.224-.366-.14-.25-.206-.377-.127-.257-.186-.387-.114-.263-.167-.4-.1-.268-.146-.4-.087-.273-.126-.411-.073-.277-.1-.417-.059-.28-.083-.422-.045-.283-.062-.425a8.748,8.748,0,0,1,1.919-6.531" transform="translate(-1358.845 -331.715)" fill="#f3f3f1"/>
            <path id="Trazado_877894" data-name="Trazado 877894" d="M1595.888,407.183a5.51,5.51,0,0,1,3.139.317q.228.1.444.228t.419.271q.2.146.391.311t.357.348q.17.183.321.383a4.963,4.963,0,0,1,.281.412q.13.213.239.438a4.959,4.959,0,0,1,.194.46,5.042,5.042,0,0,1,.153.488,5,5,0,0,1,.155,1.009,4.955,4.955,0,0,1,0,.511,5.038,5.038,0,0,1-.51,1.966,5.216,5.216,0,0,1-3.362,2.655,5.75,5.75,0,0,1-3.005-.212,4.508,4.508,0,0,1-2.577-2.427,5.121,5.121,0,0,1-.129-3.959,5.85,5.85,0,0,1,3.488-3.2" transform="translate(-1380.084 -352.893)" fill="#010102"/>
            <path id="Trazado_877895" data-name="Trazado 877895" d="M1601.028,411.129a6.008,6.008,0,0,1,3.081.894q.174.11.335.237a4.12,4.12,0,0,1,1.242,1.61q.081.189.144.385t.1.4a4.124,4.124,0,0,1-.725,3.3,4.58,4.58,0,0,1-3.176,1.919,4.7,4.7,0,0,1-3.492-1.264,5.1,5.1,0,0,1-.982-3.8,5.022,5.022,0,0,1,2.426-3.319,13.732,13.732,0,0,0-2.506,4.275c1.209-1.468,2.236-3.307,3.548-4.631" transform="translate(-1384.78 -356.388)" fill="#01d159"/>
            <path id="Trazado_877896" data-name="Trazado 877896" d="M1621.3,415.151a2.852,2.852,0,0,1,1.388.7,1.173,1.173,0,0,1,.314.945,2.1,2.1,0,0,1-.894.98,4.038,4.038,0,0,1-1.476-.754.984.984,0,0,1-.276-.939,2.508,2.508,0,0,1,.943-.929" transform="translate(-1404.599 -359.875)" fill="#fefefe"/>
            <path id="Trazado_877897" data-name="Trazado 877897" d="M1419.664,254.111a.844.844,0,0,1-.491-.21,2.182,2.182,0,0,1-.1-.533,17.056,17.056,0,0,1,.416-3.469,29.656,29.656,0,0,1,7.95-15.418q.237-.239.48-.472t.492-.461q.249-.227.5-.448t.514-.436q.259-.215.525-.423t.535-.41q.27-.2.545-.4t.555-.383q.28-.188.564-.369t.573-.355q.289-.174.581-.34t.59-.326q.3-.159.6-.311t.6-.3q.3-.144.612-.281t.619-.266q.311-.129.625-.251t.631-.235q.317-.114.637-.219t.642-.2q.323-.1.647-.188t.652-.171q.327-.082.655-.156t.659-.139q.331-.066.662-.123t.666-.106q.333-.049.668-.089t.67-.073q.335-.032.672-.056t.672-.04q.337-.016.673-.023t.674-.007a26.037,26.037,0,0,1,18.843,7.711l-.208.219c-3.393-3.288-7.534-6-12.269-6.786-1.354,4.606-2.487,9.264-3.637,13.924-.421,1.706-.984,3.4-1.354,5.11-2.855.091-5.115.36-7.177,2.577l-.148.162c-1.338-1.282-2.178-3.012-3.292-4.479-2.8-3.693-5.689-7.447-8.826-10.864-5.07,4.5-8.77,12.535-9.094,19.3-.013.272-.013.538-.007.811" transform="translate(-1230.125 -196.279)" fill="#f3f3f1"/>
            <path id="Trazado_877898" data-name="Trazado 877898" d="M1417.287,436.561c6.39.669,12.819,1.071,19.2,1.788a9.8,9.8,0,0,0,4.071,6.933q-2.98,5.293-6.193,10.448a45.125,45.125,0,0,0-3.259,5.418.987.987,0,0,0,.355.53l-.266.343q-.514-.308-1.015-.636t-.988-.678q-.487-.349-.958-.719t-.927-.758q-.456-.389-.9-.8t-.861-.833q-.422-.426-.825-.868t-.788-.9q-.385-.459-.75-.934t-.71-.965q-.345-.49-.67-.994t-.627-1.021q-.3-.517-.584-1.046t-.54-1.069q-.259-.541-.495-1.091t-.449-1.111c-.764-2-2.663-9.179-1.824-11.036" transform="translate(-1228.398 -378.434)" fill="#f3f3f1"/>
            <path id="Trazado_877899" data-name="Trazado 877899" d="M1690.427,381.532c1.653,8.725.837,17.12-4.254,24.606-1.071,1.575-3.147,4.227-4.794,5.155a1.75,1.75,0,0,0-1.03.385c-.077.07-.142.152-.213.228a3.716,3.716,0,0,0,.476-.806c.022-.058.039-.119.058-.178a17.4,17.4,0,0,1,1.415-1.626c-3.755-4.261-8.259-7.9-12.039-12.138a7.878,7.878,0,0,0,2.442-2.95,9.276,9.276,0,0,0,.413-7.235c5.167-1.614,10.484-2.78,15.628-4.465.47-.154.908-.235,1.135-.685a3.88,3.88,0,0,1,.762-.291" transform="translate(-1447.685 -330.732)" fill="#f3f3f1"/>
            <path id="Trazado_877900" data-name="Trazado 877900" d="M1109.072,1226.752l83.789.152.06,25.449c-22.3.227-44.6-.212-66.905,0l-10.389.028.079,66.557c-2.185.07-4.377.05-6.563.059Z" transform="translate(-961.402 -1063.414)" fill="#f3f3f1"/>
            <path id="Trazado_877901" data-name="Trazado 877901" d="M1173.433,1341.741c6.879.195,13.783.05,20.667.07,2.8.008,5.662-.108,8.451.09.244.314.15.688.148,1.08q-9.486-.016-18.972.065a91.761,91.761,0,0,1-10.1-.019,2.1,2.1,0,0,1-.2-1.286" transform="translate(-1017.186 -1163.092)" fill="#010102"/>
            <path id="Trazado_877902" data-name="Trazado 877902" d="M1173.406,1305.642l28.184.048,7.263.062a22.341,22.341,0,0,1,2.6-.076,2.017,2.017,0,0,1,.554.184c.265.39.193.632.19,1.1l-25.012.04c-4.5,0-9.128.23-13.617-.04a2.016,2.016,0,0,1-.167-1.315" transform="translate(-1017.146 -1131.8)" fill="#010102"/>
            <path id="Trazado_877903" data-name="Trazado 877903" d="M202.88,1083.863a71.434,71.434,0,0,0,7.394,1.346q5.453.817,10.951,1.226t11.012.411c2.635.01,5.261-.168,7.892-.181-.51,3.462-1.877,6.8-4.762,8.951a10.417,10.417,0,0,1-2.991,1.532c-.6,3.155-.895,6.408-1.319,9.593q-1.023,7.411-2.306,14.782-1.251,6.853-2.815,13.641t-3.437,13.5q-1.874,6.71-4.053,13.326t-4.66,13.126c-1.549,4.156-2.987,8.461-4.81,12.5q-2.666.031-5.333.035c-3.359-.1-6.744-.036-10.106-.045l-6.943-.014c1.153-4.727,2.717-9.412,4.041-14.1,1.164-4.119,2.11-8.306,3.064-12.478q2.011-8.881,3.537-17.858t2.562-18.024c.721-6.5,1.125-12.975,1.641-19.485l-.023-.639a57.063,57.063,0,0,0,.481-6.791c.285-4.781.5-9.59.982-14.355" transform="translate(-161.749 -939.55)" fill="#292360"/>
            <path id="Trazado_877904" data-name="Trazado 877904" d="M69.528,2.638q1.064-.264,2.133-.5t2.145-.449q1.075-.212,2.155-.4T78.126.945Q79.211.787,80.3.655T82.478.417Q83.569.311,84.662.233T86.849.1Q87.945.05,89.04.025T91.232,0q1.1,0,2.191.03t2.19.084Q96.708.172,97.8.254t2.183.191q1.09.109,2.178.245t2.171.3q1.084.162,2.163.351t2.154.4q1.075.215,2.144.457t2.132.509q1.063.268,2.119.561t2.1.613q1.048.32,2.089.664t2.072.715q1.032.37,2.054.766t2.034.816q1.012.42,2.014.865t1.992.914q.99.469,1.969.963t1.945,1.011q.966.517,1.92,1.058t1.893,1.1q.968.566,1.922,1.157t1.893,1.2q.939.614,1.862,1.251t1.83,1.3q.907.66,1.8,1.342T148.2,20.4q.873.7,1.729,1.43t1.692,1.472q.837.747,1.655,1.514t1.617,1.555q.8.787,1.578,1.595t1.537,1.634q.758.826,1.5,1.671t1.454,1.708q.716.863,1.411,1.744t1.367,1.778q.672.9,1.323,1.812t1.277,1.844q.627.93,1.231,1.876t1.184,1.905q.58.96,1.136,1.935t1.087,1.962q.531.988,1.038,1.988T173,51.837q.481,1.013.937,2.038t.887,2.061q.431,1.036.835,2.082t.783,2.1q.378,1.056.73,2.121t.677,2.139q.325,1.074.624,2.155t.57,2.17c5.776,22.4,1.854,47.413-9.894,67.251-13.213,22.313-35.092,35.368-59.8,41.658Q103.3,179.1,97.13,180.027a38.251,38.251,0,0,1-4.641.594l.026-.343c-.506-.844-1.11-7.108-1.295-8.465l-2.442-17.555c-.391-2.677-1.065-5.4-1.247-8.1a8.719,8.719,0,0,0,1.094-1.413c-3.382,1.292-7.091,1.443-10.673,1.645a146.169,146.169,0,0,1-38.416-3.217l-.105.414c.383.542,1.079.594,1.7.725-.478,4.765-.7,9.574-.982,14.355a57.1,57.1,0,0,1-.481,6.791l.023.639a53.777,53.777,0,0,1-7.263-5.641q-.98-.849-1.938-1.725T28.6,156.958q-.933-.9-1.843-1.825t-1.794-1.874q-.884-.949-1.743-1.921t-1.691-1.967q-.832-1-1.638-2.012T18.307,145.3q-.778-1.038-1.529-2.1t-1.472-2.136q-.722-1.078-1.414-2.174t-1.356-2.212q-.663-1.115-1.3-2.247T10,132.158q-.6-1.148-1.175-2.313T7.716,127.5q-.441-.995-.858-2t-.809-2.02q-.392-1.015-.76-2.039t-.71-2.057q-.343-1.033-.66-2.073t-.61-2.089q-.292-1.048-.559-2.1t-.508-2.115Q2,109.947,1.783,108.88t-.405-2.137q-.19-1.071-.354-2.147t-.3-2.155q-.138-1.079-.249-2.162t-.2-2.167Q.192,97.028.133,95.941T.041,93.767Q.008,92.68,0,91.592t.014-2.176q.02-1.088.066-2.175T.2,85.068Q.273,83.983.372,82.9T.6,80.735q.125-1.081.276-2.158T1.2,76.426q.177-1.073.38-2.142t.432-2.133q.229-1.064.484-2.121t.535-2.109q.28-1.051.586-2.1t.636-2.081q.331-1.037.686-2.065t.736-2.048q.578-1.468,1.205-2.914t1.305-2.871q.677-1.424,1.4-2.824t1.5-2.774q.774-1.374,1.6-2.72t1.688-2.663q.867-1.317,1.78-2.6t1.868-2.54q.956-1.254,1.955-2.474t2.039-2.405q1.041-1.185,2.121-2.333t2.2-2.259q1.12-1.11,2.277-2.181t2.351-2.1q1.194-1.031,2.423-2.019t2.491-1.934a74.784,74.784,0,0,1,14.645-8.951q-.181,8.686-.032,17.372L50.7,51.355a12.119,12.119,0,0,1,8.135-1.546,13.124,13.124,0,0,1,2.563-7.5,9.791,9.791,0,0,1,6.558-3.723c3.982-.453,8.112,1.273,11.162,3.731,1.471,1.185,3.5,3.222,3.641,5.2a2.051,2.051,0,0,1,.006.22,2.121,2.121,0,0,1-.017.219,2.053,2.053,0,0,1-.04.216,2.084,2.084,0,0,1-.062.211,2.045,2.045,0,0,1-.084.2,2.095,2.095,0,0,1-.372.542c-1.236,1.3-3.557,1.19-5.206,1.228q.118,1.271.2,2.546c.158,2.785.018,6.121-2,8.294-1.173,1.266-2.346,1.374-3.962,1.406.453,2.557.059,5.458.138,8.067.874.045,1.748.1,2.624.092a11.45,11.45,0,0,1,8.738,4.042c2.346,2.61,4.194,5.974,6.013,8.967,1.964,3.232,3.984,6.477,5.765,9.816a25.1,25.1,0,0,1,5.17.248,1.727,1.727,0,0,1,.406,1.409c-.126,2.388-1.181,4.97-1.694,7.322.665.245,1.331.519,2.011.718a64.555,64.555,0,0,0,6.289-5.345q2.966-2.545,5.89-5.139a45.669,45.669,0,0,0,3.948-3.628c.4.431.8.854,1.179,1.3.744-.783,1.738-1.236,2.506-2.005.578.356,1.246,1.059,1.917,1.1.585.187,4.558,4.787,5.081,5.647a7.9,7.9,0,0,1-2.5,2.271,23.772,23.772,0,0,0,2.242,2.351L112.63,113.591c-1.946,1.854-3.832,4.026-5.928,5.686a14.305,14.305,0,0,1-3.585,2.132c-3.179,1.243-6.707,1.011-10.053,1.018a13.311,13.311,0,0,0-.794,2.744c-.681,2.773-1.149,6.071-2.573,8.568,1.12,1.2,2.1,2.651,3.1,3.952q3.6,4.6,7.02,9.324c2.158,2.92,4.426,5.757,6.578,8.681,4.447,6.045,8.815,12.193,13.485,18.066q1.65-.533,3.27-1.15c22.854-8.771,40.3-23.91,50.317-46.41,9.205-20.668,10.205-45.528,2.042-66.711A89.649,89.649,0,0,0,145.668,19.32,87.616,87.616,0,0,0,127.771,8.6a89.386,89.386,0,0,0-45.9-7.513c-3.788.353-8.134.763-11.7,2.146-.292,11.523-.057,23.107-.043,34.637l11.83-.117q.029-5.653-.085-11.305c1.929.05,3.864.042,5.795.059q.012,5.627-.08,11.253l3.851.006h5.348l.55.025,3.77.01.485.024q2.388-.014,4.775-.071l.481.044q4.495.08,8.99.026a28.476,28.476,0,0,1,5.039.164l.058.1c-2.109.654-11.972.281-14.66.277l-23.995-.009c-4.259,0-8.555-.108-12.809.036.331-4.6.082-9.374.053-14Z" transform="translate(0 -0.002)" fill="#010102"/>
            <path id="Trazado_877905" data-name="Trazado 877905" d="M302.591,950.79c5.262.173,10.523.465,15.783.7,1.932.088,4.794-.092,6.556.385l.147.163c-1.32.619-19.82-.537-22.7-.793Z" transform="translate(-262.119 -824.195)" fill="#fefefe"/>
            <path id="Trazado_877906" data-name="Trazado 877906" d="M384.384,454.951a5.321,5.321,0,0,1,.347-1.268,2.236,2.236,0,0,0,.357,1.119c.049.059.1.115.154.171.119,3.075.06,6.169.052,9.247l-.656.045a33.583,33.583,0,0,0-4.674.809l-.037-2.595a15.386,15.386,0,0,0,4.457-7.529" transform="translate(-329.341 -393.277)" fill="#0d4ab5"/>
            <path id="Trazado_877907" data-name="Trazado 877907" d="M413.4,454.951a5.322,5.322,0,0,1,.347-1.268,2.237,2.237,0,0,0,.357,1.119c.049.059.1.115.154.171.119,3.075.06,6.169.052,9.247l-.656.045c-.024-2.452.221-6.758-.052-9.038-.025-.212,0-.128-.2-.277" transform="translate(-358.358 -393.277)" fill="#0d4ab5"/>
            <path id="Trazado_877908" data-name="Trazado 877908" d="M886.53,664.45c.578.356,1.246,1.059,1.917,1.1.585.187,4.558,4.787,5.081,5.647a7.9,7.9,0,0,1-2.5,2.271q-3.469-3.542-7.007-7.016c.744-.783,1.738-1.236,2.506-2.005" transform="translate(-766.319 -575.981)" fill="#fdb903"/>
            <path id="Trazado_877909" data-name="Trazado 877909" d="M617.9,201.054q2.434,0,4.868.041v10.936l-4.86,0c-.327-3.563-.037-7.383-.008-10.973" transform="translate(-535.499 -174.285)" fill="#fefefe"/>
            <path id="Trazado_877910" data-name="Trazado 877910" d="M491.2,371.193a25.752,25.752,0,0,0,3.475.917c.388,3.489.918,7.479-1.434,10.437a5.62,5.62,0,0,1-1.519,1.314,10.877,10.877,0,0,1-2.98-.04l-.27-.109c-2.267-.934-4.158-1.789-5.133-4.173a4.192,4.192,0,0,1,.272-1.13c-.052-.04-.1-.08-.156-.121a2.522,2.522,0,0,1-1.188-1.856,2.224,2.224,0,0,1,.536-1.647,1.71,1.71,0,0,1,1.326-.584,2.289,2.289,0,0,1,1.641.808,8.234,8.234,0,0,1,1.018,1.367,6.952,6.952,0,0,0,3.97-3.911c.17-.414.305-.845.441-1.271" transform="translate(-418.045 -321.77)" fill="#fefefe"/>
            <path id="Trazado_877911" data-name="Trazado 877911" d="M289.742,727.941c.774-2.016,6.048-14.12,7.048-15.179l.288.141v-.016a20.021,20.021,0,0,1-1.411,3.177q-2.579,5.98-5.329,11.883c5.044.339,10.123.447,15.176.612a47.52,47.52,0,0,1,6.791.3c.869.161.4.985.758,1.533,1.843-.83,3.144-3.53,4.368-5.107a1.761,1.761,0,0,1,.777,1.437c-.054,1.216-1.565,2.459-2.29,3.342a9.347,9.347,0,0,0,2.352,2.33l.186-.055c1.887-.59,4.747-2.7,6.777-2.267l.208.242c-.022.226.019.329-.161.5-1.151,1.085-4.186.65-4.761,2.43,1.251-.022,3.49-1.333,4.532-.424a.982.982,0,0,1-.167.748,20.586,20.586,0,0,0-4.836,1.3l-.161.253c.415.442,1.237.373,1.8.391.936.029,2.559-.142,3.3.47l.026.351c-.856.646-3.62.237-4.967.67a15.426,15.426,0,0,1,4.018.643l.135.185c-1.12,1.161-7.588.746-9.569,1.1l-2.278,0c-.154-3.12-.011-6.3.015-9.431-2.425-.3-4.934-.277-7.376-.372l-12.062-.486c-2.2-.084-4.681.144-6.807-.456l.035-.117a25.91,25.91,0,0,1,3.584-.117" transform="translate(-248.026 -617.86)" fill="#fefefe"/>
            <path id="Trazado_877912" data-name="Trazado 877912" d="M422.716,382.7c.826,3.838,1.655,8.318,5.294,10.575a7.164,7.164,0,0,0,.949.47c-.067,2.942.026,5.9-.178,8.836-1.184.023-2.384.086-3.566.033q-2.663.008-5.326.075c.008-3.078.067-6.171-.052-9.247,0-4.093-.045-7.532,2.88-10.743" transform="translate(-363.936 -331.741)" fill="#0d4ab5"/>
            <path id="Trazado_877913" data-name="Trazado 877913" d="M464.242,433.865c.975,2.384,2.866,3.24,5.133,4.173l.27.109a5.069,5.069,0,0,0,.535.553c.453,2.557.059,5.458.138,8.067.874.045,1.748.1,2.624.092-.051,2.167-.108,5.375-1.842,6.957a1.959,1.959,0,0,1-1.5.575c-2.479-.139-6.491-3.337-8.063-5.215a7.716,7.716,0,0,1-1.306-2.21c1.182.053,2.382-.01,3.566-.033.2-2.935.111-5.894.178-8.836.148-1.4.144-2.825.268-4.233" transform="translate(-398.952 -376.097)" fill="#fff7e7"/>
            <path id="Trazado_877914" data-name="Trazado 877914" d="M659.019,1005.5c2.1,2.854,4.327,5.606,6.475,8.422L676.42,1028.5q4.216,5.782,8.542,11.481c1.385,1.846,2.662,4.023,4.4,5.558a152.1,152.1,0,0,1-16.221,4.43c-3.562.722-7.237,1.084-10.766,1.925-.506-.844-1.11-7.108-1.3-8.465l-2.441-17.555c-.391-2.677-1.065-5.4-1.247-8.1a8.73,8.73,0,0,0,1.094-1.413c.044-3.538-.263-7.4.535-10.869" transform="translate(-569.86 -871.617)" fill="#01d159"/>
            <path id="Trazado_877915" data-name="Trazado 877915" d="M488.273,703.5a48.7,48.7,0,0,1,5.705.038l9.474.258c3.218.1,7.669-.074,10.714.42.229.207.253.149.28.49.121,1.533-.6,3.637-.938,5.139q-1.542,7.164-3.422,14.247a63.943,63.943,0,0,0-1.964,8.094,13.328,13.328,0,0,0-.794,2.744c-.681,2.773-1.149,6.071-2.573,8.568l-15.678-.434c-2.536-.059-7.8.187-10.075-.493l-.109-.286,0,.232-.053-.039c-.341-1.407,2.2-9.834,2.82-11.652,1.981-.351,8.448.064,9.569-1.1l-.135-.186a15.431,15.431,0,0,0-4.018-.642c1.347-.433,4.111-.025,4.967-.67l-.026-.351c-.739-.612-2.362-.44-3.3-.47-.565-.018-1.388.051-1.8-.391l.161-.253a20.582,20.582,0,0,1,4.836-1.3.982.982,0,0,0,.167-.748c-1.042-.909-3.281.4-4.532.424.575-1.78,3.611-1.345,4.761-2.43.179-.169.139-.272.161-.5l-.207-.242c-2.03-.433-4.89,1.677-6.776,2.267l-.186.056a9.352,9.352,0,0,1-2.352-2.33c.725-.883,2.237-2.125,2.291-3.342a1.76,1.76,0,0,0-.777-1.437c1.265-4.052,2.161-10.128,3.811-13.685" transform="translate(-415.058 -609.765)" fill="#fdb903"/>
            <path id="Trazado_877916" data-name="Trazado 877916" d="M43.881,244.723a49.793,49.793,0,0,1-6.175-4.9c-12.068-10.331-22.39-24.3-27.643-39.38C2.212,177.9,3.134,153.55,13.594,132.012a91.438,91.438,0,0,1,31.729-35.7,42.287,42.287,0,0,1,8.728-4.874l.22,39.812c-2.156,2.12-3.585,4.945-5.955,6.81a9.7,9.7,0,0,1-8.343,1.741c-1.146-.308-2.245-.853-3.376-1.221a10.685,10.685,0,0,0-7.132.31q-.211.091-.417.192t-.407.213q-.2.111-.4.233t-.383.252q-.188.131-.37.271t-.356.289q-.175.149-.341.307t-.326.323q-.159.166-.309.339t-.292.354q-.141.181-.273.368t-.255.382q-.123.194-.236.394t-.215.405q-.1.205-.195.415t-.174.425q-.087.22-.163.443t-.141.451q-.065.227-.119.457t-.1.463q-.042.233-.073.467t-.05.47q-.019.235-.026.472t0,.472q0,.236.02.472t.044.47q.027.235.067.468t.09.464q.051.231.113.459t.136.452q.073.225.158.445t.18.437q.1.214.2.422t.221.412q.116.2.241.4t.26.388q.135.191.279.375t.3.361q.153.177.314.346t.331.33q.17.161.347.314t.362.3q.185.144.376.278t.389.259q.2.125.4.24t.413.22q.209.1.422.2t.432.178a10.9,10.9,0,0,0,8.256-.365,9.964,9.964,0,0,0,5.385-5.98c4.013,1.014,7.084.422,10.781-1.254l.035,2.35a33.616,33.616,0,0,0-8.42,5.352c-7.691,6.888-13,18.59-16.06,28.292a33.844,33.844,0,0,0-1.884,8.43,10,10,0,0,0,2.769,7.322c3.7,3.965,8.671,5.123,13.88,5.277l-.211.459c-1.336,2.5-2.129,12.475-2.324,15.521.526.2,1.059.439,1.6.6l-.105.413c.383.542,1.079.594,1.7.725-.478,4.765-.7,9.574-.982,14.355a57.069,57.069,0,0,1-.481,6.791" transform="translate(-4.213 -79.264)" fill="#01d159"/>
          </g>
        </g>
      </g>
    </g>
  </g>
</svg>
