<svg xmlns="http://www.w3.org/2000/svg" xmlns:xlink="http://www.w3.org/1999/xlink" width="86.881" height="95.518" viewBox="0 0 86.881 95.518">
  <defs>
    <clipPath id="clip-path">
      <rect id="Rectángulo_403241" data-name="Rectángulo 403241" width="55.755" height="55.755" transform="translate(359.746 4166.635)" fill="#0d4ab5" stroke="#707070" stroke-width="1"/>
    </clipPath>
  </defs>
  <g id="Grupo_1102143" data-name="Grupo 1102143" transform="translate(-179.489 -1091.596)">
    <g id="Grupo_1101870" data-name="Grupo 1101870" transform="translate(-165.542 -3063.441)">
      <g id="Grupo_1101840" data-name="Grupo 1101840" transform="translate(345.542 4155.527)">
        <path id="Trazado_877346" data-name="Trazado 877346" d="M42.929,0s7.156,1.442,22.686,5.444C80.286,9.225,85.43,10.738,85.43,10.738s2.42,14.822-4.235,42.2c-5.373,22.1-22.99,36.3-38.266,41.562C27.654,89.234,10.036,75.036,4.664,52.937-1.991,25.561.429,10.738.429,10.738S5.572,9.225,20.241,5.444C35.773,1.442,42.929,0,42.929,0" transform="translate(0 0)" fill="none" stroke="#072c6c" stroke-width="1"/>
        <path id="Trazado_877313" data-name="Trazado 877313" d="M40.117,0s6.687,1.348,21.2,5.087c13.71,3.534,18.517,4.948,18.517,4.948s2.261,13.851-3.958,39.434C70.855,70.12,54.392,83.388,40.117,88.308,25.842,83.388,9.379,70.12,4.358,49.469-1.861,23.886.4,10.035.4,10.035S5.207,8.621,18.915,5.087C33.43,1.348,40.117,0,40.117,0" transform="translate(2.812 3.095)" fill="#0d4ab5"/>
      </g>
      <g id="Enmascarar_grupo_1098805" data-name="Enmascarar grupo 1098805" clip-path="url(#clip-path)">
        <g id="confidencial" transform="translate(358.848 4165.736)">
          <path id="Trazado_877658" data-name="Trazado 877658" d="M35.97,52.156v3.6H12.589v-3.6H35.97Z" fill="#969faa"/>
          <g id="Grupo_1102018" data-name="Grupo 1102018">
            <path id="Trazado_877659" data-name="Trazado 877659" d="M33.272,48.559l2.7,3.6H27.877v-3.6Z" fill="#aab2bd"/>
            <path id="Trazado_877660" data-name="Trazado 877660" d="M20.683,48.559v3.6H12.589l2.7-3.6Z" fill="#aab2bd"/>
            <path id="Trazado_877661" data-name="Trazado 877661" d="M27.877,48.559v3.6H20.683V44.962h7.194Z" fill="#aab2bd"/>
          </g>
          <path id="Trazado_877662" data-name="Trazado 877662" d="M46.761,37.768v3.6a3.6,3.6,0,0,1-3.6,3.6H5.4a3.6,3.6,0,0,1-3.6-3.6v-3.6Z" fill="#ccd1d9"/>
          <path id="Trazado_877663" data-name="Trazado 877663" d="M46.761,37.768H1.8V17.985a3.6,3.6,0,0,1,3.6-3.6H46.761Z" fill="#69d6f4"/>
          <path id="Trazado_877664" data-name="Trazado 877664" d="M55.753,8.992V23.38a3.6,3.6,0,0,1-3.6,3.6H26.977a3.6,3.6,0,0,1-3.6-3.6V8.992Z" fill="#e6e9ed"/>
          <path id="Trazado_877665" data-name="Trazado 877665" d="M55.753,8.992H23.38V5.4a3.6,3.6,0,0,1,3.6-3.6h7.194a3.6,3.6,0,0,1,2.878,1.439L38.668,5.4H52.156A3.6,3.6,0,0,1,55.753,8.992Z" fill="#b4dd7f"/>
          <path id="Trazado_877666" data-name="Trazado 877666" d="M52.156,20.683v1.8a.9.9,0,0,1-.9.9h-5.4a.9.9,0,0,1-.9-.9v-1.8a.9.9,0,0,1,.9-.9h5.4A.9.9,0,0,1,52.156,20.683Z" fill="#fcd770"/>
          <path id="Trazado_877667" data-name="Trazado 877667" d="M19.783,9.892a8.126,8.126,0,0,1-5.4,7.626v2.266h-1.8v3.6h1.8v3.6h-1.8v3.6h1.8v1.8a1.8,1.8,0,0,1-1.8,1.8h-1.8a1.8,1.8,0,0,1-1.8-1.8V17.517A8.124,8.124,0,0,1,3.6,9.631,8.191,8.191,0,0,1,11.456,1.8a8.1,8.1,0,0,1,8.327,8.093Zm-5.4-1.8a2.7,2.7,0,1,0-2.7,2.7A2.694,2.694,0,0,0,14.388,8.093Z" fill="#fcd770"/>
          <path id="Trazado_877668" data-name="Trazado 877668" d="M11.69,11.69a3.6,3.6,0,1,0-3.6-3.6A3.6,3.6,0,0,0,11.69,11.69Zm0-5.4a1.8,1.8,0,1,1-1.8,1.8A1.8,1.8,0,0,1,11.69,6.295Z"/>
          <path id="Trazado_877669" data-name="Trazado 877669" d="M23.38,40.466h1.8v1.8h-1.8Z"/>
          <path id="Trazado_877670" data-name="Trazado 877670" d="M19.783,40.466h1.8v1.8h-1.8Z"/>
          <path id="Trazado_877671" data-name="Trazado 877671" d="M26.977,40.466h1.8v1.8h-1.8Z"/>
          <path id="Trazado_877672" data-name="Trazado 877672" d="M52.156,4.5H39.117L37.768,2.7a4.519,4.519,0,0,0-3.6-1.8H26.977a4.5,4.5,0,0,0-4.5,4.5v8.093H19.913A8.976,8.976,0,0,0,11.428.9,9.109,9.109,0,0,0,2.7,9.606h0a8.978,8.978,0,0,0,.926,4.263A4.482,4.482,0,0,0,.9,17.985v23.38a4.5,4.5,0,0,0,4.5,4.5H19.784v1.8H14.838l-3.147,4.2v4.8H36.869v-4.8l-3.147-4.2H28.776v-1.8H43.164a4.5,4.5,0,0,0,4.5-4.5V27.877h4.5a4.5,4.5,0,0,0,4.5-4.5V8.992A4.5,4.5,0,0,0,52.156,4.5ZM26.977,2.7h7.194A2.713,2.713,0,0,1,36.33,3.777l1.888,2.518H52.156a2.694,2.694,0,0,1,2.532,1.8H24.28V5.4A2.7,2.7,0,0,1,26.977,2.7ZM4.5,9.662A7.284,7.284,0,0,1,11.479,2.7l.213,0a7.189,7.189,0,0,1,2.4,13.969l-.6.213v2h-1.8v5.4h1.8v1.8h-1.8v5.4h1.8v.9a.9.9,0,0,1-.9.9h-1.8a.9.9,0,0,1-.9-.9V16.88l-.6-.212A7.172,7.172,0,0,1,4.5,9.662Zm11.236,39.8h4.047v1.8h-5.4Zm-2.248,5.4v-1.8H35.071v1.8Zm19.334-5.4,1.349,1.8h-5.4v-1.8Zm-5.845,1.8h-5.4v-5.4h5.4Zm16.186-7.194H5.4a2.7,2.7,0,0,1-2.7-2.7v-2.7H45.862v2.7A2.7,2.7,0,0,1,43.164,44.063Zm2.7-7.194H2.7V17.985a2.7,2.7,0,0,1,1.9-2.576,8.966,8.966,0,0,0,3.5,2.718V32.373a2.7,2.7,0,0,0,2.7,2.7h1.8a2.7,2.7,0,0,0,2.7-2.7v-2.7h-1.8v-1.8h1.8v-5.4h-1.8v-1.8h1.8V18.126a8.976,8.976,0,0,0,3.559-2.839h3.635V23.38a4.5,4.5,0,0,0,4.5,4.5H45.862Zm6.295-10.791H26.977a2.7,2.7,0,0,1-2.7-2.7V9.892H54.854V23.38A2.7,2.7,0,0,1,52.156,26.078Z"/>
          <path id="Trazado_877673" data-name="Trazado 877673" d="M26.078,4.5h1.8v1.8h-1.8Z"/>
          <path id="Trazado_877674" data-name="Trazado 877674" d="M33.272,4.5h1.8v1.8h-1.8Z"/>
          <path id="Trazado_877675" data-name="Trazado 877675" d="M29.675,4.5h1.8v1.8h-1.8Z"/>
          <path id="Trazado_877676" data-name="Trazado 877676" d="M27.877,29.675H44.063v1.8H27.877Z"/>
          <path id="Trazado_877677" data-name="Trazado 877677" d="M27.877,33.272h8.992v1.8H27.877Z"/>
          <path id="Trazado_877678" data-name="Trazado 877678" d="M42.265,33.272h1.8v1.8h-1.8Z"/>
          <path id="Trazado_877679" data-name="Trazado 877679" d="M38.668,33.272h1.8v1.8h-1.8Z"/>
          <path id="Trazado_877680" data-name="Trazado 877680" d="M51.257,18.884h-5.4a1.8,1.8,0,0,0-1.8,1.8v1.8a1.8,1.8,0,0,0,1.8,1.8h5.4a1.8,1.8,0,0,0,1.8-1.8v-1.8A1.8,1.8,0,0,0,51.257,18.884Zm-5.4,3.6v-1.8h5.4v1.8Z"/>
          <path id="Trazado_877681" data-name="Trazado 877681" d="M26.078,22.481h1.8v1.8h-1.8Z"/>
          <path id="Trazado_877682" data-name="Trazado 877682" d="M26.078,15.287h1.8v1.8h-1.8Z"/>
          <path id="Trazado_877683" data-name="Trazado 877683" d="M26.078,18.884h1.8v1.8h-1.8Z"/>
        </g>
      </g>
    </g>
  </g>
</svg>
