<svg xmlns="http://www.w3.org/2000/svg" xmlns:xlink="http://www.w3.org/1999/xlink" width="93.038" height="103.152" viewBox="0 0 93.038 103.152">
  <defs>
    <clipPath id="clip-path">
      <rect id="Rectángulo_403236" data-name="Rectángulo 403236" width="91" height="91" transform="translate(642 6975)" fill="#fff" stroke="#707070" stroke-width="1"/>
    </clipPath>
  </defs>
  <g id="Grupo_1102147" data-name="Grupo 1102147" transform="translate(1979.519 5756)">
    <g id="Grupo_1102078" data-name="Grupo 1102078" transform="translate(-2619.993 -12731)">
      <path id="Trazado_877346" data-name="Trazado 877346" d="M46.007,0s7.669,1.546,24.312,5.834c15.723,4.053,21.236,5.674,21.236,5.674s2.593,15.885-4.539,45.224c-5.758,23.684-24.638,38.9-41.009,44.542C29.636,95.631,10.756,80.416,5,56.732-2.134,27.393.459,11.508.459,11.508S5.972,9.887,21.692,5.834C38.338,1.546,46.007,0,46.007,0" transform="translate(640.986 6976.349)" fill="none" stroke="#593d09" stroke-width="1"/>
      <path id="Trazado_877313" data-name="Trazado 877313" d="M42.993,0s7.167,1.444,22.719,5.452c14.693,3.787,19.844,5.3,19.844,5.3S87.979,25.6,81.315,53.015C75.934,75.147,58.291,89.366,42.993,94.639,27.694,89.366,10.051,75.147,4.67,53.015-1.994,25.6.429,10.754.429,10.754s5.151-1.515,19.842-5.3C35.826,1.444,42.993,0,42.993,0" transform="translate(644 6979.667)" fill="#ffaf1a"/>
      <g id="Enmascarar_grupo_1098821" data-name="Enmascarar grupo 1098821" clip-path="url(#clip-path)">
        <g id="prioridad" transform="translate(642 6975)">
          <g id="Grupo_1102120" data-name="Grupo 1102120">
            <g id="Grupo_1102119" data-name="Grupo 1102119">
              <path id="Trazado_878021" data-name="Trazado 878021" d="M4.094,11.959V79.45a4.443,4.443,0,0,0,4.443,4.443H70.329a4.443,4.443,0,0,0,4.443-4.443V11.959Z" fill="#f5f8f9"/>
              <path id="Trazado_878022" data-name="Trazado 878022" d="M67.663,11.959V72.341a4.443,4.443,0,0,1-4.443,4.443H4.094V79.45a4.443,4.443,0,0,0,4.443,4.443H70.329a4.443,4.443,0,0,0,4.443-4.443V11.959Z" fill="#e8edf2"/>
              <g id="Grupo_1102118" data-name="Grupo 1102118">
                <circle id="Elipse_11672" data-name="Elipse 11672" cx="19.697" cy="19.697" r="19.697" transform="translate(47.511 50.272)" fill="#0593fc"/>
                <path id="Trazado_878023" data-name="Trazado 878023" d="M75.16,51.945A19.7,19.7,0,0,1,52.147,82.662,19.7,19.7,0,1,0,75.16,51.945Z" fill="#0182fc"/>
                <path id="Trazado_878024" data-name="Trazado 878024" d="M65.485,78.155a2.9,2.9,0,0,1-2.055-.851l-7.621-7.622a.965.965,0,0,1,0-1.366l2.745-2.745a.965.965,0,0,1,1.366,0l5.566,5.566L74.5,62.123a.965.965,0,0,1,1.366,0l2.745,2.745a.965.965,0,0,1,0,1.366L67.54,77.3A2.9,2.9,0,0,1,65.485,78.155Z" fill="#fff"/>
                <g id="Grupo_1102117" data-name="Grupo 1102117">
                  <path id="Trazado_878025" data-name="Trazado 878025" d="M77.306,63.565l-13.8,13.8A2.9,2.9,0,0,0,67.54,77.3L78.609,66.234a.965.965,0,0,0,0-1.366Z" fill="#f5f8f9"/>
                </g>
              </g>
              <path id="Trazado_878026" data-name="Trazado 878026" d="M70.329,1.333H8.562A4.443,4.443,0,0,0,4.118,5.776v6.36H74.772V5.776A4.443,4.443,0,0,0,70.329,1.333Z" fill="#ffe177"/>
              <path id="Trazado_878027" data-name="Trazado 878027" d="M70.329,1.333H67.663V5.027A1.777,1.777,0,0,1,65.886,6.8H4.118v5.332H74.772V5.776A4.443,4.443,0,0,0,70.329,1.333Z" fill="#ffd15b"/>
            </g>
          </g>
          <g id="Grupo_1102127" data-name="Grupo 1102127">
            <g id="Grupo_1102121" data-name="Grupo 1102121">
              <path id="Trazado_878028" data-name="Trazado 878028" d="M14.61,64.411a2.666,2.666,0,1,1,2.616,3.183" fill="none" stroke="#000" stroke-linecap="round" stroke-linejoin="round" stroke-miterlimit="10" stroke-width="2.666"/>
              <path id="Trazado_878029" data-name="Trazado 878029" d="M17.226,67.594a2.666,2.666,0,1,1-2.64,3.038,2.7,2.7,0,0,1-.026-.372" fill="none" stroke="#000" stroke-linecap="round" stroke-linejoin="round" stroke-miterlimit="10" stroke-width="2.666"/>
            </g>
            <g id="Grupo_1102122" data-name="Grupo 1102122">
              <path id="Trazado_878030" data-name="Trazado 878030" d="M15.148,20.3h2.279V30.963" fill="none" stroke="#000" stroke-linecap="round" stroke-linejoin="round" stroke-miterlimit="10" stroke-width="2.666"/>
            </g>
            <g id="Grupo_1102123" data-name="Grupo 1102123">
              <line id="Línea_3245" data-name="Línea 3245" x2="35.864" transform="translate(27.66 21.268)" fill="none" stroke="#000" stroke-linecap="round" stroke-linejoin="round" stroke-miterlimit="10" stroke-width="2.666"/>
              <line id="Línea_3246" data-name="Línea 3246" x2="35.864" transform="translate(27.66 29.995)" fill="none" stroke="#000" stroke-linecap="round" stroke-linejoin="round" stroke-miterlimit="10" stroke-width="2.666"/>
            </g>
            <g id="Grupo_1102124" data-name="Grupo 1102124">
              <line id="Línea_3247" data-name="Línea 3247" x2="15.851" transform="translate(27.66 63.344)" fill="none" stroke="#000" stroke-linecap="round" stroke-linejoin="round" stroke-miterlimit="10" stroke-width="2.666"/>
              <line id="Línea_3248" data-name="Línea 3248" x2="14.035" transform="translate(27.66 72.071)" fill="none" stroke="#000" stroke-linecap="round" stroke-linejoin="round" stroke-miterlimit="10" stroke-width="2.666"/>
            </g>
            <g id="Grupo_1102125" data-name="Grupo 1102125">
              <line id="Línea_3249" data-name="Línea 3249" x2="35.864" transform="translate(27.66 42.211)" fill="none" stroke="#000" stroke-linecap="round" stroke-linejoin="round" stroke-miterlimit="10" stroke-width="2.666"/>
              <line id="Línea_3250" data-name="Línea 3250" x2="21.298" transform="translate(27.66 50.938)" fill="none" stroke="#000" stroke-linecap="round" stroke-linejoin="round" stroke-miterlimit="10" stroke-width="2.666"/>
            </g>
            <g id="Grupo_1102126" data-name="Grupo 1102126">
              <path id="Trazado_878031" data-name="Trazado 878031" d="M20.073,51.977s-5.089.064-5.33-.016.386-.5,3.723-5.272a6.733,6.733,0,0,0,1.112-2.271l.052-.4a2.677,2.677,0,0,0-5.3-.519" fill="none" stroke="#000" stroke-linecap="round" stroke-linejoin="round" stroke-miterlimit="10" stroke-width="2.666"/>
            </g>
            <path id="Trazado_878032" data-name="Trazado 878032" d="M65.485,78.155a2.9,2.9,0,0,1-2.055-.851l-7.621-7.622a.965.965,0,0,1,0-1.366l2.745-2.745a.965.965,0,0,1,1.366,0l5.566,5.566L74.5,62.123a.965.965,0,0,1,1.366,0l2.745,2.745a.965.965,0,0,1,0,1.366L67.54,77.3A2.9,2.9,0,0,1,65.485,78.155Z" fill="none" stroke="#000" stroke-linecap="round" stroke-linejoin="round" stroke-miterlimit="10" stroke-width="2.666"/>
            <line id="Línea_3251" data-name="Línea 3251" x2="70.654" transform="translate(4.118 12.136)" fill="none" stroke="#000" stroke-linejoin="round" stroke-miterlimit="10" stroke-width="2.666"/>
            <path id="Trazado_878033" data-name="Trazado 878033" d="M74.772,51.778v-46a4.443,4.443,0,0,0-4.443-4.443H63.343" fill="none" stroke="#000" stroke-linecap="round" stroke-linejoin="round" stroke-miterlimit="10" stroke-width="2.666"/>
            <path id="Trazado_878034" data-name="Trazado 878034" d="M57.122,1.333H8.562A4.443,4.443,0,0,0,4.118,5.776L4.113,42.36" fill="none" stroke="#000" stroke-linecap="round" stroke-linejoin="round" stroke-miterlimit="10" stroke-width="2.666"/>
            <path id="Trazado_878035" data-name="Trazado 878035" d="M4.111,48.581,4.094,79.45a4.443,4.443,0,0,0,4.443,4.443H53.276" fill="none" stroke="#000" stroke-linecap="round" stroke-linejoin="round" stroke-miterlimit="10" stroke-width="2.666"/>
            <path id="Trazado_878036" data-name="Trazado 878036" d="M51.363,58.268A19.685,19.685,0,1,0,55.8,53.909" fill="none" stroke="#000" stroke-linecap="round" stroke-linejoin="round" stroke-miterlimit="10" stroke-width="2.666"/>
          </g>
        </g>
      </g>
    </g>
  </g>
</svg>
