<svg xmlns="http://www.w3.org/2000/svg" xmlns:xlink="http://www.w3.org/1999/xlink" width="58.074" height="63.523" viewBox="0 0 58.074 63.523">
  <defs>
    <clipPath id="clip-path">
      <rect id="Rectángulo_403259" data-name="Rectángulo 403259" width="36.878" height="36.877" transform="translate(443.938 5846.873)" fill="#0d4ab5" stroke="#707070" stroke-width="1"/>
    </clipPath>
  </defs>
  <g id="Grupo_1102136" data-name="Grupo 1102136" transform="translate(-1236.197 -822.51)">
    <g id="Grupo_1101940" data-name="Grupo 1101940" transform="translate(802.298 -5016.527)">
      <g id="Grupo_1101896" data-name="Grupo 1101896" transform="translate(434.543 5839.527)">
        <path id="Trazado_877346" data-name="Trazado 877346" d="M28.394,0s4.733.954,15,3.6c9.7,2.5,13.106,3.5,13.106,3.5s1.6,9.8-2.8,27.911C50.151,49.631,38.5,59.021,28.394,62.5c-10.1-3.482-21.756-12.873-25.31-27.49C-1.317,16.906.283,7.1.283,7.1s3.4-1,13.1-3.5C23.661.954,28.394,0,28.394,0" transform="translate(-0.001 0)" fill="none" stroke="#593d09" stroke-width="1"/>
        <path id="Trazado_877313" data-name="Trazado 877313" d="M26.534,0s4.423.891,14.022,3.365C49.624,5.7,52.8,6.637,52.8,6.637S54.3,15.8,50.186,32.72c-3.321,13.66-14.21,22.435-23.652,25.689C17.092,55.154,6.2,46.379,2.882,32.72-1.231,15.8.265,6.637.265,6.637S3.444,5.7,12.511,3.365C22.111.891,26.534,0,26.534,0" transform="translate(1.859 2.047)" fill="#ffaf1a"/>
      </g>
      <g id="Enmascarar_grupo_1098793" data-name="Enmascarar grupo 1098793" clip-path="url(#clip-path)">
        <g id="propiedad-intelectual" transform="translate(448.953 5846.873)">
          <path id="Trazado_877428" data-name="Trazado 877428" d="M8.394,32.687a.838.838,0,0,0,.838.838h8.381a.838.838,0,0,0,.838-.838v-.838H8.394Zm0,0" fill="#0d4ab5"/>
          <path id="Trazado_877429" data-name="Trazado 877429" d="M13.423,0A13.425,13.425,0,0,0,.013,13.41c0,8.381,6.7,11.734,8.381,16.762H18.452c1.676-5.029,8.381-8.381,8.381-16.762A13.425,13.425,0,0,0,13.423,0Zm0,18.439a5,5,0,0,0,3.878-1.87.839.839,0,0,1,1.3,1.061,6.705,6.705,0,1,1,0-8.438.839.839,0,0,1-1.3,1.061,5.017,5.017,0,1,0-3.878,8.187Zm0,0" fill="#0d4ab5"/>
          <path id="Trazado_877430" data-name="Trazado 877430" d="M10.071,36.039a.838.838,0,0,0,.838.838h5.029a.838.838,0,0,0,.838-.838V35.2h-6.7Zm0,0" fill="#0d4ab5"/>
        </g>
      </g>
    </g>
  </g>
</svg>
