<svg xmlns="http://www.w3.org/2000/svg" xmlns:xlink="http://www.w3.org/1999/xlink" width="86.881" height="95.518" viewBox="0 0 86.881 95.518">
  <defs>
    <clipPath id="clip-path">
      <rect id="Rectángulo_403241" data-name="Rectángulo 403241" width="55.755" height="55.755" transform="translate(359.746 4166.635)" fill="#0d4ab5" stroke="#707070" stroke-width="1"/>
    </clipPath>
  </defs>
  <g id="Grupo_1102135" data-name="Grupo 1102135" transform="translate(-1104.947 -1334.125)">
    <g id="Grupo_1101881" data-name="Grupo 1101881" transform="translate(759.916 -2820.912)">
      <g id="Grupo_1101840" data-name="Grupo 1101840" transform="translate(345.542 4155.527)">
        <path id="Trazado_877346" data-name="Trazado 877346" d="M42.929,0s7.156,1.442,22.686,5.444C80.286,9.225,85.43,10.738,85.43,10.738s2.42,14.822-4.235,42.2c-5.373,22.1-22.99,36.3-38.266,41.562C27.654,89.234,10.036,75.036,4.664,52.937-1.991,25.561.429,10.738.429,10.738S5.572,9.225,20.241,5.444C35.773,1.442,42.929,0,42.929,0" transform="translate(0 0)" fill="none" stroke="#072c6c" stroke-width="1"/>
        <path id="Trazado_877313" data-name="Trazado 877313" d="M40.117,0s6.687,1.348,21.2,5.087c13.71,3.534,18.517,4.948,18.517,4.948s2.261,13.851-3.958,39.434C70.855,70.12,54.392,83.388,40.117,88.308,25.842,83.388,9.379,70.12,4.358,49.469-1.861,23.886.4,10.035.4,10.035S5.207,8.621,18.915,5.087C33.43,1.348,40.117,0,40.117,0" transform="translate(2.812 3.095)" fill="#ffaf1a"/>
      </g>
      <g id="Enmascarar_grupo_1098808" data-name="Enmascarar grupo 1098808" clip-path="url(#clip-path)">
        <g id="divulgacion" transform="translate(359.637 4166.525)">
          <g id="Grupo_1102031" data-name="Grupo 1102031">
            <g id="Grupo_1102024" data-name="Grupo 1102024">
              <path id="Trazado_877716" data-name="Trazado 877716" d="M3.977,2.371H14.818l4.873,3.2L14.818,8.747H3.977Z" fill="#fc685b" fill-rule="evenodd"/>
              <path id="Trazado_877717" data-name="Trazado 877717" d="M3.977,2.371H14.818l4.873,3.2-.286.186-3.493-2.3H5.07V8.747H3.977Z" fill="#fb4737" fill-rule="evenodd"/>
            </g>
            <g id="Grupo_1102025" data-name="Grupo 1102025">
              <rect id="Rectángulo_403330" data-name="Rectángulo 403330" width="5.054" height="12.547" rx="0.328" transform="translate(12.343 42.382)" fill="#fc685b"/>
              <path id="Trazado_877718" data-name="Trazado 877718" d="M16.3,42.382h.765a.329.329,0,0,1,.328.328V54.6a.329.329,0,0,1-.328.328h-4.4a.329.329,0,0,1-.328-.328v-.765H16.3Z" fill="#fb4737" fill-rule="evenodd"/>
            </g>
            <g id="Grupo_1102026" data-name="Grupo 1102026">
              <rect id="Rectángulo_403331" data-name="Rectángulo 403331" width="5.054" height="17.252" rx="0.328" transform="translate(23.86 37.677)" fill="#ffda2d"/>
              <path id="Trazado_877719" data-name="Trazado 877719" d="M27.82,37.677h.765a.329.329,0,0,1,.328.328V54.929H24.188a.329.329,0,0,1-.328-.328v-.765h3.96Z" fill="#ffc700" fill-rule="evenodd"/>
            </g>
            <g id="Grupo_1102027" data-name="Grupo 1102027">
              <rect id="Rectángulo_403332" data-name="Rectángulo 403332" width="5.054" height="20.563" rx="0.328" transform="translate(35.377 34.367)" fill="#72d561"/>
              <path id="Trazado_877720" data-name="Trazado 877720" d="M39.337,34.367H40.1a.329.329,0,0,1,.328.328V54.6a.329.329,0,0,1-.328.328H35.7a.329.329,0,0,1-.328-.328v-.765h3.96V34.367Z" fill="#42c345" fill-rule="evenodd"/>
            </g>
            <g id="Grupo_1102028" data-name="Grupo 1102028">
              <rect id="Rectángulo_403333" data-name="Rectángulo 403333" width="5.054" height="24.048" rx="0.328" transform="translate(46.893 30.881)" fill="#64b5f6"/>
              <path id="Trazado_877721" data-name="Trazado 877721" d="M50.854,30.881h.765a.329.329,0,0,1,.328.328V54.6a.329.329,0,0,1-.328.328h-4.4a.329.329,0,0,1-.328-.328v-.765h3.96V30.881Z" fill="#42a5f5" fill-rule="evenodd"/>
            </g>
            <g id="Grupo_1102030" data-name="Grupo 1102030">
              <path id="Trazado_877722" data-name="Trazado 877722" d="M28.5,24.758l-2.406,2.035,5.153,6.091a.774.774,0,0,0,1.089.091l1.226-1.037a.774.774,0,0,0,.091-1.089L28.5,24.758Z" fill="#8d9ca8" fill-rule="evenodd"/>
              <path id="Trazado_877723" data-name="Trazado 877723" d="M28.5,24.758l-.8.679,4.474,5.289a.774.774,0,0,1-.091,1.089l-1.013.857.18.213a.774.774,0,0,0,1.089.091l1.226-1.037a.774.774,0,0,0,.091-1.089L28.5,24.758Z" fill="#7a8c98" fill-rule="evenodd"/>
              <path id="Trazado_877724" data-name="Trazado 877724" d="M29.742,18.593a3.347,3.347,0,0,1-.392,4.7l-5.626,4.759a3.337,3.337,0,0,1-4.311-5.1L25.039,18.2a3.347,3.347,0,0,1,4.7.392Z" fill="#64b5f6" fill-rule="evenodd"/>
              <path id="Trazado_877725" data-name="Trazado 877725" d="M30.5,20.278A3.343,3.343,0,0,1,29.35,23.3l-5.626,4.759A3.335,3.335,0,0,1,18.392,24.5a3.311,3.311,0,0,0,.753,1.685,3.347,3.347,0,0,0,4.7.392l5.626-4.759A3.31,3.31,0,0,0,30.5,20.278Z" fill="#42a5f5" fill-rule="evenodd"/>
              <circle id="Elipse_11666" data-name="Elipse 11666" cx="3.558" cy="3.558" r="3.558" transform="matrix(0.191, -0.982, 0.982, 0.191, 32.752, 15.329)" fill="#64b5f6"/>
              <g id="Grupo_1102029" data-name="Grupo 1102029">
                <path id="Trazado_877726" data-name="Trazado 877726" d="M36.462,9a3.556,3.556,0,1,1-.581,6.932q.091-.012.181-.028a3.557,3.557,0,0,0,.4-6.9Z" fill="#42a5f5" fill-rule="evenodd"/>
                <path id="Trazado_877727" data-name="Trazado 877727" d="M23.418,17.366l-3.511,2.97a1.605,1.605,0,0,0-.188,2.258l4.416,5.22A1.605,1.605,0,0,0,26.394,28l3.511-2.97L41.66,20.121a1.068,1.068,0,0,0,.327-1.64L31.881,6.536a1.068,1.068,0,0,0-1.671.05Z" fill="#64b5f6" fill-rule="evenodd"/>
                <path id="Trazado_877728" data-name="Trazado 877728" d="M19.718,22.593v0l4.416,5.22A1.605,1.605,0,0,0,26.394,28l3.511-2.97,11.756-4.912a1.068,1.068,0,0,0,.327-1.64l-.676-.8a1.068,1.068,0,0,1-.33,1.636L29.225,24.23,25.715,27.2a1.605,1.605,0,0,1-2.258-.188l-3.739-4.419Z" fill="#42a5f5" fill-rule="evenodd"/>
                <path id="Trazado_877729" data-name="Trazado 877729" d="M28.817,23.747l-4.311-5.1-1.088-1.286-3.511,2.97a1.605,1.605,0,0,0-.188,2.258l.053.062,4.311,5.1.053.062A1.605,1.605,0,0,0,26.394,28l.422-.357,2.406-2.035.683-.578-1.088-1.286Z" fill="#ffda2d" fill-rule="evenodd"/>
                <path id="Trazado_877730" data-name="Trazado 877730" d="M19.59,20.7a1.607,1.607,0,0,0,.129,1.894l.053.062,4.311,5.1.053.062A1.605,1.605,0,0,0,26.394,28l.422-.357,2.406-2.035.683-.578-.679-.8-2.708,2.291a1.605,1.605,0,0,1-2.258-.188l-4.416-5.22a1.6,1.6,0,0,1-.253-.412Z" fill="#ffc700" fill-rule="evenodd"/>
                <path id="Trazado_877731" data-name="Trazado 877731" d="M29.287,6.033a1.842,1.842,0,0,1,2.588.216L42.27,18.535a1.836,1.836,0,1,1-2.8,2.372L29.071,8.621a1.842,1.842,0,0,1,.216-2.588Z" fill="#ffda2d" fill-rule="evenodd"/>
                <path id="Trazado_877732" data-name="Trazado 877732" d="M29.287,6.033a1.824,1.824,0,0,1,.458-.283,1.844,1.844,0,0,0,.139,2.184L40.279,20.219a1.844,1.844,0,0,0,2.13.5,1.82,1.82,0,0,1-.355.4,1.842,1.842,0,0,1-2.588-.216L29.072,8.621a1.842,1.842,0,0,1,.216-2.588Z" fill="#ffc700" fill-rule="evenodd"/>
                <path id="Trazado_877733" data-name="Trazado 877733" d="M36.463,4.122a.874.874,0,0,1-.69-1.606A8.4,8.4,0,0,1,46.245,14.634a.874.874,0,0,1-1.49-.916,6.651,6.651,0,0,0-8.293-9.6ZM38.31,7.049a3.3,3.3,0,0,1,1.765.059,3.269,3.269,0,0,1,2.242,2.559,3.3,3.3,0,0,1-.184,1.785.872.872,0,0,0,1.619.649A5.021,5.021,0,0,0,37.9,5.354a.872.872,0,0,0,.41,1.694Z" fill="#ffda2d" fill-rule="evenodd"/>
              </g>
            </g>
          </g>
          <path id="Trazado_877734" data-name="Trazado 877734" d="M42.877,6.965a5,5,0,0,1,.9,5.2.875.875,0,0,1-1.625-.649,3.276,3.276,0,0,0-3.818-4.4.875.875,0,0,1-.414-1.7,5.016,5.016,0,0,1,4.954,1.553Zm2.646,8.146a.873.873,0,0,0,.746-.417,8.472,8.472,0,0,0,1.218-5.068A8.4,8.4,0,0,0,35.8,2.576a.874.874,0,1,0,.691,1.606,6.654,6.654,0,0,1,8.293,9.6.872.872,0,0,0,.287,1.2.858.858,0,0,0,.456.13ZM41.462,20.2a.953.953,0,0,0,.076-1.344L30.88,6.925a.942.942,0,0,0-.656-.314h-.056a.952.952,0,0,0-.707,1.583L40.119,20.124a.957.957,0,0,0,1.343.076ZM32.207,32.175l-3.892-4.356,1.023-.914,3.892,4.356-1.023.914Zm-7.132-4.77a.718.718,0,0,0,1.014.058L28.846,25,23.36,18.858,20.6,21.321a.72.72,0,0,0-.057,1.015l4.529,5.069Zm-5.087-.013a2.452,2.452,0,0,1-.087-3.151l3.207,3.589A2.443,2.443,0,0,1,19.988,27.392Zm10.318-3.382,7.8-3.51-9.236-10.34-4.365,7.36,5.8,6.49ZM38.7,10.681A2.67,2.67,0,0,0,35.9,9.92l3.235,3.622A2.668,2.668,0,0,0,38.7,10.681Zm1.67,4.238a4.408,4.408,0,0,0-5.693-6.375L32.184,5.759a2.7,2.7,0,0,0-4.469,2.924l-4.969,8.377-3.308,2.956a2.468,2.468,0,0,0-.622,2.813,4.192,4.192,0,0,0,5.57,6.24,2.466,2.466,0,0,0,2.609-.1l3.977,4.454a1.635,1.635,0,0,0,1.134.545c.031,0,.062,0,.094,0a1.626,1.626,0,0,0,1.092-.418l1.191-1.064a1.609,1.609,0,0,0,.53-1.181,1.7,1.7,0,0,0-.433-1.159l-3.914-4.382,8.785-3.952a2.684,2.684,0,0,0,1.226.372c.052,0,.1,0,.156,0a2.7,2.7,0,0,0,2.009-4.5l-2.477-2.772ZM14.581,3.306l3.537,2.325-3.534,2.3H4.875V3.306Zm.261,6.376H4.875V54.989a.875.875,0,0,1-1.749,0V.984a.875.875,0,1,1,1.749,0v.573h9.967a.877.877,0,0,1,.481.143L20.2,4.9a.875.875,0,0,1,0,1.464L15.32,9.541a.88.88,0,0,1-.478.141ZM51.094,54.115h-3.3v-22.3h3.3Zm.876-24.048H46.917a.874.874,0,0,0-.874.875V54.989a.874.874,0,0,0,.874.874h5.054a.875.875,0,0,0,.877-.874V30.942A.875.875,0,0,0,51.971,30.067ZM39.579,54.115H36.274V35.3h3.305Zm.874-20.562a.874.874,0,0,1,.874.875V54.989a.874.874,0,0,1-.874.874H35.4a.875.875,0,0,1-.874-.874V34.427a.875.875,0,0,1,.874-.875ZM28.062,54.115h-3.3v-15.5h3.3Zm.874-17.252H23.884a.874.874,0,0,0-.875.875V54.989a.874.874,0,0,0,.875.874h5.052a.875.875,0,0,0,.875-.874V37.737A.875.875,0,0,0,28.937,36.862ZM16.546,54.115v-10.8h-3.3v10.8Zm.874-12.547H12.367a.874.874,0,0,0-.874.875V54.989a.874.874,0,0,0,.874.874h5.054a.875.875,0,0,0,.875-.874V42.442A.875.875,0,0,0,17.421,41.568Z" fill-rule="evenodd"/>
        </g>
      </g>
    </g>
  </g>
</svg>
