<svg xmlns="http://www.w3.org/2000/svg" xmlns:xlink="http://www.w3.org/1999/xlink" width="65" height="65" viewBox="0 0 65 65">
  <defs>
    <clipPath id="clip-path">
      <rect id="Rectángulo_403287" data-name="Rectángulo 403287" width="65" height="65" transform="translate(914.711 1079)" fill="#fff" stroke="#707070" stroke-width="1"/>
    </clipPath>
  </defs>
  <g id="Grupo_1102134" data-name="Grupo 1102134" transform="translate(-914.711 -1079)">
    <g id="Enmascarar_grupo_1098794" data-name="Enmascarar grupo 1098794" clip-path="url(#clip-path)">
      <g id="informacion_1_" data-name="informacion (1)" transform="translate(914.711 1079)">
        <g id="Grupo_1101942" data-name="Grupo 1101942" transform="translate(0.127)">
          <path id="Trazado_877431" data-name="Trazado 877431" d="M62.613,52.205,45.847,62.95a6.145,6.145,0,0,1-3.26.953H19.062c-5.719,0-7.268-2.935-7.268-2.935v-.314H8.545v-13h3.249v.076c1.9-2.892,5.643-3.888,8-4.224h.011a15.712,15.712,0,0,1,2.09-.184h.552a7.977,7.977,0,0,1,5.1,1.863,7.9,7.9,0,0,0,5.091,1.885h4.679a4.439,4.439,0,0,1,3.845,2.264l.076.13a3.546,3.546,0,0,1,.108,3.293,3.427,3.427,0,0,1-.531.78h2.047a3.319,3.319,0,0,0,1.126-.184l14.752-5.177,1.8-.639a2.487,2.487,0,0,1,.8-.13,2.411,2.411,0,0,1,1.95,1.029,2.694,2.694,0,0,1-.682,3.769Z" fill="#bfa885"/>
          <path id="Trazado_877432" data-name="Trazado 877432" d="M58.281,52.205,41.514,62.95a6.145,6.145,0,0,1-3.26.953H19.062c-5.719,0-7.268-2.935-7.268-2.935v-.314H8.545v-13h3.249v.076c1.9-2.892,5.643-3.888,8-4.224h.011a8.008,8.008,0,0,1,3.412,1.679,7.9,7.9,0,0,0,5.091,1.885H32.99a4.439,4.439,0,0,1,3.845,2.264l.076.13a3.512,3.512,0,0,1-.422,4.072h2.047a3.319,3.319,0,0,0,1.126-.184l1.69-.6a3.427,3.427,0,0,1-.531.78h2.047a3.319,3.319,0,0,0,1.126-.184l14.752-5.177a1.726,1.726,0,0,1,.217.26,2.694,2.694,0,0,1-.682,3.769Z" fill="#ffe0b2"/>
          <path id="Trazado_877433" data-name="Trazado 877433" d="M63.783,19.5A18.417,18.417,0,0,1,39.749,37.031l-5.21,4.127v-6.78A18.41,18.41,0,1,1,63.783,19.5Z" fill="#2296f3"/>
          <path id="Trazado_877434" data-name="Trazado 877434" d="M2.046,45.49h8.665a1.083,1.083,0,0,1,1.083,1.083V61.737a1.083,1.083,0,0,1-1.083,1.083H2.046A1.083,1.083,0,0,1,.963,61.737V46.573A1.083,1.083,0,0,1,2.046,45.49Z" fill="#4caf50"/>
          <g id="Grupo_1101941" data-name="Grupo 1101941">
            <circle id="Elipse_11650" data-name="Elipse 11650" cx="2.166" cy="2.166" r="2.166" transform="translate(43.204 7.582)" fill="#fff"/>
            <path id="Trazado_877435" data-name="Trazado 877435" d="M43.2,20.579v6.5H41.038V31.41H49.7V27.077H47.536V16.246h-6.5v4.332Z" fill="#fff"/>
          </g>
          <path id="Trazado_877436" data-name="Trazado 877436" d="M63.783,19.5A18.411,18.411,0,0,1,45.37,37.908c-.552,0-1.1-.022-1.646-.076a18.407,18.407,0,0,0,.022-36.674,16,16,0,0,1,1.625-.076A18.411,18.411,0,0,1,63.783,19.5Z" fill="#1566c0"/>
        </g>
        <g id="Grupo_1101943" data-name="Grupo 1101943">
          <path id="Trazado_877437" data-name="Trazado 877437" d="M2.173,63.9h8.665a2.153,2.153,0,0,0,1.665-.8,10.869,10.869,0,0,0,6.683,1.881H42.71a7.223,7.223,0,0,0,3.849-1.127L63.328,53.112a3.686,3.686,0,0,0,1.6-2.4,3.8,3.8,0,0,0-.625-2.909,3.508,3.508,0,0,0-3.981-1.286L43.753,52.332a2.223,2.223,0,0,1-.754.125h-.258a4.6,4.6,0,0,0-.422-3.506l-.085-.153a5.544,5.544,0,0,0-4.781-2.808H32.774a6.892,6.892,0,0,1-4.4-1.63,9.069,9.069,0,0,0-5.792-2.118H22.03c-.273,0-5.825.051-9.409,3.106a2.164,2.164,0,0,0-1.783-.94H2.173A2.169,2.169,0,0,0,.007,46.573V61.737A2.169,2.169,0,0,0,2.173,63.9Zm19.856-19.5h.549a6.9,6.9,0,0,1,4.4,1.615,9.059,9.059,0,0,0,5.792,2.134h4.679a3.319,3.319,0,0,1,2.89,1.7l.085.153a2.416,2.416,0,0,1-.054,2.45H35.042a8.857,8.857,0,0,0-5.084,1.622l-.649.456a1.083,1.083,0,1,0,1.244,1.773l.647-.454a6.7,6.7,0,0,1,3.843-1.231H43a4.384,4.384,0,0,0,1.485-.252l16.54-5.8a1.323,1.323,0,0,1,1.513.5,1.619,1.619,0,0,1,.26,1.24,1.49,1.49,0,0,1-.641.985L45.4,62.03a5.051,5.051,0,0,1-2.688.79H19.185c-4.141,0-5.753-1.628-6.181-2.182V48.072C15.649,44.465,21.966,44.407,22.029,44.407ZM2.173,46.573h8.665V61.737H2.173Z"/>
          <path id="Trazado_877438" data-name="Trazado 877438" d="M4.653,56.635a1.083,1.083,0,0,0,.769,1.852,1.142,1.142,0,0,0,.769-.314,1.252,1.252,0,0,0,.227-.358,1.085,1.085,0,0,0,.087-.411,1.14,1.14,0,0,0-.314-.769A1.134,1.134,0,0,0,4.653,56.635Z"/>
          <path id="Trazado_877439" data-name="Trazado 877439" d="M45.5,13a3.249,3.249,0,1,0-3.249-3.249A3.249,3.249,0,0,0,45.5,13Zm0-4.332a1.083,1.083,0,1,1-1.083,1.083A1.083,1.083,0,0,1,45.5,8.665Z"/>
          <path id="Trazado_877440" data-name="Trazado 877440" d="M49.829,25.994H48.746V16.246a1.083,1.083,0,0,0-1.083-1.083h-6.5a1.083,1.083,0,0,0-1.083,1.083v4.332a1.083,1.083,0,0,0,1.083,1.083h1.083v4.332H41.165a1.083,1.083,0,0,0-1.083,1.083V31.41a1.083,1.083,0,0,0,1.083,1.083h8.665a1.083,1.083,0,0,0,1.083-1.083V27.078a1.083,1.083,0,0,0-1.083-1.083Zm-1.083,4.332h-6.5V28.16h1.083a1.083,1.083,0,0,0,1.083-1.083v-6.5A1.083,1.083,0,0,0,43.331,19.5H42.248V17.329H46.58v9.748a1.083,1.083,0,0,0,1.083,1.083h1.083v2.166Z"/>
          <path id="Trazado_877441" data-name="Trazado 877441" d="M45.5,0A19.491,19.491,0,0,0,33.583,34.92v6.237a1.083,1.083,0,0,0,1.756.849L40.1,38.233A19.5,19.5,0,1,0,45.5,0Zm0,36.825A17.183,17.183,0,0,1,40.208,36a1.089,1.089,0,0,0-1.006.182l-3.453,2.736v-4.54A1.082,1.082,0,0,0,35.3,33.5a17.321,17.321,0,1,1,10.2,3.324Z"/>
        </g>
      </g>
    </g>
  </g>
</svg>
