<svg xmlns="http://www.w3.org/2000/svg" xmlns:xlink="http://www.w3.org/1999/xlink" width="190" height="131.086" viewBox="0 0 190 131.086">
  <defs>
    <clipPath id="clip-path">
      <rect id="Rectángulo_403334" data-name="Rectángulo 403334" width="175.231" height="131.086" fill="none"/>
    </clipPath>
    <clipPath id="clip-path-2">
      <path id="Trazado_877801" data-name="Trazado 877801" d="M1294.777,1711.955c-.536-.01-1.07-.02-1.6-.019l-9.936.024-9.617.009c-1.707,0-3.472.1-5.169-.047l-.06.1c-.244.025-.487.047-.733.059-.478.278-6.53.242-10.51.207-1.541-.014-2.771-.028-3.247-.023-1.063.01-2.082.263-3.14.281q-9.445.219-18.892.1c-.829,0-7.668-.12-7.97.081.624.02,1.249.027,1.875.027h.117c.641,0,1.282-.007,1.923-.015.748-.008,1.5-.016,2.241-.014l13.521.027,43.614-.107c.571,0,2.308.012,4.51.024,5.526.031,13.979.063,14.286-.113a.994.994,0,0,0,.062-.2v0a.434.434,0,0,0-.067-.174,18.5,18.5,0,0,0-4.5-.219c-.573.01-1.06.02-1.352.016-.1,0-.215,0-.331,0a3.545,3.545,0,0,1-1.036-.078c-.042-.012-.082-.027-.123-.041a31.612,31.612,0,0,1-3.872.086" transform="translate(-1223.905 -1711.869)" fill="none"/>
    </clipPath>
    <linearGradient id="linear-gradient" x1="-43.316" y1="0.505" x2="-43.291" y2="0.505" gradientUnits="objectBoundingBox">
      <stop offset="0" stop-color="#4a449e"/>
      <stop offset="1" stop-color="#846bc1"/>
    </linearGradient>
    <clipPath id="clip-path-4">
      <path id="Trazado_877814" data-name="Trazado 877814" d="M1316,42.705a18.617,18.617,0,0,0,4.873,1.832c-.006,5.368-1.791,11.789-5.652,15.653a15.82,15.82,0,0,1-2.761,2.129c.3.058.372.032.568.272,3.641-2.118,5.893-6.074,7.127-9.988l.1-.35a26.675,26.675,0,0,0,1.142-8.12,40.86,40.86,0,0,1-5.058-1.8c-.181.136-.255.171-.343.376" transform="translate(-1312.458 -42.329)" fill="none"/>
    </clipPath>
    <linearGradient id="linear-gradient-2" x1="-4.295" y1="9.377" x2="-4.291" y2="9.377" gradientUnits="objectBoundingBox">
      <stop offset="0"/>
      <stop offset="1" stop-color="#0b091b"/>
    </linearGradient>
  </defs>
  <g id="Grupo_1102134" data-name="Grupo 1102134" transform="translate(-179.711 -1532)">
    <g id="Grupo_1102063" data-name="Grupo 1102063">
      <rect id="Rectángulo_403318" data-name="Rectángulo 403318" width="190" height="117" rx="20" transform="translate(179.711 1546)" fill="#0d4ab5"/>
      <g id="Grupo_1102062" data-name="Grupo 1102062" transform="translate(187.095 1532.005)">
        <g id="Grupo_1102053" data-name="Grupo 1102053" transform="translate(0 -0.005)">
          <g id="Grupo_1102052" data-name="Grupo 1102052" transform="translate(0 0)" clip-path="url(#clip-path)">
            <path id="Trazado_877798" data-name="Trazado 877798" d="M1672.226,268.6c-.206-.035-.118.008-.267-.119l.053-.127.293-.1a39.882,39.882,0,0,1,8.593,2.8,49.78,49.78,0,0,1,5.613,2.887,46.761,46.761,0,0,1,4.554,3.053,43.673,43.673,0,0,1,8.3,8.387,19.649,19.649,0,0,1,2.7,3.972l-.12.022c-.154-.182-.284-.567-.468-.669l-.026-.116-.076.021-.015-.062c.011.32.429.582.281.828,0,.006-.011.009-.016.014a16.449,16.449,0,0,1-1.033-1.584c-.569-.843-1.186-1.653-1.8-2.467a49.943,49.943,0,0,0-5.33-5.745c-.781-.721-1.766-1.372-2.475-2.137-1.629-1.214-3.277-2.312-5.015-3.362-1.761-.975-3.526-1.919-5.371-2.727a49.107,49.107,0,0,0-8.382-2.771" transform="translate(-1544.8 -247.851)" fill="#7c7bb9"/>
            <path id="Trazado_877799" data-name="Trazado 877799" d="M2058.847,535.995c.005,0,.012-.008.016-.014.148-.246-.27-.508-.281-.828l.015.062.076-.021.026.116c.184.1.313.488.468.669l.121-.021a18.409,18.409,0,0,1,1.858,3.261,42.537,42.537,0,0,1,4.637,20.905,53.2,53.2,0,0,1-.4,5.5q-.2,1.447-.515,2.874t-.734,2.827q-.421,1.4-.948,2.762t-1.157,2.681a19.116,19.116,0,0,1-1.276,2.482l-.251-.109c.741-1.532,1.506-3.059,2.132-4.643a41.375,41.375,0,0,0,2.579-10.739q.162-1.823.2-3.653.011-.64,0-1.281t-.033-1.281q-.026-.64-.07-1.279t-.105-1.277q-.062-.637-.142-1.273t-.179-1.269q-.1-.633-.215-1.263t-.251-1.256q-.134-.626-.287-1.248t-.323-1.24q-.17-.618-.357-1.23t-.393-1.219q-.205-.607-.427-1.207t-.462-1.2q-.24-.594-.5-1.181t-.529-1.167c-.686-1.45-1.531-2.831-2.291-4.244" transform="translate(-1902.018 -494.452)" fill="#7979c7"/>
            <path id="Trazado_877800" data-name="Trazado 877800" d="M1388.393,936.1l.048,0c.173.353.05,4.705.05,5.5-1.8-.077-3.613-.009-5.412.013l-.146-.055c-.3-.646-.114-4.488-.11-5.43q2.786.011,5.57-.02" transform="translate(-1277.598 -864.906)" fill="#fdb903"/>
          </g>
        </g>
        <g id="Grupo_1102055" data-name="Grupo 1102055" transform="translate(93.083 130.19)">
          <g id="Grupo_1102054" data-name="Grupo 1102054" clip-path="url(#clip-path-2)">
            <rect id="Rectángulo_403335" data-name="Rectángulo 403335" width="3.062" height="82.143" transform="translate(-0.024 0.89) rotate(-88.485)" fill="url(#linear-gradient)"/>
          </g>
        </g>
        <g id="Grupo_1102057" data-name="Grupo 1102057" transform="translate(0 -0.005)">
          <g id="Grupo_1102056" data-name="Grupo 1102056" transform="translate(0 0)" clip-path="url(#clip-path)">
            <path id="Trazado_877802" data-name="Trazado 877802" d="M97.872,1712.836c.65.422,23.394.035,26.828.237a16.8,16.8,0,0,1,2.171-.045l4.07-.01c5.189-.024,10.39.028,15.576-.093l48.2-.012,12.967.04,4.718-.035a20.692,20.692,0,0,1,2.377.015c-.662.385-12.051.168-13.757.184-1.063.01-2.082.263-3.14.281q-9.445.219-18.892.1c-.829,0-7.668-.12-7.97.081l-49.007-.187c-3.91.091-7.832.035-11.744.038l-17.186.044c-1.123,0-7.813.131-8.311-.016a.7.7,0,0,1-.419-.375l.028-.1a1.064,1.064,0,0,1,.607-.165c1.122-.077,2.341.031,3.472.03q4.7.024,9.408-.011" transform="translate(-77.94 -1582.524)" fill="#7979c7"/>
            <path id="Trazado_877803" data-name="Trazado 877803" d="M1491.788,840.944a2.156,2.156,0,0,1,.325,0c.034.053.091.1.1.16a31.821,31.821,0,0,1-.014,3.317l.009,9.17c-1.708-.04-3.422-.007-5.131-.006l-.161-.011a.616.616,0,0,1-.1-.112c-.028-.052-.106-11.256-.157-12.467q2.566-.01,5.131-.054" transform="translate(-1373.591 -776.981)" fill="#fdb903"/>
            <path id="Trazado_877804" data-name="Trazado 877804" d="M982.035,172.726l.1-.35c2.845,0,5.725-.094,8.566.021,3.66-.082,7.331-.016,10.992-.017.39.757-.2,6.687.144,7.163.041.055.123.061.184.092l-.293.1-.053.127c.149.127.062.084.267.12a.742.742,0,0,0-.165.572c-.1,2.54.026,5.137.024,7.684l-.02,15.88-27.7-.007.022,12.108c0,1.942.052,3.9-.019,5.841.078,4.77-.009,9.543.026,14.314l-.433.009a22.4,22.4,0,0,0,.025-3.264l-.044-6.479.012-22.53h-19.8l-4.756.021a12.636,12.636,0,0,1-2.491,0,1.172,1.172,0,0,1-.109-.762q.121-15.5.024-31c6.029.12,12.068.012,18.1.073l.107.3-11.38.006c-2.126,0-4.275-.064-6.4.044l-.01,19.489-.017,6.181c-.007,1.061.051,2.179-.056,3.232q.054,1.025.06,2.052c2.067.012,4.153-.049,6.218.028,2.51-.107,5.059-.026,7.573-.033q7.061-.05,14.122-.012l26.5-.05c.085-4.573,0-9.158-.012-13.732q-.027-8.6.068-17.2-1.256-.029-2.513-.029c-1.776.125-3.628.029-5.415.028Z" transform="translate(-874.523 -159.233)" fill="#7979c7"/>
            <path id="Trazado_877805" data-name="Trazado 877805" d="M1592.521,765.517c1.64-.038,3.283,0,4.923.013q-.045,9.171.079,18.342l-.856-.024c-1.69-.042-3.389.017-5.079.042.094-6.111.033-12.232.039-18.345Z" transform="translate(-1470.541 -707.28)" fill="#fdb903"/>
            <path id="Trazado_877806" data-name="Trazado 877806" d="M1700.566,662.627q2.657-.1,5.313.023l.059,14.1c0,4.019-.073,8.031.025,12.05q-2.69-.01-5.38.023c.1-8.734-.111-17.468-.017-26.2" transform="translate(-1571.208 -612.188)" fill="#fdb903"/>
            <path id="Trazado_877807" data-name="Trazado 877807" d="M1303.661,1012.389c13.4-.253,26.81-.018,40.211-.156q-.034,1.872-.04,3.744c-7.39-.09-14.779,0-22.169-.03l-10.675-.006c-2.594,0-5.2-.057-7.793.052,0-1.185-.06-2.417.033-3.6Z" transform="translate(-1204.066 -935.248)" fill="#072c6c"/>
            <path id="Trazado_877808" data-name="Trazado 877808" d="M1860.1,1105.064c.05-3.992-.365-8.247,1.97-11.728a10.954,10.954,0,0,1,6.965-4.531,10.319,10.319,0,0,1,8.074,1.687l.252.109a10.82,10.82,0,0,1,4.2,6.144c.574,2.255.41,5.972.348,8.336l-3.852-.011q-.028-1.963-.014-3.927c0-2.57-.152-4.613-2.065-6.516a6.883,6.883,0,0,0-4.878-2.054q-.186,0-.372.013t-.371.032q-.185.021-.369.05t-.366.068q-.182.039-.362.086t-.358.1q-.177.057-.352.122t-.345.139q-.171.074-.338.156t-.33.173q-.163.09-.321.189t-.311.2q-.153.106-.3.22t-.289.235q-.142.121-.277.249t-.265.262c-1.818,1.882-1.841,4.012-1.825,6.48l.031,3.711Z" transform="translate(-1718.634 -1005.806)" fill="#fdb903"/>
            <path id="Trazado_877809" data-name="Trazado 877809" d="M1910.716,1153.341l-.031-3.71c-.015-2.469.007-4.6,1.825-6.48q.129-.134.265-.262t.278-.248q.142-.121.289-.235t.3-.22q.153-.106.311-.2t.321-.189q.163-.091.33-.173t.338-.156q.171-.074.346-.139t.352-.122q.178-.057.358-.1t.362-.086q.182-.039.366-.068t.369-.05q.185-.02.371-.032t.372-.013a6.883,6.883,0,0,1,4.878,2.054c1.913,1.9,2.062,3.947,2.064,6.516q-.013,1.964.014,3.927Z" transform="translate(-1765.368 -1054.08)" fill="#0d4ab5"/>
            <path id="Trazado_877810" data-name="Trazado 877810" d="M1828.393,680.571a5.49,5.49,0,0,1,.747,1.209l2.129-.048a7.053,7.053,0,0,0,.588-1.2c.695.221,1.406.378,2.116.543a15.956,15.956,0,0,0-.126,1.839,5.3,5.3,0,0,1,1.572,1.057c.561-.233,1.106-.552,1.648-.831.553.565,1.066,1.173,1.589,1.765a9.326,9.326,0,0,0-1.1,1.282c.234.758.575,1.5.877,2.23a13.563,13.563,0,0,0,1.406.266c0,.827-.013,1.647-.058,2.473-.45.059-.892.168-1.334.268a13.265,13.265,0,0,1-.934,2.444,13.173,13.173,0,0,0,1.023,1.21,6.718,6.718,0,0,1-1.672,1.481c-.455-.157-.918-.3-1.377-.441a16.671,16.671,0,0,0-1.427.9c.085.568.217,1.134.331,1.7l-2.22.713a11.231,11.231,0,0,1-.256-1.4c-.9,0-1.793-.032-2.689-.057-.15.544-.313,1.075-.5,1.607a10.838,10.838,0,0,0-2.112-.675,8.709,8.709,0,0,0,.072-1.712c-.1-.368-1.531-.824-1.919-1.007-.473.278-.923.587-1.376.9a14.205,14.205,0,0,1-1.663-2.092c.4-.388.765-.8,1.129-1.219-.257-.654-.494-1.3-.7-1.976a12.482,12.482,0,0,1-1.673-.229,22.7,22.7,0,0,0-.128-2.331c.536-.072,1.076-.118,1.615-.169q.279-1.182.579-2.358c-.4-.379-.875-.712-1.312-1.054.533-.806,1.253-1.451,1.75-2.292.512.281,1.033.543,1.557.8a9.244,9.244,0,0,1,1.948-1.541l-.329-1.489a18.478,18.478,0,0,1,2.228-.567" transform="translate(-1681.911 -628.779)" fill="#74abf9"/>
            <path id="Trazado_877811" data-name="Trazado 877811" d="M1898.95,751.1a5.719,5.719,0,0,1-1.266-.922,3.865,3.865,0,0,1-1.16-2.914,4.123,4.123,0,0,1,1.243-3.006,4.723,4.723,0,0,1,3.3-1.2,4.225,4.225,0,0,1,2.951,1.493,4.294,4.294,0,0,1,1.1,3.137,4.635,4.635,0,0,1-1.838,3.191,5.178,5.178,0,0,1-4.329.22" transform="translate(-1752.286 -686.542)" fill="#0c0a0e"/>
            <path id="Trazado_877812" data-name="Trazado 877812" d="M1940.1,782.526a2.4,2.4,0,0,1,.544.077,1.008,1.008,0,0,1,.588.56.957.957,0,0,1-.013.811,1.044,1.044,0,0,1-.747.564,3.038,3.038,0,0,1-.5-.058.865.865,0,0,1-.091-.028.888.888,0,0,1-.088-.037.93.93,0,0,1-.084-.046.893.893,0,0,1-.078-.055.867.867,0,0,1-.072-.062.879.879,0,0,1-.065-.07.881.881,0,0,1-.107-.158.9.9,0,0,1-.073-.7,1.3,1.3,0,0,1,.786-.8" transform="translate(-1791.782 -723.011)" fill="#fefefe"/>
            <path id="Trazado_877813" data-name="Trazado 877813" d="M1177.608,0a56.639,56.639,0,0,0,5.045,3.22,40.875,40.875,0,0,0,5.058,1.8,26.67,26.67,0,0,1-1.142,8.12l-.1.35c-1.233,3.913-3.486,7.87-7.127,9.988-.464.289-.958.527-1.446.773a6.707,6.707,0,0,1-.72-.346,16.9,16.9,0,0,1-7.994-10.4l-.107-.3a45.821,45.821,0,0,1-1.306-8.223c.908-.317,1.832-.556,2.729-.912A36.984,36.984,0,0,0,1177.608,0" transform="translate(-1078.952 0.005)" fill="#fdb903"/>
          </g>
        </g>
        <g id="Grupo_1102059" data-name="Grupo 1102059" transform="translate(99.818 3.215)">
          <g id="Grupo_1102058" data-name="Grupo 1102058" clip-path="url(#clip-path-4)">
            <rect id="Rectángulo_403337" data-name="Rectángulo 403337" width="21.751" height="13.263" transform="matrix(0.225, -0.974, 0.974, 0.225, -4.433, 19.239)" fill="url(#linear-gradient-2)"/>
          </g>
        </g>
        <g id="Grupo_1102061" data-name="Grupo 1102061" transform="translate(0 -0.005)">
          <g id="Grupo_1102064" data-name="Grupo 1102064" transform="translate(0 0)">
            <path id="Trazado_877815" data-name="Trazado 877815" d="M1177.608,0a56.639,56.639,0,0,0,5.045,3.22c-.181.136-.255.171-.343.376A38.244,38.244,0,0,1,1177.6.666a40.2,40.2,0,0,1-5.677,3.37c-1.15.533-2.331.947-3.51,1.409.224,5.646,1.657,11.8,5.948,15.8.689.642,2.755,2.377,3.679,2.319a1.933,1.933,0,0,0,.726-.356c.3.058.372.032.568.272-.464.289-.958.527-1.446.773a6.707,6.707,0,0,1-.72-.346,16.9,16.9,0,0,1-7.994-10.4l-.107-.3a45.821,45.821,0,0,1-1.306-8.223c.908-.317,1.832-.556,2.729-.912A36.984,36.984,0,0,0,1177.608,0" transform="translate(-1078.952 0.005)" fill="#010102"/>
            <path id="Trazado_877816" data-name="Trazado 877816" d="M1237.143,54.933c1.469.865,2.966,1.7,4.376,2.657a1,1,0,0,1,.8-.3,1.031,1.031,0,0,1,.713.416,1.1,1.1,0,0,1,.227.729.946.946,0,0,1-.488.7,1.144,1.144,0,0,1-.4.161c.091,3.984-.284,6.561-2.966,9.719-.608.716-1.407,1.28-1.958,2.039l-.049.07a17.291,17.291,0,0,1-3.737-4.463,10.5,10.5,0,0,1-1.1-8.182c.394-1.336,3.339-2.855,4.584-3.543" transform="translate(-1138.455 -50.755)" fill="#010102"/>
            <path id="Trazado_877817" data-name="Trazado 877817" d="M1265.983,86.157a1,1,0,0,1,.8-.3,1.03,1.03,0,0,1,.713.415,1.1,1.1,0,0,1,.227.729.946.946,0,0,1-.488.7,1.149,1.149,0,0,1-.4.161c-1.234.135-4.538,4.293-5.895,5.266a5.588,5.588,0,0,1-2.063-1.768,1.247,1.247,0,0,1-.194-1.041c.171-.16.2-.2.456-.192.629.027,1.211.743,1.616,1.156.972-.857,1.837-1.841,2.767-2.744a14.25,14.25,0,0,0,2.458-2.379" transform="translate(-1162.919 -79.322)" fill="#fefefe"/>
            <path id="Trazado_877818" data-name="Trazado 877818" d="M1245.562,1186.348c.435.235,3.045,4.732,3.478,5.429,2.239,3.6,4.349,7.267,6.542,10.893,2.386,3.944,4.84,7.829,7.164,11.812q1.075,1.84,2.255,3.615a20.42,20.42,0,0,1,1.5,2.4,1.063,1.063,0,0,1,.121.821,4.436,4.436,0,0,1-1.548.322c-1.98.129-4.032.013-6.018.015l-12.373-.007-14.323.014a47.289,47.289,0,0,1-6.231-.08c-.25-.05-.427-.093-.537-.349a.814.814,0,0,1-.048-.349,2.62,2.62,0,0,1,.322-1c1.377-2.706,3.039-5.3,4.577-7.916l8.949-15.038c1.434-2.4,2.819-4.8,4.213-7.221.648-1.124,1.344-2.214,1.955-3.36" transform="translate(-1132.337 -1096.121)" fill="#ffaf1a"/>
            <path id="Trazado_877819" data-name="Trazado 877819" d="M1477.132,1554.338a2.8,2.8,0,0,1,.712.033,1.55,1.55,0,0,1,.991.767,1.232,1.232,0,0,1,.091,1,1.652,1.652,0,0,1-.94.927,1.989,1.989,0,0,1-.661.024,1.4,1.4,0,0,1-.944-.592,1.371,1.371,0,0,1-.162-1.093,1.735,1.735,0,0,1,.913-1.062" transform="translate(-1363.902 -1436.118)" fill="#010102"/>
            <path id="Trazado_877820" data-name="Trazado 877820" d="M1467.626,1343.568q1.667-.052,3.335-.036a46.213,46.213,0,0,0-.6,5.506q-.325,4.154-.773,8.3a11.554,11.554,0,0,1-2.036,0c-.193-2.224-.311-4.455-.489-6.68-.188-2.354-.431-4.7-.571-7.061Z" transform="translate(-1354.959 -1241.347)" fill="#0c0a0e"/>
            <path id="Trazado_877821" data-name="Trazado 877821" d="M1790.53,1304.153l3.88,0,14.081,0,3.853.011c1.478-.014,4.1-.389,5.186.731a1.6,1.6,0,0,1,.462,1.046c.109,1.409.02,2.892.02,4.308l-.013,8.61.022,9.326c.007,1.581.073,3.182.009,4.761a2.433,2.433,0,0,1-.865,1.931,2.63,2.63,0,0,1-.277.207,53.965,53.965,0,0,1-5.469.067l-9.936.024-9.618.009c-1.707,0-3.472.1-5.168-.047a3.392,3.392,0,0,1-1-.617,2.318,2.318,0,0,1-.768-1.927c-.036-1.653.014-3.311,0-4.965q-.07-6.527-.063-13.054,0-2.648-.02-5.3a25.8,25.8,0,0,1,.014-3.128,2.2,2.2,0,0,1,.625-1.345c1.074-1.049,3.638-.672,5.044-.658" transform="translate(-1649.062 -1204.895)" fill="#010102"/>
            <path id="Trazado_877822" data-name="Trazado 877822" d="M1968.653,1414.029a4.406,4.406,0,0,1,1.043.021,3.027,3.027,0,0,1,2.179,1.622,3.052,3.052,0,0,1,.22.575q.04.149.066.3t.035.306a3.059,3.059,0,0,1-.022.615,3.073,3.073,0,0,1-.057.3,2.959,2.959,0,0,1-1.64,1.908c.117,2.249.409,4.5.651,6.739l-1.773.01-2.383-.054c.165-2.236.605-4.444.784-6.683q-.169-.09-.336-.184a2.892,2.892,0,0,1-1.392-1.857,2.813,2.813,0,0,1-.073-.852q.01-.143.034-.284t.063-.279a2.813,2.813,0,0,1,.351-.78,3.339,3.339,0,0,1,2.249-1.425" transform="translate(-1816.431 -1306.467)" fill="#fdb903"/>
            <path id="Trazado_877823" data-name="Trazado 877823" d="M986.643,177.36l11.458.024c1.787,0,3.639.1,5.415-.028q1.257,0,2.513.029-.1,8.6-.068,17.2c.013,4.574.1,9.158.012,13.732l-26.5.05q-7.061-.038-14.122.012c-2.514.008-5.063-.074-7.573.033-2.064-.077-4.151-.016-6.218-.028q-.006-1.027-.06-2.052c.107-1.053.049-2.171.056-3.232l.017-6.181.01-19.489c2.123-.108,4.271-.042,6.4-.044l11.38-.006a16.9,16.9,0,0,0,7.994,10.4,6.717,6.717,0,0,0,.72.346c.488-.246.982-.484,1.446-.773,3.641-2.118,5.893-6.074,7.127-9.988" transform="translate(-879.13 -163.867)" fill="#fefefe"/>
            <path id="Trazado_877824" data-name="Trazado 877824" d="M1028.392,223.768c.875.014,4.941-.156,5.386.152l0,.306c-.744,0-4.991.151-5.412-.129Z" transform="translate(-950.158 -206.718)" fill="#7c7bb9"/>
            <path id="Trazado_877825" data-name="Trazado 877825" d="M1494.55,223.26c2.39-.034,5.005-.164,7.379.02l.123.3a72.1,72.1,0,0,1-7.406-.036Z" transform="translate(-1380.883 -206.209)" fill="#5d37b2"/>
            <path id="Trazado_877826" data-name="Trazado 877826" d="M1037.453,405.586l8.628.018-.015,3.009-8.559.014q.021-1.521-.054-3.041" transform="translate(-958.55 -374.739)" fill="#74abf9"/>
            <path id="Trazado_877827" data-name="Trazado 877827" d="M1164.5,404.026c3.6.06,7.2.02,10.8.017a12.928,12.928,0,0,1-.106,3.136l-10.752.028c.011-1.06.009-2.122.058-3.182" transform="translate(-1075.878 -373.298)" fill="#74abf9"/>
            <path id="Trazado_877828" data-name="Trazado 877828" d="M1038.87,461.15c2.544-.008,5.089.057,7.634.053,1.315,0,2.654.025,3.964-.1q-.014,1.593-.009,3.187c-1.347.081-2.73.022-4.08.02l-7.5-.013Z" transform="translate(-959.86 -426.035)" fill="#01d159"/>
            <path id="Trazado_877829" data-name="Trazado 877829" d="M1196.025,461.326c4.113.154,8.263.006,12.381.027.048,1.051.03,2.1.011,3.148q-3.877-.043-7.754-.029c-1.557,0-3.137-.072-4.691.035.037-1.059.032-2.122.053-3.181" transform="translate(-1105.013 -426.24)" fill="#fdb903"/>
            <path id="Trazado_877830" data-name="Trazado 877830" d="M1037.887,294.842h14.632l0,2.916c-4.861.141-9.763.009-14.629.016Z" transform="translate(-958.951 -272.417)" fill="#74abf9"/>
            <path id="Trazado_877831" data-name="Trazado 877831" d="M1364.882,461.572c2.278.071,4.574,0,6.853-.014h9.2v3.086l-16.053.006Z" transform="translate(-1261.074 -426.452)" fill="#74abf9"/>
            <path id="Trazado_877832" data-name="Trazado 877832" d="M1039.97,348.476l27.1.038,0,2.913H1064.2q-13.6.124-27.194.068v-3Z" transform="translate(-958.14 -321.973)" fill="#74abf9"/>
            <path id="Trazado_877833" data-name="Trazado 877833" d="M37.761,309.579a9.421,9.421,0,0,1,3.435-6.614,9.261,9.261,0,0,1,6.825-1.678,8.238,8.238,0,0,1,4.578,2.129c.458.479.806,1.045,1.239,1.543.365.419.791.791,1.127,1.234a6.906,6.906,0,0,1,1.147,4.863,23.573,23.573,0,0,1-.957,2.491c-.2.768-.213,1.571-.342,2.351-.465,2.826-1.426,5.813-3.859,7.554a6.321,6.321,0,0,1-1.069.6c-.041,1.192-.1,2.388-.094,3.581l.862.085a40.11,40.11,0,0,1,9.223,2.735,38.3,38.3,0,0,0,3.821,1.886l.381.282a78.892,78.892,0,0,1,10.173,9.29q1.685,1.924,3.3,3.9a29.472,29.472,0,0,0,2.168,2.628c1.934.033,3.968-.091,5.889.091,2.026,0,4.076-.053,6.1.03a24.823,24.823,0,0,1,2.851,3.637c-1.033,3.845-2.674,7.65-3.97,11.425.72-.018,1.843-.2,2.414.335a.6.6,0,0,1,.23.561,15.169,15.169,0,0,1-.48,2.637q-.483,2.336-1.014,4.661a16.939,16.939,0,0,1-.394,1.838,1.509,1.509,0,0,1-.447.7c-.643.477-4.894.275-5.892.273-1.233,2.927-2.187,6.04-3.245,9.042-.341.967-.611,2-1.023,2.932-.1.216-.293.667-.516.767-.592.265-12.068.2-13.978.223q.562,6.072,1.268,12.129c.324,2.978.573,6,1.061,8.959-5.187.121-10.387.069-15.576.093l-4.07.01a16.8,16.8,0,0,0-2.171.045c-3.434-.2-26.178.185-26.828-.237.6-2.384.932-4.866,1.416-7.279l3.228-15.734C18.443,383.528,8.813,380.357,4.054,376a11.293,11.293,0,0,1-4.047-7.753,11.719,11.719,0,0,1,.579-4.075,45.082,45.082,0,0,1,2.9-6.359,110.074,110.074,0,0,1,7.154-12.686q1.242-1.784,2.6-3.48t2.834-3.294A34.746,34.746,0,0,1,35.2,327.943a44.135,44.135,0,0,1,5.7-.454l.027-3.313a9.359,9.359,0,0,1-7.148-.9q-.162-.1-.318-.2t-.308-.214q-.151-.11-.3-.228t-.286-.243q-.14-.125-.273-.257t-.26-.27q-.127-.138-.246-.283t-.232-.295q-.112-.15-.217-.306t-.2-.316q-.1-.16-.186-.326T30.778,320q-.081-.169-.153-.342t-.136-.35q-.063-.176-.118-.356t-.1-.361q-.044-.175-.079-.352t-.061-.356q-.026-.179-.043-.358t-.025-.36q-.008-.18-.007-.361t.011-.361q.01-.18.029-.36t.047-.358q.028-.178.065-.355t.083-.351q.046-.175.1-.347t.118-.341q.063-.169.134-.335t.151-.328q.08-.162.167-.32t.183-.311a6.963,6.963,0,0,1,4.5-3.242,10.283,10.283,0,0,1,2.115-.221" transform="translate(0.001 -278.286)" fill="#010102"/>
            <path id="Trazado_877834" data-name="Trazado 877834" d="M577.285,1357.012l.007.006c.053.289-.281.823-.407,1.107l-.845-.573-.639-.434Z" transform="translate(-531.638 -1253.805)" fill="#fefefe"/>
            <path id="Trazado_877835" data-name="Trazado 877835" d="M510.547,468.084a2.894,2.894,0,0,1,.668.039,1.02,1.02,0,0,1,.386.372,3.765,3.765,0,0,1,.452,2.269,3.079,3.079,0,0,1-1.539-1.261,1.788,1.788,0,0,1,.034-1.419" transform="translate(-471.563 -432.48)" fill="#fefefe"/>
            <path id="Trazado_877836" data-name="Trazado 877836" d="M521.831,1361.478a.844.844,0,0,1,.067.143,8.092,8.092,0,0,1-.227,2.673,3.309,3.309,0,0,1-1-.778,2.853,2.853,0,0,1-.741-.855.747.747,0,0,1,.048-.692,3.021,3.021,0,0,1,1.852-.492" transform="translate(-480.328 -1257.932)" fill="#fefefe"/>
            <path id="Trazado_877837" data-name="Trazado 877837" d="M1102.058,1127.738c1.547-.054,3.107-.024,4.656-.028a29.358,29.358,0,0,1,2.976.02c.274.028.356,0,.53.205a3.528,3.528,0,0,1-.344,1.811c-.089.153-.111.118-.271.156q-4.18.026-8.361,0a7.314,7.314,0,0,1,.442-1.884c.106-.211.16-.206.372-.282" transform="translate(-1017.49 -1041.914)" fill="#fefefe"/>
            <path id="Trazado_877838" data-name="Trazado 877838" d="M1093.824,1162.034l8.377.032a8.47,8.47,0,0,1-.416,1.989c-.081.17-.1.137-.262.2-2.839.006-5.688.063-8.526-.015a7.959,7.959,0,0,1,.6-2.148Z" transform="translate(-1009.87 -1073.656)" fill="#fefefe"/>
            <path id="Trazado_877839" data-name="Trazado 877839" d="M1078.211,1231l8.742.016a4.926,4.926,0,0,1-.494,2.073c-.044.012-.087.025-.13.035-.711.175-8.115.208-8.556-.069a6.579,6.579,0,0,1,.438-2.055" transform="translate(-995.798 -1137.378)" fill="#fefefe"/>
            <path id="Trazado_877840" data-name="Trazado 877840" d="M1085.484,1196.053c2.911-.064,5.836,0,8.748,0-.114.549-.183,1.817-.583,2.21q-4.348,0-8.7.043c.154-.759.328-1.506.531-2.254" transform="translate(-1002.438 -1105.061)" fill="#fefefe"/>
            <path id="Trazado_877841" data-name="Trazado 877841" d="M453.976,1373.355c.209.238.334.534.541.779a11.067,11.067,0,0,0,1.975,1.745c-1.6,1.4-3.455,2.42-5.086,3.768l-.592.528c-.373-1.194-.89-2.339-1.3-3.522,1.4-1.186,2.992-2.194,4.461-3.3" transform="translate(-415.327 -1268.905)" fill="#01d159"/>
            <path id="Trazado_877842" data-name="Trazado 877842" d="M221.645,1020.892a23.609,23.609,0,0,1,.06,4.133c-.009,2.948.032,5.9-.082,8.849-1.414-.607-2.862-1.124-4.312-1.635l-1.581-.642c.746-1.078,1.382-2.267,2.029-3.409,1.364-2.407,2.632-4.832,3.887-7.3" transform="translate(-199.323 -943.249)" fill="#295eb9"/>
            <path id="Trazado_877843" data-name="Trazado 877843" d="M543.381,545.893a7.27,7.27,0,0,1,.78,1.259,7.3,7.3,0,0,0,1.708,1.871,6.9,6.9,0,0,0,5.48,1.3c-.044,1.486.181,4.441-.3,5.75a2.885,2.885,0,0,1-.642.925,4.39,4.39,0,0,1-2.858.982,4.846,4.846,0,0,1-3.564-1.183,2.321,2.321,0,0,1-.626-1.108,16.98,16.98,0,0,1-.034-3.208c.013-2.193-.021-4.394.061-6.585" transform="translate(-501.938 -504.375)" fill="#fefefe"/>
            <path id="Trazado_877844" data-name="Trazado 877844" d="M795.928,928.668c7.385-.026,14.787-.087,22.169.049a24.607,24.607,0,0,1,2.041,2.8q-4.744-.089-9.488-.066c-7.515.018-15.047.08-22.56-.075-.616-.874-1.187-1.772-1.758-2.675Z" transform="translate(-726.528 -858.005)" fill="#e7d8b8"/>
            <path id="Trazado_877845" data-name="Trazado 877845" d="M842.561,714.457a78.878,78.878,0,0,1,10.173,9.29q1.685,1.924,3.3,3.9a29.451,29.451,0,0,0,2.168,2.627c1.934.034,3.968-.091,5.889.091-1.682.1-3.395,0-5.081.011q-6.322.071-12.645.009c-.291-1.133-.489-2.3-.741-3.445-.695-3.158-1.366-6.341-2.157-9.476-.257-1.018-.622-2-.91-3.012" transform="translate(-778.481 -660.119)" fill="#01d159"/>
            <path id="Trazado_877846" data-name="Trazado 877846" d="M570.314,929.007a13.145,13.145,0,0,1,1.818,2.757,35.619,35.619,0,0,0-1.652,3.862q-1.6,3.847-3.081,7.744c-2.089,5.365-4.347,10.666-6.445,16.029-.583,1.49-2.54,6.909-3.3,7.886-.115.147-.107.11-.276.127a8.154,8.154,0,0,1-2.269-1.665,19.8,19.8,0,0,1-1.8-1.52,8.788,8.788,0,0,1,.012-1.944.781.781,0,0,1,.4-.6c.776,0,2.185,1.309,2.882,1.754a19.494,19.494,0,0,0,1.517-3.417l2.017-5.034,6.79-17.277c1.127-2.9,2.207-5.827,3.395-8.7" transform="translate(-511.177 -858.352)" fill="#fefefe"/>
            <path id="Trazado_877847" data-name="Trazado 877847" d="M450.136,1171.344a1.072,1.072,0,0,1,.616.183c.728.487.9,1.7,1.062,2.492a3.8,3.8,0,0,0-.4.029,1.448,1.448,0,0,0-1.013.419c.436.384,5.376-.2,6.614.226.34.369.187,1.479.173,1.993-.868.01-4.294-.244-4.869.184l.074.135c.846.417,3.773.182,4.825.187l-.022,2.246c-1.305.02-3.052-.119-4.295.034a.55.55,0,0,0-.465.224l.118.183a35.965,35.965,0,0,0,4.622.1l0,2.2-1.2.027a19.016,19.016,0,0,0-3.477.093l-.066.169.1.155c.734.308,3.642.063,4.62.062,0,.562.116,1.812-.236,2.255a28.523,28.523,0,0,1-3.06.3c-2.852.274-5.424.725-8.211-.232l-.038-7.512c.638-.361,1.34-.6,1.944-1.023,1.325-.926,1.626-3.545,2.531-5.042l.05-.08" transform="translate(-411.72 -1082.258)" fill="#fefefe"/>
            <path id="Trazado_877848" data-name="Trazado 877848" d="M532.873,411.455c.193.176.5,2.256.779,2.8.22.428.545.972,1.042,1.109.048.013.1.024.144.035a.434.434,0,0,1,.048.231,12.177,12.177,0,0,1-.246,1.9c-.391,2.407-1.069,4.984-2.87,6.745a5.016,5.016,0,0,1-3.631,1.518,6.656,6.656,0,0,1-4.538-2.224c-1.585-1.814-2.038-3.821-2.46-6.123a5.478,5.478,0,0,0-.324-1.48c-.22-.389-.729-.5-1-.848a3.36,3.36,0,0,1,.972-.534,6.185,6.185,0,0,0,1.707.44c3.409.3,7.79-1.4,10.377-3.564" transform="translate(-480.284 -380.162)" fill="#fefefe"/>
            <path id="Trazado_877849" data-name="Trazado 877849" d="M666.037,650a40.109,40.109,0,0,1,9.223,2.735,38.288,38.288,0,0,0,3.821,1.886c0,1.244,1.273,5.4,1.625,6.823q1.122,4.681,2.075,9.4a58.61,58.61,0,0,1-8.341-.222c-.243.1-.375.429-.476.664-.519,1.2-.87,2.49-1.349,3.712q-2.191,5.613-4.491,11.182c-.7,1.735-1.293,3.514-2.046,5.225-.082-4.375.047-8.756.037-13.132Z" transform="translate(-615.382 -600.562)" fill="#01d159"/>
            <path id="Trazado_877850" data-name="Trazado 877850" d="M534.1,654.163l.034.124a3.588,3.588,0,0,0,1.764,2.241,6.136,6.136,0,0,0,4.44.42,3.772,3.772,0,0,0,2.371-1.84,4.339,4.339,0,0,0,.394-2.005l.083,0a.6.6,0,0,0,.244-.053l-.26-.224.024-.088.192.038c.272.45.2,8.7.2,9.758l-.01,23.122-.011,6.116a16.132,16.132,0,0,1-.119,3.3,30.652,30.652,0,0,1-1.609,4.239c-.859,2.163-1.651,4.474-2.678,6.556.049-1.767.337-9.261-.053-10.572a1.722,1.722,0,0,0-1.294-.44,23.225,23.225,0,0,1-3.94-.074,20.225,20.225,0,0,0,.06-3.244q.044-4.112.039-8.224l.011-28.815.13-.06-.181-.078.066-.038c.021-.124-.009-.07.1-.156" transform="translate(-493.272 -603.091)" fill="#fefefe"/>
            <path id="Trazado_877851" data-name="Trazado 877851" d="M632.472,970.854a15.549,15.549,0,0,0,2.824.042l5.768-.01c8.042,0,16.123-.144,24.162.091-.521,2.01-1.292,3.981-1.984,5.939a53.081,53.081,0,0,1-2.045,5.416c-1.152.018-5.212-.241-5.988.222a63.839,63.839,0,0,0-2.473,10.014c-.005.187-.027.222.11.363.568.583,2.1.344,2.871.368-.7,1.641-1.213,3.373-1.794,5.058-.661,1.917-1.373,3.813-2.021,5.735q-.276.837-.582,1.662c-1.517.146-3.1.052-4.626.054l-7.524.053c-6.973.046-13.961.249-20.933.174.5-.979.9-2.03,1.318-3.047.84-2.033,1.641-4.073,2.44-6.123,1.888-4.845,3.932-9.627,5.824-14.471,1.019-2.608,2.021-5.22,3.074-7.815.505-1.244.972-2.53,1.58-3.728" transform="translate(-571.217 -897.006)" fill="#fefefe"/>
            <path id="Trazado_877852" data-name="Trazado 877852" d="M883.633,1058.475c.53-2.019,1.392-4.016,2.111-5.979.326-.89.571-1.894.984-2.739a3.409,3.409,0,0,1,.826-1.095c.041-.034.082-.068.124-.1s.085-.063.129-.094.089-.059.134-.087.091-.055.138-.08.094-.05.142-.073.1-.045.146-.066.1-.04.149-.058.1-.035.151-.051.1-.03.154-.043.1-.025.156-.035.1-.02.157-.027.105-.014.159-.02.106-.009.159-.011.106,0,.16,0,.106,0,.16,0,.106.007.159.013a3.121,3.121,0,0,1,2.14,1.153,2.885,2.885,0,0,1,.237.352,2.91,2.91,0,0,1,.376,1.206c.144,1.682-1,5.538-1.224,7.6l-.1.2a62.448,62.448,0,0,1-7.728.037" transform="translate(-816.429 -968.215)" fill="#010102"/>
            <path id="Trazado_877853" data-name="Trazado 877853" d="M834.623,1183.931a62.424,62.424,0,0,0,7.728-.037l.1-.2.115.19a8.914,8.914,0,0,0,1.711.059c-.559,2.152-.964,4.351-1.428,6.525-.314,1.475-.719,2.929-.94,4.422-3.772.06-7.547-.012-11.32,0,.717-3.642,1.56-7.3,2.049-10.979.653,0,1.336-.042,1.985.016" transform="translate(-767.419 -1093.671)" fill="#01d159"/>
            <path id="Trazado_877854" data-name="Trazado 877854" d="M24.576,705.034c-6.132-2.057-15.762-5.228-20.521-9.585A11.292,11.292,0,0,1,.009,687.7a11.717,11.717,0,0,1,.579-4.075,45.09,45.09,0,0,1,2.9-6.359,110.061,110.061,0,0,1,7.154-12.686q1.242-1.784,2.6-3.48t2.834-3.294A34.745,34.745,0,0,1,35.2,647.392a44.118,44.118,0,0,1,5.7-.454,8.063,8.063,0,0,1-.067,1.869c-.109.086-.08.032-.1.156l-.066.038.181.078-.13.06L40.7,677.954q.006,4.112-.039,8.224a20.222,20.222,0,0,1-.06,3.244c-.312-.872-.813-2.642-1.75-3.007a.613.613,0,0,0-.566.058c-.486.322-1.974,4.167-2.417,5-.806.422-1.662.683-2.491,1.048-3.493-1.381-7.068-2.532-10.53-4.006.124-3.378.049-6.776.033-10.156L22.89,666.3l-.005-6.32A14.688,14.688,0,0,0,22.8,656.8l-.112-.1a.572.572,0,0,0-.285.449,39.17,39.17,0,0,0-.1,5.591l.039,7.235a25.647,25.647,0,0,1-.094,4.244c-.277,1.679-5.1,10.149-6.33,11.785-3.235-1.3-8.527-3.107-11.188-5.1-.224.066-.181.076-.291.265.791,1.436,13.678,6.029,15.74,6.809s4.078,1.668,6.143,2.442c2.338.876,4.753,1.644,7.044,2.634-.2,3.868.509,10.71-.6,14a20.959,20.959,0,0,1-6.473-1.41,9.1,9.1,0,0,0-1.719-.6" transform="translate(0 -597.735)" fill="#01d159"/>
          </g>
        </g>
      </g>
    </g>
  </g>
</svg>
