<svg xmlns="http://www.w3.org/2000/svg" width="420" height="264.407" viewBox="0 0 420 264.407">
  <g id="Grupo_1102135" data-name="Grupo 1102135" transform="translate(-180.191 -2727.089)">
    <rect id="Rectángulo_402012" data-name="Rectángulo 402012" width="420" height="264.407" transform="translate(180.191 2727.089)" fill="#cbe1f6"/>
    <g id="_250424825_55fee703-7918-4f65-b780-335d3f01ce98" data-name="250424825_55fee703-7918-4f65-b780-335d3f01ce98" transform="translate(-5.07 2514.509)">
      <g id="Grupo_1100308" data-name="Grupo 1100308" transform="translate(194.742 233.079)">
        <g id="Grupo_1100244" data-name="Grupo 1100244" transform="translate(0 15.968)">
          <path id="Trazado_874634" data-name="Trazado 874634" d="M2923.895,933.62q-.278.417-.572.819v-.819Z" transform="translate(-2525.894 -847.551)" fill="#dceafb"/>
        </g>
        <g id="Grupo_1100245" data-name="Grupo 1100245" transform="translate(25.185 222.269)">
          <path id="Trazado_874635" data-name="Trazado 874635" d="M717.753,1760.227H368.224a.57.57,0,1,1,0-1.141H717.753a.57.57,0,1,1,0,1.141Z" transform="translate(-367.654 -1759.086)" fill="#1d3b77"/>
        </g>
        <g id="Grupo_1100307" data-name="Grupo 1100307" transform="translate(22.123 0)">
          <g id="Grupo_1100250" data-name="Grupo 1100250" transform="translate(268.066 131.174)">
            <path id="Trazado_874636" data-name="Trazado 874636" d="M2272.634,1195.253a7.228,7.228,0,0,0-12.519,0l-22.8,39.484a7.228,7.228,0,0,0,6.259,10.841h45.593a7.228,7.228,0,0,0,6.259-10.841Z" transform="translate(-2229.163 -1183.195)" fill="#19468e" opacity="0.1"/>
            <g id="Grupo_1100249" data-name="Grupo 1100249">
              <g id="Grupo_1100248" data-name="Grupo 1100248">
                <g id="Grupo_1100247" data-name="Grupo 1100247">
                  <path id="Trazado_874637" data-name="Trazado 874637" d="M2218.337,1134.93l-30.934,53.578a2.53,2.53,0,0,0,2.191,3.795h61.867a2.53,2.53,0,0,0,2.191-3.795l-30.933-53.578A2.529,2.529,0,0,0,2218.337,1134.93Z" transform="translate(-2187.061 -1133.665)" fill="#ffaf1a"/>
                  <path id="Trazado_874638" data-name="Trazado 874638" d="M2283.623,1226.7l-22.8-39.484a4.45,4.45,0,0,0-7.708,0l-22.8,39.484a4.45,4.45,0,0,0,3.854,6.675h45.592a4.45,4.45,0,0,0,3.854-6.675Zm-1.989,3.3a2.1,2.1,0,0,1-1.864,1.076h-45.592a2.151,2.151,0,0,1-1.863-3.227l22.8-39.484a2.152,2.152,0,0,1,3.727,0l22.8,39.484A2.1,2.1,0,0,1,2281.634,1230Z" transform="translate(-2223.506 -1177.515)" fill="#fff"/>
                  <g id="Grupo_1100246" data-name="Grupo 1100246" transform="translate(28.944 23.27)">
                    <path id="Trazado_874639" data-name="Trazado 874639" d="M2385.78,1315.41a4.15,4.15,0,0,1,8.261,0,4.143,4.143,0,0,1-8.261,0Zm.035-21.98h8.224l-1.383,16.194h-5.495Z" transform="translate(-2385.78 -1293.43)" fill="#fff"/>
                  </g>
                </g>
              </g>
            </g>
          </g>
          <g id="Grupo_1100255" data-name="Grupo 1100255" transform="translate(287.714 77.201)">
            <circle id="Elipse_11546" data-name="Elipse 11546" cx="21.994" cy="21.994" r="21.994" transform="translate(3.746 34.848) rotate(-45)" fill="#19468e" opacity="0.1"/>
            <g id="Grupo_1100254" data-name="Grupo 1100254" transform="translate(0 0)">
              <g id="Grupo_1100253" data-name="Grupo 1100253">
                <circle id="Elipse_11547" data-name="Elipse 11547" cx="21.994" cy="21.994" r="21.994" transform="translate(9.11 53.098) rotate(-90)" fill="#0d4ab5"/>
                <g id="Grupo_1100252" data-name="Grupo 1100252" transform="translate(17.171 20.412)">
                  <g id="Grupo_1100251" data-name="Grupo 1100251">
                    <path id="Trazado_874640" data-name="Trazado 874640" d="M2496.193,976.44a4.772,4.772,0,0,1,4.35,2.822l2.354-2.295a7.927,7.927,0,0,0-13.409,0l2.354,2.295A4.772,4.772,0,0,1,2496.193,976.44Z" transform="translate(-2482.257 -963.07)" fill="#fff"/>
                    <path id="Trazado_874641" data-name="Trazado 874641" d="M2475.821,942.255a9.548,9.548,0,0,1,7.883,4.164l2.3-2.237a12.709,12.709,0,0,0-20.356,0l2.295,2.237A9.549,9.549,0,0,1,2475.821,942.255Z" transform="translate(-2461.885 -933.865)" fill="#fff"/>
                    <path id="Trazado_874642" data-name="Trazado 874642" d="M2453.776,906.414a14.755,14.755,0,0,1,11.655,5.707l2.281-2.222a17.919,17.919,0,0,0-27.872,0l2.281,2.222A14.755,14.755,0,0,1,2453.776,906.414Z" transform="translate(-2439.84 -903.244)" fill="#fff"/>
                  </g>
                  <circle id="Elipse_11548" data-name="Elipse 11548" cx="2.594" cy="2.594" r="2.594" transform="translate(10.825 20.74) rotate(-76.714)" fill="#fff"/>
                </g>
              </g>
            </g>
          </g>
          <g id="Grupo_1100257" data-name="Grupo 1100257" transform="translate(171.19 76.638)">
            <path id="Trazado_874643" data-name="Trazado 874643" d="M1615.175,800.7a17.316,17.316,0,0,0-2.908.249,21.035,21.035,0,0,0-41.142,1.424,16.761,16.761,0,0,0-6.5-1.3,16.958,16.958,0,1,0,0,33.916h50.552a17.146,17.146,0,1,0,0-34.292Z" transform="translate(-1543.919 -781.214)" fill="#19468e" opacity="0.1"/>
            <g id="Grupo_1100256" data-name="Grupo 1100256">
              <path id="Trazado_874644" data-name="Trazado 874644" d="M1606.6,792.136a17.146,17.146,0,0,1-17.146,17.146H1538.9a16.958,16.958,0,0,1,0-33.916,16.761,16.761,0,0,1,6.5,1.3,21.035,21.035,0,0,1,41.143-1.424,17.145,17.145,0,0,1,20.054,16.9Z" transform="translate(-1521.946 -759.247)" fill="#0d4ab5"/>
              <path id="Trazado_874645" data-name="Trazado 874645" d="M1776.913,886.079l-7.807-6.622-7.806,6.622h6.332V905.8h2.949v-19.72Z" transform="translate(-1726.437 -861.948)" fill="#fff"/>
            </g>
          </g>
          <g id="Grupo_1100262" data-name="Grupo 1100262" transform="translate(177.352)">
            <path id="Trazado_874646" data-name="Trazado 874646" d="M1610.937,321.993a20.974,20.974,0,0,0,2.356-41.816,21.139,21.139,0,0,1,3.9-5.346,20.812,20.812,0,0,1,3.51-2.8l-.193.212,4.3-1.694-1.164,4.469,3.017-3.5,1.046,4.5,1.046-4.5,3.017,3.5-1.164-4.469,4.3,1.694-3.108-3.416,4.592-.5-4.339-1.581,3.835-2.573-4.577.617,2.2-4.061-3.766,2.673.061-4.618-2.092,4.117-2.092-4.117.061,4.618-3.766-2.673,2.2,4.061-4.577-.617,3.835,2.573-4.339,1.581,2.188.237a23.577,23.577,0,0,0-5.966,4.295,24,24,0,0,0-4.962,7.192,20.972,20.972,0,0,0,.653,41.935Z" transform="translate(-1586.217 -255.048)" fill="#19468e" opacity="0.1"/>
            <g id="Grupo_1100261" data-name="Grupo 1100261">
              <g id="Grupo_1100260" data-name="Grupo 1100260">
                <g id="Grupo_1100258" data-name="Grupo 1100258" transform="translate(19.72 7.684)">
                  <path id="Trazado_874647" data-name="Trazado 874647" d="M1702.231,301.832l-2.591-.964a23.788,23.788,0,0,1,17.439-15.037l.583,2.7a21.025,21.025,0,0,0-15.431,13.3Z" transform="translate(-1699.64 -285.831)" fill="#313639"/>
                </g>
                <circle id="Elipse_11549" data-name="Elipse 11549" cx="20.975" cy="20.975" r="20.975" transform="translate(0 21.249)" fill="#ff8165"/>
                <g id="Grupo_1100259" data-name="Grupo 1100259" transform="translate(6.49 34.462)">
                  <path id="Trazado_874648" data-name="Trazado 874648" d="M1608.81,523.263l3.121-1.007c2.235-.721,3.783.234,3.814,2.45a5.126,5.126,0,0,1-3.681,4.864l-3.1,1.021Zm3.152,4.953a3.061,3.061,0,0,0,2.195-2.991c-.022-1.4-.922-1.983-2.278-1.544l-1.448.469.091,4.539Z" transform="translate(-1608.81 -514.396)" fill="#fff"/>
                  <path id="Trazado_874649" data-name="Trazado 874649" d="M1664.23,505.517l3.072-.991c2.2-.71,3.711.246,3.723,2.45a5.124,5.124,0,0,1-3.654,4.827l-3.047,1Zm3.051,4.938a3.061,3.061,0,0,0,2.18-2.968c-.01-1.393-.888-1.976-2.223-1.544l-1.425.462.05,4.516Z" transform="translate(-1656.158 -499.253)" fill="#fff"/>
                  <path id="Trazado_874650" data-name="Trazado 874650" d="M1716,490.889a5.341,5.341,0,0,1,3.625-4.943c2.08-.671,3.611.423,3.6,2.585a5.353,5.353,0,0,1-3.6,4.9C1717.548,494.12,1716.01,493.04,1716,490.889Zm5.691-1.856c0-1.376-.882-2.032-2.064-1.65a3.153,3.153,0,0,0-2.07,3c0,1.375.894,2.022,2.072,1.635A3.161,3.161,0,0,0,1721.69,489.033Z" transform="translate(-1700.387 -483.409)" fill="#fff"/>
                  <path id="Trazado_874651" data-name="Trazado 874651" d="M1769.89,477.485l.519-1.421a3.022,3.022,0,0,0,2.145.044c.89-.293,1.255-.739,1.258-1.179.011-1.345-3.784.819-3.773-1.863a3.535,3.535,0,0,1,2.773-3.152,3.581,3.581,0,0,1,2.258-.088l-.477,1.422a2.959,2.959,0,0,0-1.8.016c-.9.29-1.244.775-1.247,1.23-.008,1.331,3.784-.818,3.757,1.823a3.567,3.567,0,0,1-2.767,3.123A3.746,3.746,0,0,1,1769.89,477.485Z" transform="translate(-1746.428 -469.681)" fill="#fff"/>
                </g>
                <path id="Trazado_874652" data-name="Trazado 874652" d="M1772.459,237.2l2.092-4.117-.06,4.618,3.765-2.673-2.2,4.061,4.577-.617-3.835,2.573,4.339,1.581-4.591.5,3.109,3.416-4.3-1.694,1.164,4.469-3.017-3.5-1.046,4.5-1.046-4.5-3.018,3.5,1.165-4.469-4.3,1.694,3.108-3.416-4.592-.5,4.34-1.581-3.835-2.573,4.576.617-2.2-4.061,3.765,2.673-.061-4.618Z" transform="translate(-1734.718 -233.079)" fill="#ff8165"/>
              </g>
            </g>
          </g>
          <g id="Grupo_1100265" data-name="Grupo 1100265" transform="translate(0 139.667)">
            <path id="Trazado_874653" data-name="Trazado 874653" d="M418.051,1242.735H385.024v-5.08a12.661,12.661,0,0,1,12.628-12.679,12.448,12.448,0,0,1,8.612,3.583,3.164,3.164,0,0,0,4.109.277l.781-.583a3.158,3.158,0,0,0,.375-4.75l-.026-.026a19.783,19.783,0,0,0-33.768,13.986v5.272h-.675a4.718,4.718,0,0,0-4.718,4.718v14.085a25.214,25.214,0,1,0,50.427-.274v-13.811A4.717,4.717,0,0,0,418.051,1242.735Z" transform="translate(-368.597 -1213.942)" fill="#19468e" opacity="0.1"/>
            <g id="Grupo_1100264" data-name="Grupo 1100264">
              <g id="Grupo_1100263" data-name="Grupo 1100263">
                <path id="Trazado_874654" data-name="Trazado 874654" d="M397.056,1368.663v13.811a25.214,25.214,0,1,1-50.427.274v-14.085a4.719,4.719,0,0,1,4.718-4.718h40.99A4.716,4.716,0,0,1,397.056,1368.663Z" transform="translate(-346.629 -1338.896)" fill="#ffaf1a"/>
                <path id="Trazado_874655" data-name="Trazado 874655" d="M417.08,1202.54l-.781.583a3.163,3.163,0,0,1-4.108-.277,12.448,12.448,0,0,0-8.612-3.583,12.661,12.661,0,0,0-12.628,12.679v5.08h-7.288v-5.272a19.783,19.783,0,0,1,33.768-13.986l.026.026A3.158,3.158,0,0,1,417.08,1202.54Z" transform="translate(-378.268 -1191.973)" fill="#6f6f70"/>
                <path id="Trazado_874656" data-name="Trazado 874656" d="M493.526,1454.871a5.261,5.261,0,0,1-2.712,4.607v6.679a2.606,2.606,0,0,1-2.507,2.634,2.553,2.553,0,0,1-2.6-2.551v-6.767a5.263,5.263,0,1,1,7.817-4.6Z" transform="translate(-463.138 -1412.083)" fill="#fff"/>
              </g>
            </g>
          </g>
          <g id="Grupo_1100286" data-name="Grupo 1100286" transform="translate(240.841 39.98)">
            <path id="Trazado_874657" data-name="Trazado 874657" d="M2103.118,568.381V535.33a2.053,2.053,0,0,0-2.052-2.052H2027.91a2.053,2.053,0,0,0-2.054,2.052v33.051a3.424,3.424,0,0,0,3.423,3.424H2099.7A3.423,3.423,0,0,0,2103.118,568.381Z" transform="translate(-2022.111 -529.533)" fill="#19468e" opacity="0.1"/>
            <g id="Grupo_1100285" data-name="Grupo 1100285">
              <g id="Grupo_1100284" data-name="Grupo 1100284">
                <path id="Trazado_874658" data-name="Trazado 874658" d="M2077.409,509.617v4.932h-77.263v-4.932a2.054,2.054,0,0,1,2.054-2.052h73.156A2.053,2.053,0,0,1,2077.409,509.617Z" transform="translate(-2000.146 -507.565)" fill="#313639"/>
                <path id="Trazado_874659" data-name="Trazado 874659" d="M2077.408,555.515v28.119a3.423,3.423,0,0,1-3.424,3.424h-70.415a3.424,3.424,0,0,1-3.424-3.424V555.515Z" transform="translate(-2000.145 -548.531)" fill="#74abf9"/>
                <circle id="Elipse_11550" data-name="Elipse 11550" cx="1.197" cy="1.197" r="1.197" transform="translate(2.71 2.295)" fill="#fff"/>
                <circle id="Elipse_11551" data-name="Elipse 11551" cx="1.197" cy="1.197" r="1.197" transform="translate(7.011 2.295)" fill="#fff"/>
                <circle id="Elipse_11552" data-name="Elipse 11552" cx="1.197" cy="1.197" r="1.197" transform="translate(11.314 2.295)" fill="#fff"/>
                <path id="Trazado_874660" data-name="Trazado 874660" d="M2180.43,525.714h-49.579a.419.419,0,0,1-.419-.419v-1.557a.419.419,0,0,1,.419-.419h49.579a.419.419,0,0,1,.419.419v1.557A.419.419,0,0,1,2180.43,525.714Z" transform="translate(-2111.455 -521.024)" fill="#fff"/>
                <g id="Grupo_1100267" data-name="Grupo 1100267" transform="translate(4.852 11.557)">
                  <rect id="Rectángulo_402023" data-name="Rectángulo 402023" width="22.061" height="22.061" fill="#fff"/>
                  <g id="Grupo_1100266" data-name="Grupo 1100266" transform="translate(5.935 5.346)">
                    <path id="Trazado_874661" data-name="Trazado 874661" d="M2096.426,626.107a2.668,2.668,0,1,1-5.286,0,2.647,2.647,0,0,1,5.286,0Z" transform="translate(-2088.674 -623.612)" fill="#0d4ab5"/>
                    <path id="Trazado_874662" data-name="Trazado 874662" d="M2076.039,672.144h6.452a1.561,1.561,0,0,0,1.487-1.086l.347-1.085a1.56,1.56,0,0,0-.943-1.941,12.025,12.025,0,0,0-8.122.089,1.555,1.555,0,0,0-1,1.885l.267.985A1.562,1.562,0,0,0,2076.039,672.144Z" transform="translate(-2074.209 -660.995)" fill="#0d4ab5"/>
                  </g>
                </g>
                <path id="Trazado_874663" data-name="Trazado 874663" d="M2249.008,611.287h-41.453a.4.4,0,0,1-.4-.4v-4.416a.4.4,0,0,1,.4-.4h41.453a.4.4,0,0,1,.4.4v4.416A.4.4,0,0,1,2249.008,611.287Z" transform="translate(-2177 -591.717)" fill="#fff"/>
                <path id="Trazado_874664" data-name="Trazado 874664" d="M2249.008,688.578h-41.453a.4.4,0,0,1-.4-.4v-4.416a.4.4,0,0,1,.4-.4h41.453a.4.4,0,0,1,.4.4v4.416A.4.4,0,0,1,2249.008,688.578Z" transform="translate(-2177 -657.75)" fill="#fff"/>
                <g id="Grupo_1100275" data-name="Grupo 1100275" transform="translate(39.355 15.708)">
                  <g id="Grupo_1100274" data-name="Grupo 1100274">
                    <g id="Grupo_1100268" data-name="Grupo 1100268">
                      <path id="Trazado_874665" data-name="Trazado 874665" d="M2272.236,616.661l.689.374-.31.519-.7-.412.012.766h-.595l.006-.772-.7.418-.3-.519.689-.374-.689-.38.3-.519.7.418-.006-.773h.595l-.012.773.7-.418.31.519Z" transform="translate(-2270.343 -615.407)" fill="#0d4ab5"/>
                    </g>
                    <g id="Grupo_1100269" data-name="Grupo 1100269" transform="translate(3.793)">
                      <path id="Trazado_874666" data-name="Trazado 874666" d="M2298.276,616.661l.69.374-.31.519-.7-.412.012.766h-.595l.006-.772-.7.418-.3-.519.69-.374-.69-.38.3-.519.7.418-.006-.773h.595l-.012.773.7-.418.31.519Z" transform="translate(-2296.383 -615.407)" fill="#0d4ab5"/>
                    </g>
                    <g id="Grupo_1100270" data-name="Grupo 1100270" transform="translate(7.586)">
                      <path id="Trazado_874667" data-name="Trazado 874667" d="M2324.316,616.661l.69.374-.31.519-.7-.412.012.766h-.595l.006-.772-.7.418-.3-.519.69-.374-.69-.38.3-.519.7.418-.006-.773h.595l-.012.773.7-.418.31.519Z" transform="translate(-2322.423 -615.407)" fill="#0d4ab5"/>
                    </g>
                    <g id="Grupo_1100271" data-name="Grupo 1100271" transform="translate(11.377)">
                      <path id="Trazado_874668" data-name="Trazado 874668" d="M2350.346,616.661l.69.374-.31.519-.7-.412.012.766h-.595l.006-.772-.7.418-.3-.519.69-.374-.69-.38.3-.519.7.418-.006-.773h.595l-.012.773.7-.418.31.519Z" transform="translate(-2348.453 -615.407)" fill="#0d4ab5"/>
                    </g>
                    <g id="Grupo_1100272" data-name="Grupo 1100272" transform="translate(15.17)">
                      <path id="Trazado_874669" data-name="Trazado 874669" d="M2376.386,616.661l.689.374-.31.519-.7-.412.013.766h-.595l.006-.772-.7.418-.3-.519.689-.374-.689-.38.3-.519.7.418-.006-.773h.595l-.013.773.7-.418.31.519Z" transform="translate(-2374.493 -615.407)" fill="#0d4ab5"/>
                    </g>
                    <g id="Grupo_1100273" data-name="Grupo 1100273" transform="translate(18.961)">
                      <path id="Trazado_874670" data-name="Trazado 874670" d="M2402.416,616.661l.69.374-.31.519-.7-.412.012.766h-.595l.006-.772-.7.418-.3-.519.69-.374-.69-.38.3-.519.7.418-.006-.773h.595l-.012.773.7-.418.31.519Z" transform="translate(-2400.523 -615.407)" fill="#0d4ab5"/>
                    </g>
                  </g>
                </g>
                <g id="Grupo_1100283" data-name="Grupo 1100283" transform="translate(40.509 26.965)">
                  <g id="Grupo_1100282" data-name="Grupo 1100282">
                    <g id="Grupo_1100276" data-name="Grupo 1100276">
                      <path id="Trazado_874671" data-name="Trazado 874671" d="M2280.156,693.952l.69.374-.31.519-.7-.412.013.766h-.595l.006-.772-.7.418-.3-.519.69-.374-.69-.38.3-.519.7.418-.006-.773h.595l-.013.773.7-.418.31.519Z" transform="translate(-2278.263 -692.698)" fill="#0d4ab5"/>
                    </g>
                    <g id="Grupo_1100277" data-name="Grupo 1100277" transform="translate(3.793)">
                      <path id="Trazado_874672" data-name="Trazado 874672" d="M2306.2,693.952l.69.374-.31.519-.7-.412.012.766h-.594l.006-.772-.7.418-.3-.519.69-.374-.69-.38.3-.519.7.418-.006-.773h.594l-.012.773.7-.418.31.519Z" transform="translate(-2304.303 -692.698)" fill="#0d4ab5"/>
                    </g>
                    <g id="Grupo_1100278" data-name="Grupo 1100278" transform="translate(7.584)">
                      <path id="Trazado_874673" data-name="Trazado 874673" d="M2332.226,693.952l.69.374-.31.519-.7-.412.012.766h-.594l.006-.772-.7.418-.3-.519.689-.374-.689-.38.3-.519.7.418-.006-.773h.594l-.012.773.7-.418.31.519Z" transform="translate(-2330.333 -692.698)" fill="#0d4ab5"/>
                    </g>
                    <g id="Grupo_1100279" data-name="Grupo 1100279" transform="translate(11.377)">
                      <path id="Trazado_874674" data-name="Trazado 874674" d="M2358.266,693.952l.69.374-.31.519-.7-.412.012.766h-.595l.006-.772-.7.418-.3-.519.69-.374-.69-.38.3-.519.7.418-.006-.773h.595l-.012.773.7-.418.31.519Z" transform="translate(-2356.373 -692.698)" fill="#0d4ab5"/>
                    </g>
                    <g id="Grupo_1100280" data-name="Grupo 1100280" transform="translate(15.17)">
                      <path id="Trazado_874675" data-name="Trazado 874675" d="M2384.306,693.952l.69.374-.31.519-.7-.412.013.766h-.595l.006-.772-.7.418-.3-.519.69-.374-.69-.38.3-.519.7.418-.006-.773H2384l-.013.773.7-.418.31.519Z" transform="translate(-2382.413 -692.698)" fill="#0d4ab5"/>
                    </g>
                    <g id="Grupo_1100281" data-name="Grupo 1100281" transform="translate(18.961)">
                      <path id="Trazado_874676" data-name="Trazado 874676" d="M2410.336,693.952l.69.374-.31.519-.7-.412.012.766h-.595l.006-.772-.7.418-.3-.519.69-.374-.69-.38.3-.519.7.418-.006-.773h.595l-.012.773.7-.418.31.519Z" transform="translate(-2408.443 -692.698)" fill="#0d4ab5"/>
                    </g>
                  </g>
                </g>
              </g>
            </g>
          </g>
          <g id="Grupo_1100295" data-name="Grupo 1100295" transform="translate(108.569 14.604)">
            <path id="Trazado_874677" data-name="Trazado 874677" d="M1162.04,359.055h-40.294a4.012,4.012,0,0,0-4.011,4.013v28.594a4.012,4.012,0,0,0,4.011,4.013h40.294a4.012,4.012,0,0,0,4.011-4.013V363.068A4.012,4.012,0,0,0,1162.04,359.055Z" transform="translate(-1113.989 -355.31)" fill="#19468e" opacity="0.1"/>
            <g id="Grupo_1100294" data-name="Grupo 1100294">
              <g id="Grupo_1100293" data-name="Grupo 1100293">
                <path id="Trazado_874678" data-name="Trazado 874678" d="M1092.02,370.9v27.136a4.013,4.013,0,0,0,4.011,4.013h40.294a4.013,4.013,0,0,0,4.011-4.013V370.9Z" transform="translate(-1092.02 -365.434)" fill="#ff8165"/>
                <path id="Trazado_874679" data-name="Trazado 874679" d="M1140.34,337.355v1.458h-48.318v-1.458a4.012,4.012,0,0,1,4.011-4.013h40.294A4.013,4.013,0,0,1,1140.34,337.355Z" transform="translate(-1092.022 -333.342)" fill="#313639"/>
                <g id="Grupo_1100291" data-name="Grupo 1100291" transform="translate(9.921 13.493)">
                  <g id="Grupo_1100289" data-name="Grupo 1100289" transform="translate(0 0.771)">
                    <g id="Grupo_1100287" data-name="Grupo 1100287" transform="translate(0 0)">
                      <path id="Trazado_874680" data-name="Trazado 874680" d="M1167.083,442.188a1.2,1.2,0,0,1,0,1.643,1.088,1.088,0,0,1-1.579,0l-5.044-5.243a1.2,1.2,0,0,1,0-1.643l5.128-5.329a1.086,1.086,0,0,1,1.579,0,1.192,1.192,0,0,1,0,1.641l-4.337,4.509Z" transform="translate(-1160.133 -431.277)" fill="#fff"/>
                    </g>
                    <g id="Grupo_1100288" data-name="Grupo 1100288" transform="translate(21.113)">
                      <path id="Trazado_874681" data-name="Trazado 874681" d="M1312.45,437.767a1.187,1.187,0,0,1-.327.821l-5.044,5.243a1.088,1.088,0,0,1-1.579,0,1.194,1.194,0,0,1,0-1.643l4.254-4.421-4.34-4.509a1.193,1.193,0,0,1,0-1.641,1.089,1.089,0,0,1,1.581,0l5.128,5.329A1.187,1.187,0,0,1,1312.45,437.767Z" transform="translate(-1305.086 -431.277)" fill="#fff"/>
                    </g>
                  </g>
                  <g id="Grupo_1100290" data-name="Grupo 1100290" transform="translate(10.618)">
                    <path id="Trazado_874682" data-name="Trazado 874682" d="M1240.19,427.581l-5.007,12.784a1.118,1.118,0,0,1-1.036.723,1.088,1.088,0,0,1-.42-.086,1.179,1.179,0,0,1-.614-1.512l5.007-12.782a1.1,1.1,0,0,1,1.456-.638A1.176,1.176,0,0,1,1240.19,427.581Z" transform="translate(-1233.031 -425.982)" fill="#fff"/>
                  </g>
                </g>
                <g id="Grupo_1100292" data-name="Grupo 1100292" transform="translate(4.04 1.112)">
                  <circle id="Elipse_11553" data-name="Elipse 11553" cx="1.151" cy="1.151" r="1.151" transform="matrix(0.687, -0.726, 0.726, 0.687, 0, 1.672)" fill="#fff"/>
                  <ellipse id="Elipse_11554" data-name="Elipse 11554" cx="1.151" cy="1.151" rx="1.151" ry="1.151" transform="translate(3.607 2.575) rotate(-80.782)" fill="#fff"/>
                  <ellipse id="Elipse_11555" data-name="Elipse 11555" cx="1.151" cy="1.151" rx="1.151" ry="1.151" transform="translate(6.897 2.574) rotate(-80.782)" fill="#fff"/>
                </g>
              </g>
            </g>
          </g>
          <g id="Grupo_1100300" data-name="Grupo 1100300" transform="translate(31.983 65.498)">
            <path id="Trazado_874683" data-name="Trazado 874683" d="M594.951,750.706h59.716a3.029,3.029,0,0,0,3.029-3.029V711.505a3.029,3.029,0,0,0-3.029-3.029H594.951a3.029,3.029,0,0,0-3.029,3.029v36.171A3.029,3.029,0,0,0,594.951,750.706Z" transform="translate(-588.177 -704.731)" fill="#19468e" opacity="0.1"/>
            <g id="Grupo_1100299" data-name="Grupo 1100299">
              <g id="Grupo_1100298" data-name="Grupo 1100298">
                <g id="Grupo_1100297" data-name="Grupo 1100297">
                  <g id="Grupo_1100296" data-name="Grupo 1100296">
                    <path id="Trazado_874684" data-name="Trazado 874684" d="M630.925,724.993H567.271a1.06,1.06,0,0,1-1.06-1.06V683.824a1.06,1.06,0,0,1,1.06-1.06h63.654a1.06,1.06,0,0,1,1.06,1.06v40.109A1.06,1.06,0,0,1,630.925,724.993Z" transform="translate(-566.211 -682.764)" fill="#0d4ab5"/>
                    <path id="Trazado_874685" data-name="Trazado 874685" d="M631.62,785.1h-9.808a.405.405,0,0,1-.405-.405v-7.045a.405.405,0,0,1,.405-.405h9.807a.405.405,0,0,1,.405.405V784.7A.405.405,0,0,1,631.62,785.1Z" transform="translate(-613.367 -763.487)" fill="#ecf4ff"/>
                  </g>
                  <rect id="Rectángulo_402024" data-name="Rectángulo 402024" width="9.564" height="2.74" transform="translate(7.599 24.664)" fill="#c5d8fc"/>
                  <rect id="Rectángulo_402025" data-name="Rectángulo 402025" width="9.564" height="2.74" transform="translate(21.421 24.664)" fill="#c5d8fc"/>
                  <rect id="Rectángulo_402026" data-name="Rectángulo 402026" width="9.564" height="2.74" transform="translate(35.243 24.664)" fill="#c5d8fc"/>
                  <rect id="Rectángulo_402027" data-name="Rectángulo 402027" width="27.558" height="2.473" transform="translate(7.392 34.466)" fill="#ecf4ff"/>
                  <rect id="Rectángulo_402028" data-name="Rectángulo 402028" width="13.044" height="2.473" transform="translate(48.177 34.466)" fill="#ecf4ff"/>
                  <rect id="Rectángulo_402029" data-name="Rectángulo 402029" width="9.564" height="2.74" transform="translate(49.064 24.664)" fill="#c5d8fc"/>
                </g>
              </g>
            </g>
          </g>
          <g id="Grupo_1100306" data-name="Grupo 1100306" transform="translate(70.422 70.696)">
            <g id="Grupo_1100304" data-name="Grupo 1100304">
              <path id="Trazado_874686" data-name="Trazado 874686" d="M1181.495,736.337c-2.088,2.556-5.134,3.118-7.389,3.348-.332.025-.647.058-.938.081a23.454,23.454,0,0,1-10.233-1.816,21.613,21.613,0,0,0-4.3-1.482,19.673,19.673,0,0,0-3.981-.457c.1.52.942,5.119-2.179,8.335a8.48,8.48,0,0,1-3.755,2.207,4.253,4.253,0,0,0-4.146-2.39c-2.212.262-3.618,2.608-3.454,4.7a4.7,4.7,0,0,0,3.566,4.1c-.511,2.734-1.015,5.468-1.527,8.2a15.63,15.63,0,0,1-2.57-2.378c-2.257-2.611-3-5.224-3.993-8.923a35.182,35.182,0,0,1-1.608-11.71c.161-3.408.3-6.307,2.137-9.483a17.08,17.08,0,0,1,6.625-6.251,17.275,17.275,0,0,1,7.843-2.438,16.6,16.6,0,0,1,4.806.44c.112-.081.226-.145.347-.217,3.5-2.052,9.126-2.778,12.547.432a8.082,8.082,0,0,1,1.794,2.526c1.64-.683,5.962-2.235,9.214.126a8.282,8.282,0,0,1,2.989,5.382A9.835,9.835,0,0,1,1181.495,736.337Z" transform="translate(-1090.551 -718.447)" fill="#122a4f"/>
              <path id="Trazado_874687" data-name="Trazado 874687" d="M1189.381,842.709c-.43,3.2-.68,5.851-.84,7.792-.4,5-.3,6.849-1,9.809-.886,3.736-1.444,6.223-3.56,8.38a11.512,11.512,0,0,1-5.487,3.052,16.746,16.746,0,0,1-5.111.45,16.2,16.2,0,0,1-10.7-5.234,21.488,21.488,0,0,0,11.065,12.5,20.074,20.074,0,0,0,6.629,1.723,163.768,163.768,0,0,0,4.646,16.232l-32.191-3.123q2.789-15.053,5.6-30.1c.512-2.734,1.015-5.468,1.527-8.2a4.705,4.705,0,0,1-3.566-4.1c-.164-2.092,1.242-4.438,3.454-4.7a4.253,4.253,0,0,1,4.146,2.39,8.483,8.483,0,0,0,3.755-2.207c3.121-3.216,2.28-7.815,2.179-8.335a19.666,19.666,0,0,1,3.981.457,21.6,21.6,0,0,1,4.3,1.482,23.455,23.455,0,0,0,10.233,1.816C1188.735,842.767,1189.049,842.734,1189.381,842.709Z" transform="translate(-1105.826 -821.47)" fill="#ffa6aa"/>
              <g id="Grupo_1100303" data-name="Grupo 1100303" transform="translate(0 55.425)">
                <g id="Grupo_1100301" data-name="Grupo 1100301" transform="translate(96.559 40.354)">
                  <path id="Trazado_874688" data-name="Trazado 874688" d="M1583.634,1377.226a4.125,4.125,0,0,1-.919,2.964c-1.126,1.126-2.679.634-6.563.729-4.787.127-6.547.983-7.387,1.49-1.268.729-2.632,1.934-2.409,2.488.444,1.015,6.04-1.157,6.927.365.412.7-.349,1.839-.729,2.409a8.4,8.4,0,0,1-4.153,2.949c-4.565,1.9-5.231,1.442-7.212,2.584-2.061,1.2-2.3,2.266-4.613,4.8-2.219,2.441-4.105,3.757-7.672,6.277-6.008,4.249-11.492,6.388-20.861,9.971-10.161,3.884-12.713,4.026-14.5,3.979a26.326,26.326,0,0,1-11.445-3.139,30.294,30.294,0,0,1-9.035-7.149c.015-.571.032-1.141.032-1.728q.118-8.441.126-16.739a34.7,34.7,0,0,0,10.161-6.816c.7-.682,1.347-1.363,1.918-2.045a46.533,46.533,0,0,0,10.1,16.375,25.468,25.468,0,0,0,8.132,1.474c3.361.048,5.691-.634,11.715-2.679,11.017-3.741,16.581-5.643,18.943-7.561,1.664-1.363,3.233-2.98,7.386-6.293,3.963-3.155,5.152-3.773,5.992-4.153a20.806,20.806,0,0,1,9.416-1.743A22.788,22.788,0,0,1,1583.634,1377.226Z" transform="translate(-1493.056 -1376.02)" fill="#ffa6aa"/>
                  <path id="Trazado_874689" data-name="Trazado 874689" d="M1556.833,1524.89c-.078.1-.165.194-.262.3-2.223,2.446-4.106,3.756-7.678,6.28-6.009,4.252-11.493,6.387-20.86,9.969-10.163,3.883-12.717,4.028-14.5,3.98a26.266,26.266,0,0,1-11.445-3.135,30.487,30.487,0,0,1-9.037-7.154c.019-.573.029-1.136.029-1.728q.044-2.81.058-5.62a37.627,37.627,0,0,0,3.029,3.718c2.291,2.475,6.29,6.8,12.425,8.581,5.4,1.573,9.775.4,16.89-1.495,3.98-1.058,7.348-2.33,18.463-7.523C1547.379,1529.462,1551.747,1527.384,1556.833,1524.89Z" transform="translate(-1493.048 -1503.206)" fill="#f2949b"/>
                  <path id="Trazado_874690" data-name="Trazado 874690" d="M1508.385,1413.053s.01.01,0,.01a37.767,37.767,0,0,1-14.473,10.086q.029-3.363.029-6.7a34.775,34.775,0,0,0,10.163-6.815c.7-.689,1.349-1.369,1.922-2.048A48.72,48.72,0,0,0,1508.385,1413.053Z" transform="translate(-1493.786 -1402.99)" fill="#f2949b"/>
                </g>
                <path id="Trazado_874691" data-name="Trazado 874691" d="M1474.91,1297.67a173.965,173.965,0,0,1,3.339,25.85" transform="translate(-1380.993 -1268.728)" fill="none" stroke="#ff797d" stroke-miterlimit="10" stroke-width="2.333"/>
                <path id="Trazado_874692" data-name="Trazado 874692" d="M977.757,1142.138c-.727.911-1.606,1.924-2.641,3l-.01.01a40.981,40.981,0,0,1-12,8.617h-.01c.113,1.944.163,3.746.2,5.4.011.45.011.9.021,1.331.021,1.556.01,3.04-.01,4.5v.01c-.031,2.364-.113,4.667-.2,7v.021c-.256,6.448-.635,13.213-.573,22.8h-82.2c.164-.931.338-1.863.512-2.8.215-1.136.43-2.272.645-3.418v-.01q.614-3.27,1.31-6.591c.389-1.924.8-3.869,1.228-5.813.256-1.177.512-2.364.788-3.551.164-.778.338-1.566.522-2.354.123-.522.235-1.023.368-1.535v-.021q.675-2.947,1.392-5.813c.112-.46.235-.931.348-1.392v-.031a.147.147,0,0,1,.02-.061.091.091,0,0,1,.01-.051c.112-.42.215-.839.317-1.259l.021-.051v-.021c.092-.369.184-.747.286-1.116q.43-1.689.859-3.347.783-2.993,1.587-5.915c-.491-.164-.982-.328-1.484-.522-.348-.123-.7-.256-1.054-.4-.43-.174-.859-.358-1.3-.553a2.071,2.071,0,0,1-.225-.092c-.348-.153-.7-.328-1.054-.481l-.03-.031c-.4-.195-.808-.4-1.208-.6a.037.037,0,0,0-.02-.01c-.266-.153-.532-.286-.8-.45-.583-.328-1.166-.665-1.74-1.044s-1.156-.757-1.729-1.167c-.287-.2-.573-.41-.859-.635s-.574-.44-.85-.665-.573-.461-.85-.706a35.687,35.687,0,0,1-3.93-3.961c-.164-.184-.318-.379-.471-.563l-.021-.021c-.348-.409-.675-.839-.982-1.238q2-4.207,4.289-8.566c3.08-5.844,6.263-11.268,9.467-16.273a17.06,17.06,0,0,1,5.762-5.547,53.027,53.027,0,0,1,23.14-7.184c.3.665.655,1.4,1.085,2.18a25.973,25.973,0,0,0,9.938,10.3c2.937,1.668,8.443,4.79,13.356,2.5a9.531,9.531,0,0,0,3.459-2.8,15.447,15.447,0,0,0,3.019-8.024,59.284,59.284,0,0,1,7.144,2.978,63.845,63.845,0,0,1,8.454,5.025,16.977,16.977,0,0,1,5.731,6.918Q972.267,1130.086,977.757,1142.138Z" transform="translate(-865.851 -1098.969)" fill="#313639"/>
                <path id="Trazado_874693" data-name="Trazado 874693" d="M937.841,1374.9c-.174.952-.358,1.955-.553,3.019a134.936,134.936,0,0,0-2.17,14.625,32.721,32.721,0,0,0-.01,4.472h-5.547c.164-.931.338-1.863.512-2.8.215-1.136.43-2.272.645-3.418v-.01q.614-3.27,1.31-6.591c.389-1.924.8-3.868,1.228-5.813.256-1.177.512-2.364.788-3.551.174-.778.348-1.566.532-2.354.112-.512.235-1.023.358-1.535v-.01c.461-1.965.921-3.9,1.392-5.823.112-.46.235-.931.348-1.392v-.031h.01c0-.021.01-.041.01-.061a.092.092,0,0,1,.01-.051c.113-.42.215-.839.318-1.259l.02-.051v-.021c.092-.368.185-.747.286-1.116q.43-1.688.86-3.347.783-2.994,1.587-5.916c1.546-5.608,3.142-11.043,4.769-16.242a16.762,16.762,0,0,1,2.886,7.021c.9,5.762-2.579,9.794-5.271,15.393-1.413,2.948-2.3,6.386-3.347,11.718-.01.01-.01.01,0,.021C938.506,1371.309,938.188,1373.007,937.841,1374.9Z" transform="translate(-915.076 -1301.151)" fill="#212224"/>
                <g id="Grupo_1100302" data-name="Grupo 1100302" transform="translate(0 38.683)">
                  <path id="Trazado_874694" data-name="Trazado 874694" d="M832.6,1404.363a23.54,23.54,0,0,0,8.931,8.95,38.716,38.716,0,0,0,4.232,2.194,71.391,71.391,0,0,0,10.144,3.562c10.892,3.068,22.987,3.718,33.713-.417,2.106-.825,3.931-1.738,6.377-1.33,2.311.408,2.456,1.534,5.562,2.893a15.544,15.544,0,0,0,8.95,1.32,12.64,12.64,0,0,0,3.233-1.048,13.868,13.868,0,0,0,2.145-1.233c-.262-.272-.65-.66-1.116-1.107-.311-.3-.641-.592-.951-.854a33.143,33.143,0,0,0-5.883-4.116,40.233,40.233,0,0,0-7.542-3.339,26.3,26.3,0,0,0-4.475-1.039h-.02c-.864-.116-1.689-.184-2.5-.214-.388-.02-.786-.029-1.184-.039h-.175c-1.961-.029-4.029.01-6.727-.272-.233-.029-.476-.058-.728-.1a26.325,26.325,0,0,1-3.349-.738c-.631-.175-1.291-.369-1.99-.592-3.184-1.019-7.271-2.562-12.968-4.708,0,0-.534-.2-1.388-.573-.214-.1-.456-.2-.709-.311l-.815-.378c-.68-.322-1.446-.7-2.246-1.13a35.668,35.668,0,0,1-4.734-2.986c-.165-.117-.33-.252-.485-.379a18.156,18.156,0,0,1-2.164-2.038c-.078-.088-.155-.185-.233-.272a.145.145,0,0,1-.039-.039c-.126-.155-.243-.3-.349-.446a1.638,1.638,0,0,1-.127-.194,5.3,5.3,0,0,1-.3-.456,3.35,3.35,0,0,1-.253-.437,6.416,6.416,0,0,1-.737-2.252,7.849,7.849,0,0,1-.019-1.5c.009-.107.029-.213.039-.31a.036.036,0,0,1,.009-.029,7.387,7.387,0,0,1,.32-1.34l.039-.088v-.019q1.34-5.285,2.737-10.377a40.763,40.763,0,0,1-5.145-2.077,3.464,3.464,0,0,0-1.165-.592,36.855,36.855,0,0,1-6.892-4.689,35.361,35.361,0,0,1-4.4-4.523c-.01.01-.01,0-.01,0l-.2-.145c-.417,1.155-.8,2.262-1.165,3.32-1.058,3.116-1.9,5.911-2.572,8.3C830.751,1385.065,827.984,1395.743,832.6,1404.363Z" transform="translate(-830.114 -1364.554)" fill="#ffa6aa"/>
                  <path id="Trazado_874695" data-name="Trazado 874695" d="M955.31,1437.937c-.291,1.058-1.8,6.61-1.495,10.493a12.89,12.89,0,0,0,1.806,5.572,29.233,29.233,0,0,0,1.873,2.737c5.514,7.29,15.211,9.008,22.026,10.144a74.45,74.45,0,0,0,22.025.271c-.864-.116-1.689-.184-2.5-.214-.388-.019-.786-.029-1.184-.039h-.175c-1.971-.039-4.029,0-6.718-.282l-.738-.087a26.315,26.315,0,0,1-3.349-.738c-.631-.165-1.291-.369-1.99-.592-3.184-1.02-7.271-2.563-12.969-4.708,0,0-.534-.2-1.388-.573-.223-.1-.457-.194-.709-.311l-.815-.378a39.756,39.756,0,0,1-6.98-4.116c-.165-.117-.33-.252-.485-.379a16.844,16.844,0,0,1-2.174-2.038c-.078-.088-.155-.184-.223-.272-.019-.01-.029-.029-.039-.039-.126-.155-.243-.3-.349-.446a1.635,1.635,0,0,1-.127-.194,5.284,5.284,0,0,1-.3-.456,3.352,3.352,0,0,1-.253-.437,6.415,6.415,0,0,1-.737-2.252,7.858,7.858,0,0,1-.019-1.5c.019-.116.029-.233.048-.34a7.379,7.379,0,0,1,.32-1.34l.039-.087v-.019q1.34-5.285,2.737-10.377a40.754,40.754,0,0,1-5.145-2.077,2.089,2.089,0,0,1,.679.815C956.465,1434.657,956.019,1435.375,955.31,1437.937Z" transform="translate(-935.764 -1422.911)" fill="#f2949b"/>
                  <path id="Trazado_874696" data-name="Trazado 874696" d="M869.409,1367.867a16.218,16.218,0,0,0,5.746,4.213c2.786,1.2,5.271,1.281,6.921,1.825a36.861,36.861,0,0,1-6.892-4.689,35.349,35.349,0,0,1-4.4-4.523c-.01.01-.01,0-.01,0l-.2-.146C870.156,1365.7,869.778,1366.809,869.409,1367.867Z" transform="translate(-863.686 -1364.547)" fill="#f2949b"/>
                </g>
              </g>
              <path id="Trazado_874697" data-name="Trazado 874697" d="M1195.677,1102.211c-.522,5.066-2.927,9.16-6.478,10.828-4.912,2.292-10.418-.829-13.356-2.5a26.686,26.686,0,0,1-11.022-12.476,77.844,77.844,0,0,1,12.946.318A75.85,75.85,0,0,1,1195.677,1102.211Z" transform="translate(-1116.07 -1042.645)" fill="#ffa6aa"/>
              <path id="Trazado_874698" data-name="Trazado 874698" d="M1238.165,1044.97a20.078,20.078,0,0,1-6.629-1.723,21.489,21.489,0,0,1-11.065-12.5,16.2,16.2,0,0,0,10.7,5.234,16.739,16.739,0,0,0,5.111-.45q.593,3.57,1.412,7.328C1237.844,1043.57,1238,1044.271,1238.165,1044.97Z" transform="translate(-1163.614 -985.26)" fill="#ff797d"/>
            </g>
            <g id="Grupo_1100305" data-name="Grupo 1100305" transform="translate(61.698 75.942)">
              <path id="Trazado_874699" data-name="Trazado 874699" d="M1361.842,1712.44H1253.71a6.794,6.794,0,0,0,6.794,6.794H1385.37a6.8,6.8,0,0,0,6.794-6.794Z" transform="translate(-1253.71 -1643.602)" fill="#838383"/>
              <path id="Trazado_874700" data-name="Trazado 874700" d="M1634.836,1239.83h-92.9a2.932,2.932,0,0,0-2.868,2.328l-13.932,66.509h98.885l12.738-60.823.941-4.489A2.926,2.926,0,0,0,1634.836,1239.83Z" transform="translate(-1485.602 -1239.83)" fill="#d8d8d8"/>
              <ellipse id="Elipse_11556" data-name="Elipse 11556" cx="5.828" cy="4.647" rx="5.828" ry="4.647" transform="translate(91.313 34.846) rotate(-41.761)" fill="#f1f2f7"/>
            </g>
          </g>
          <path id="Trazado_874701" data-name="Trazado 874701" d="M1269.272,885.549c-.017.176-.031.345-.045.511-.273,3.43-.314,5.379-.538,7.225-5.362.424-12.4-.231-17.8-5.037a19.256,19.256,0,0,1-3.613-4.337,7.668,7.668,0,0,0,1.166-.983,7.821,7.821,0,0,0,1.536-2.274,30.728,30.728,0,0,0,19.3,4.9Z" transform="translate(-1116.09 -786.331)" fill="#313639"/>
        </g>
      </g>
    </g>
  </g>
</svg>
